G75*
%MOIN*%
%OFA0B0*%
%FSLAX25Y25*%
%IPPOS*%
%LPD*%
%AMOC8*
5,1,8,0,0,1.08239X$1,22.5*
%
%ADD10C,0.00400*%
%ADD11R,0.04731X0.05518*%
%ADD12R,0.02172X0.06896*%
%ADD13R,0.06699X0.16935*%
%ADD14R,0.05518X0.04731*%
%ADD15R,0.07487X0.06699*%
%ADD16R,0.04731X0.04731*%
%ADD17C,0.09061*%
%ADD18OC8,0.09061*%
%ADD19R,0.03156X0.07290*%
%ADD20R,0.02762X0.03550*%
%ADD21C,0.06337*%
%ADD22R,0.07290X0.03156*%
%ADD23C,0.28746*%
D10*
X0001394Y0009268D02*
X0001394Y0288795D01*
X0001396Y0288985D01*
X0001403Y0289175D01*
X0001415Y0289365D01*
X0001431Y0289555D01*
X0001451Y0289744D01*
X0001477Y0289933D01*
X0001506Y0290121D01*
X0001541Y0290308D01*
X0001580Y0290494D01*
X0001623Y0290679D01*
X0001671Y0290864D01*
X0001723Y0291047D01*
X0001779Y0291228D01*
X0001840Y0291408D01*
X0001906Y0291587D01*
X0001975Y0291764D01*
X0002049Y0291940D01*
X0002127Y0292113D01*
X0002210Y0292285D01*
X0002296Y0292454D01*
X0002386Y0292622D01*
X0002481Y0292787D01*
X0002579Y0292950D01*
X0002682Y0293110D01*
X0002788Y0293268D01*
X0002898Y0293423D01*
X0003011Y0293576D01*
X0003129Y0293726D01*
X0003250Y0293872D01*
X0003374Y0294016D01*
X0003502Y0294157D01*
X0003633Y0294295D01*
X0003768Y0294430D01*
X0003906Y0294561D01*
X0004047Y0294689D01*
X0004191Y0294813D01*
X0004337Y0294934D01*
X0004487Y0295052D01*
X0004640Y0295165D01*
X0004795Y0295275D01*
X0004953Y0295381D01*
X0005113Y0295484D01*
X0005276Y0295582D01*
X0005441Y0295677D01*
X0005609Y0295767D01*
X0005778Y0295853D01*
X0005950Y0295936D01*
X0006123Y0296014D01*
X0006299Y0296088D01*
X0006476Y0296157D01*
X0006655Y0296223D01*
X0006835Y0296284D01*
X0007016Y0296340D01*
X0007199Y0296392D01*
X0007384Y0296440D01*
X0007569Y0296483D01*
X0007755Y0296522D01*
X0007942Y0296557D01*
X0008130Y0296586D01*
X0008319Y0296612D01*
X0008508Y0296632D01*
X0008698Y0296648D01*
X0008888Y0296660D01*
X0009078Y0296667D01*
X0009268Y0296669D01*
X0229740Y0296669D01*
X0229930Y0296667D01*
X0230120Y0296660D01*
X0230310Y0296648D01*
X0230500Y0296632D01*
X0230689Y0296612D01*
X0230878Y0296586D01*
X0231066Y0296557D01*
X0231253Y0296522D01*
X0231439Y0296483D01*
X0231624Y0296440D01*
X0231809Y0296392D01*
X0231992Y0296340D01*
X0232173Y0296284D01*
X0232353Y0296223D01*
X0232532Y0296157D01*
X0232709Y0296088D01*
X0232885Y0296014D01*
X0233058Y0295936D01*
X0233230Y0295853D01*
X0233399Y0295767D01*
X0233567Y0295677D01*
X0233732Y0295582D01*
X0233895Y0295484D01*
X0234055Y0295381D01*
X0234213Y0295275D01*
X0234368Y0295165D01*
X0234521Y0295052D01*
X0234671Y0294934D01*
X0234817Y0294813D01*
X0234961Y0294689D01*
X0235102Y0294561D01*
X0235240Y0294430D01*
X0235375Y0294295D01*
X0235506Y0294157D01*
X0235634Y0294016D01*
X0235758Y0293872D01*
X0235879Y0293726D01*
X0235997Y0293576D01*
X0236110Y0293423D01*
X0236220Y0293268D01*
X0236326Y0293110D01*
X0236429Y0292950D01*
X0236527Y0292787D01*
X0236622Y0292622D01*
X0236712Y0292454D01*
X0236798Y0292285D01*
X0236881Y0292113D01*
X0236959Y0291940D01*
X0237033Y0291764D01*
X0237102Y0291587D01*
X0237168Y0291408D01*
X0237229Y0291228D01*
X0237285Y0291047D01*
X0237337Y0290864D01*
X0237385Y0290679D01*
X0237428Y0290494D01*
X0237467Y0290308D01*
X0237502Y0290121D01*
X0237531Y0289933D01*
X0237557Y0289744D01*
X0237577Y0289555D01*
X0237593Y0289365D01*
X0237605Y0289175D01*
X0237612Y0288985D01*
X0237614Y0288795D01*
X0237614Y0009268D01*
X0237612Y0009078D01*
X0237605Y0008888D01*
X0237593Y0008698D01*
X0237577Y0008508D01*
X0237557Y0008319D01*
X0237531Y0008130D01*
X0237502Y0007942D01*
X0237467Y0007755D01*
X0237428Y0007569D01*
X0237385Y0007384D01*
X0237337Y0007199D01*
X0237285Y0007016D01*
X0237229Y0006835D01*
X0237168Y0006655D01*
X0237102Y0006476D01*
X0237033Y0006299D01*
X0236959Y0006123D01*
X0236881Y0005950D01*
X0236798Y0005778D01*
X0236712Y0005609D01*
X0236622Y0005441D01*
X0236527Y0005276D01*
X0236429Y0005113D01*
X0236326Y0004953D01*
X0236220Y0004795D01*
X0236110Y0004640D01*
X0235997Y0004487D01*
X0235879Y0004337D01*
X0235758Y0004191D01*
X0235634Y0004047D01*
X0235506Y0003906D01*
X0235375Y0003768D01*
X0235240Y0003633D01*
X0235102Y0003502D01*
X0234961Y0003374D01*
X0234817Y0003250D01*
X0234671Y0003129D01*
X0234521Y0003011D01*
X0234368Y0002898D01*
X0234213Y0002788D01*
X0234055Y0002682D01*
X0233895Y0002579D01*
X0233732Y0002481D01*
X0233567Y0002386D01*
X0233399Y0002296D01*
X0233230Y0002210D01*
X0233058Y0002127D01*
X0232885Y0002049D01*
X0232709Y0001975D01*
X0232532Y0001906D01*
X0232353Y0001840D01*
X0232173Y0001779D01*
X0231992Y0001723D01*
X0231809Y0001671D01*
X0231624Y0001623D01*
X0231439Y0001580D01*
X0231253Y0001541D01*
X0231066Y0001506D01*
X0230878Y0001477D01*
X0230689Y0001451D01*
X0230500Y0001431D01*
X0230310Y0001415D01*
X0230120Y0001403D01*
X0229930Y0001396D01*
X0229740Y0001394D01*
X0009268Y0001394D01*
X0009078Y0001396D01*
X0008888Y0001403D01*
X0008698Y0001415D01*
X0008508Y0001431D01*
X0008319Y0001451D01*
X0008130Y0001477D01*
X0007942Y0001506D01*
X0007755Y0001541D01*
X0007569Y0001580D01*
X0007384Y0001623D01*
X0007199Y0001671D01*
X0007016Y0001723D01*
X0006835Y0001779D01*
X0006655Y0001840D01*
X0006476Y0001906D01*
X0006299Y0001975D01*
X0006123Y0002049D01*
X0005950Y0002127D01*
X0005778Y0002210D01*
X0005609Y0002296D01*
X0005441Y0002386D01*
X0005276Y0002481D01*
X0005113Y0002579D01*
X0004953Y0002682D01*
X0004795Y0002788D01*
X0004640Y0002898D01*
X0004487Y0003011D01*
X0004337Y0003129D01*
X0004191Y0003250D01*
X0004047Y0003374D01*
X0003906Y0003502D01*
X0003768Y0003633D01*
X0003633Y0003768D01*
X0003502Y0003906D01*
X0003374Y0004047D01*
X0003250Y0004191D01*
X0003129Y0004337D01*
X0003011Y0004487D01*
X0002898Y0004640D01*
X0002788Y0004795D01*
X0002682Y0004953D01*
X0002579Y0005113D01*
X0002481Y0005276D01*
X0002386Y0005441D01*
X0002296Y0005609D01*
X0002210Y0005778D01*
X0002127Y0005950D01*
X0002049Y0006123D01*
X0001975Y0006299D01*
X0001906Y0006476D01*
X0001840Y0006655D01*
X0001779Y0006835D01*
X0001723Y0007016D01*
X0001671Y0007199D01*
X0001623Y0007384D01*
X0001580Y0007569D01*
X0001541Y0007755D01*
X0001506Y0007942D01*
X0001477Y0008130D01*
X0001451Y0008319D01*
X0001431Y0008508D01*
X0001415Y0008698D01*
X0001403Y0008888D01*
X0001396Y0009078D01*
X0001394Y0009268D01*
D11*
X0040567Y0042732D03*
X0046866Y0042732D03*
X0054346Y0042732D03*
X0060646Y0042732D03*
X0068126Y0042732D03*
X0074425Y0042732D03*
X0081906Y0042732D03*
X0088205Y0042732D03*
X0095685Y0042732D03*
X0101984Y0042732D03*
X0109406Y0042732D03*
X0115705Y0042732D03*
X0123392Y0042732D03*
X0129691Y0042732D03*
X0137112Y0042732D03*
X0143411Y0042732D03*
X0150833Y0042732D03*
X0157132Y0042732D03*
X0164553Y0042732D03*
X0170852Y0042732D03*
X0178274Y0042732D03*
X0184573Y0042732D03*
X0191994Y0042732D03*
X0198293Y0042732D03*
X0198293Y0056394D03*
X0191994Y0056394D03*
X0184543Y0056394D03*
X0178244Y0056394D03*
X0170793Y0056394D03*
X0164494Y0056394D03*
X0157043Y0056394D03*
X0150744Y0056394D03*
X0143559Y0056581D03*
X0137260Y0056581D03*
X0129809Y0056581D03*
X0123510Y0056581D03*
X0115793Y0072644D03*
X0109494Y0072644D03*
X0102043Y0072644D03*
X0095744Y0072644D03*
X0088293Y0072644D03*
X0081994Y0072644D03*
X0074543Y0072644D03*
X0068244Y0072644D03*
X0060793Y0072644D03*
X0054494Y0072644D03*
X0047043Y0072644D03*
X0040744Y0072644D03*
X0140744Y0081394D03*
X0147043Y0081394D03*
X0155744Y0081394D03*
X0162043Y0081394D03*
X0162043Y0088894D03*
X0155744Y0088894D03*
X0155744Y0096394D03*
X0162043Y0096394D03*
X0162043Y0103894D03*
X0155744Y0103894D03*
X0155744Y0111394D03*
X0162043Y0111394D03*
X0162043Y0118894D03*
X0155744Y0118894D03*
X0147043Y0111394D03*
X0140744Y0111394D03*
X0140744Y0096394D03*
X0147043Y0096394D03*
X0164494Y0073894D03*
X0170793Y0073894D03*
X0200744Y0076394D03*
X0207043Y0076394D03*
X0207043Y0083894D03*
X0200744Y0083894D03*
X0200744Y0091394D03*
X0207043Y0091394D03*
X0207043Y0098894D03*
X0200744Y0098894D03*
X0200744Y0106394D03*
X0207043Y0106394D03*
X0207043Y0113894D03*
X0200744Y0113894D03*
X0215744Y0106394D03*
X0222043Y0106394D03*
X0222043Y0091394D03*
X0215744Y0091394D03*
X0215744Y0076394D03*
X0222043Y0076394D03*
X0192043Y0165144D03*
X0185744Y0165144D03*
X0180793Y0173894D03*
X0174494Y0173894D03*
X0167043Y0173894D03*
X0160744Y0173894D03*
X0148293Y0166394D03*
X0141994Y0166394D03*
X0144543Y0202644D03*
X0138244Y0202644D03*
X0151994Y0202644D03*
X0158293Y0202644D03*
X0158293Y0210144D03*
X0151994Y0210144D03*
X0115793Y0224829D03*
X0109494Y0224829D03*
X0100793Y0224829D03*
X0094494Y0224829D03*
X0087043Y0224829D03*
X0080744Y0224829D03*
X0073293Y0224829D03*
X0066994Y0224829D03*
X0059543Y0224829D03*
X0053244Y0224829D03*
X0045793Y0224829D03*
X0039494Y0224829D03*
X0040626Y0254346D03*
X0046925Y0254346D03*
X0054346Y0254346D03*
X0060646Y0254346D03*
X0068067Y0254346D03*
X0074366Y0254346D03*
X0081906Y0254346D03*
X0088205Y0254346D03*
X0095685Y0254346D03*
X0101984Y0254346D03*
X0109465Y0254346D03*
X0115764Y0254346D03*
X0130134Y0254346D03*
X0136433Y0254346D03*
X0188244Y0215144D03*
X0194543Y0215144D03*
X0201994Y0216394D03*
X0208293Y0216394D03*
X0208293Y0223894D03*
X0208293Y0231394D03*
X0201994Y0231394D03*
X0201994Y0223894D03*
D12*
X0195144Y0222732D03*
X0192644Y0222732D03*
X0190144Y0222732D03*
X0187644Y0222732D03*
X0187644Y0240055D03*
X0190144Y0240055D03*
X0192644Y0240055D03*
X0195144Y0240055D03*
D13*
X0196049Y0201394D03*
X0184238Y0201394D03*
D14*
X0167644Y0195793D03*
X0167644Y0189494D03*
X0158894Y0157043D03*
X0158894Y0150744D03*
X0117644Y0175744D03*
X0117644Y0182043D03*
X0110144Y0182043D03*
X0110144Y0175744D03*
X0102644Y0175744D03*
X0102644Y0182043D03*
X0095144Y0182043D03*
X0095144Y0175744D03*
X0087644Y0175744D03*
X0087644Y0182043D03*
X0080144Y0182043D03*
X0080144Y0175744D03*
X0080144Y0190744D03*
X0080144Y0197043D03*
X0087644Y0197043D03*
X0087644Y0190744D03*
X0095144Y0190744D03*
X0095144Y0197043D03*
X0102644Y0197043D03*
X0102644Y0190744D03*
X0110144Y0190744D03*
X0110144Y0197043D03*
X0117644Y0197043D03*
X0117644Y0190744D03*
X0116394Y0157043D03*
X0116394Y0150744D03*
X0108894Y0135793D03*
X0108894Y0129494D03*
X0101394Y0129494D03*
X0101394Y0135793D03*
X0093894Y0135793D03*
X0093894Y0129494D03*
X0086394Y0129494D03*
X0086394Y0135793D03*
X0078894Y0135793D03*
X0078894Y0129494D03*
X0071394Y0129494D03*
X0071394Y0135793D03*
X0065144Y0150744D03*
X0065144Y0157043D03*
X0066394Y0175744D03*
X0066394Y0182043D03*
X0058894Y0182043D03*
X0058894Y0175744D03*
X0051394Y0175744D03*
X0051394Y0182043D03*
X0043894Y0182043D03*
X0043894Y0175744D03*
X0036394Y0175744D03*
X0036394Y0182043D03*
X0028894Y0182043D03*
X0028894Y0175744D03*
X0028894Y0190744D03*
X0028894Y0197043D03*
X0036394Y0197043D03*
X0036394Y0190744D03*
X0043894Y0190744D03*
X0043894Y0197043D03*
X0051394Y0197043D03*
X0051394Y0190744D03*
X0058894Y0190744D03*
X0058894Y0197043D03*
X0066394Y0197043D03*
X0066394Y0190744D03*
X0057644Y0135793D03*
X0057644Y0129494D03*
X0050144Y0129494D03*
X0050144Y0135793D03*
X0042644Y0135793D03*
X0042644Y0129494D03*
X0035144Y0129494D03*
X0035144Y0135793D03*
X0027644Y0135793D03*
X0027644Y0129494D03*
X0020144Y0129494D03*
X0020144Y0135793D03*
X0173894Y0240744D03*
X0173894Y0247043D03*
X0188894Y0249494D03*
X0188894Y0255793D03*
X0196394Y0255793D03*
X0196394Y0249494D03*
X0216394Y0214543D03*
X0216394Y0208244D03*
X0223894Y0208244D03*
X0223894Y0214543D03*
D15*
X0178894Y0220882D03*
X0170144Y0220882D03*
X0170144Y0231906D03*
X0178894Y0231906D03*
D16*
X0155144Y0275685D03*
X0155144Y0287102D03*
X0153352Y0173894D03*
X0141935Y0173894D03*
D17*
X0213894Y0192033D03*
X0174504Y0277644D03*
D18*
X0188283Y0277644D03*
X0213894Y0178254D03*
D19*
X0196394Y0156266D03*
X0191394Y0156266D03*
X0186394Y0156266D03*
X0181394Y0156266D03*
X0176394Y0156266D03*
X0171394Y0156266D03*
X0166394Y0156266D03*
X0166394Y0134022D03*
X0171394Y0134022D03*
X0176394Y0134022D03*
X0181394Y0134022D03*
X0186394Y0134022D03*
X0191394Y0134022D03*
X0196394Y0134022D03*
X0113894Y0111266D03*
X0108894Y0111266D03*
X0103894Y0111266D03*
X0098894Y0111266D03*
X0093894Y0111266D03*
X0088894Y0111266D03*
X0083894Y0111266D03*
X0078894Y0111266D03*
X0060144Y0111266D03*
X0055144Y0111266D03*
X0050144Y0111266D03*
X0045144Y0111266D03*
X0040144Y0111266D03*
X0035144Y0111266D03*
X0030144Y0111266D03*
X0025144Y0111266D03*
X0025144Y0089022D03*
X0030144Y0089022D03*
X0035144Y0089022D03*
X0040144Y0089022D03*
X0045144Y0089022D03*
X0050144Y0089022D03*
X0055144Y0089022D03*
X0060144Y0089022D03*
X0078894Y0089022D03*
X0083894Y0089022D03*
X0088894Y0089022D03*
X0093894Y0089022D03*
X0098894Y0089022D03*
X0103894Y0089022D03*
X0108894Y0089022D03*
X0113894Y0089022D03*
X0108894Y0146522D03*
X0103894Y0146522D03*
X0098894Y0146522D03*
X0093894Y0146522D03*
X0088894Y0146522D03*
X0083894Y0146522D03*
X0078894Y0146522D03*
X0057644Y0146522D03*
X0052644Y0146522D03*
X0047644Y0146522D03*
X0042644Y0146522D03*
X0037644Y0146522D03*
X0032644Y0146522D03*
X0027644Y0146522D03*
X0027644Y0168766D03*
X0032644Y0168766D03*
X0037644Y0168766D03*
X0042644Y0168766D03*
X0047644Y0168766D03*
X0052644Y0168766D03*
X0057644Y0168766D03*
X0078894Y0168766D03*
X0083894Y0168766D03*
X0088894Y0168766D03*
X0093894Y0168766D03*
X0098894Y0168766D03*
X0103894Y0168766D03*
X0108894Y0168766D03*
D20*
X0181394Y0240222D03*
X0181394Y0250065D03*
D21*
X0140173Y0277953D02*
X0140173Y0283890D01*
X0126394Y0283890D02*
X0126394Y0277953D01*
X0112614Y0277953D02*
X0112614Y0283890D01*
X0098835Y0283890D02*
X0098835Y0277953D01*
X0085055Y0277953D02*
X0085055Y0283890D01*
X0071276Y0283890D02*
X0071276Y0277953D01*
X0057496Y0277953D02*
X0057496Y0283890D01*
X0043717Y0283890D02*
X0043717Y0277953D01*
X0043717Y0020110D02*
X0043717Y0014173D01*
X0057496Y0014173D02*
X0057496Y0020110D01*
X0071276Y0020110D02*
X0071276Y0014173D01*
X0085055Y0014173D02*
X0085055Y0020110D01*
X0098835Y0020110D02*
X0098835Y0014173D01*
X0112614Y0014173D02*
X0112614Y0020110D01*
X0126394Y0020110D02*
X0126394Y0014173D01*
X0140173Y0014173D02*
X0140173Y0020110D01*
X0153953Y0020110D02*
X0153953Y0014173D01*
X0167732Y0014173D02*
X0167732Y0020110D01*
X0181512Y0020110D02*
X0181512Y0014173D01*
X0195291Y0014173D02*
X0195291Y0020110D01*
D22*
X0192516Y0085144D03*
X0192516Y0090144D03*
X0192516Y0095144D03*
X0192516Y0100144D03*
X0192516Y0105144D03*
X0192516Y0110144D03*
X0192516Y0115144D03*
X0170272Y0115144D03*
X0170272Y0110144D03*
X0170272Y0105144D03*
X0170272Y0100144D03*
X0170272Y0095144D03*
X0170272Y0090144D03*
X0170272Y0085144D03*
X0158470Y0180144D03*
X0158470Y0185144D03*
X0158470Y0190144D03*
X0158470Y0195144D03*
X0136817Y0195144D03*
X0136817Y0190144D03*
X0136817Y0185144D03*
X0136817Y0180144D03*
D23*
X0221866Y0280921D03*
X0017142Y0280921D03*
X0017142Y0017142D03*
X0221866Y0017142D03*
M02*
