G75*
%MOIN*%
%OFA0B0*%
%FSLAX25Y25*%
%IPPOS*%
%LPD*%
%AMOC8*
5,1,8,0,0,1.08239X$1,22.5*
%
%ADD10C,0.00400*%
%ADD11R,0.04331X0.05118*%
%ADD12R,0.01772X0.06496*%
%ADD13R,0.06299X0.16535*%
%ADD14R,0.05118X0.04331*%
%ADD15R,0.07087X0.06299*%
%ADD16R,0.04331X0.04331*%
%ADD17C,0.08661*%
%ADD18OC8,0.08661*%
%ADD19R,0.02756X0.06890*%
%ADD20R,0.02362X0.03150*%
%ADD21C,0.05937*%
%ADD22R,0.06890X0.02756*%
%ADD23C,0.00787*%
%ADD24C,0.28346*%
%ADD25C,0.03562*%
%ADD26C,0.02775*%
%ADD27C,0.00800*%
%ADD28C,0.02400*%
%ADD29C,0.01600*%
%ADD30C,0.01800*%
%ADD31C,0.03200*%
D10*
X0001394Y0009268D02*
X0001394Y0288795D01*
X0001396Y0288985D01*
X0001403Y0289175D01*
X0001415Y0289365D01*
X0001431Y0289555D01*
X0001451Y0289744D01*
X0001477Y0289933D01*
X0001506Y0290121D01*
X0001541Y0290308D01*
X0001580Y0290494D01*
X0001623Y0290679D01*
X0001671Y0290864D01*
X0001723Y0291047D01*
X0001779Y0291228D01*
X0001840Y0291408D01*
X0001906Y0291587D01*
X0001975Y0291764D01*
X0002049Y0291940D01*
X0002127Y0292113D01*
X0002210Y0292285D01*
X0002296Y0292454D01*
X0002386Y0292622D01*
X0002481Y0292787D01*
X0002579Y0292950D01*
X0002682Y0293110D01*
X0002788Y0293268D01*
X0002898Y0293423D01*
X0003011Y0293576D01*
X0003129Y0293726D01*
X0003250Y0293872D01*
X0003374Y0294016D01*
X0003502Y0294157D01*
X0003633Y0294295D01*
X0003768Y0294430D01*
X0003906Y0294561D01*
X0004047Y0294689D01*
X0004191Y0294813D01*
X0004337Y0294934D01*
X0004487Y0295052D01*
X0004640Y0295165D01*
X0004795Y0295275D01*
X0004953Y0295381D01*
X0005113Y0295484D01*
X0005276Y0295582D01*
X0005441Y0295677D01*
X0005609Y0295767D01*
X0005778Y0295853D01*
X0005950Y0295936D01*
X0006123Y0296014D01*
X0006299Y0296088D01*
X0006476Y0296157D01*
X0006655Y0296223D01*
X0006835Y0296284D01*
X0007016Y0296340D01*
X0007199Y0296392D01*
X0007384Y0296440D01*
X0007569Y0296483D01*
X0007755Y0296522D01*
X0007942Y0296557D01*
X0008130Y0296586D01*
X0008319Y0296612D01*
X0008508Y0296632D01*
X0008698Y0296648D01*
X0008888Y0296660D01*
X0009078Y0296667D01*
X0009268Y0296669D01*
X0229740Y0296669D01*
X0229930Y0296667D01*
X0230120Y0296660D01*
X0230310Y0296648D01*
X0230500Y0296632D01*
X0230689Y0296612D01*
X0230878Y0296586D01*
X0231066Y0296557D01*
X0231253Y0296522D01*
X0231439Y0296483D01*
X0231624Y0296440D01*
X0231809Y0296392D01*
X0231992Y0296340D01*
X0232173Y0296284D01*
X0232353Y0296223D01*
X0232532Y0296157D01*
X0232709Y0296088D01*
X0232885Y0296014D01*
X0233058Y0295936D01*
X0233230Y0295853D01*
X0233399Y0295767D01*
X0233567Y0295677D01*
X0233732Y0295582D01*
X0233895Y0295484D01*
X0234055Y0295381D01*
X0234213Y0295275D01*
X0234368Y0295165D01*
X0234521Y0295052D01*
X0234671Y0294934D01*
X0234817Y0294813D01*
X0234961Y0294689D01*
X0235102Y0294561D01*
X0235240Y0294430D01*
X0235375Y0294295D01*
X0235506Y0294157D01*
X0235634Y0294016D01*
X0235758Y0293872D01*
X0235879Y0293726D01*
X0235997Y0293576D01*
X0236110Y0293423D01*
X0236220Y0293268D01*
X0236326Y0293110D01*
X0236429Y0292950D01*
X0236527Y0292787D01*
X0236622Y0292622D01*
X0236712Y0292454D01*
X0236798Y0292285D01*
X0236881Y0292113D01*
X0236959Y0291940D01*
X0237033Y0291764D01*
X0237102Y0291587D01*
X0237168Y0291408D01*
X0237229Y0291228D01*
X0237285Y0291047D01*
X0237337Y0290864D01*
X0237385Y0290679D01*
X0237428Y0290494D01*
X0237467Y0290308D01*
X0237502Y0290121D01*
X0237531Y0289933D01*
X0237557Y0289744D01*
X0237577Y0289555D01*
X0237593Y0289365D01*
X0237605Y0289175D01*
X0237612Y0288985D01*
X0237614Y0288795D01*
X0237614Y0009268D01*
X0237612Y0009078D01*
X0237605Y0008888D01*
X0237593Y0008698D01*
X0237577Y0008508D01*
X0237557Y0008319D01*
X0237531Y0008130D01*
X0237502Y0007942D01*
X0237467Y0007755D01*
X0237428Y0007569D01*
X0237385Y0007384D01*
X0237337Y0007199D01*
X0237285Y0007016D01*
X0237229Y0006835D01*
X0237168Y0006655D01*
X0237102Y0006476D01*
X0237033Y0006299D01*
X0236959Y0006123D01*
X0236881Y0005950D01*
X0236798Y0005778D01*
X0236712Y0005609D01*
X0236622Y0005441D01*
X0236527Y0005276D01*
X0236429Y0005113D01*
X0236326Y0004953D01*
X0236220Y0004795D01*
X0236110Y0004640D01*
X0235997Y0004487D01*
X0235879Y0004337D01*
X0235758Y0004191D01*
X0235634Y0004047D01*
X0235506Y0003906D01*
X0235375Y0003768D01*
X0235240Y0003633D01*
X0235102Y0003502D01*
X0234961Y0003374D01*
X0234817Y0003250D01*
X0234671Y0003129D01*
X0234521Y0003011D01*
X0234368Y0002898D01*
X0234213Y0002788D01*
X0234055Y0002682D01*
X0233895Y0002579D01*
X0233732Y0002481D01*
X0233567Y0002386D01*
X0233399Y0002296D01*
X0233230Y0002210D01*
X0233058Y0002127D01*
X0232885Y0002049D01*
X0232709Y0001975D01*
X0232532Y0001906D01*
X0232353Y0001840D01*
X0232173Y0001779D01*
X0231992Y0001723D01*
X0231809Y0001671D01*
X0231624Y0001623D01*
X0231439Y0001580D01*
X0231253Y0001541D01*
X0231066Y0001506D01*
X0230878Y0001477D01*
X0230689Y0001451D01*
X0230500Y0001431D01*
X0230310Y0001415D01*
X0230120Y0001403D01*
X0229930Y0001396D01*
X0229740Y0001394D01*
X0009268Y0001394D01*
X0009078Y0001396D01*
X0008888Y0001403D01*
X0008698Y0001415D01*
X0008508Y0001431D01*
X0008319Y0001451D01*
X0008130Y0001477D01*
X0007942Y0001506D01*
X0007755Y0001541D01*
X0007569Y0001580D01*
X0007384Y0001623D01*
X0007199Y0001671D01*
X0007016Y0001723D01*
X0006835Y0001779D01*
X0006655Y0001840D01*
X0006476Y0001906D01*
X0006299Y0001975D01*
X0006123Y0002049D01*
X0005950Y0002127D01*
X0005778Y0002210D01*
X0005609Y0002296D01*
X0005441Y0002386D01*
X0005276Y0002481D01*
X0005113Y0002579D01*
X0004953Y0002682D01*
X0004795Y0002788D01*
X0004640Y0002898D01*
X0004487Y0003011D01*
X0004337Y0003129D01*
X0004191Y0003250D01*
X0004047Y0003374D01*
X0003906Y0003502D01*
X0003768Y0003633D01*
X0003633Y0003768D01*
X0003502Y0003906D01*
X0003374Y0004047D01*
X0003250Y0004191D01*
X0003129Y0004337D01*
X0003011Y0004487D01*
X0002898Y0004640D01*
X0002788Y0004795D01*
X0002682Y0004953D01*
X0002579Y0005113D01*
X0002481Y0005276D01*
X0002386Y0005441D01*
X0002296Y0005609D01*
X0002210Y0005778D01*
X0002127Y0005950D01*
X0002049Y0006123D01*
X0001975Y0006299D01*
X0001906Y0006476D01*
X0001840Y0006655D01*
X0001779Y0006835D01*
X0001723Y0007016D01*
X0001671Y0007199D01*
X0001623Y0007384D01*
X0001580Y0007569D01*
X0001541Y0007755D01*
X0001506Y0007942D01*
X0001477Y0008130D01*
X0001451Y0008319D01*
X0001431Y0008508D01*
X0001415Y0008698D01*
X0001403Y0008888D01*
X0001396Y0009078D01*
X0001394Y0009268D01*
D11*
X0040567Y0042732D03*
X0046866Y0042732D03*
X0054346Y0042732D03*
X0060646Y0042732D03*
X0068126Y0042732D03*
X0074425Y0042732D03*
X0081906Y0042732D03*
X0088205Y0042732D03*
X0095685Y0042732D03*
X0101984Y0042732D03*
X0109406Y0042732D03*
X0115705Y0042732D03*
X0123392Y0042732D03*
X0129691Y0042732D03*
X0137112Y0042732D03*
X0143411Y0042732D03*
X0150833Y0042732D03*
X0157132Y0042732D03*
X0164553Y0042732D03*
X0170852Y0042732D03*
X0178274Y0042732D03*
X0184573Y0042732D03*
X0191994Y0042732D03*
X0198293Y0042732D03*
X0198293Y0056394D03*
X0191994Y0056394D03*
X0184543Y0056394D03*
X0178244Y0056394D03*
X0170793Y0056394D03*
X0164494Y0056394D03*
X0157043Y0056394D03*
X0150744Y0056394D03*
X0143559Y0056581D03*
X0137260Y0056581D03*
X0129809Y0056581D03*
X0123510Y0056581D03*
X0115793Y0072644D03*
X0109494Y0072644D03*
X0102043Y0072644D03*
X0095744Y0072644D03*
X0088293Y0072644D03*
X0081994Y0072644D03*
X0074543Y0072644D03*
X0068244Y0072644D03*
X0060793Y0072644D03*
X0054494Y0072644D03*
X0047043Y0072644D03*
X0040744Y0072644D03*
X0140744Y0081394D03*
X0147043Y0081394D03*
X0155744Y0081394D03*
X0162043Y0081394D03*
X0162043Y0088894D03*
X0155744Y0088894D03*
X0155744Y0096394D03*
X0162043Y0096394D03*
X0162043Y0103894D03*
X0155744Y0103894D03*
X0155744Y0111394D03*
X0162043Y0111394D03*
X0162043Y0118894D03*
X0155744Y0118894D03*
X0147043Y0111394D03*
X0140744Y0111394D03*
X0140744Y0096394D03*
X0147043Y0096394D03*
X0164494Y0073894D03*
X0170793Y0073894D03*
X0200744Y0076394D03*
X0207043Y0076394D03*
X0207043Y0083894D03*
X0200744Y0083894D03*
X0200744Y0091394D03*
X0207043Y0091394D03*
X0207043Y0098894D03*
X0200744Y0098894D03*
X0200744Y0106394D03*
X0207043Y0106394D03*
X0207043Y0113894D03*
X0200744Y0113894D03*
X0215744Y0106394D03*
X0222043Y0106394D03*
X0222043Y0091394D03*
X0215744Y0091394D03*
X0215744Y0076394D03*
X0222043Y0076394D03*
X0192043Y0165144D03*
X0185744Y0165144D03*
X0180793Y0173894D03*
X0174494Y0173894D03*
X0167043Y0173894D03*
X0160744Y0173894D03*
X0148293Y0166394D03*
X0141994Y0166394D03*
X0144543Y0202644D03*
X0138244Y0202644D03*
X0151994Y0202644D03*
X0158293Y0202644D03*
X0158293Y0210144D03*
X0151994Y0210144D03*
X0115793Y0224829D03*
X0109494Y0224829D03*
X0100793Y0224829D03*
X0094494Y0224829D03*
X0087043Y0224829D03*
X0080744Y0224829D03*
X0073293Y0224829D03*
X0066994Y0224829D03*
X0059543Y0224829D03*
X0053244Y0224829D03*
X0045793Y0224829D03*
X0039494Y0224829D03*
X0040626Y0254346D03*
X0046925Y0254346D03*
X0054346Y0254346D03*
X0060646Y0254346D03*
X0068067Y0254346D03*
X0074366Y0254346D03*
X0081906Y0254346D03*
X0088205Y0254346D03*
X0095685Y0254346D03*
X0101984Y0254346D03*
X0109465Y0254346D03*
X0115764Y0254346D03*
X0130134Y0254346D03*
X0136433Y0254346D03*
X0188244Y0215144D03*
X0194543Y0215144D03*
X0201994Y0216394D03*
X0208293Y0216394D03*
X0208293Y0223894D03*
X0208293Y0231394D03*
X0201994Y0231394D03*
X0201994Y0223894D03*
D12*
X0195144Y0222732D03*
X0192644Y0222732D03*
X0190144Y0222732D03*
X0187644Y0222732D03*
X0187644Y0240055D03*
X0190144Y0240055D03*
X0192644Y0240055D03*
X0195144Y0240055D03*
D13*
X0196049Y0201394D03*
X0184238Y0201394D03*
D14*
X0167644Y0195793D03*
X0167644Y0189494D03*
X0158894Y0157043D03*
X0158894Y0150744D03*
X0117644Y0175744D03*
X0117644Y0182043D03*
X0110144Y0182043D03*
X0110144Y0175744D03*
X0102644Y0175744D03*
X0102644Y0182043D03*
X0095144Y0182043D03*
X0095144Y0175744D03*
X0087644Y0175744D03*
X0087644Y0182043D03*
X0080144Y0182043D03*
X0080144Y0175744D03*
X0080144Y0190744D03*
X0080144Y0197043D03*
X0087644Y0197043D03*
X0087644Y0190744D03*
X0095144Y0190744D03*
X0095144Y0197043D03*
X0102644Y0197043D03*
X0102644Y0190744D03*
X0110144Y0190744D03*
X0110144Y0197043D03*
X0117644Y0197043D03*
X0117644Y0190744D03*
X0116394Y0157043D03*
X0116394Y0150744D03*
X0108894Y0135793D03*
X0108894Y0129494D03*
X0101394Y0129494D03*
X0101394Y0135793D03*
X0093894Y0135793D03*
X0093894Y0129494D03*
X0086394Y0129494D03*
X0086394Y0135793D03*
X0078894Y0135793D03*
X0078894Y0129494D03*
X0071394Y0129494D03*
X0071394Y0135793D03*
X0065144Y0150744D03*
X0065144Y0157043D03*
X0066394Y0175744D03*
X0066394Y0182043D03*
X0058894Y0182043D03*
X0058894Y0175744D03*
X0051394Y0175744D03*
X0051394Y0182043D03*
X0043894Y0182043D03*
X0043894Y0175744D03*
X0036394Y0175744D03*
X0036394Y0182043D03*
X0028894Y0182043D03*
X0028894Y0175744D03*
X0028894Y0190744D03*
X0028894Y0197043D03*
X0036394Y0197043D03*
X0036394Y0190744D03*
X0043894Y0190744D03*
X0043894Y0197043D03*
X0051394Y0197043D03*
X0051394Y0190744D03*
X0058894Y0190744D03*
X0058894Y0197043D03*
X0066394Y0197043D03*
X0066394Y0190744D03*
X0057644Y0135793D03*
X0057644Y0129494D03*
X0050144Y0129494D03*
X0050144Y0135793D03*
X0042644Y0135793D03*
X0042644Y0129494D03*
X0035144Y0129494D03*
X0035144Y0135793D03*
X0027644Y0135793D03*
X0027644Y0129494D03*
X0020144Y0129494D03*
X0020144Y0135793D03*
X0173894Y0240744D03*
X0173894Y0247043D03*
X0188894Y0249494D03*
X0188894Y0255793D03*
X0196394Y0255793D03*
X0196394Y0249494D03*
X0216394Y0214543D03*
X0216394Y0208244D03*
X0223894Y0208244D03*
X0223894Y0214543D03*
D15*
X0178894Y0220882D03*
X0170144Y0220882D03*
X0170144Y0231906D03*
X0178894Y0231906D03*
D16*
X0155144Y0275685D03*
X0155144Y0287102D03*
X0153352Y0173894D03*
X0141935Y0173894D03*
D17*
X0213894Y0192033D03*
X0174504Y0277644D03*
D18*
X0188283Y0277644D03*
X0213894Y0178254D03*
D19*
X0196394Y0156266D03*
X0191394Y0156266D03*
X0186394Y0156266D03*
X0181394Y0156266D03*
X0176394Y0156266D03*
X0171394Y0156266D03*
X0166394Y0156266D03*
X0166394Y0134022D03*
X0171394Y0134022D03*
X0176394Y0134022D03*
X0181394Y0134022D03*
X0186394Y0134022D03*
X0191394Y0134022D03*
X0196394Y0134022D03*
X0113894Y0111266D03*
X0108894Y0111266D03*
X0103894Y0111266D03*
X0098894Y0111266D03*
X0093894Y0111266D03*
X0088894Y0111266D03*
X0083894Y0111266D03*
X0078894Y0111266D03*
X0060144Y0111266D03*
X0055144Y0111266D03*
X0050144Y0111266D03*
X0045144Y0111266D03*
X0040144Y0111266D03*
X0035144Y0111266D03*
X0030144Y0111266D03*
X0025144Y0111266D03*
X0025144Y0089022D03*
X0030144Y0089022D03*
X0035144Y0089022D03*
X0040144Y0089022D03*
X0045144Y0089022D03*
X0050144Y0089022D03*
X0055144Y0089022D03*
X0060144Y0089022D03*
X0078894Y0089022D03*
X0083894Y0089022D03*
X0088894Y0089022D03*
X0093894Y0089022D03*
X0098894Y0089022D03*
X0103894Y0089022D03*
X0108894Y0089022D03*
X0113894Y0089022D03*
X0108894Y0146522D03*
X0103894Y0146522D03*
X0098894Y0146522D03*
X0093894Y0146522D03*
X0088894Y0146522D03*
X0083894Y0146522D03*
X0078894Y0146522D03*
X0057644Y0146522D03*
X0052644Y0146522D03*
X0047644Y0146522D03*
X0042644Y0146522D03*
X0037644Y0146522D03*
X0032644Y0146522D03*
X0027644Y0146522D03*
X0027644Y0168766D03*
X0032644Y0168766D03*
X0037644Y0168766D03*
X0042644Y0168766D03*
X0047644Y0168766D03*
X0052644Y0168766D03*
X0057644Y0168766D03*
X0078894Y0168766D03*
X0083894Y0168766D03*
X0088894Y0168766D03*
X0093894Y0168766D03*
X0098894Y0168766D03*
X0103894Y0168766D03*
X0108894Y0168766D03*
D20*
X0181394Y0240222D03*
X0181394Y0250065D03*
D21*
X0140173Y0277953D02*
X0140173Y0283890D01*
X0126394Y0283890D02*
X0126394Y0277953D01*
X0112614Y0277953D02*
X0112614Y0283890D01*
X0098835Y0283890D02*
X0098835Y0277953D01*
X0085055Y0277953D02*
X0085055Y0283890D01*
X0071276Y0283890D02*
X0071276Y0277953D01*
X0057496Y0277953D02*
X0057496Y0283890D01*
X0043717Y0283890D02*
X0043717Y0277953D01*
X0043717Y0020110D02*
X0043717Y0014173D01*
X0057496Y0014173D02*
X0057496Y0020110D01*
X0071276Y0020110D02*
X0071276Y0014173D01*
X0085055Y0014173D02*
X0085055Y0020110D01*
X0098835Y0020110D02*
X0098835Y0014173D01*
X0112614Y0014173D02*
X0112614Y0020110D01*
X0126394Y0020110D02*
X0126394Y0014173D01*
X0140173Y0014173D02*
X0140173Y0020110D01*
X0153953Y0020110D02*
X0153953Y0014173D01*
X0167732Y0014173D02*
X0167732Y0020110D01*
X0181512Y0020110D02*
X0181512Y0014173D01*
X0195291Y0014173D02*
X0195291Y0020110D01*
D22*
X0192516Y0085144D03*
X0192516Y0090144D03*
X0192516Y0095144D03*
X0192516Y0100144D03*
X0192516Y0105144D03*
X0192516Y0110144D03*
X0192516Y0115144D03*
X0170272Y0115144D03*
X0170272Y0110144D03*
X0170272Y0105144D03*
X0170272Y0100144D03*
X0170272Y0095144D03*
X0170272Y0090144D03*
X0170272Y0085144D03*
X0158470Y0180144D03*
X0158470Y0185144D03*
X0158470Y0190144D03*
X0158470Y0195144D03*
X0136817Y0195144D03*
X0136817Y0190144D03*
X0136817Y0185144D03*
X0136817Y0180144D03*
D23*
X0003850Y0006507D02*
X0004968Y0004968D01*
X0006507Y0003850D01*
X0008317Y0003262D01*
X0009268Y0003187D01*
X0229740Y0003187D01*
X0230691Y0003262D01*
X0232501Y0003850D01*
X0234040Y0004968D01*
X0235158Y0006507D01*
X0235746Y0008317D01*
X0235820Y0009268D01*
X0235820Y0288795D01*
X0235746Y0289746D01*
X0235158Y0291556D01*
X0234040Y0293095D01*
X0232501Y0294213D01*
X0230691Y0294801D01*
X0229740Y0294876D01*
X0155613Y0294876D01*
X0156262Y0294226D01*
X0157512Y0292976D01*
X0157937Y0291949D01*
X0157937Y0290861D01*
X0157969Y0290861D01*
X0158903Y0289928D01*
X0158903Y0284277D01*
X0157969Y0283343D01*
X0152318Y0283343D01*
X0151385Y0284277D01*
X0151385Y0289850D01*
X0129187Y0289850D01*
X0129187Y0287548D01*
X0130261Y0286474D01*
X0130956Y0284797D01*
X0130956Y0277045D01*
X0130261Y0275368D01*
X0128978Y0274085D01*
X0127301Y0273391D01*
X0125486Y0273391D01*
X0123809Y0274085D01*
X0122526Y0275368D01*
X0121831Y0277045D01*
X0121831Y0284797D01*
X0122526Y0286474D01*
X0123600Y0287548D01*
X0123600Y0291949D01*
X0124025Y0292976D01*
X0124811Y0293762D01*
X0125925Y0294876D01*
X0009268Y0294876D01*
X0008317Y0294801D01*
X0006507Y0294213D01*
X0004968Y0293095D01*
X0003850Y0291556D01*
X0003262Y0289746D01*
X0003187Y0288795D01*
X0003187Y0214073D01*
X0014364Y0225250D01*
X0014364Y0225250D01*
X0015038Y0225923D01*
X0015918Y0226287D01*
X0035735Y0226287D01*
X0035735Y0228048D01*
X0036669Y0228981D01*
X0042320Y0228981D01*
X0042644Y0228657D01*
X0042968Y0228981D01*
X0044531Y0228981D01*
X0044531Y0250194D01*
X0044100Y0250194D01*
X0043166Y0251127D01*
X0043166Y0257566D01*
X0044100Y0258499D01*
X0049751Y0258499D01*
X0050684Y0257566D01*
X0050684Y0251127D01*
X0049751Y0250194D01*
X0049319Y0250194D01*
X0049319Y0228281D01*
X0049519Y0228082D01*
X0050419Y0228981D01*
X0056070Y0228981D01*
X0056394Y0228657D01*
X0056718Y0228981D01*
X0058252Y0228981D01*
X0058252Y0250194D01*
X0057820Y0250194D01*
X0056887Y0251127D01*
X0056887Y0257566D01*
X0057820Y0258499D01*
X0063471Y0258499D01*
X0064405Y0257566D01*
X0064405Y0251127D01*
X0063471Y0250194D01*
X0063039Y0250194D01*
X0063039Y0228311D01*
X0063269Y0228082D01*
X0064169Y0228981D01*
X0069820Y0228981D01*
X0070144Y0228657D01*
X0070468Y0228981D01*
X0071972Y0228981D01*
X0071972Y0250194D01*
X0071541Y0250194D01*
X0070607Y0251127D01*
X0070607Y0257566D01*
X0071541Y0258499D01*
X0077192Y0258499D01*
X0078125Y0257566D01*
X0078125Y0251127D01*
X0077192Y0250194D01*
X0076760Y0250194D01*
X0076760Y0228340D01*
X0077019Y0228082D01*
X0077919Y0228981D01*
X0083570Y0228981D01*
X0083894Y0228657D01*
X0084218Y0228981D01*
X0085811Y0228981D01*
X0085811Y0250194D01*
X0085379Y0250194D01*
X0084446Y0251127D01*
X0084446Y0257566D01*
X0085379Y0258499D01*
X0091030Y0258499D01*
X0091964Y0257566D01*
X0091964Y0251127D01*
X0091030Y0250194D01*
X0090598Y0250194D01*
X0090598Y0228252D01*
X0090769Y0228082D01*
X0091669Y0228981D01*
X0097320Y0228981D01*
X0097644Y0228657D01*
X0097968Y0228981D01*
X0099591Y0228981D01*
X0099591Y0250194D01*
X0099159Y0250194D01*
X0098225Y0251127D01*
X0098225Y0257566D01*
X0099159Y0258499D01*
X0104810Y0258499D01*
X0105743Y0257566D01*
X0105743Y0251127D01*
X0104810Y0250194D01*
X0104378Y0250194D01*
X0104378Y0228222D01*
X0104552Y0228048D01*
X0104552Y0221610D01*
X0103619Y0220676D01*
X0097968Y0220676D01*
X0097644Y0221000D01*
X0097320Y0220676D01*
X0096888Y0220676D01*
X0096888Y0220268D01*
X0096523Y0219388D01*
X0089673Y0212537D01*
X0097902Y0212537D01*
X0106355Y0220990D01*
X0105735Y0221610D01*
X0105735Y0228048D01*
X0106669Y0228981D01*
X0112320Y0228981D01*
X0112644Y0228657D01*
X0112968Y0228981D01*
X0113370Y0228981D01*
X0113370Y0250194D01*
X0112938Y0250194D01*
X0112005Y0251127D01*
X0112005Y0257566D01*
X0112938Y0258499D01*
X0118589Y0258499D01*
X0119523Y0257566D01*
X0119523Y0251127D01*
X0118589Y0250194D01*
X0118157Y0250194D01*
X0118157Y0228981D01*
X0118619Y0228981D01*
X0119552Y0228048D01*
X0119552Y0221610D01*
X0118619Y0220676D01*
X0112968Y0220676D01*
X0112644Y0221000D01*
X0112320Y0220676D01*
X0111888Y0220676D01*
X0111888Y0220268D01*
X0111523Y0219388D01*
X0101323Y0209187D01*
X0121100Y0209187D01*
X0121100Y0259449D01*
X0121525Y0260476D01*
X0125275Y0264226D01*
X0126061Y0265012D01*
X0127088Y0265437D01*
X0149000Y0265437D01*
X0149000Y0278120D01*
X0149364Y0279000D01*
X0150614Y0280250D01*
X0151288Y0280923D01*
X0152168Y0281287D01*
X0159197Y0281287D01*
X0163479Y0285299D01*
X0163788Y0285608D01*
X0163825Y0285623D01*
X0163854Y0285651D01*
X0164264Y0285805D01*
X0164668Y0285972D01*
X0164708Y0285972D01*
X0164746Y0285987D01*
X0165183Y0285972D01*
X0176870Y0285972D01*
X0177750Y0285608D01*
X0181500Y0281858D01*
X0182173Y0281185D01*
X0182537Y0280305D01*
X0182537Y0265918D01*
X0182173Y0265038D01*
X0171287Y0254152D01*
X0171287Y0245037D01*
X0182902Y0245037D01*
X0183114Y0245250D01*
X0183788Y0245923D01*
X0184668Y0246287D01*
X0185122Y0246287D01*
X0184741Y0246669D01*
X0184741Y0247750D01*
X0184088Y0247750D01*
X0183235Y0246896D01*
X0179552Y0246896D01*
X0178619Y0247830D01*
X0178619Y0252300D01*
X0179552Y0253233D01*
X0183235Y0253233D01*
X0183931Y0252537D01*
X0184959Y0252537D01*
X0185675Y0253253D01*
X0192113Y0253253D01*
X0192644Y0252722D01*
X0193175Y0253253D01*
X0199613Y0253253D01*
X0200546Y0252320D01*
X0200546Y0246669D01*
X0199613Y0245735D01*
X0196020Y0245735D01*
X0195182Y0244897D01*
X0196690Y0244897D01*
X0197623Y0243963D01*
X0197623Y0242537D01*
X0198120Y0242537D01*
X0199000Y0242173D01*
X0199673Y0241500D01*
X0204023Y0237149D01*
X0204388Y0236269D01*
X0204388Y0235546D01*
X0204820Y0235546D01*
X0205753Y0234613D01*
X0205753Y0228175D01*
X0205625Y0228046D01*
X0211119Y0228046D01*
X0212052Y0227113D01*
X0212052Y0220675D01*
X0211522Y0220144D01*
X0212052Y0219613D01*
X0212052Y0213175D01*
X0211415Y0212537D01*
X0228120Y0212537D01*
X0229000Y0212173D01*
X0229673Y0211500D01*
X0230037Y0210620D01*
X0230037Y0192168D01*
X0229673Y0191288D01*
X0223423Y0185038D01*
X0222750Y0184364D01*
X0221870Y0184000D01*
X0192168Y0184000D01*
X0191288Y0184364D01*
X0190614Y0185038D01*
X0190250Y0185918D01*
X0190250Y0187350D01*
X0178338Y0187350D01*
X0177311Y0187775D01*
X0176525Y0188561D01*
X0176525Y0188561D01*
X0172737Y0192350D01*
X0171766Y0192350D01*
X0171796Y0192320D01*
X0171796Y0186669D01*
X0170863Y0185735D01*
X0170037Y0185735D01*
X0170037Y0177878D01*
X0170769Y0177147D01*
X0171669Y0178046D01*
X0177320Y0178046D01*
X0178253Y0177113D01*
X0178253Y0170675D01*
X0177320Y0169741D01*
X0172585Y0169741D01*
X0172750Y0169673D01*
X0173423Y0169000D01*
X0174885Y0167537D01*
X0181985Y0167537D01*
X0181985Y0168363D01*
X0182919Y0169296D01*
X0188570Y0169296D01*
X0189503Y0168363D01*
X0189503Y0161925D01*
X0188787Y0161209D01*
X0188787Y0160949D01*
X0188894Y0160842D01*
X0189356Y0161304D01*
X0193432Y0161304D01*
X0193894Y0160842D01*
X0194356Y0161304D01*
X0198432Y0161304D01*
X0199365Y0160371D01*
X0199365Y0158659D01*
X0200748Y0158659D01*
X0201628Y0158295D01*
X0232750Y0127173D01*
X0232750Y0127173D01*
X0233423Y0126500D01*
X0233787Y0125620D01*
X0233787Y0069668D01*
X0233423Y0068788D01*
X0227750Y0063114D01*
X0226870Y0062750D01*
X0211273Y0062750D01*
X0210805Y0062283D01*
X0209565Y0061769D01*
X0208222Y0061769D01*
X0206982Y0062283D01*
X0206033Y0063232D01*
X0205838Y0063703D01*
X0203423Y0061288D01*
X0202750Y0060614D01*
X0201870Y0060250D01*
X0201415Y0060250D01*
X0202052Y0059613D01*
X0202052Y0053175D01*
X0201119Y0052241D01*
X0200687Y0052241D01*
X0200687Y0046885D01*
X0201119Y0046885D01*
X0202052Y0045951D01*
X0202052Y0039513D01*
X0201119Y0038580D01*
X0195468Y0038580D01*
X0194534Y0039513D01*
X0194534Y0045951D01*
X0195468Y0046885D01*
X0195900Y0046885D01*
X0195900Y0052241D01*
X0195468Y0052241D01*
X0195144Y0052565D01*
X0194820Y0052241D01*
X0189169Y0052241D01*
X0188269Y0053141D01*
X0187369Y0052241D01*
X0181718Y0052241D01*
X0181394Y0052565D01*
X0181251Y0052422D01*
X0185250Y0048423D01*
X0185923Y0047750D01*
X0186281Y0046885D01*
X0187398Y0046885D01*
X0188332Y0045951D01*
X0188332Y0039513D01*
X0187398Y0038580D01*
X0181747Y0038580D01*
X0180814Y0039513D01*
X0180814Y0045951D01*
X0180882Y0046020D01*
X0176215Y0050687D01*
X0175850Y0051567D01*
X0175850Y0052241D01*
X0175419Y0052241D01*
X0174519Y0053141D01*
X0173619Y0052241D01*
X0167968Y0052241D01*
X0167644Y0052565D01*
X0167501Y0052422D01*
X0171500Y0048423D01*
X0171500Y0048423D01*
X0172173Y0047750D01*
X0172531Y0046885D01*
X0173678Y0046885D01*
X0174611Y0045951D01*
X0174611Y0039513D01*
X0173678Y0038580D01*
X0168027Y0038580D01*
X0167093Y0039513D01*
X0167093Y0045951D01*
X0167147Y0046005D01*
X0162465Y0050687D01*
X0162100Y0051567D01*
X0162100Y0052241D01*
X0161669Y0052241D01*
X0160769Y0053141D01*
X0159869Y0052241D01*
X0154218Y0052241D01*
X0153894Y0052565D01*
X0153751Y0052422D01*
X0157750Y0048423D01*
X0158423Y0047750D01*
X0158781Y0046885D01*
X0159957Y0046885D01*
X0160891Y0045951D01*
X0160891Y0039513D01*
X0159957Y0038580D01*
X0154306Y0038580D01*
X0153373Y0039513D01*
X0153373Y0045951D01*
X0153412Y0045990D01*
X0148715Y0050687D01*
X0148350Y0051567D01*
X0148350Y0052241D01*
X0147919Y0052241D01*
X0147058Y0053101D01*
X0146385Y0052428D01*
X0140734Y0052428D01*
X0140409Y0052752D01*
X0140085Y0052428D01*
X0139995Y0052428D01*
X0144000Y0048423D01*
X0144673Y0047750D01*
X0145031Y0046885D01*
X0146237Y0046885D01*
X0147170Y0045951D01*
X0147170Y0039513D01*
X0146237Y0038580D01*
X0140586Y0038580D01*
X0139652Y0039513D01*
X0139652Y0045951D01*
X0139677Y0045976D01*
X0135231Y0050422D01*
X0134866Y0051301D01*
X0134866Y0052428D01*
X0134434Y0052428D01*
X0133534Y0053328D01*
X0132635Y0052428D01*
X0126984Y0052428D01*
X0126659Y0052752D01*
X0126335Y0052428D01*
X0126245Y0052428D01*
X0130250Y0048423D01*
X0130923Y0047750D01*
X0131281Y0046885D01*
X0132516Y0046885D01*
X0133450Y0045951D01*
X0133450Y0039513D01*
X0132516Y0038580D01*
X0126865Y0038580D01*
X0125932Y0039513D01*
X0125932Y0045951D01*
X0125941Y0045961D01*
X0121481Y0050422D01*
X0121116Y0051301D01*
X0121116Y0052428D01*
X0120684Y0052428D01*
X0119751Y0053362D01*
X0119751Y0059800D01*
X0120684Y0060733D01*
X0126335Y0060733D01*
X0126659Y0060409D01*
X0126984Y0060733D01*
X0127750Y0060733D01*
X0127750Y0061870D01*
X0128114Y0062750D01*
X0128788Y0063423D01*
X0135250Y0069885D01*
X0135250Y0070477D01*
X0134555Y0069783D01*
X0133315Y0069269D01*
X0131972Y0069269D01*
X0130732Y0069783D01*
X0129783Y0070732D01*
X0129269Y0071972D01*
X0129269Y0073315D01*
X0129783Y0074555D01*
X0130250Y0075023D01*
X0130250Y0089365D01*
X0127878Y0086992D01*
X0126998Y0086628D01*
X0124432Y0086628D01*
X0124768Y0085815D01*
X0124768Y0084472D01*
X0124255Y0083232D01*
X0123787Y0082765D01*
X0123787Y0080918D01*
X0123423Y0080038D01*
X0122750Y0079364D01*
X0122750Y0079364D01*
X0119673Y0076288D01*
X0119400Y0076015D01*
X0119552Y0075863D01*
X0119552Y0069425D01*
X0118619Y0068491D01*
X0118098Y0068491D01*
X0118098Y0046885D01*
X0118530Y0046885D01*
X0119464Y0045951D01*
X0119464Y0039513D01*
X0118530Y0038580D01*
X0112879Y0038580D01*
X0111946Y0039513D01*
X0111946Y0045951D01*
X0112879Y0046885D01*
X0113311Y0046885D01*
X0113311Y0068491D01*
X0112968Y0068491D01*
X0112644Y0068815D01*
X0112320Y0068491D01*
X0106669Y0068491D01*
X0105769Y0069391D01*
X0104869Y0068491D01*
X0104378Y0068491D01*
X0104378Y0046885D01*
X0104810Y0046885D01*
X0105743Y0045951D01*
X0105743Y0039513D01*
X0104810Y0038580D01*
X0099159Y0038580D01*
X0098225Y0039513D01*
X0098225Y0045951D01*
X0099159Y0046885D01*
X0099591Y0046885D01*
X0099591Y0068491D01*
X0099218Y0068491D01*
X0098894Y0068815D01*
X0098570Y0068491D01*
X0092919Y0068491D01*
X0092019Y0069391D01*
X0091119Y0068491D01*
X0090687Y0068491D01*
X0090687Y0046885D01*
X0091030Y0046885D01*
X0091964Y0045951D01*
X0091964Y0039513D01*
X0091030Y0038580D01*
X0085379Y0038580D01*
X0084446Y0039513D01*
X0084446Y0045951D01*
X0085379Y0046885D01*
X0085900Y0046885D01*
X0085900Y0068491D01*
X0085468Y0068491D01*
X0085144Y0068815D01*
X0084820Y0068491D01*
X0079169Y0068491D01*
X0078269Y0069391D01*
X0077369Y0068491D01*
X0076937Y0068491D01*
X0076937Y0046885D01*
X0077251Y0046885D01*
X0078184Y0045951D01*
X0078184Y0039513D01*
X0077251Y0038580D01*
X0071600Y0038580D01*
X0070666Y0039513D01*
X0070666Y0045951D01*
X0071600Y0046885D01*
X0072150Y0046885D01*
X0072150Y0068491D01*
X0071718Y0068491D01*
X0071394Y0068815D01*
X0071070Y0068491D01*
X0065419Y0068491D01*
X0064519Y0069391D01*
X0063619Y0068491D01*
X0063187Y0068491D01*
X0063187Y0046885D01*
X0063471Y0046885D01*
X0064405Y0045951D01*
X0064405Y0039513D01*
X0063471Y0038580D01*
X0057820Y0038580D01*
X0056887Y0039513D01*
X0056887Y0045951D01*
X0057820Y0046885D01*
X0058400Y0046885D01*
X0058400Y0068491D01*
X0057968Y0068491D01*
X0057644Y0068815D01*
X0057320Y0068491D01*
X0051669Y0068491D01*
X0050769Y0069391D01*
X0049869Y0068491D01*
X0049437Y0068491D01*
X0049437Y0046885D01*
X0049692Y0046885D01*
X0050625Y0045951D01*
X0050625Y0039513D01*
X0049692Y0038580D01*
X0044041Y0038580D01*
X0043107Y0039513D01*
X0043107Y0045951D01*
X0044041Y0046885D01*
X0044650Y0046885D01*
X0044650Y0068491D01*
X0044218Y0068491D01*
X0043894Y0068815D01*
X0043570Y0068491D01*
X0037919Y0068491D01*
X0036985Y0069425D01*
X0036985Y0075863D01*
X0037622Y0076500D01*
X0023418Y0076500D01*
X0022538Y0076864D01*
X0020038Y0079364D01*
X0019364Y0080038D01*
X0019000Y0080918D01*
X0019000Y0096870D01*
X0019364Y0097750D01*
X0021913Y0100298D01*
X0022793Y0100662D01*
X0027277Y0100662D01*
X0027750Y0101135D01*
X0027750Y0106583D01*
X0027172Y0107161D01*
X0027172Y0115371D01*
X0027750Y0115949D01*
X0027750Y0122902D01*
X0025614Y0125038D01*
X0025326Y0125735D01*
X0024425Y0125735D01*
X0023894Y0126266D01*
X0023363Y0125735D01*
X0016925Y0125735D01*
X0016160Y0126500D01*
X0007168Y0126500D01*
X0006288Y0126864D01*
X0005614Y0127538D01*
X0003187Y0129965D01*
X0003187Y0009268D01*
X0003262Y0008317D01*
X0003850Y0006507D01*
X0003724Y0006895D02*
X0235284Y0006895D01*
X0235539Y0007681D02*
X0003469Y0007681D01*
X0003250Y0008467D02*
X0235757Y0008467D01*
X0235819Y0009253D02*
X0003189Y0009253D01*
X0003187Y0010039D02*
X0041776Y0010039D01*
X0041132Y0010306D02*
X0042809Y0009611D01*
X0044624Y0009611D01*
X0046301Y0010306D01*
X0047584Y0011589D01*
X0048279Y0013266D01*
X0048279Y0021018D01*
X0047584Y0022695D01*
X0046301Y0023978D01*
X0044624Y0024672D01*
X0042809Y0024672D01*
X0041132Y0023978D01*
X0039849Y0022695D01*
X0039154Y0021018D01*
X0039154Y0013266D01*
X0039849Y0011589D01*
X0041132Y0010306D01*
X0040613Y0010825D02*
X0003187Y0010825D01*
X0003187Y0011611D02*
X0039840Y0011611D01*
X0039514Y0012396D02*
X0003187Y0012396D01*
X0003187Y0013182D02*
X0039189Y0013182D01*
X0039154Y0013968D02*
X0003187Y0013968D01*
X0003187Y0014754D02*
X0039154Y0014754D01*
X0039154Y0015540D02*
X0003187Y0015540D01*
X0003187Y0016326D02*
X0039154Y0016326D01*
X0039154Y0017112D02*
X0003187Y0017112D01*
X0003187Y0017898D02*
X0039154Y0017898D01*
X0039154Y0018684D02*
X0003187Y0018684D01*
X0003187Y0019470D02*
X0039154Y0019470D01*
X0039154Y0020256D02*
X0003187Y0020256D01*
X0003187Y0021042D02*
X0039164Y0021042D01*
X0039490Y0021827D02*
X0003187Y0021827D01*
X0003187Y0022613D02*
X0039815Y0022613D01*
X0040554Y0023399D02*
X0003187Y0023399D01*
X0003187Y0024185D02*
X0041633Y0024185D01*
X0045800Y0024185D02*
X0055412Y0024185D01*
X0054912Y0023978D02*
X0053628Y0022695D01*
X0052934Y0021018D01*
X0052934Y0013266D01*
X0053628Y0011589D01*
X0054912Y0010306D01*
X0056589Y0009611D01*
X0058404Y0009611D01*
X0060080Y0010306D01*
X0061364Y0011589D01*
X0062058Y0013266D01*
X0062058Y0021018D01*
X0061364Y0022695D01*
X0060080Y0023978D01*
X0058404Y0024672D01*
X0056589Y0024672D01*
X0054912Y0023978D01*
X0054333Y0023399D02*
X0046879Y0023399D01*
X0047618Y0022613D02*
X0053595Y0022613D01*
X0053269Y0021827D02*
X0047943Y0021827D01*
X0048269Y0021042D02*
X0052944Y0021042D01*
X0052934Y0020256D02*
X0048279Y0020256D01*
X0048279Y0019470D02*
X0052934Y0019470D01*
X0052934Y0018684D02*
X0048279Y0018684D01*
X0048279Y0017898D02*
X0052934Y0017898D01*
X0052934Y0017112D02*
X0048279Y0017112D01*
X0048279Y0016326D02*
X0052934Y0016326D01*
X0052934Y0015540D02*
X0048279Y0015540D01*
X0048279Y0014754D02*
X0052934Y0014754D01*
X0052934Y0013968D02*
X0048279Y0013968D01*
X0048244Y0013182D02*
X0052968Y0013182D01*
X0053294Y0012396D02*
X0047919Y0012396D01*
X0047593Y0011611D02*
X0053619Y0011611D01*
X0054393Y0010825D02*
X0046820Y0010825D01*
X0045657Y0010039D02*
X0055556Y0010039D01*
X0059436Y0010039D02*
X0069335Y0010039D01*
X0068691Y0010306D02*
X0070368Y0009611D01*
X0072183Y0009611D01*
X0073860Y0010306D01*
X0075143Y0011589D01*
X0075838Y0013266D01*
X0075838Y0021018D01*
X0075143Y0022695D01*
X0073860Y0023978D01*
X0072183Y0024672D01*
X0070368Y0024672D01*
X0068691Y0023978D01*
X0067408Y0022695D01*
X0066713Y0021018D01*
X0066713Y0013266D01*
X0067408Y0011589D01*
X0068691Y0010306D01*
X0068172Y0010825D02*
X0060599Y0010825D01*
X0061373Y0011611D02*
X0067399Y0011611D01*
X0067073Y0012396D02*
X0061698Y0012396D01*
X0062024Y0013182D02*
X0066748Y0013182D01*
X0066713Y0013968D02*
X0062058Y0013968D01*
X0062058Y0014754D02*
X0066713Y0014754D01*
X0066713Y0015540D02*
X0062058Y0015540D01*
X0062058Y0016326D02*
X0066713Y0016326D01*
X0066713Y0017112D02*
X0062058Y0017112D01*
X0062058Y0017898D02*
X0066713Y0017898D01*
X0066713Y0018684D02*
X0062058Y0018684D01*
X0062058Y0019470D02*
X0066713Y0019470D01*
X0066713Y0020256D02*
X0062058Y0020256D01*
X0062048Y0021042D02*
X0066723Y0021042D01*
X0067049Y0021827D02*
X0061723Y0021827D01*
X0061397Y0022613D02*
X0067374Y0022613D01*
X0068113Y0023399D02*
X0060659Y0023399D01*
X0059580Y0024185D02*
X0069192Y0024185D01*
X0073359Y0024185D02*
X0082971Y0024185D01*
X0082471Y0023978D02*
X0084148Y0024672D01*
X0085963Y0024672D01*
X0087639Y0023978D01*
X0088923Y0022695D01*
X0089617Y0021018D01*
X0089617Y0013266D01*
X0088923Y0011589D01*
X0087639Y0010306D01*
X0085963Y0009611D01*
X0084148Y0009611D01*
X0082471Y0010306D01*
X0081187Y0011589D01*
X0080493Y0013266D01*
X0080493Y0021018D01*
X0081187Y0022695D01*
X0082471Y0023978D01*
X0081892Y0023399D02*
X0074438Y0023399D01*
X0075177Y0022613D02*
X0081154Y0022613D01*
X0080828Y0021827D02*
X0075502Y0021827D01*
X0075828Y0021042D02*
X0080503Y0021042D01*
X0080493Y0020256D02*
X0075838Y0020256D01*
X0075838Y0019470D02*
X0080493Y0019470D01*
X0080493Y0018684D02*
X0075838Y0018684D01*
X0075838Y0017898D02*
X0080493Y0017898D01*
X0080493Y0017112D02*
X0075838Y0017112D01*
X0075838Y0016326D02*
X0080493Y0016326D01*
X0080493Y0015540D02*
X0075838Y0015540D01*
X0075838Y0014754D02*
X0080493Y0014754D01*
X0080493Y0013968D02*
X0075838Y0013968D01*
X0075803Y0013182D02*
X0080527Y0013182D01*
X0080853Y0012396D02*
X0075478Y0012396D01*
X0075152Y0011611D02*
X0081178Y0011611D01*
X0081952Y0010825D02*
X0074379Y0010825D01*
X0073216Y0010039D02*
X0083115Y0010039D01*
X0086995Y0010039D02*
X0096895Y0010039D01*
X0096250Y0010306D02*
X0097927Y0009611D01*
X0099742Y0009611D01*
X0101419Y0010306D01*
X0102702Y0011589D01*
X0103397Y0013266D01*
X0103397Y0021018D01*
X0102702Y0022695D01*
X0101419Y0023978D01*
X0099742Y0024672D01*
X0097927Y0024672D01*
X0096250Y0023978D01*
X0094967Y0022695D01*
X0094272Y0021018D01*
X0094272Y0013266D01*
X0094967Y0011589D01*
X0096250Y0010306D01*
X0095731Y0010825D02*
X0088158Y0010825D01*
X0088932Y0011611D02*
X0094958Y0011611D01*
X0094632Y0012396D02*
X0089257Y0012396D01*
X0089583Y0013182D02*
X0094307Y0013182D01*
X0094272Y0013968D02*
X0089617Y0013968D01*
X0089617Y0014754D02*
X0094272Y0014754D01*
X0094272Y0015540D02*
X0089617Y0015540D01*
X0089617Y0016326D02*
X0094272Y0016326D01*
X0094272Y0017112D02*
X0089617Y0017112D01*
X0089617Y0017898D02*
X0094272Y0017898D01*
X0094272Y0018684D02*
X0089617Y0018684D01*
X0089617Y0019470D02*
X0094272Y0019470D01*
X0094272Y0020256D02*
X0089617Y0020256D01*
X0089607Y0021042D02*
X0094282Y0021042D01*
X0094608Y0021827D02*
X0089282Y0021827D01*
X0088956Y0022613D02*
X0094933Y0022613D01*
X0095672Y0023399D02*
X0088218Y0023399D01*
X0087139Y0024185D02*
X0096751Y0024185D01*
X0100918Y0024185D02*
X0110530Y0024185D01*
X0110030Y0023978D02*
X0108747Y0022695D01*
X0108052Y0021018D01*
X0108052Y0013266D01*
X0108747Y0011589D01*
X0110030Y0010306D01*
X0111707Y0009611D01*
X0113522Y0009611D01*
X0115198Y0010306D01*
X0116482Y0011589D01*
X0117176Y0013266D01*
X0117176Y0021018D01*
X0116482Y0022695D01*
X0115198Y0023978D01*
X0113522Y0024672D01*
X0111707Y0024672D01*
X0110030Y0023978D01*
X0109451Y0023399D02*
X0101998Y0023399D01*
X0102736Y0022613D02*
X0108713Y0022613D01*
X0108387Y0021827D02*
X0103061Y0021827D01*
X0103387Y0021042D02*
X0108062Y0021042D01*
X0108052Y0020256D02*
X0103397Y0020256D01*
X0103397Y0019470D02*
X0108052Y0019470D01*
X0108052Y0018684D02*
X0103397Y0018684D01*
X0103397Y0017898D02*
X0108052Y0017898D01*
X0108052Y0017112D02*
X0103397Y0017112D01*
X0103397Y0016326D02*
X0108052Y0016326D01*
X0108052Y0015540D02*
X0103397Y0015540D01*
X0103397Y0014754D02*
X0108052Y0014754D01*
X0108052Y0013968D02*
X0103397Y0013968D01*
X0103362Y0013182D02*
X0108086Y0013182D01*
X0108412Y0012396D02*
X0103037Y0012396D01*
X0102711Y0011611D02*
X0108738Y0011611D01*
X0109511Y0010825D02*
X0101938Y0010825D01*
X0100775Y0010039D02*
X0110674Y0010039D01*
X0114554Y0010039D02*
X0124454Y0010039D01*
X0123809Y0010306D02*
X0125486Y0009611D01*
X0127301Y0009611D01*
X0128978Y0010306D01*
X0130261Y0011589D01*
X0130956Y0013266D01*
X0130956Y0021018D01*
X0130261Y0022695D01*
X0128978Y0023978D01*
X0127301Y0024672D01*
X0125486Y0024672D01*
X0123809Y0023978D01*
X0122526Y0022695D01*
X0121831Y0021018D01*
X0121831Y0013266D01*
X0122526Y0011589D01*
X0123809Y0010306D01*
X0123290Y0010825D02*
X0115718Y0010825D01*
X0116491Y0011611D02*
X0122517Y0011611D01*
X0122192Y0012396D02*
X0116816Y0012396D01*
X0117142Y0013182D02*
X0121866Y0013182D01*
X0121831Y0013968D02*
X0117176Y0013968D01*
X0117176Y0014754D02*
X0121831Y0014754D01*
X0121831Y0015540D02*
X0117176Y0015540D01*
X0117176Y0016326D02*
X0121831Y0016326D01*
X0121831Y0017112D02*
X0117176Y0017112D01*
X0117176Y0017898D02*
X0121831Y0017898D01*
X0121831Y0018684D02*
X0117176Y0018684D01*
X0117176Y0019470D02*
X0121831Y0019470D01*
X0121831Y0020256D02*
X0117176Y0020256D01*
X0117167Y0021042D02*
X0121841Y0021042D01*
X0122167Y0021827D02*
X0116841Y0021827D01*
X0116515Y0022613D02*
X0122492Y0022613D01*
X0123231Y0023399D02*
X0115777Y0023399D01*
X0114698Y0024185D02*
X0124310Y0024185D01*
X0128478Y0024185D02*
X0138089Y0024185D01*
X0137589Y0023978D02*
X0139266Y0024672D01*
X0141081Y0024672D01*
X0142758Y0023978D01*
X0144041Y0022695D01*
X0144735Y0021018D01*
X0144735Y0013266D01*
X0144041Y0011589D01*
X0142758Y0010306D01*
X0141081Y0009611D01*
X0139266Y0009611D01*
X0137589Y0010306D01*
X0136306Y0011589D01*
X0135611Y0013266D01*
X0135611Y0021018D01*
X0136306Y0022695D01*
X0137589Y0023978D01*
X0137010Y0023399D02*
X0129557Y0023399D01*
X0130295Y0022613D02*
X0136272Y0022613D01*
X0135946Y0021827D02*
X0130621Y0021827D01*
X0130946Y0021042D02*
X0135621Y0021042D01*
X0135611Y0020256D02*
X0130956Y0020256D01*
X0130956Y0019470D02*
X0135611Y0019470D01*
X0135611Y0018684D02*
X0130956Y0018684D01*
X0130956Y0017898D02*
X0135611Y0017898D01*
X0135611Y0017112D02*
X0130956Y0017112D01*
X0130956Y0016326D02*
X0135611Y0016326D01*
X0135611Y0015540D02*
X0130956Y0015540D01*
X0130956Y0014754D02*
X0135611Y0014754D01*
X0135611Y0013968D02*
X0130956Y0013968D01*
X0130921Y0013182D02*
X0135646Y0013182D01*
X0135971Y0012396D02*
X0130596Y0012396D01*
X0130270Y0011611D02*
X0136297Y0011611D01*
X0137070Y0010825D02*
X0129497Y0010825D01*
X0128334Y0010039D02*
X0138233Y0010039D01*
X0142113Y0010039D02*
X0152013Y0010039D01*
X0151368Y0010306D02*
X0153045Y0009611D01*
X0154860Y0009611D01*
X0156537Y0010306D01*
X0157820Y0011589D01*
X0158515Y0013266D01*
X0158515Y0021018D01*
X0157820Y0022695D01*
X0156537Y0023978D01*
X0154860Y0024672D01*
X0153045Y0024672D01*
X0151368Y0023978D01*
X0150085Y0022695D01*
X0149391Y0021018D01*
X0149391Y0013266D01*
X0150085Y0011589D01*
X0151368Y0010306D01*
X0150849Y0010825D02*
X0143277Y0010825D01*
X0144050Y0011611D02*
X0150076Y0011611D01*
X0149751Y0012396D02*
X0144375Y0012396D01*
X0144701Y0013182D02*
X0149425Y0013182D01*
X0149391Y0013968D02*
X0144735Y0013968D01*
X0144735Y0014754D02*
X0149391Y0014754D01*
X0149391Y0015540D02*
X0144735Y0015540D01*
X0144735Y0016326D02*
X0149391Y0016326D01*
X0149391Y0017112D02*
X0144735Y0017112D01*
X0144735Y0017898D02*
X0149391Y0017898D01*
X0149391Y0018684D02*
X0144735Y0018684D01*
X0144735Y0019470D02*
X0149391Y0019470D01*
X0149391Y0020256D02*
X0144735Y0020256D01*
X0144726Y0021042D02*
X0149400Y0021042D01*
X0149726Y0021827D02*
X0144400Y0021827D01*
X0144074Y0022613D02*
X0150051Y0022613D01*
X0150790Y0023399D02*
X0143336Y0023399D01*
X0142257Y0024185D02*
X0151869Y0024185D01*
X0156037Y0024185D02*
X0165648Y0024185D01*
X0165148Y0023978D02*
X0166825Y0024672D01*
X0168640Y0024672D01*
X0170317Y0023978D01*
X0171600Y0022695D01*
X0172294Y0021018D01*
X0172294Y0013266D01*
X0171600Y0011589D01*
X0170317Y0010306D01*
X0168640Y0009611D01*
X0166825Y0009611D01*
X0165148Y0010306D01*
X0163865Y0011589D01*
X0163170Y0013266D01*
X0163170Y0021018D01*
X0163865Y0022695D01*
X0165148Y0023978D01*
X0164569Y0023399D02*
X0157116Y0023399D01*
X0157854Y0022613D02*
X0163831Y0022613D01*
X0163505Y0021827D02*
X0158180Y0021827D01*
X0158505Y0021042D02*
X0163180Y0021042D01*
X0163170Y0020256D02*
X0158515Y0020256D01*
X0158515Y0019470D02*
X0163170Y0019470D01*
X0163170Y0018684D02*
X0158515Y0018684D01*
X0158515Y0017898D02*
X0163170Y0017898D01*
X0163170Y0017112D02*
X0158515Y0017112D01*
X0158515Y0016326D02*
X0163170Y0016326D01*
X0163170Y0015540D02*
X0158515Y0015540D01*
X0158515Y0014754D02*
X0163170Y0014754D01*
X0163170Y0013968D02*
X0158515Y0013968D01*
X0158480Y0013182D02*
X0163205Y0013182D01*
X0163530Y0012396D02*
X0158155Y0012396D01*
X0157829Y0011611D02*
X0163856Y0011611D01*
X0164629Y0010825D02*
X0157056Y0010825D01*
X0155893Y0010039D02*
X0165792Y0010039D01*
X0169672Y0010039D02*
X0179572Y0010039D01*
X0178928Y0010306D02*
X0180604Y0009611D01*
X0182419Y0009611D01*
X0184096Y0010306D01*
X0185379Y0011589D01*
X0186074Y0013266D01*
X0186074Y0021018D01*
X0185379Y0022695D01*
X0184096Y0023978D01*
X0182419Y0024672D01*
X0180604Y0024672D01*
X0178928Y0023978D01*
X0177644Y0022695D01*
X0176950Y0021018D01*
X0176950Y0013266D01*
X0177644Y0011589D01*
X0178928Y0010306D01*
X0178408Y0010825D02*
X0170836Y0010825D01*
X0171609Y0011611D02*
X0177635Y0011611D01*
X0177310Y0012396D02*
X0171934Y0012396D01*
X0172260Y0013182D02*
X0176984Y0013182D01*
X0176950Y0013968D02*
X0172294Y0013968D01*
X0172294Y0014754D02*
X0176950Y0014754D01*
X0176950Y0015540D02*
X0172294Y0015540D01*
X0172294Y0016326D02*
X0176950Y0016326D01*
X0176950Y0017112D02*
X0172294Y0017112D01*
X0172294Y0017898D02*
X0176950Y0017898D01*
X0176950Y0018684D02*
X0172294Y0018684D01*
X0172294Y0019470D02*
X0176950Y0019470D01*
X0176950Y0020256D02*
X0172294Y0020256D01*
X0172285Y0021042D02*
X0176959Y0021042D01*
X0177285Y0021827D02*
X0171959Y0021827D01*
X0171634Y0022613D02*
X0177611Y0022613D01*
X0178349Y0023399D02*
X0170895Y0023399D01*
X0169816Y0024185D02*
X0179428Y0024185D01*
X0183596Y0024185D02*
X0193208Y0024185D01*
X0192707Y0023978D02*
X0191424Y0022695D01*
X0190729Y0021018D01*
X0190729Y0013266D01*
X0191424Y0011589D01*
X0192707Y0010306D01*
X0194384Y0009611D01*
X0196199Y0009611D01*
X0197876Y0010306D01*
X0199159Y0011589D01*
X0199854Y0013266D01*
X0199854Y0021018D01*
X0199159Y0022695D01*
X0197876Y0023978D01*
X0196199Y0024672D01*
X0194384Y0024672D01*
X0192707Y0023978D01*
X0192128Y0023399D02*
X0184675Y0023399D01*
X0185413Y0022613D02*
X0191390Y0022613D01*
X0191065Y0021827D02*
X0185739Y0021827D01*
X0186064Y0021042D02*
X0190739Y0021042D01*
X0190729Y0020256D02*
X0186074Y0020256D01*
X0186074Y0019470D02*
X0190729Y0019470D01*
X0190729Y0018684D02*
X0186074Y0018684D01*
X0186074Y0017898D02*
X0190729Y0017898D01*
X0190729Y0017112D02*
X0186074Y0017112D01*
X0186074Y0016326D02*
X0190729Y0016326D01*
X0190729Y0015540D02*
X0186074Y0015540D01*
X0186074Y0014754D02*
X0190729Y0014754D01*
X0190729Y0013968D02*
X0186074Y0013968D01*
X0186039Y0013182D02*
X0190764Y0013182D01*
X0191089Y0012396D02*
X0185714Y0012396D01*
X0185388Y0011611D02*
X0191415Y0011611D01*
X0192188Y0010825D02*
X0184615Y0010825D01*
X0183452Y0010039D02*
X0193351Y0010039D01*
X0197231Y0010039D02*
X0235820Y0010039D01*
X0235820Y0010825D02*
X0198395Y0010825D01*
X0199168Y0011611D02*
X0235820Y0011611D01*
X0235820Y0012396D02*
X0199493Y0012396D01*
X0199819Y0013182D02*
X0235820Y0013182D01*
X0235820Y0013968D02*
X0199854Y0013968D01*
X0199854Y0014754D02*
X0235820Y0014754D01*
X0235820Y0015540D02*
X0199854Y0015540D01*
X0199854Y0016326D02*
X0235820Y0016326D01*
X0235820Y0017112D02*
X0199854Y0017112D01*
X0199854Y0017898D02*
X0235820Y0017898D01*
X0235820Y0018684D02*
X0199854Y0018684D01*
X0199854Y0019470D02*
X0235820Y0019470D01*
X0235820Y0020256D02*
X0199854Y0020256D01*
X0199844Y0021042D02*
X0235820Y0021042D01*
X0235820Y0021827D02*
X0199518Y0021827D01*
X0199193Y0022613D02*
X0235820Y0022613D01*
X0235820Y0023399D02*
X0198454Y0023399D01*
X0197375Y0024185D02*
X0235820Y0024185D01*
X0235820Y0024971D02*
X0003187Y0024971D01*
X0003187Y0025757D02*
X0235820Y0025757D01*
X0235820Y0026543D02*
X0003187Y0026543D01*
X0003187Y0027329D02*
X0235820Y0027329D01*
X0235820Y0028115D02*
X0003187Y0028115D01*
X0003187Y0028901D02*
X0235820Y0028901D01*
X0235820Y0029687D02*
X0003187Y0029687D01*
X0003187Y0030472D02*
X0235820Y0030472D01*
X0235820Y0031258D02*
X0003187Y0031258D01*
X0003187Y0032044D02*
X0235820Y0032044D01*
X0235820Y0032830D02*
X0003187Y0032830D01*
X0003187Y0033616D02*
X0235820Y0033616D01*
X0235820Y0034402D02*
X0003187Y0034402D01*
X0003187Y0035188D02*
X0235820Y0035188D01*
X0235820Y0035974D02*
X0003187Y0035974D01*
X0003187Y0036760D02*
X0235820Y0036760D01*
X0235820Y0037546D02*
X0003187Y0037546D01*
X0003187Y0038332D02*
X0235820Y0038332D01*
X0235820Y0039118D02*
X0201657Y0039118D01*
X0202052Y0039903D02*
X0235820Y0039903D01*
X0235820Y0040689D02*
X0202052Y0040689D01*
X0202052Y0041475D02*
X0235820Y0041475D01*
X0235820Y0042261D02*
X0202052Y0042261D01*
X0202052Y0043047D02*
X0235820Y0043047D01*
X0235820Y0043833D02*
X0202052Y0043833D01*
X0202052Y0044619D02*
X0235820Y0044619D01*
X0235820Y0045405D02*
X0202052Y0045405D01*
X0201813Y0046191D02*
X0235820Y0046191D01*
X0235820Y0046977D02*
X0200687Y0046977D01*
X0200687Y0047763D02*
X0235820Y0047763D01*
X0235820Y0048548D02*
X0200687Y0048548D01*
X0200687Y0049334D02*
X0235820Y0049334D01*
X0235820Y0050120D02*
X0200687Y0050120D01*
X0200687Y0050906D02*
X0235820Y0050906D01*
X0235820Y0051692D02*
X0200687Y0051692D01*
X0201356Y0052478D02*
X0235820Y0052478D01*
X0235820Y0053264D02*
X0202052Y0053264D01*
X0202052Y0054050D02*
X0235820Y0054050D01*
X0235820Y0054836D02*
X0202052Y0054836D01*
X0202052Y0055622D02*
X0235820Y0055622D01*
X0235820Y0056408D02*
X0202052Y0056408D01*
X0202052Y0057194D02*
X0235820Y0057194D01*
X0235820Y0057979D02*
X0202052Y0057979D01*
X0202052Y0058765D02*
X0235820Y0058765D01*
X0235820Y0059551D02*
X0202052Y0059551D01*
X0202080Y0060337D02*
X0235820Y0060337D01*
X0235820Y0061123D02*
X0203258Y0061123D01*
X0204044Y0061909D02*
X0207884Y0061909D01*
X0206570Y0062695D02*
X0204830Y0062695D01*
X0205616Y0063481D02*
X0205930Y0063481D01*
X0209903Y0061909D02*
X0235820Y0061909D01*
X0235820Y0062695D02*
X0211218Y0062695D01*
X0203518Y0068154D02*
X0206288Y0070923D01*
X0207168Y0071287D01*
X0224152Y0071287D01*
X0226500Y0073635D01*
X0226500Y0122902D01*
X0224152Y0125250D01*
X0188787Y0125250D01*
X0188787Y0113115D01*
X0196621Y0113115D01*
X0196985Y0112751D01*
X0196985Y0117113D01*
X0197919Y0118046D01*
X0203570Y0118046D01*
X0204503Y0117113D01*
X0204503Y0110675D01*
X0204375Y0110546D01*
X0209869Y0110546D01*
X0210669Y0109746D01*
X0210722Y0109768D01*
X0212065Y0109768D01*
X0212118Y0109746D01*
X0212919Y0110546D01*
X0218570Y0110546D01*
X0219503Y0109613D01*
X0219503Y0103175D01*
X0218570Y0102241D01*
X0212919Y0102241D01*
X0212118Y0103041D01*
X0212065Y0103019D01*
X0210722Y0103019D01*
X0210669Y0103041D01*
X0209869Y0102241D01*
X0204375Y0102241D01*
X0204503Y0102113D01*
X0204503Y0095675D01*
X0204375Y0095546D01*
X0209869Y0095546D01*
X0210669Y0094746D01*
X0210722Y0094768D01*
X0212065Y0094768D01*
X0212118Y0094746D01*
X0212919Y0095546D01*
X0218570Y0095546D01*
X0219503Y0094613D01*
X0219503Y0088175D01*
X0218570Y0087241D01*
X0212919Y0087241D01*
X0212118Y0088041D01*
X0212065Y0088019D01*
X0210722Y0088019D01*
X0210669Y0088041D01*
X0209869Y0087241D01*
X0204375Y0087241D01*
X0204503Y0087113D01*
X0204503Y0080675D01*
X0204375Y0080546D01*
X0209869Y0080546D01*
X0210669Y0079746D01*
X0210722Y0079768D01*
X0212065Y0079768D01*
X0212118Y0079746D01*
X0212919Y0080546D01*
X0218570Y0080546D01*
X0219503Y0079613D01*
X0219503Y0073175D01*
X0218570Y0072241D01*
X0212919Y0072241D01*
X0212118Y0073041D01*
X0212065Y0073019D01*
X0210722Y0073019D01*
X0210669Y0073041D01*
X0209869Y0072241D01*
X0204218Y0072241D01*
X0203894Y0072565D01*
X0203570Y0072241D01*
X0197919Y0072241D01*
X0196985Y0073175D01*
X0196985Y0079613D01*
X0197516Y0080144D01*
X0196985Y0080675D01*
X0196985Y0082536D01*
X0196621Y0082172D01*
X0188787Y0082172D01*
X0188787Y0070037D01*
X0197765Y0070037D01*
X0198232Y0070505D01*
X0199472Y0071018D01*
X0200815Y0071018D01*
X0202055Y0070505D01*
X0203005Y0069555D01*
X0203518Y0068315D01*
X0203518Y0068154D01*
X0203518Y0068196D02*
X0203561Y0068196D01*
X0203242Y0068982D02*
X0204347Y0068982D01*
X0205133Y0069768D02*
X0202792Y0069768D01*
X0201936Y0070554D02*
X0205919Y0070554D01*
X0210540Y0072912D02*
X0212248Y0072912D01*
X0219240Y0072912D02*
X0225777Y0072912D01*
X0226500Y0073698D02*
X0219503Y0073698D01*
X0219503Y0074484D02*
X0226500Y0074484D01*
X0226500Y0075270D02*
X0219503Y0075270D01*
X0219503Y0076055D02*
X0226500Y0076055D01*
X0226500Y0076841D02*
X0219503Y0076841D01*
X0219503Y0077627D02*
X0226500Y0077627D01*
X0226500Y0078413D02*
X0219503Y0078413D01*
X0219503Y0079199D02*
X0226500Y0079199D01*
X0226500Y0079985D02*
X0219131Y0079985D01*
X0212357Y0079985D02*
X0210430Y0079985D01*
X0204503Y0080771D02*
X0226500Y0080771D01*
X0226500Y0081557D02*
X0204503Y0081557D01*
X0204503Y0082343D02*
X0226500Y0082343D01*
X0226500Y0083129D02*
X0204503Y0083129D01*
X0204503Y0083915D02*
X0226500Y0083915D01*
X0226500Y0084700D02*
X0204503Y0084700D01*
X0204503Y0085486D02*
X0226500Y0085486D01*
X0226500Y0086272D02*
X0204503Y0086272D01*
X0204503Y0087058D02*
X0226500Y0087058D01*
X0226500Y0087844D02*
X0219173Y0087844D01*
X0219503Y0088630D02*
X0226500Y0088630D01*
X0226500Y0089416D02*
X0219503Y0089416D01*
X0219503Y0090202D02*
X0226500Y0090202D01*
X0226500Y0090988D02*
X0219503Y0090988D01*
X0219503Y0091774D02*
X0226500Y0091774D01*
X0226500Y0092560D02*
X0219503Y0092560D01*
X0219503Y0093346D02*
X0226500Y0093346D01*
X0226500Y0094131D02*
X0219503Y0094131D01*
X0219199Y0094917D02*
X0226500Y0094917D01*
X0226500Y0095703D02*
X0204503Y0095703D01*
X0204503Y0096489D02*
X0226500Y0096489D01*
X0226500Y0097275D02*
X0204503Y0097275D01*
X0204503Y0098061D02*
X0226500Y0098061D01*
X0226500Y0098847D02*
X0204503Y0098847D01*
X0204503Y0099633D02*
X0226500Y0099633D01*
X0226500Y0100419D02*
X0204503Y0100419D01*
X0204503Y0101205D02*
X0226500Y0101205D01*
X0226500Y0101991D02*
X0204503Y0101991D01*
X0210404Y0102776D02*
X0212383Y0102776D01*
X0219105Y0102776D02*
X0226500Y0102776D01*
X0226500Y0103562D02*
X0219503Y0103562D01*
X0219503Y0104348D02*
X0226500Y0104348D01*
X0226500Y0105134D02*
X0219503Y0105134D01*
X0219503Y0105920D02*
X0226500Y0105920D01*
X0226500Y0106706D02*
X0219503Y0106706D01*
X0219503Y0107492D02*
X0226500Y0107492D01*
X0226500Y0108278D02*
X0219503Y0108278D01*
X0219503Y0109064D02*
X0226500Y0109064D01*
X0226500Y0109850D02*
X0219266Y0109850D01*
X0212222Y0109850D02*
X0210566Y0109850D01*
X0204464Y0110636D02*
X0226500Y0110636D01*
X0226500Y0111422D02*
X0204503Y0111422D01*
X0204503Y0112207D02*
X0226500Y0112207D01*
X0226500Y0112993D02*
X0204503Y0112993D01*
X0204503Y0113779D02*
X0226500Y0113779D01*
X0226500Y0114565D02*
X0204503Y0114565D01*
X0204503Y0115351D02*
X0226500Y0115351D01*
X0226500Y0116137D02*
X0204503Y0116137D01*
X0204503Y0116923D02*
X0226500Y0116923D01*
X0226500Y0117709D02*
X0203907Y0117709D01*
X0197581Y0117709D02*
X0188787Y0117709D01*
X0188787Y0118495D02*
X0226500Y0118495D01*
X0226500Y0119281D02*
X0188787Y0119281D01*
X0188787Y0120067D02*
X0226500Y0120067D01*
X0226500Y0120852D02*
X0188787Y0120852D01*
X0188787Y0121638D02*
X0226500Y0121638D01*
X0226500Y0122424D02*
X0188787Y0122424D01*
X0188787Y0123210D02*
X0226192Y0123210D01*
X0225406Y0123996D02*
X0188787Y0123996D01*
X0188787Y0124782D02*
X0224620Y0124782D01*
X0223115Y0130037D02*
X0194365Y0130037D01*
X0194365Y0138127D01*
X0193787Y0138705D01*
X0193787Y0143120D01*
X0193423Y0144000D01*
X0192750Y0144673D01*
X0190834Y0146589D01*
X0191500Y0146864D01*
X0192750Y0148114D01*
X0193423Y0148788D01*
X0193787Y0149668D01*
X0193787Y0151583D01*
X0193894Y0151689D01*
X0194356Y0151227D01*
X0198432Y0151227D01*
X0199365Y0152161D01*
X0199365Y0153787D01*
X0223115Y0130037D01*
X0222869Y0130283D02*
X0194365Y0130283D01*
X0194365Y0131069D02*
X0222083Y0131069D01*
X0221297Y0131855D02*
X0194365Y0131855D01*
X0194365Y0132641D02*
X0220511Y0132641D01*
X0219725Y0133427D02*
X0194365Y0133427D01*
X0194365Y0134213D02*
X0218939Y0134213D01*
X0218153Y0134999D02*
X0194365Y0134999D01*
X0194365Y0135785D02*
X0217367Y0135785D01*
X0216581Y0136571D02*
X0194365Y0136571D01*
X0194365Y0137357D02*
X0215796Y0137357D01*
X0215010Y0138143D02*
X0194349Y0138143D01*
X0193787Y0138928D02*
X0214224Y0138928D01*
X0213438Y0139714D02*
X0193787Y0139714D01*
X0193787Y0140500D02*
X0212652Y0140500D01*
X0211866Y0141286D02*
X0193787Y0141286D01*
X0193787Y0142072D02*
X0211080Y0142072D01*
X0210294Y0142858D02*
X0193787Y0142858D01*
X0193570Y0143644D02*
X0209508Y0143644D01*
X0208722Y0144430D02*
X0192993Y0144430D01*
X0192207Y0145216D02*
X0207936Y0145216D01*
X0207151Y0146002D02*
X0191421Y0146002D01*
X0191314Y0146788D02*
X0206365Y0146788D01*
X0205579Y0147573D02*
X0192209Y0147573D01*
X0192750Y0148114D02*
X0192750Y0148114D01*
X0192995Y0148359D02*
X0204793Y0148359D01*
X0204007Y0149145D02*
X0193571Y0149145D01*
X0193787Y0149931D02*
X0203221Y0149931D01*
X0202435Y0150717D02*
X0193787Y0150717D01*
X0193787Y0151503D02*
X0194080Y0151503D01*
X0198708Y0151503D02*
X0201649Y0151503D01*
X0200863Y0152289D02*
X0199365Y0152289D01*
X0199365Y0153075D02*
X0200077Y0153075D01*
X0203704Y0156219D02*
X0235820Y0156219D01*
X0235820Y0157004D02*
X0202918Y0157004D01*
X0202132Y0157790D02*
X0235820Y0157790D01*
X0235820Y0158576D02*
X0200949Y0158576D01*
X0199365Y0159362D02*
X0235820Y0159362D01*
X0235820Y0160148D02*
X0199365Y0160148D01*
X0198802Y0160934D02*
X0235820Y0160934D01*
X0235820Y0161720D02*
X0189299Y0161720D01*
X0189503Y0162506D02*
X0235820Y0162506D01*
X0235820Y0163292D02*
X0189503Y0163292D01*
X0189503Y0164078D02*
X0235820Y0164078D01*
X0235820Y0164864D02*
X0189503Y0164864D01*
X0189503Y0165649D02*
X0235820Y0165649D01*
X0235820Y0166435D02*
X0189503Y0166435D01*
X0189503Y0167221D02*
X0235820Y0167221D01*
X0235820Y0168007D02*
X0189503Y0168007D01*
X0189073Y0168793D02*
X0235820Y0168793D01*
X0235820Y0169579D02*
X0172844Y0169579D01*
X0173629Y0168793D02*
X0182415Y0168793D01*
X0181985Y0168007D02*
X0174415Y0168007D01*
X0177944Y0170365D02*
X0235820Y0170365D01*
X0235820Y0171151D02*
X0178253Y0171151D01*
X0178253Y0171937D02*
X0235820Y0171937D01*
X0235820Y0172723D02*
X0178253Y0172723D01*
X0178253Y0173509D02*
X0235820Y0173509D01*
X0235820Y0174295D02*
X0178253Y0174295D01*
X0178253Y0175080D02*
X0235820Y0175080D01*
X0235820Y0175866D02*
X0178253Y0175866D01*
X0178253Y0176652D02*
X0235820Y0176652D01*
X0235820Y0177438D02*
X0177928Y0177438D01*
X0171060Y0177438D02*
X0170477Y0177438D01*
X0170037Y0178224D02*
X0235820Y0178224D01*
X0235820Y0179010D02*
X0170037Y0179010D01*
X0170037Y0179796D02*
X0235820Y0179796D01*
X0235820Y0180582D02*
X0170037Y0180582D01*
X0170037Y0181368D02*
X0235820Y0181368D01*
X0235820Y0182154D02*
X0170037Y0182154D01*
X0170037Y0182940D02*
X0235820Y0182940D01*
X0235820Y0183725D02*
X0170037Y0183725D01*
X0170037Y0184511D02*
X0191141Y0184511D01*
X0190507Y0185297D02*
X0170037Y0185297D01*
X0171211Y0186083D02*
X0190250Y0186083D01*
X0190250Y0186869D02*
X0171796Y0186869D01*
X0171796Y0187655D02*
X0177602Y0187655D01*
X0176646Y0188441D02*
X0171796Y0188441D01*
X0171796Y0189227D02*
X0175860Y0189227D01*
X0175074Y0190013D02*
X0171796Y0190013D01*
X0171796Y0190799D02*
X0174288Y0190799D01*
X0173502Y0191585D02*
X0171796Y0191585D01*
X0171796Y0197937D02*
X0171796Y0198619D01*
X0170863Y0199552D01*
X0164425Y0199552D01*
X0163491Y0198619D01*
X0163491Y0197937D01*
X0162753Y0197937D01*
X0162575Y0198115D01*
X0161087Y0198115D01*
X0161087Y0198491D01*
X0161119Y0198491D01*
X0162052Y0199425D01*
X0162052Y0205863D01*
X0161522Y0206394D01*
X0162052Y0206925D01*
X0162052Y0213363D01*
X0161119Y0214296D01*
X0155468Y0214296D01*
X0155144Y0213972D01*
X0154820Y0214296D01*
X0154388Y0214296D01*
X0154388Y0234847D01*
X0160578Y0227625D01*
X0160614Y0227538D01*
X0160886Y0227266D01*
X0161136Y0226974D01*
X0161221Y0226931D01*
X0161288Y0226864D01*
X0161643Y0226717D01*
X0161985Y0226544D01*
X0162080Y0226536D01*
X0162168Y0226500D01*
X0162552Y0226500D01*
X0162935Y0226471D01*
X0163025Y0226500D01*
X0183120Y0226500D01*
X0184000Y0226864D01*
X0184673Y0227538D01*
X0185037Y0228418D01*
X0185037Y0234000D01*
X0188120Y0234000D01*
X0189000Y0234364D01*
X0189673Y0235038D01*
X0189746Y0235213D01*
X0196690Y0235213D01*
X0197623Y0236147D01*
X0197623Y0236779D01*
X0199012Y0235390D01*
X0198235Y0234613D01*
X0198235Y0228175D01*
X0198766Y0227644D01*
X0198235Y0227113D01*
X0198235Y0220675D01*
X0198766Y0220144D01*
X0198235Y0219613D01*
X0198235Y0218430D01*
X0197369Y0219296D01*
X0195123Y0219296D01*
X0195123Y0226640D01*
X0194190Y0227574D01*
X0188598Y0227574D01*
X0187664Y0226640D01*
X0187664Y0223263D01*
X0187650Y0223228D01*
X0187650Y0219296D01*
X0185419Y0219296D01*
X0184485Y0218363D01*
X0184485Y0214002D01*
X0183335Y0212851D01*
X0182436Y0211953D01*
X0182147Y0211255D01*
X0180428Y0211255D01*
X0179495Y0210322D01*
X0179495Y0193493D01*
X0176262Y0196726D01*
X0176262Y0196726D01*
X0175476Y0197512D01*
X0174449Y0197937D01*
X0171796Y0197937D01*
X0171757Y0198658D02*
X0179495Y0198658D01*
X0179495Y0199444D02*
X0170971Y0199444D01*
X0174607Y0197872D02*
X0179495Y0197872D01*
X0179495Y0197086D02*
X0175902Y0197086D01*
X0176688Y0196300D02*
X0179495Y0196300D01*
X0179495Y0195514D02*
X0177474Y0195514D01*
X0178260Y0194728D02*
X0179495Y0194728D01*
X0179495Y0193942D02*
X0179046Y0193942D01*
X0179495Y0200230D02*
X0162052Y0200230D01*
X0162052Y0201016D02*
X0179495Y0201016D01*
X0179495Y0201801D02*
X0162052Y0201801D01*
X0162052Y0202587D02*
X0179495Y0202587D01*
X0179495Y0203373D02*
X0162052Y0203373D01*
X0162052Y0204159D02*
X0179495Y0204159D01*
X0179495Y0204945D02*
X0162052Y0204945D01*
X0162052Y0205731D02*
X0179495Y0205731D01*
X0179495Y0206517D02*
X0161645Y0206517D01*
X0162052Y0207303D02*
X0179495Y0207303D01*
X0179495Y0208089D02*
X0162052Y0208089D01*
X0162052Y0208875D02*
X0179495Y0208875D01*
X0179495Y0209661D02*
X0162052Y0209661D01*
X0162052Y0210447D02*
X0179620Y0210447D01*
X0180406Y0211232D02*
X0162052Y0211232D01*
X0162052Y0212018D02*
X0182502Y0212018D01*
X0183288Y0212804D02*
X0162052Y0212804D01*
X0161825Y0213590D02*
X0184074Y0213590D01*
X0184485Y0214376D02*
X0154388Y0214376D01*
X0154388Y0215162D02*
X0184485Y0215162D01*
X0184485Y0215948D02*
X0154388Y0215948D01*
X0154388Y0216734D02*
X0184485Y0216734D01*
X0184485Y0217520D02*
X0154388Y0217520D01*
X0154388Y0218306D02*
X0184485Y0218306D01*
X0185214Y0219092D02*
X0154388Y0219092D01*
X0154388Y0219877D02*
X0187650Y0219877D01*
X0187650Y0220663D02*
X0154388Y0220663D01*
X0154388Y0221449D02*
X0187650Y0221449D01*
X0187650Y0222235D02*
X0154388Y0222235D01*
X0154388Y0223021D02*
X0187650Y0223021D01*
X0187664Y0223807D02*
X0154388Y0223807D01*
X0154388Y0224593D02*
X0187664Y0224593D01*
X0187664Y0225379D02*
X0154388Y0225379D01*
X0154388Y0226165D02*
X0187664Y0226165D01*
X0187974Y0226951D02*
X0184086Y0226951D01*
X0184755Y0227737D02*
X0198673Y0227737D01*
X0198235Y0228523D02*
X0185037Y0228523D01*
X0185037Y0229308D02*
X0198235Y0229308D01*
X0198235Y0230094D02*
X0185037Y0230094D01*
X0185037Y0230880D02*
X0198235Y0230880D01*
X0198235Y0231666D02*
X0185037Y0231666D01*
X0185037Y0232452D02*
X0198235Y0232452D01*
X0198235Y0233238D02*
X0185037Y0233238D01*
X0188178Y0234024D02*
X0198235Y0234024D01*
X0198432Y0234810D02*
X0189445Y0234810D01*
X0197072Y0235596D02*
X0198806Y0235596D01*
X0198021Y0236382D02*
X0197623Y0236382D01*
X0200861Y0240311D02*
X0235820Y0240311D01*
X0235820Y0239525D02*
X0201647Y0239525D01*
X0202433Y0238739D02*
X0235820Y0238739D01*
X0235820Y0237953D02*
X0203219Y0237953D01*
X0204005Y0237168D02*
X0235820Y0237168D01*
X0235820Y0236382D02*
X0204341Y0236382D01*
X0204388Y0235596D02*
X0235820Y0235596D01*
X0235820Y0234810D02*
X0205556Y0234810D01*
X0205753Y0234024D02*
X0235820Y0234024D01*
X0235820Y0233238D02*
X0205753Y0233238D01*
X0205753Y0232452D02*
X0235820Y0232452D01*
X0235820Y0231666D02*
X0205753Y0231666D01*
X0205753Y0230880D02*
X0235820Y0230880D01*
X0235820Y0230094D02*
X0205753Y0230094D01*
X0205753Y0229308D02*
X0235820Y0229308D01*
X0235820Y0228523D02*
X0205753Y0228523D01*
X0211429Y0227737D02*
X0235820Y0227737D01*
X0235820Y0226951D02*
X0212052Y0226951D01*
X0212052Y0226165D02*
X0235820Y0226165D01*
X0235820Y0225379D02*
X0212052Y0225379D01*
X0212052Y0224593D02*
X0235820Y0224593D01*
X0235820Y0223807D02*
X0212052Y0223807D01*
X0212052Y0223021D02*
X0235820Y0223021D01*
X0235820Y0222235D02*
X0212052Y0222235D01*
X0212052Y0221449D02*
X0235820Y0221449D01*
X0235820Y0220663D02*
X0212041Y0220663D01*
X0211788Y0219877D02*
X0235820Y0219877D01*
X0235820Y0219092D02*
X0212052Y0219092D01*
X0212052Y0218306D02*
X0235820Y0218306D01*
X0235820Y0217520D02*
X0212052Y0217520D01*
X0212052Y0216734D02*
X0235820Y0216734D01*
X0235820Y0215948D02*
X0212052Y0215948D01*
X0212052Y0215162D02*
X0235820Y0215162D01*
X0235820Y0214376D02*
X0212052Y0214376D01*
X0212052Y0213590D02*
X0235820Y0213590D01*
X0235820Y0212804D02*
X0211682Y0212804D01*
X0198235Y0219092D02*
X0197574Y0219092D01*
X0198500Y0219877D02*
X0195123Y0219877D01*
X0195123Y0220663D02*
X0198246Y0220663D01*
X0198235Y0221449D02*
X0195123Y0221449D01*
X0195123Y0222235D02*
X0198235Y0222235D01*
X0198235Y0223021D02*
X0195123Y0223021D01*
X0195123Y0223807D02*
X0198235Y0223807D01*
X0198235Y0224593D02*
X0195123Y0224593D01*
X0195123Y0225379D02*
X0198235Y0225379D01*
X0198235Y0226165D02*
X0195123Y0226165D01*
X0194813Y0226951D02*
X0198235Y0226951D01*
X0200075Y0241097D02*
X0235820Y0241097D01*
X0235820Y0241883D02*
X0199290Y0241883D01*
X0197623Y0242669D02*
X0235820Y0242669D01*
X0235820Y0243455D02*
X0197623Y0243455D01*
X0197346Y0244241D02*
X0235820Y0244241D01*
X0235820Y0245027D02*
X0195311Y0245027D01*
X0199690Y0245813D02*
X0235820Y0245813D01*
X0235820Y0246599D02*
X0200476Y0246599D01*
X0200546Y0247384D02*
X0235820Y0247384D01*
X0235820Y0248170D02*
X0200546Y0248170D01*
X0200546Y0248956D02*
X0235820Y0248956D01*
X0235820Y0249742D02*
X0200546Y0249742D01*
X0200546Y0250528D02*
X0235820Y0250528D01*
X0235820Y0251314D02*
X0200546Y0251314D01*
X0200546Y0252100D02*
X0235820Y0252100D01*
X0235820Y0252886D02*
X0199980Y0252886D01*
X0192807Y0252886D02*
X0192480Y0252886D01*
X0185307Y0252886D02*
X0183583Y0252886D01*
X0179205Y0252886D02*
X0171287Y0252886D01*
X0171287Y0253672D02*
X0235820Y0253672D01*
X0235820Y0254458D02*
X0171593Y0254458D01*
X0172379Y0255244D02*
X0235820Y0255244D01*
X0235820Y0256029D02*
X0173165Y0256029D01*
X0173951Y0256815D02*
X0235820Y0256815D01*
X0235820Y0257601D02*
X0174737Y0257601D01*
X0175522Y0258387D02*
X0235820Y0258387D01*
X0235820Y0259173D02*
X0176308Y0259173D01*
X0177094Y0259959D02*
X0235820Y0259959D01*
X0235820Y0260745D02*
X0177880Y0260745D01*
X0178666Y0261531D02*
X0235820Y0261531D01*
X0235820Y0262317D02*
X0179452Y0262317D01*
X0180238Y0263103D02*
X0235820Y0263103D01*
X0235820Y0263889D02*
X0181024Y0263889D01*
X0181810Y0264675D02*
X0235820Y0264675D01*
X0235820Y0265460D02*
X0182348Y0265460D01*
X0182537Y0266246D02*
X0235820Y0266246D01*
X0235820Y0267032D02*
X0182537Y0267032D01*
X0182537Y0267818D02*
X0235820Y0267818D01*
X0235820Y0268604D02*
X0182537Y0268604D01*
X0182537Y0269390D02*
X0235820Y0269390D01*
X0235820Y0270176D02*
X0182537Y0270176D01*
X0182537Y0270962D02*
X0235820Y0270962D01*
X0235820Y0271748D02*
X0182537Y0271748D01*
X0182537Y0272534D02*
X0235820Y0272534D01*
X0235820Y0273320D02*
X0182537Y0273320D01*
X0182537Y0274105D02*
X0235820Y0274105D01*
X0235820Y0274891D02*
X0182537Y0274891D01*
X0182537Y0275677D02*
X0235820Y0275677D01*
X0235820Y0276463D02*
X0182537Y0276463D01*
X0182537Y0277249D02*
X0235820Y0277249D01*
X0235820Y0278035D02*
X0182537Y0278035D01*
X0182537Y0278821D02*
X0235820Y0278821D01*
X0235820Y0279607D02*
X0182537Y0279607D01*
X0182501Y0280393D02*
X0235820Y0280393D01*
X0235820Y0281179D02*
X0182175Y0281179D01*
X0181393Y0281965D02*
X0235820Y0281965D01*
X0235820Y0282751D02*
X0180607Y0282751D01*
X0179821Y0283536D02*
X0235820Y0283536D01*
X0235820Y0284322D02*
X0179035Y0284322D01*
X0178249Y0285108D02*
X0235820Y0285108D01*
X0235820Y0285894D02*
X0177059Y0285894D01*
X0164479Y0285894D02*
X0158903Y0285894D01*
X0158903Y0285108D02*
X0163275Y0285108D01*
X0162436Y0284322D02*
X0158903Y0284322D01*
X0158162Y0283536D02*
X0161598Y0283536D01*
X0160759Y0282751D02*
X0130956Y0282751D01*
X0130956Y0283536D02*
X0152125Y0283536D01*
X0151385Y0284322D02*
X0130956Y0284322D01*
X0130827Y0285108D02*
X0151385Y0285108D01*
X0151385Y0285894D02*
X0130502Y0285894D01*
X0130055Y0286680D02*
X0151385Y0286680D01*
X0151385Y0287466D02*
X0129269Y0287466D01*
X0129187Y0288252D02*
X0151385Y0288252D01*
X0151385Y0289038D02*
X0129187Y0289038D01*
X0129187Y0289824D02*
X0151385Y0289824D01*
X0155949Y0294539D02*
X0231496Y0294539D01*
X0233133Y0293753D02*
X0156735Y0293753D01*
X0157516Y0292967D02*
X0234132Y0292967D01*
X0234703Y0292181D02*
X0157841Y0292181D01*
X0157937Y0291396D02*
X0235210Y0291396D01*
X0235465Y0290610D02*
X0158221Y0290610D01*
X0158903Y0289824D02*
X0235720Y0289824D01*
X0235801Y0289038D02*
X0158903Y0289038D01*
X0158903Y0288252D02*
X0235820Y0288252D01*
X0235820Y0287466D02*
X0158903Y0287466D01*
X0158903Y0286680D02*
X0235820Y0286680D01*
X0184741Y0247384D02*
X0183723Y0247384D01*
X0184811Y0246599D02*
X0171287Y0246599D01*
X0171287Y0247384D02*
X0179064Y0247384D01*
X0178619Y0248170D02*
X0171287Y0248170D01*
X0171287Y0248956D02*
X0178619Y0248956D01*
X0178619Y0249742D02*
X0171287Y0249742D01*
X0171287Y0250528D02*
X0178619Y0250528D01*
X0178619Y0251314D02*
X0171287Y0251314D01*
X0171287Y0252100D02*
X0178619Y0252100D01*
X0183677Y0245813D02*
X0171287Y0245813D01*
X0156441Y0232452D02*
X0154388Y0232452D01*
X0154388Y0231666D02*
X0157115Y0231666D01*
X0157788Y0230880D02*
X0154388Y0230880D01*
X0154388Y0230094D02*
X0158462Y0230094D01*
X0159136Y0229308D02*
X0154388Y0229308D01*
X0154388Y0228523D02*
X0159809Y0228523D01*
X0160483Y0227737D02*
X0154388Y0227737D01*
X0154388Y0226951D02*
X0161183Y0226951D01*
X0155767Y0233238D02*
X0154388Y0233238D01*
X0154388Y0234024D02*
X0155094Y0234024D01*
X0154420Y0234810D02*
X0154388Y0234810D01*
X0149600Y0234810D02*
X0126687Y0234810D01*
X0126687Y0235596D02*
X0149600Y0235596D01*
X0149600Y0236382D02*
X0126687Y0236382D01*
X0126687Y0237168D02*
X0149600Y0237168D01*
X0149600Y0237953D02*
X0126687Y0237953D01*
X0126687Y0238739D02*
X0149600Y0238739D01*
X0149600Y0239525D02*
X0126687Y0239525D01*
X0126687Y0240311D02*
X0149600Y0240311D01*
X0149600Y0241097D02*
X0126687Y0241097D01*
X0126687Y0241883D02*
X0149600Y0241883D01*
X0149600Y0242669D02*
X0126687Y0242669D01*
X0126687Y0243455D02*
X0149600Y0243455D01*
X0149600Y0244241D02*
X0126687Y0244241D01*
X0126687Y0245027D02*
X0149326Y0245027D01*
X0149600Y0244753D02*
X0149600Y0214296D01*
X0149169Y0214296D01*
X0148235Y0213363D01*
X0148235Y0206925D01*
X0149169Y0205991D01*
X0154662Y0205991D01*
X0154534Y0205863D01*
X0154534Y0199425D01*
X0155468Y0198491D01*
X0155500Y0198491D01*
X0155500Y0198115D01*
X0154365Y0198115D01*
X0154188Y0197937D01*
X0151463Y0197937D01*
X0150436Y0197512D01*
X0145925Y0193001D01*
X0145500Y0191974D01*
X0145500Y0176914D01*
X0145037Y0177376D01*
X0145037Y0189370D01*
X0144673Y0190250D01*
X0144000Y0190923D01*
X0144000Y0190923D01*
X0142750Y0192173D01*
X0141870Y0192537D01*
X0141500Y0192537D01*
X0140922Y0193115D01*
X0132712Y0193115D01*
X0131778Y0192182D01*
X0131778Y0189394D01*
X0129412Y0191760D01*
X0129412Y0199152D01*
X0130510Y0200250D01*
X0134485Y0200250D01*
X0134485Y0199425D01*
X0135419Y0198491D01*
X0141070Y0198491D01*
X0142003Y0199425D01*
X0142003Y0205863D01*
X0141070Y0206796D01*
X0135419Y0206796D01*
X0134485Y0205863D01*
X0134485Y0205037D01*
X0129043Y0205037D01*
X0128163Y0204673D01*
X0126687Y0203198D01*
X0126687Y0257737D01*
X0128801Y0259850D01*
X0149000Y0259850D01*
X0149000Y0258418D01*
X0149364Y0257538D01*
X0150038Y0256864D01*
X0152750Y0254152D01*
X0152750Y0248373D01*
X0144748Y0256376D01*
X0143868Y0256740D01*
X0140192Y0256740D01*
X0140192Y0257566D01*
X0139259Y0258499D01*
X0133608Y0258499D01*
X0132674Y0257566D01*
X0132674Y0251127D01*
X0133608Y0250194D01*
X0139259Y0250194D01*
X0140192Y0251127D01*
X0140192Y0251953D01*
X0142400Y0251953D01*
X0149600Y0244753D01*
X0148540Y0245813D02*
X0126687Y0245813D01*
X0126687Y0246599D02*
X0147754Y0246599D01*
X0146969Y0247384D02*
X0126687Y0247384D01*
X0126687Y0248170D02*
X0146183Y0248170D01*
X0145397Y0248956D02*
X0126687Y0248956D01*
X0126687Y0249742D02*
X0144611Y0249742D01*
X0143825Y0250528D02*
X0139593Y0250528D01*
X0140192Y0251314D02*
X0143039Y0251314D01*
X0145880Y0255244D02*
X0151659Y0255244D01*
X0150873Y0256029D02*
X0145094Y0256029D01*
X0146666Y0254458D02*
X0152445Y0254458D01*
X0152750Y0253672D02*
X0147452Y0253672D01*
X0148238Y0252886D02*
X0152750Y0252886D01*
X0152750Y0252100D02*
X0149023Y0252100D01*
X0149809Y0251314D02*
X0152750Y0251314D01*
X0152750Y0250528D02*
X0150595Y0250528D01*
X0151381Y0249742D02*
X0152750Y0249742D01*
X0152750Y0248956D02*
X0152167Y0248956D01*
X0150087Y0256815D02*
X0140192Y0256815D01*
X0140156Y0257601D02*
X0149338Y0257601D01*
X0149013Y0258387D02*
X0139371Y0258387D01*
X0133496Y0258387D02*
X0127338Y0258387D01*
X0126687Y0257601D02*
X0132710Y0257601D01*
X0132674Y0256815D02*
X0126687Y0256815D01*
X0126687Y0256029D02*
X0132674Y0256029D01*
X0132674Y0255244D02*
X0126687Y0255244D01*
X0126687Y0254458D02*
X0132674Y0254458D01*
X0132674Y0253672D02*
X0126687Y0253672D01*
X0126687Y0252886D02*
X0132674Y0252886D01*
X0132674Y0252100D02*
X0126687Y0252100D01*
X0126687Y0251314D02*
X0132674Y0251314D01*
X0133273Y0250528D02*
X0126687Y0250528D01*
X0121100Y0250528D02*
X0118924Y0250528D01*
X0119523Y0251314D02*
X0121100Y0251314D01*
X0121100Y0252100D02*
X0119523Y0252100D01*
X0119523Y0252886D02*
X0121100Y0252886D01*
X0121100Y0253672D02*
X0119523Y0253672D01*
X0119523Y0254458D02*
X0121100Y0254458D01*
X0121100Y0255244D02*
X0119523Y0255244D01*
X0119523Y0256029D02*
X0121100Y0256029D01*
X0121100Y0256815D02*
X0119523Y0256815D01*
X0119487Y0257601D02*
X0121100Y0257601D01*
X0121100Y0258387D02*
X0118701Y0258387D01*
X0121100Y0259173D02*
X0003187Y0259173D01*
X0003187Y0258387D02*
X0043988Y0258387D01*
X0043202Y0257601D02*
X0003187Y0257601D01*
X0003187Y0256815D02*
X0043166Y0256815D01*
X0043166Y0256029D02*
X0003187Y0256029D01*
X0003187Y0255244D02*
X0043166Y0255244D01*
X0043166Y0254458D02*
X0003187Y0254458D01*
X0003187Y0253672D02*
X0043166Y0253672D01*
X0043166Y0252886D02*
X0003187Y0252886D01*
X0003187Y0252100D02*
X0043166Y0252100D01*
X0043166Y0251314D02*
X0003187Y0251314D01*
X0003187Y0250528D02*
X0043765Y0250528D01*
X0044531Y0249742D02*
X0003187Y0249742D01*
X0003187Y0248956D02*
X0044531Y0248956D01*
X0044531Y0248170D02*
X0003187Y0248170D01*
X0003187Y0247384D02*
X0044531Y0247384D01*
X0044531Y0246599D02*
X0003187Y0246599D01*
X0003187Y0245813D02*
X0044531Y0245813D01*
X0044531Y0245027D02*
X0003187Y0245027D01*
X0003187Y0244241D02*
X0044531Y0244241D01*
X0044531Y0243455D02*
X0003187Y0243455D01*
X0003187Y0242669D02*
X0044531Y0242669D01*
X0044531Y0241883D02*
X0003187Y0241883D01*
X0003187Y0241097D02*
X0044531Y0241097D01*
X0044531Y0240311D02*
X0003187Y0240311D01*
X0003187Y0239525D02*
X0044531Y0239525D01*
X0044531Y0238739D02*
X0003187Y0238739D01*
X0003187Y0237953D02*
X0044531Y0237953D01*
X0044531Y0237168D02*
X0003187Y0237168D01*
X0003187Y0236382D02*
X0044531Y0236382D01*
X0044531Y0235596D02*
X0003187Y0235596D01*
X0003187Y0234810D02*
X0044531Y0234810D01*
X0044531Y0234024D02*
X0003187Y0234024D01*
X0003187Y0233238D02*
X0044531Y0233238D01*
X0044531Y0232452D02*
X0003187Y0232452D01*
X0003187Y0231666D02*
X0044531Y0231666D01*
X0044531Y0230880D02*
X0003187Y0230880D01*
X0003187Y0230094D02*
X0044531Y0230094D01*
X0044531Y0229308D02*
X0003187Y0229308D01*
X0003187Y0228523D02*
X0036210Y0228523D01*
X0035735Y0227737D02*
X0003187Y0227737D01*
X0003187Y0226951D02*
X0035735Y0226951D01*
X0049319Y0228523D02*
X0049960Y0228523D01*
X0049319Y0229308D02*
X0058252Y0229308D01*
X0058252Y0230094D02*
X0049319Y0230094D01*
X0049319Y0230880D02*
X0058252Y0230880D01*
X0058252Y0231666D02*
X0049319Y0231666D01*
X0049319Y0232452D02*
X0058252Y0232452D01*
X0058252Y0233238D02*
X0049319Y0233238D01*
X0049319Y0234024D02*
X0058252Y0234024D01*
X0058252Y0234810D02*
X0049319Y0234810D01*
X0049319Y0235596D02*
X0058252Y0235596D01*
X0058252Y0236382D02*
X0049319Y0236382D01*
X0049319Y0237168D02*
X0058252Y0237168D01*
X0058252Y0237953D02*
X0049319Y0237953D01*
X0049319Y0238739D02*
X0058252Y0238739D01*
X0058252Y0239525D02*
X0049319Y0239525D01*
X0049319Y0240311D02*
X0058252Y0240311D01*
X0058252Y0241097D02*
X0049319Y0241097D01*
X0049319Y0241883D02*
X0058252Y0241883D01*
X0058252Y0242669D02*
X0049319Y0242669D01*
X0049319Y0243455D02*
X0058252Y0243455D01*
X0058252Y0244241D02*
X0049319Y0244241D01*
X0049319Y0245027D02*
X0058252Y0245027D01*
X0058252Y0245813D02*
X0049319Y0245813D01*
X0049319Y0246599D02*
X0058252Y0246599D01*
X0058252Y0247384D02*
X0049319Y0247384D01*
X0049319Y0248170D02*
X0058252Y0248170D01*
X0058252Y0248956D02*
X0049319Y0248956D01*
X0049319Y0249742D02*
X0058252Y0249742D01*
X0057486Y0250528D02*
X0050085Y0250528D01*
X0050684Y0251314D02*
X0056887Y0251314D01*
X0056887Y0252100D02*
X0050684Y0252100D01*
X0050684Y0252886D02*
X0056887Y0252886D01*
X0056887Y0253672D02*
X0050684Y0253672D01*
X0050684Y0254458D02*
X0056887Y0254458D01*
X0056887Y0255244D02*
X0050684Y0255244D01*
X0050684Y0256029D02*
X0056887Y0256029D01*
X0056887Y0256815D02*
X0050684Y0256815D01*
X0050649Y0257601D02*
X0056922Y0257601D01*
X0057708Y0258387D02*
X0049863Y0258387D01*
X0063583Y0258387D02*
X0071429Y0258387D01*
X0070643Y0257601D02*
X0064369Y0257601D01*
X0064405Y0256815D02*
X0070607Y0256815D01*
X0070607Y0256029D02*
X0064405Y0256029D01*
X0064405Y0255244D02*
X0070607Y0255244D01*
X0070607Y0254458D02*
X0064405Y0254458D01*
X0064405Y0253672D02*
X0070607Y0253672D01*
X0070607Y0252886D02*
X0064405Y0252886D01*
X0064405Y0252100D02*
X0070607Y0252100D01*
X0070607Y0251314D02*
X0064405Y0251314D01*
X0063806Y0250528D02*
X0071206Y0250528D01*
X0071972Y0249742D02*
X0063039Y0249742D01*
X0063039Y0248956D02*
X0071972Y0248956D01*
X0071972Y0248170D02*
X0063039Y0248170D01*
X0063039Y0247384D02*
X0071972Y0247384D01*
X0071972Y0246599D02*
X0063039Y0246599D01*
X0063039Y0245813D02*
X0071972Y0245813D01*
X0071972Y0245027D02*
X0063039Y0245027D01*
X0063039Y0244241D02*
X0071972Y0244241D01*
X0071972Y0243455D02*
X0063039Y0243455D01*
X0063039Y0242669D02*
X0071972Y0242669D01*
X0071972Y0241883D02*
X0063039Y0241883D01*
X0063039Y0241097D02*
X0071972Y0241097D01*
X0071972Y0240311D02*
X0063039Y0240311D01*
X0063039Y0239525D02*
X0071972Y0239525D01*
X0071972Y0238739D02*
X0063039Y0238739D01*
X0063039Y0237953D02*
X0071972Y0237953D01*
X0071972Y0237168D02*
X0063039Y0237168D01*
X0063039Y0236382D02*
X0071972Y0236382D01*
X0071972Y0235596D02*
X0063039Y0235596D01*
X0063039Y0234810D02*
X0071972Y0234810D01*
X0071972Y0234024D02*
X0063039Y0234024D01*
X0063039Y0233238D02*
X0071972Y0233238D01*
X0071972Y0232452D02*
X0063039Y0232452D01*
X0063039Y0231666D02*
X0071972Y0231666D01*
X0071972Y0230880D02*
X0063039Y0230880D01*
X0063039Y0230094D02*
X0071972Y0230094D01*
X0071972Y0229308D02*
X0063039Y0229308D01*
X0063039Y0228523D02*
X0063710Y0228523D01*
X0076760Y0228523D02*
X0077460Y0228523D01*
X0076760Y0229308D02*
X0085811Y0229308D01*
X0085811Y0230094D02*
X0076760Y0230094D01*
X0076760Y0230880D02*
X0085811Y0230880D01*
X0085811Y0231666D02*
X0076760Y0231666D01*
X0076760Y0232452D02*
X0085811Y0232452D01*
X0085811Y0233238D02*
X0076760Y0233238D01*
X0076760Y0234024D02*
X0085811Y0234024D01*
X0085811Y0234810D02*
X0076760Y0234810D01*
X0076760Y0235596D02*
X0085811Y0235596D01*
X0085811Y0236382D02*
X0076760Y0236382D01*
X0076760Y0237168D02*
X0085811Y0237168D01*
X0085811Y0237953D02*
X0076760Y0237953D01*
X0076760Y0238739D02*
X0085811Y0238739D01*
X0085811Y0239525D02*
X0076760Y0239525D01*
X0076760Y0240311D02*
X0085811Y0240311D01*
X0085811Y0241097D02*
X0076760Y0241097D01*
X0076760Y0241883D02*
X0085811Y0241883D01*
X0085811Y0242669D02*
X0076760Y0242669D01*
X0076760Y0243455D02*
X0085811Y0243455D01*
X0085811Y0244241D02*
X0076760Y0244241D01*
X0076760Y0245027D02*
X0085811Y0245027D01*
X0085811Y0245813D02*
X0076760Y0245813D01*
X0076760Y0246599D02*
X0085811Y0246599D01*
X0085811Y0247384D02*
X0076760Y0247384D01*
X0076760Y0248170D02*
X0085811Y0248170D01*
X0085811Y0248956D02*
X0076760Y0248956D01*
X0076760Y0249742D02*
X0085811Y0249742D01*
X0085045Y0250528D02*
X0077526Y0250528D01*
X0078125Y0251314D02*
X0084446Y0251314D01*
X0084446Y0252100D02*
X0078125Y0252100D01*
X0078125Y0252886D02*
X0084446Y0252886D01*
X0084446Y0253672D02*
X0078125Y0253672D01*
X0078125Y0254458D02*
X0084446Y0254458D01*
X0084446Y0255244D02*
X0078125Y0255244D01*
X0078125Y0256029D02*
X0084446Y0256029D01*
X0084446Y0256815D02*
X0078125Y0256815D01*
X0078090Y0257601D02*
X0084481Y0257601D01*
X0085267Y0258387D02*
X0077304Y0258387D01*
X0072183Y0273391D02*
X0073860Y0274085D01*
X0075143Y0275368D01*
X0075838Y0277045D01*
X0075838Y0284797D01*
X0075143Y0286474D01*
X0073860Y0287757D01*
X0072183Y0288452D01*
X0070368Y0288452D01*
X0068691Y0287757D01*
X0067408Y0286474D01*
X0066713Y0284797D01*
X0066713Y0277045D01*
X0067408Y0275368D01*
X0068691Y0274085D01*
X0070368Y0273391D01*
X0072183Y0273391D01*
X0073880Y0274105D02*
X0082450Y0274105D01*
X0082471Y0274085D02*
X0084148Y0273391D01*
X0085963Y0273391D01*
X0087639Y0274085D01*
X0088923Y0275368D01*
X0089617Y0277045D01*
X0089617Y0284797D01*
X0088923Y0286474D01*
X0087639Y0287757D01*
X0085963Y0288452D01*
X0084148Y0288452D01*
X0082471Y0287757D01*
X0081187Y0286474D01*
X0080493Y0284797D01*
X0080493Y0277045D01*
X0081187Y0275368D01*
X0082471Y0274085D01*
X0081665Y0274891D02*
X0074666Y0274891D01*
X0075271Y0275677D02*
X0081060Y0275677D01*
X0080734Y0276463D02*
X0075597Y0276463D01*
X0075838Y0277249D02*
X0080493Y0277249D01*
X0080493Y0278035D02*
X0075838Y0278035D01*
X0075838Y0278821D02*
X0080493Y0278821D01*
X0080493Y0279607D02*
X0075838Y0279607D01*
X0075838Y0280393D02*
X0080493Y0280393D01*
X0080493Y0281179D02*
X0075838Y0281179D01*
X0075838Y0281965D02*
X0080493Y0281965D01*
X0080493Y0282751D02*
X0075838Y0282751D01*
X0075838Y0283536D02*
X0080493Y0283536D01*
X0080493Y0284322D02*
X0075838Y0284322D01*
X0075709Y0285108D02*
X0080622Y0285108D01*
X0080947Y0285894D02*
X0075383Y0285894D01*
X0074937Y0286680D02*
X0081394Y0286680D01*
X0082179Y0287466D02*
X0074151Y0287466D01*
X0072666Y0288252D02*
X0083665Y0288252D01*
X0086446Y0288252D02*
X0097444Y0288252D01*
X0097927Y0288452D02*
X0096250Y0287757D01*
X0094967Y0286474D01*
X0094272Y0284797D01*
X0094272Y0277045D01*
X0094967Y0275368D01*
X0096250Y0274085D01*
X0097927Y0273391D01*
X0099742Y0273391D01*
X0101419Y0274085D01*
X0102702Y0275368D01*
X0103397Y0277045D01*
X0103397Y0284797D01*
X0102702Y0286474D01*
X0101419Y0287757D01*
X0099742Y0288452D01*
X0097927Y0288452D01*
X0095959Y0287466D02*
X0087931Y0287466D01*
X0088717Y0286680D02*
X0095173Y0286680D01*
X0094727Y0285894D02*
X0089163Y0285894D01*
X0089488Y0285108D02*
X0094401Y0285108D01*
X0094272Y0284322D02*
X0089617Y0284322D01*
X0089617Y0283536D02*
X0094272Y0283536D01*
X0094272Y0282751D02*
X0089617Y0282751D01*
X0089617Y0281965D02*
X0094272Y0281965D01*
X0094272Y0281179D02*
X0089617Y0281179D01*
X0089617Y0280393D02*
X0094272Y0280393D01*
X0094272Y0279607D02*
X0089617Y0279607D01*
X0089617Y0278821D02*
X0094272Y0278821D01*
X0094272Y0278035D02*
X0089617Y0278035D01*
X0089617Y0277249D02*
X0094272Y0277249D01*
X0094514Y0276463D02*
X0089376Y0276463D01*
X0089051Y0275677D02*
X0094839Y0275677D01*
X0095444Y0274891D02*
X0088446Y0274891D01*
X0087660Y0274105D02*
X0096230Y0274105D01*
X0101439Y0274105D02*
X0110010Y0274105D01*
X0110030Y0274085D02*
X0111707Y0273391D01*
X0113522Y0273391D01*
X0115198Y0274085D01*
X0116482Y0275368D01*
X0117176Y0277045D01*
X0117176Y0284797D01*
X0116482Y0286474D01*
X0115198Y0287757D01*
X0113522Y0288452D01*
X0111707Y0288452D01*
X0110030Y0287757D01*
X0108747Y0286474D01*
X0108052Y0284797D01*
X0108052Y0277045D01*
X0108747Y0275368D01*
X0110030Y0274085D01*
X0109224Y0274891D02*
X0102225Y0274891D01*
X0102830Y0275677D02*
X0108619Y0275677D01*
X0108293Y0276463D02*
X0103156Y0276463D01*
X0103397Y0277249D02*
X0108052Y0277249D01*
X0108052Y0278035D02*
X0103397Y0278035D01*
X0103397Y0278821D02*
X0108052Y0278821D01*
X0108052Y0279607D02*
X0103397Y0279607D01*
X0103397Y0280393D02*
X0108052Y0280393D01*
X0108052Y0281179D02*
X0103397Y0281179D01*
X0103397Y0281965D02*
X0108052Y0281965D01*
X0108052Y0282751D02*
X0103397Y0282751D01*
X0103397Y0283536D02*
X0108052Y0283536D01*
X0108052Y0284322D02*
X0103397Y0284322D01*
X0103268Y0285108D02*
X0108181Y0285108D01*
X0108506Y0285894D02*
X0102942Y0285894D01*
X0102496Y0286680D02*
X0108953Y0286680D01*
X0109738Y0287466D02*
X0101710Y0287466D01*
X0100225Y0288252D02*
X0111224Y0288252D01*
X0114005Y0288252D02*
X0123600Y0288252D01*
X0123600Y0289038D02*
X0003206Y0289038D01*
X0003187Y0288252D02*
X0042326Y0288252D01*
X0042809Y0288452D02*
X0041132Y0287757D01*
X0039849Y0286474D01*
X0039154Y0284797D01*
X0039154Y0277045D01*
X0039849Y0275368D01*
X0041132Y0274085D01*
X0042809Y0273391D01*
X0044624Y0273391D01*
X0046301Y0274085D01*
X0047584Y0275368D01*
X0048279Y0277045D01*
X0048279Y0284797D01*
X0047584Y0286474D01*
X0046301Y0287757D01*
X0044624Y0288452D01*
X0042809Y0288452D01*
X0040841Y0287466D02*
X0003187Y0287466D01*
X0003187Y0286680D02*
X0040055Y0286680D01*
X0039609Y0285894D02*
X0003187Y0285894D01*
X0003187Y0285108D02*
X0039283Y0285108D01*
X0039154Y0284322D02*
X0003187Y0284322D01*
X0003187Y0283536D02*
X0039154Y0283536D01*
X0039154Y0282751D02*
X0003187Y0282751D01*
X0003187Y0281965D02*
X0039154Y0281965D01*
X0039154Y0281179D02*
X0003187Y0281179D01*
X0003187Y0280393D02*
X0039154Y0280393D01*
X0039154Y0279607D02*
X0003187Y0279607D01*
X0003187Y0278821D02*
X0039154Y0278821D01*
X0039154Y0278035D02*
X0003187Y0278035D01*
X0003187Y0277249D02*
X0039154Y0277249D01*
X0039395Y0276463D02*
X0003187Y0276463D01*
X0003187Y0275677D02*
X0039721Y0275677D01*
X0040326Y0274891D02*
X0003187Y0274891D01*
X0003187Y0274105D02*
X0041112Y0274105D01*
X0046321Y0274105D02*
X0054891Y0274105D01*
X0054912Y0274085D02*
X0056589Y0273391D01*
X0058404Y0273391D01*
X0060080Y0274085D01*
X0061364Y0275368D01*
X0062058Y0277045D01*
X0062058Y0284797D01*
X0061364Y0286474D01*
X0060080Y0287757D01*
X0058404Y0288452D01*
X0056589Y0288452D01*
X0054912Y0287757D01*
X0053628Y0286474D01*
X0052934Y0284797D01*
X0052934Y0277045D01*
X0053628Y0275368D01*
X0054912Y0274085D01*
X0054105Y0274891D02*
X0047107Y0274891D01*
X0047712Y0275677D02*
X0053500Y0275677D01*
X0053175Y0276463D02*
X0048038Y0276463D01*
X0048279Y0277249D02*
X0052934Y0277249D01*
X0052934Y0278035D02*
X0048279Y0278035D01*
X0048279Y0278821D02*
X0052934Y0278821D01*
X0052934Y0279607D02*
X0048279Y0279607D01*
X0048279Y0280393D02*
X0052934Y0280393D01*
X0052934Y0281179D02*
X0048279Y0281179D01*
X0048279Y0281965D02*
X0052934Y0281965D01*
X0052934Y0282751D02*
X0048279Y0282751D01*
X0048279Y0283536D02*
X0052934Y0283536D01*
X0052934Y0284322D02*
X0048279Y0284322D01*
X0048150Y0285108D02*
X0053063Y0285108D01*
X0053388Y0285894D02*
X0047824Y0285894D01*
X0047378Y0286680D02*
X0053834Y0286680D01*
X0054620Y0287466D02*
X0046592Y0287466D01*
X0045107Y0288252D02*
X0056106Y0288252D01*
X0058887Y0288252D02*
X0069885Y0288252D01*
X0068400Y0287466D02*
X0060372Y0287466D01*
X0061158Y0286680D02*
X0067614Y0286680D01*
X0067168Y0285894D02*
X0061604Y0285894D01*
X0061929Y0285108D02*
X0066842Y0285108D01*
X0066713Y0284322D02*
X0062058Y0284322D01*
X0062058Y0283536D02*
X0066713Y0283536D01*
X0066713Y0282751D02*
X0062058Y0282751D01*
X0062058Y0281965D02*
X0066713Y0281965D01*
X0066713Y0281179D02*
X0062058Y0281179D01*
X0062058Y0280393D02*
X0066713Y0280393D01*
X0066713Y0279607D02*
X0062058Y0279607D01*
X0062058Y0278821D02*
X0066713Y0278821D01*
X0066713Y0278035D02*
X0062058Y0278035D01*
X0062058Y0277249D02*
X0066713Y0277249D01*
X0066954Y0276463D02*
X0061817Y0276463D01*
X0061492Y0275677D02*
X0067280Y0275677D01*
X0067885Y0274891D02*
X0060887Y0274891D01*
X0060101Y0274105D02*
X0068671Y0274105D01*
X0090598Y0249742D02*
X0099591Y0249742D01*
X0099591Y0248956D02*
X0090598Y0248956D01*
X0090598Y0248170D02*
X0099591Y0248170D01*
X0099591Y0247384D02*
X0090598Y0247384D01*
X0090598Y0246599D02*
X0099591Y0246599D01*
X0099591Y0245813D02*
X0090598Y0245813D01*
X0090598Y0245027D02*
X0099591Y0245027D01*
X0099591Y0244241D02*
X0090598Y0244241D01*
X0090598Y0243455D02*
X0099591Y0243455D01*
X0099591Y0242669D02*
X0090598Y0242669D01*
X0090598Y0241883D02*
X0099591Y0241883D01*
X0099591Y0241097D02*
X0090598Y0241097D01*
X0090598Y0240311D02*
X0099591Y0240311D01*
X0099591Y0239525D02*
X0090598Y0239525D01*
X0090598Y0238739D02*
X0099591Y0238739D01*
X0099591Y0237953D02*
X0090598Y0237953D01*
X0090598Y0237168D02*
X0099591Y0237168D01*
X0099591Y0236382D02*
X0090598Y0236382D01*
X0090598Y0235596D02*
X0099591Y0235596D01*
X0099591Y0234810D02*
X0090598Y0234810D01*
X0090598Y0234024D02*
X0099591Y0234024D01*
X0099591Y0233238D02*
X0090598Y0233238D01*
X0090598Y0232452D02*
X0099591Y0232452D01*
X0099591Y0231666D02*
X0090598Y0231666D01*
X0090598Y0230880D02*
X0099591Y0230880D01*
X0099591Y0230094D02*
X0090598Y0230094D01*
X0090598Y0229308D02*
X0099591Y0229308D01*
X0104378Y0229308D02*
X0113370Y0229308D01*
X0113370Y0230094D02*
X0104378Y0230094D01*
X0104378Y0230880D02*
X0113370Y0230880D01*
X0113370Y0231666D02*
X0104378Y0231666D01*
X0104378Y0232452D02*
X0113370Y0232452D01*
X0113370Y0233238D02*
X0104378Y0233238D01*
X0104378Y0234024D02*
X0113370Y0234024D01*
X0113370Y0234810D02*
X0104378Y0234810D01*
X0104378Y0235596D02*
X0113370Y0235596D01*
X0113370Y0236382D02*
X0104378Y0236382D01*
X0104378Y0237168D02*
X0113370Y0237168D01*
X0113370Y0237953D02*
X0104378Y0237953D01*
X0104378Y0238739D02*
X0113370Y0238739D01*
X0113370Y0239525D02*
X0104378Y0239525D01*
X0104378Y0240311D02*
X0113370Y0240311D01*
X0113370Y0241097D02*
X0104378Y0241097D01*
X0104378Y0241883D02*
X0113370Y0241883D01*
X0113370Y0242669D02*
X0104378Y0242669D01*
X0104378Y0243455D02*
X0113370Y0243455D01*
X0113370Y0244241D02*
X0104378Y0244241D01*
X0104378Y0245027D02*
X0113370Y0245027D01*
X0113370Y0245813D02*
X0104378Y0245813D01*
X0104378Y0246599D02*
X0113370Y0246599D01*
X0113370Y0247384D02*
X0104378Y0247384D01*
X0104378Y0248170D02*
X0113370Y0248170D01*
X0113370Y0248956D02*
X0104378Y0248956D01*
X0104378Y0249742D02*
X0113370Y0249742D01*
X0112604Y0250528D02*
X0105144Y0250528D01*
X0105743Y0251314D02*
X0112005Y0251314D01*
X0112005Y0252100D02*
X0105743Y0252100D01*
X0105743Y0252886D02*
X0112005Y0252886D01*
X0112005Y0253672D02*
X0105743Y0253672D01*
X0105743Y0254458D02*
X0112005Y0254458D01*
X0112005Y0255244D02*
X0105743Y0255244D01*
X0105743Y0256029D02*
X0112005Y0256029D01*
X0112005Y0256815D02*
X0105743Y0256815D01*
X0105708Y0257601D02*
X0112040Y0257601D01*
X0112826Y0258387D02*
X0104922Y0258387D01*
X0099047Y0258387D02*
X0091142Y0258387D01*
X0091928Y0257601D02*
X0098261Y0257601D01*
X0098225Y0256815D02*
X0091964Y0256815D01*
X0091964Y0256029D02*
X0098225Y0256029D01*
X0098225Y0255244D02*
X0091964Y0255244D01*
X0091964Y0254458D02*
X0098225Y0254458D01*
X0098225Y0253672D02*
X0091964Y0253672D01*
X0091964Y0252886D02*
X0098225Y0252886D01*
X0098225Y0252100D02*
X0091964Y0252100D01*
X0091964Y0251314D02*
X0098225Y0251314D01*
X0098824Y0250528D02*
X0091365Y0250528D01*
X0091210Y0228523D02*
X0090598Y0228523D01*
X0096888Y0220663D02*
X0106028Y0220663D01*
X0105895Y0221449D02*
X0104392Y0221449D01*
X0104552Y0222235D02*
X0105735Y0222235D01*
X0105735Y0223021D02*
X0104552Y0223021D01*
X0104552Y0223807D02*
X0105735Y0223807D01*
X0105735Y0224593D02*
X0104552Y0224593D01*
X0104552Y0225379D02*
X0105735Y0225379D01*
X0105735Y0226165D02*
X0104552Y0226165D01*
X0104552Y0226951D02*
X0105735Y0226951D01*
X0105735Y0227737D02*
X0104552Y0227737D01*
X0104378Y0228523D02*
X0106210Y0228523D01*
X0111888Y0220663D02*
X0121100Y0220663D01*
X0121100Y0219877D02*
X0111726Y0219877D01*
X0111227Y0219092D02*
X0121100Y0219092D01*
X0121100Y0218306D02*
X0110441Y0218306D01*
X0109655Y0217520D02*
X0121100Y0217520D01*
X0121100Y0216734D02*
X0108869Y0216734D01*
X0108083Y0215948D02*
X0121100Y0215948D01*
X0121100Y0215162D02*
X0107297Y0215162D01*
X0106511Y0214376D02*
X0121100Y0214376D01*
X0121100Y0213590D02*
X0105725Y0213590D01*
X0104939Y0212804D02*
X0121100Y0212804D01*
X0121100Y0212018D02*
X0104154Y0212018D01*
X0103368Y0211232D02*
X0121100Y0211232D01*
X0121100Y0210447D02*
X0102582Y0210447D01*
X0101796Y0209661D02*
X0121100Y0209661D01*
X0126687Y0209661D02*
X0148235Y0209661D01*
X0148235Y0210447D02*
X0126687Y0210447D01*
X0126687Y0211232D02*
X0148235Y0211232D01*
X0148235Y0212018D02*
X0126687Y0212018D01*
X0126687Y0212804D02*
X0148235Y0212804D01*
X0148462Y0213590D02*
X0126687Y0213590D01*
X0126687Y0214376D02*
X0149600Y0214376D01*
X0149600Y0215162D02*
X0126687Y0215162D01*
X0126687Y0215948D02*
X0149600Y0215948D01*
X0149600Y0216734D02*
X0126687Y0216734D01*
X0126687Y0217520D02*
X0149600Y0217520D01*
X0149600Y0218306D02*
X0126687Y0218306D01*
X0126687Y0219092D02*
X0149600Y0219092D01*
X0149600Y0219877D02*
X0126687Y0219877D01*
X0126687Y0220663D02*
X0149600Y0220663D01*
X0149600Y0221449D02*
X0126687Y0221449D01*
X0126687Y0222235D02*
X0149600Y0222235D01*
X0149600Y0223021D02*
X0126687Y0223021D01*
X0126687Y0223807D02*
X0149600Y0223807D01*
X0149600Y0224593D02*
X0126687Y0224593D01*
X0126687Y0225379D02*
X0149600Y0225379D01*
X0149600Y0226165D02*
X0126687Y0226165D01*
X0126687Y0226951D02*
X0149600Y0226951D01*
X0149600Y0227737D02*
X0126687Y0227737D01*
X0126687Y0228523D02*
X0149600Y0228523D01*
X0149600Y0229308D02*
X0126687Y0229308D01*
X0126687Y0230094D02*
X0149600Y0230094D01*
X0149600Y0230880D02*
X0126687Y0230880D01*
X0126687Y0231666D02*
X0149600Y0231666D01*
X0149600Y0232452D02*
X0126687Y0232452D01*
X0126687Y0233238D02*
X0149600Y0233238D01*
X0149600Y0234024D02*
X0126687Y0234024D01*
X0121100Y0234024D02*
X0118157Y0234024D01*
X0118157Y0234810D02*
X0121100Y0234810D01*
X0121100Y0235596D02*
X0118157Y0235596D01*
X0118157Y0236382D02*
X0121100Y0236382D01*
X0121100Y0237168D02*
X0118157Y0237168D01*
X0118157Y0237953D02*
X0121100Y0237953D01*
X0121100Y0238739D02*
X0118157Y0238739D01*
X0118157Y0239525D02*
X0121100Y0239525D01*
X0121100Y0240311D02*
X0118157Y0240311D01*
X0118157Y0241097D02*
X0121100Y0241097D01*
X0121100Y0241883D02*
X0118157Y0241883D01*
X0118157Y0242669D02*
X0121100Y0242669D01*
X0121100Y0243455D02*
X0118157Y0243455D01*
X0118157Y0244241D02*
X0121100Y0244241D01*
X0121100Y0245027D02*
X0118157Y0245027D01*
X0118157Y0245813D02*
X0121100Y0245813D01*
X0121100Y0246599D02*
X0118157Y0246599D01*
X0118157Y0247384D02*
X0121100Y0247384D01*
X0121100Y0248170D02*
X0118157Y0248170D01*
X0118157Y0248956D02*
X0121100Y0248956D01*
X0121100Y0249742D02*
X0118157Y0249742D01*
X0121311Y0259959D02*
X0003187Y0259959D01*
X0003187Y0260745D02*
X0121794Y0260745D01*
X0122580Y0261531D02*
X0003187Y0261531D01*
X0003187Y0262317D02*
X0123366Y0262317D01*
X0124152Y0263103D02*
X0003187Y0263103D01*
X0003187Y0263889D02*
X0124938Y0263889D01*
X0125724Y0264675D02*
X0003187Y0264675D01*
X0003187Y0265460D02*
X0149000Y0265460D01*
X0149000Y0266246D02*
X0003187Y0266246D01*
X0003187Y0267032D02*
X0149000Y0267032D01*
X0149000Y0267818D02*
X0003187Y0267818D01*
X0003187Y0268604D02*
X0149000Y0268604D01*
X0149000Y0269390D02*
X0003187Y0269390D01*
X0003187Y0270176D02*
X0149000Y0270176D01*
X0149000Y0270962D02*
X0003187Y0270962D01*
X0003187Y0271748D02*
X0149000Y0271748D01*
X0149000Y0272534D02*
X0003187Y0272534D01*
X0003187Y0273320D02*
X0149000Y0273320D01*
X0149000Y0274105D02*
X0128998Y0274105D01*
X0129784Y0274891D02*
X0149000Y0274891D01*
X0149000Y0275677D02*
X0130389Y0275677D01*
X0130715Y0276463D02*
X0149000Y0276463D01*
X0149000Y0277249D02*
X0130956Y0277249D01*
X0130956Y0278035D02*
X0149000Y0278035D01*
X0149290Y0278821D02*
X0130956Y0278821D01*
X0130956Y0279607D02*
X0149972Y0279607D01*
X0150758Y0280393D02*
X0130956Y0280393D01*
X0130956Y0281179D02*
X0151905Y0281179D01*
X0159920Y0281965D02*
X0130956Y0281965D01*
X0123518Y0287466D02*
X0115490Y0287466D01*
X0116276Y0286680D02*
X0122732Y0286680D01*
X0122286Y0285894D02*
X0116722Y0285894D01*
X0117048Y0285108D02*
X0121960Y0285108D01*
X0121831Y0284322D02*
X0117176Y0284322D01*
X0117176Y0283536D02*
X0121831Y0283536D01*
X0121831Y0282751D02*
X0117176Y0282751D01*
X0117176Y0281965D02*
X0121831Y0281965D01*
X0121831Y0281179D02*
X0117176Y0281179D01*
X0117176Y0280393D02*
X0121831Y0280393D01*
X0121831Y0279607D02*
X0117176Y0279607D01*
X0117176Y0278821D02*
X0121831Y0278821D01*
X0121831Y0278035D02*
X0117176Y0278035D01*
X0117176Y0277249D02*
X0121831Y0277249D01*
X0122073Y0276463D02*
X0116935Y0276463D01*
X0116610Y0275677D02*
X0122398Y0275677D01*
X0123003Y0274891D02*
X0116005Y0274891D01*
X0115219Y0274105D02*
X0123789Y0274105D01*
X0128124Y0259173D02*
X0149000Y0259173D01*
X0121100Y0233238D02*
X0118157Y0233238D01*
X0118157Y0232452D02*
X0121100Y0232452D01*
X0121100Y0231666D02*
X0118157Y0231666D01*
X0118157Y0230880D02*
X0121100Y0230880D01*
X0121100Y0230094D02*
X0118157Y0230094D01*
X0118157Y0229308D02*
X0121100Y0229308D01*
X0121100Y0228523D02*
X0119078Y0228523D01*
X0119552Y0227737D02*
X0121100Y0227737D01*
X0121100Y0226951D02*
X0119552Y0226951D01*
X0119552Y0226165D02*
X0121100Y0226165D01*
X0121100Y0225379D02*
X0119552Y0225379D01*
X0119552Y0224593D02*
X0121100Y0224593D01*
X0121100Y0223807D02*
X0119552Y0223807D01*
X0119552Y0223021D02*
X0121100Y0223021D01*
X0121100Y0222235D02*
X0119552Y0222235D01*
X0119392Y0221449D02*
X0121100Y0221449D01*
X0126687Y0208875D02*
X0148235Y0208875D01*
X0148235Y0208089D02*
X0126687Y0208089D01*
X0126687Y0207303D02*
X0148235Y0207303D01*
X0148643Y0206517D02*
X0141349Y0206517D01*
X0142003Y0205731D02*
X0154534Y0205731D01*
X0154534Y0204945D02*
X0142003Y0204945D01*
X0142003Y0204159D02*
X0154534Y0204159D01*
X0154534Y0203373D02*
X0142003Y0203373D01*
X0142003Y0202587D02*
X0154534Y0202587D01*
X0154534Y0201801D02*
X0142003Y0201801D01*
X0142003Y0201016D02*
X0154534Y0201016D01*
X0154534Y0200230D02*
X0142003Y0200230D01*
X0142003Y0199444D02*
X0154534Y0199444D01*
X0155301Y0198658D02*
X0141236Y0198658D01*
X0146081Y0193156D02*
X0129412Y0193156D01*
X0129412Y0192371D02*
X0131967Y0192371D01*
X0131778Y0191585D02*
X0129588Y0191585D01*
X0130374Y0190799D02*
X0131778Y0190799D01*
X0131778Y0190013D02*
X0131160Y0190013D01*
X0129412Y0193942D02*
X0146866Y0193942D01*
X0147652Y0194728D02*
X0129412Y0194728D01*
X0129412Y0195514D02*
X0148438Y0195514D01*
X0149224Y0196300D02*
X0129412Y0196300D01*
X0129412Y0197086D02*
X0150010Y0197086D01*
X0151305Y0197872D02*
X0129412Y0197872D01*
X0129412Y0198658D02*
X0135252Y0198658D01*
X0134485Y0199444D02*
X0129704Y0199444D01*
X0130490Y0200230D02*
X0134485Y0200230D01*
X0134485Y0205731D02*
X0126687Y0205731D01*
X0126687Y0204945D02*
X0128820Y0204945D01*
X0127649Y0204159D02*
X0126687Y0204159D01*
X0126687Y0203373D02*
X0126863Y0203373D01*
X0126687Y0206517D02*
X0135139Y0206517D01*
X0142273Y0192371D02*
X0145664Y0192371D01*
X0145500Y0191585D02*
X0143338Y0191585D01*
X0144124Y0190799D02*
X0145500Y0190799D01*
X0145500Y0190013D02*
X0144771Y0190013D01*
X0145037Y0189227D02*
X0145500Y0189227D01*
X0145500Y0188441D02*
X0145037Y0188441D01*
X0145037Y0187655D02*
X0145500Y0187655D01*
X0145500Y0186869D02*
X0145037Y0186869D01*
X0145037Y0186083D02*
X0145500Y0186083D01*
X0145500Y0185297D02*
X0145037Y0185297D01*
X0145037Y0184511D02*
X0145500Y0184511D01*
X0145500Y0183725D02*
X0145037Y0183725D01*
X0145037Y0182940D02*
X0145500Y0182940D01*
X0145500Y0182154D02*
X0145037Y0182154D01*
X0145037Y0181368D02*
X0145500Y0181368D01*
X0145500Y0180582D02*
X0145037Y0180582D01*
X0145037Y0179796D02*
X0145500Y0179796D01*
X0145500Y0179010D02*
X0145037Y0179010D01*
X0145037Y0178224D02*
X0145500Y0178224D01*
X0145500Y0177438D02*
X0145037Y0177438D01*
X0161286Y0198658D02*
X0163530Y0198658D01*
X0164316Y0199444D02*
X0162052Y0199444D01*
X0188802Y0160934D02*
X0188985Y0160934D01*
X0193802Y0160934D02*
X0193985Y0160934D01*
X0204490Y0155433D02*
X0235820Y0155433D01*
X0235820Y0154647D02*
X0205276Y0154647D01*
X0206062Y0153861D02*
X0235820Y0153861D01*
X0235820Y0153075D02*
X0206848Y0153075D01*
X0207634Y0152289D02*
X0235820Y0152289D01*
X0235820Y0151503D02*
X0208420Y0151503D01*
X0209205Y0150717D02*
X0235820Y0150717D01*
X0235820Y0149931D02*
X0209991Y0149931D01*
X0210777Y0149145D02*
X0235820Y0149145D01*
X0235820Y0148359D02*
X0211563Y0148359D01*
X0212349Y0147573D02*
X0235820Y0147573D01*
X0235820Y0146788D02*
X0213135Y0146788D01*
X0213921Y0146002D02*
X0235820Y0146002D01*
X0235820Y0145216D02*
X0214707Y0145216D01*
X0215493Y0144430D02*
X0235820Y0144430D01*
X0235820Y0143644D02*
X0216279Y0143644D01*
X0217065Y0142858D02*
X0235820Y0142858D01*
X0235820Y0142072D02*
X0217850Y0142072D01*
X0218636Y0141286D02*
X0235820Y0141286D01*
X0235820Y0140500D02*
X0219422Y0140500D01*
X0220208Y0139714D02*
X0235820Y0139714D01*
X0235820Y0138928D02*
X0220994Y0138928D01*
X0221780Y0138143D02*
X0235820Y0138143D01*
X0235820Y0137357D02*
X0222566Y0137357D01*
X0223352Y0136571D02*
X0235820Y0136571D01*
X0235820Y0135785D02*
X0224138Y0135785D01*
X0224924Y0134999D02*
X0235820Y0134999D01*
X0235820Y0134213D02*
X0225710Y0134213D01*
X0226496Y0133427D02*
X0235820Y0133427D01*
X0235820Y0132641D02*
X0227281Y0132641D01*
X0228067Y0131855D02*
X0235820Y0131855D01*
X0235820Y0131069D02*
X0228853Y0131069D01*
X0229639Y0130283D02*
X0235820Y0130283D01*
X0235820Y0129498D02*
X0230425Y0129498D01*
X0231211Y0128712D02*
X0235820Y0128712D01*
X0235820Y0127926D02*
X0231997Y0127926D01*
X0232783Y0127140D02*
X0235820Y0127140D01*
X0235820Y0126354D02*
X0233483Y0126354D01*
X0233787Y0125568D02*
X0235820Y0125568D01*
X0235820Y0124782D02*
X0233787Y0124782D01*
X0233787Y0123996D02*
X0235820Y0123996D01*
X0235820Y0123210D02*
X0233787Y0123210D01*
X0233787Y0122424D02*
X0235820Y0122424D01*
X0235820Y0121638D02*
X0233787Y0121638D01*
X0233787Y0120852D02*
X0235820Y0120852D01*
X0235820Y0120067D02*
X0233787Y0120067D01*
X0233787Y0119281D02*
X0235820Y0119281D01*
X0235820Y0118495D02*
X0233787Y0118495D01*
X0233787Y0117709D02*
X0235820Y0117709D01*
X0235820Y0116923D02*
X0233787Y0116923D01*
X0233787Y0116137D02*
X0235820Y0116137D01*
X0235820Y0115351D02*
X0233787Y0115351D01*
X0233787Y0114565D02*
X0235820Y0114565D01*
X0235820Y0113779D02*
X0233787Y0113779D01*
X0233787Y0112993D02*
X0235820Y0112993D01*
X0235820Y0112207D02*
X0233787Y0112207D01*
X0233787Y0111422D02*
X0235820Y0111422D01*
X0235820Y0110636D02*
X0233787Y0110636D01*
X0233787Y0109850D02*
X0235820Y0109850D01*
X0235820Y0109064D02*
X0233787Y0109064D01*
X0233787Y0108278D02*
X0235820Y0108278D01*
X0235820Y0107492D02*
X0233787Y0107492D01*
X0233787Y0106706D02*
X0235820Y0106706D01*
X0235820Y0105920D02*
X0233787Y0105920D01*
X0233787Y0105134D02*
X0235820Y0105134D01*
X0235820Y0104348D02*
X0233787Y0104348D01*
X0233787Y0103562D02*
X0235820Y0103562D01*
X0235820Y0102776D02*
X0233787Y0102776D01*
X0233787Y0101991D02*
X0235820Y0101991D01*
X0235820Y0101205D02*
X0233787Y0101205D01*
X0233787Y0100419D02*
X0235820Y0100419D01*
X0235820Y0099633D02*
X0233787Y0099633D01*
X0233787Y0098847D02*
X0235820Y0098847D01*
X0235820Y0098061D02*
X0233787Y0098061D01*
X0233787Y0097275D02*
X0235820Y0097275D01*
X0235820Y0096489D02*
X0233787Y0096489D01*
X0233787Y0095703D02*
X0235820Y0095703D01*
X0235820Y0094917D02*
X0233787Y0094917D01*
X0233787Y0094131D02*
X0235820Y0094131D01*
X0235820Y0093346D02*
X0233787Y0093346D01*
X0233787Y0092560D02*
X0235820Y0092560D01*
X0235820Y0091774D02*
X0233787Y0091774D01*
X0233787Y0090988D02*
X0235820Y0090988D01*
X0235820Y0090202D02*
X0233787Y0090202D01*
X0233787Y0089416D02*
X0235820Y0089416D01*
X0235820Y0088630D02*
X0233787Y0088630D01*
X0233787Y0087844D02*
X0235820Y0087844D01*
X0235820Y0087058D02*
X0233787Y0087058D01*
X0233787Y0086272D02*
X0235820Y0086272D01*
X0235820Y0085486D02*
X0233787Y0085486D01*
X0233787Y0084700D02*
X0235820Y0084700D01*
X0235820Y0083915D02*
X0233787Y0083915D01*
X0233787Y0083129D02*
X0235820Y0083129D01*
X0235820Y0082343D02*
X0233787Y0082343D01*
X0233787Y0081557D02*
X0235820Y0081557D01*
X0235820Y0080771D02*
X0233787Y0080771D01*
X0233787Y0079985D02*
X0235820Y0079985D01*
X0235820Y0079199D02*
X0233787Y0079199D01*
X0233787Y0078413D02*
X0235820Y0078413D01*
X0235820Y0077627D02*
X0233787Y0077627D01*
X0233787Y0076841D02*
X0235820Y0076841D01*
X0235820Y0076055D02*
X0233787Y0076055D01*
X0233787Y0075270D02*
X0235820Y0075270D01*
X0235820Y0074484D02*
X0233787Y0074484D01*
X0233787Y0073698D02*
X0235820Y0073698D01*
X0235820Y0072912D02*
X0233787Y0072912D01*
X0233787Y0072126D02*
X0235820Y0072126D01*
X0235820Y0071340D02*
X0233787Y0071340D01*
X0233787Y0070554D02*
X0235820Y0070554D01*
X0235820Y0069768D02*
X0233787Y0069768D01*
X0233504Y0068982D02*
X0235820Y0068982D01*
X0235820Y0068196D02*
X0232831Y0068196D01*
X0232046Y0067410D02*
X0235820Y0067410D01*
X0235820Y0066624D02*
X0231260Y0066624D01*
X0230474Y0065839D02*
X0235820Y0065839D01*
X0235820Y0065053D02*
X0229688Y0065053D01*
X0228902Y0064267D02*
X0235820Y0064267D01*
X0235820Y0063481D02*
X0228116Y0063481D01*
X0224205Y0071340D02*
X0188787Y0071340D01*
X0188787Y0072126D02*
X0224991Y0072126D01*
X0212315Y0087844D02*
X0210472Y0087844D01*
X0210498Y0094917D02*
X0212290Y0094917D01*
X0196985Y0082343D02*
X0196791Y0082343D01*
X0196985Y0081557D02*
X0188787Y0081557D01*
X0188787Y0080771D02*
X0196985Y0080771D01*
X0197357Y0079985D02*
X0188787Y0079985D01*
X0188787Y0079199D02*
X0196985Y0079199D01*
X0196985Y0078413D02*
X0188787Y0078413D01*
X0188787Y0077627D02*
X0196985Y0077627D01*
X0196985Y0076841D02*
X0188787Y0076841D01*
X0188787Y0076055D02*
X0196985Y0076055D01*
X0196985Y0075270D02*
X0188787Y0075270D01*
X0188787Y0074484D02*
X0196985Y0074484D01*
X0196985Y0073698D02*
X0188787Y0073698D01*
X0188787Y0072912D02*
X0197248Y0072912D01*
X0198351Y0070554D02*
X0188787Y0070554D01*
X0188932Y0052478D02*
X0187606Y0052478D01*
X0184338Y0049334D02*
X0195900Y0049334D01*
X0195900Y0048548D02*
X0185124Y0048548D01*
X0185910Y0047763D02*
X0195900Y0047763D01*
X0195900Y0046977D02*
X0186243Y0046977D01*
X0188093Y0046191D02*
X0194774Y0046191D01*
X0194534Y0045405D02*
X0188332Y0045405D01*
X0188332Y0044619D02*
X0194534Y0044619D01*
X0194534Y0043833D02*
X0188332Y0043833D01*
X0188332Y0043047D02*
X0194534Y0043047D01*
X0194534Y0042261D02*
X0188332Y0042261D01*
X0188332Y0041475D02*
X0194534Y0041475D01*
X0194534Y0040689D02*
X0188332Y0040689D01*
X0188332Y0039903D02*
X0194534Y0039903D01*
X0194930Y0039118D02*
X0187936Y0039118D01*
X0181209Y0039118D02*
X0174216Y0039118D01*
X0174611Y0039903D02*
X0180814Y0039903D01*
X0180814Y0040689D02*
X0174611Y0040689D01*
X0174611Y0041475D02*
X0180814Y0041475D01*
X0180814Y0042261D02*
X0174611Y0042261D01*
X0174611Y0043047D02*
X0180814Y0043047D01*
X0180814Y0043833D02*
X0174611Y0043833D01*
X0174611Y0044619D02*
X0180814Y0044619D01*
X0180814Y0045405D02*
X0174611Y0045405D01*
X0174372Y0046191D02*
X0180711Y0046191D01*
X0179926Y0046977D02*
X0172493Y0046977D01*
X0172160Y0047763D02*
X0179140Y0047763D01*
X0178354Y0048548D02*
X0171374Y0048548D01*
X0170588Y0049334D02*
X0177568Y0049334D01*
X0176782Y0050120D02*
X0169802Y0050120D01*
X0169016Y0050906D02*
X0176124Y0050906D01*
X0175850Y0051692D02*
X0168230Y0051692D01*
X0167731Y0052478D02*
X0167557Y0052478D01*
X0164604Y0048548D02*
X0157624Y0048548D01*
X0158410Y0047763D02*
X0165390Y0047763D01*
X0166176Y0046977D02*
X0158743Y0046977D01*
X0160652Y0046191D02*
X0166961Y0046191D01*
X0167093Y0045405D02*
X0160891Y0045405D01*
X0160891Y0044619D02*
X0167093Y0044619D01*
X0167093Y0043833D02*
X0160891Y0043833D01*
X0160891Y0043047D02*
X0167093Y0043047D01*
X0167093Y0042261D02*
X0160891Y0042261D01*
X0160891Y0041475D02*
X0167093Y0041475D01*
X0167093Y0040689D02*
X0160891Y0040689D01*
X0160891Y0039903D02*
X0167093Y0039903D01*
X0167489Y0039118D02*
X0160495Y0039118D01*
X0153768Y0039118D02*
X0146775Y0039118D01*
X0147170Y0039903D02*
X0153373Y0039903D01*
X0153373Y0040689D02*
X0147170Y0040689D01*
X0147170Y0041475D02*
X0153373Y0041475D01*
X0153373Y0042261D02*
X0147170Y0042261D01*
X0147170Y0043047D02*
X0153373Y0043047D01*
X0153373Y0043833D02*
X0147170Y0043833D01*
X0147170Y0044619D02*
X0153373Y0044619D01*
X0153373Y0045405D02*
X0147170Y0045405D01*
X0146931Y0046191D02*
X0153211Y0046191D01*
X0152426Y0046977D02*
X0144993Y0046977D01*
X0144660Y0047763D02*
X0151640Y0047763D01*
X0150854Y0048548D02*
X0143874Y0048548D01*
X0143088Y0049334D02*
X0150068Y0049334D01*
X0149282Y0050120D02*
X0142302Y0050120D01*
X0141516Y0050906D02*
X0148624Y0050906D01*
X0148350Y0051692D02*
X0140730Y0051692D01*
X0140683Y0052478D02*
X0140135Y0052478D01*
X0136318Y0049334D02*
X0129338Y0049334D01*
X0130124Y0048548D02*
X0137104Y0048548D01*
X0137890Y0047763D02*
X0130910Y0047763D01*
X0131243Y0046977D02*
X0138676Y0046977D01*
X0139461Y0046191D02*
X0133211Y0046191D01*
X0133450Y0045405D02*
X0139652Y0045405D01*
X0139652Y0044619D02*
X0133450Y0044619D01*
X0133450Y0043833D02*
X0139652Y0043833D01*
X0139652Y0043047D02*
X0133450Y0043047D01*
X0133450Y0042261D02*
X0139652Y0042261D01*
X0139652Y0041475D02*
X0133450Y0041475D01*
X0133450Y0040689D02*
X0139652Y0040689D01*
X0139652Y0039903D02*
X0133450Y0039903D01*
X0133054Y0039118D02*
X0140048Y0039118D01*
X0135532Y0050120D02*
X0128552Y0050120D01*
X0127766Y0050906D02*
X0135030Y0050906D01*
X0134866Y0051692D02*
X0126980Y0051692D01*
X0126933Y0052478D02*
X0126385Y0052478D01*
X0123354Y0048548D02*
X0118098Y0048548D01*
X0118098Y0047763D02*
X0124140Y0047763D01*
X0124926Y0046977D02*
X0118098Y0046977D01*
X0119224Y0046191D02*
X0125711Y0046191D01*
X0125932Y0045405D02*
X0119464Y0045405D01*
X0119464Y0044619D02*
X0125932Y0044619D01*
X0125932Y0043833D02*
X0119464Y0043833D01*
X0119464Y0043047D02*
X0125932Y0043047D01*
X0125932Y0042261D02*
X0119464Y0042261D01*
X0119464Y0041475D02*
X0125932Y0041475D01*
X0125932Y0040689D02*
X0119464Y0040689D01*
X0119464Y0039903D02*
X0125932Y0039903D01*
X0126327Y0039118D02*
X0119068Y0039118D01*
X0112341Y0039118D02*
X0105348Y0039118D01*
X0105743Y0039903D02*
X0111946Y0039903D01*
X0111946Y0040689D02*
X0105743Y0040689D01*
X0105743Y0041475D02*
X0111946Y0041475D01*
X0111946Y0042261D02*
X0105743Y0042261D01*
X0105743Y0043047D02*
X0111946Y0043047D01*
X0111946Y0043833D02*
X0105743Y0043833D01*
X0105743Y0044619D02*
X0111946Y0044619D01*
X0111946Y0045405D02*
X0105743Y0045405D01*
X0105504Y0046191D02*
X0112185Y0046191D01*
X0113311Y0046977D02*
X0104378Y0046977D01*
X0104378Y0047763D02*
X0113311Y0047763D01*
X0113311Y0048548D02*
X0104378Y0048548D01*
X0104378Y0049334D02*
X0113311Y0049334D01*
X0113311Y0050120D02*
X0104378Y0050120D01*
X0104378Y0050906D02*
X0113311Y0050906D01*
X0113311Y0051692D02*
X0104378Y0051692D01*
X0104378Y0052478D02*
X0113311Y0052478D01*
X0113311Y0053264D02*
X0104378Y0053264D01*
X0104378Y0054050D02*
X0113311Y0054050D01*
X0113311Y0054836D02*
X0104378Y0054836D01*
X0104378Y0055622D02*
X0113311Y0055622D01*
X0113311Y0056408D02*
X0104378Y0056408D01*
X0104378Y0057194D02*
X0113311Y0057194D01*
X0113311Y0057979D02*
X0104378Y0057979D01*
X0104378Y0058765D02*
X0113311Y0058765D01*
X0113311Y0059551D02*
X0104378Y0059551D01*
X0104378Y0060337D02*
X0113311Y0060337D01*
X0113311Y0061123D02*
X0104378Y0061123D01*
X0104378Y0061909D02*
X0113311Y0061909D01*
X0113311Y0062695D02*
X0104378Y0062695D01*
X0104378Y0063481D02*
X0113311Y0063481D01*
X0113311Y0064267D02*
X0104378Y0064267D01*
X0104378Y0065053D02*
X0113311Y0065053D01*
X0113311Y0065839D02*
X0104378Y0065839D01*
X0104378Y0066624D02*
X0113311Y0066624D01*
X0113311Y0067410D02*
X0104378Y0067410D01*
X0104378Y0068196D02*
X0113311Y0068196D01*
X0118098Y0068196D02*
X0133561Y0068196D01*
X0132775Y0067410D02*
X0118098Y0067410D01*
X0118098Y0066624D02*
X0131989Y0066624D01*
X0131203Y0065839D02*
X0118098Y0065839D01*
X0118098Y0065053D02*
X0130417Y0065053D01*
X0129632Y0064267D02*
X0118098Y0064267D01*
X0118098Y0063481D02*
X0128846Y0063481D01*
X0128092Y0062695D02*
X0118098Y0062695D01*
X0118098Y0061909D02*
X0127766Y0061909D01*
X0127750Y0061123D02*
X0118098Y0061123D01*
X0118098Y0060337D02*
X0120288Y0060337D01*
X0119751Y0059551D02*
X0118098Y0059551D01*
X0118098Y0058765D02*
X0119751Y0058765D01*
X0119751Y0057979D02*
X0118098Y0057979D01*
X0118098Y0057194D02*
X0119751Y0057194D01*
X0119751Y0056408D02*
X0118098Y0056408D01*
X0118098Y0055622D02*
X0119751Y0055622D01*
X0119751Y0054836D02*
X0118098Y0054836D01*
X0118098Y0054050D02*
X0119751Y0054050D01*
X0119848Y0053264D02*
X0118098Y0053264D01*
X0118098Y0052478D02*
X0120634Y0052478D01*
X0121116Y0051692D02*
X0118098Y0051692D01*
X0118098Y0050906D02*
X0121280Y0050906D01*
X0121782Y0050120D02*
X0118098Y0050120D01*
X0118098Y0049334D02*
X0122568Y0049334D01*
X0132685Y0052478D02*
X0134384Y0052478D01*
X0133598Y0053264D02*
X0133471Y0053264D01*
X0146435Y0052478D02*
X0147682Y0052478D01*
X0153807Y0052478D02*
X0153981Y0052478D01*
X0154480Y0051692D02*
X0162100Y0051692D01*
X0162374Y0050906D02*
X0155266Y0050906D01*
X0156052Y0050120D02*
X0163032Y0050120D01*
X0163818Y0049334D02*
X0156838Y0049334D01*
X0160106Y0052478D02*
X0161432Y0052478D01*
X0173856Y0052478D02*
X0175182Y0052478D01*
X0181307Y0052478D02*
X0181481Y0052478D01*
X0181980Y0051692D02*
X0195900Y0051692D01*
X0195900Y0050906D02*
X0182766Y0050906D01*
X0183552Y0050120D02*
X0195900Y0050120D01*
X0195231Y0052478D02*
X0195057Y0052478D01*
X0167350Y0077429D02*
X0167034Y0077113D01*
X0167034Y0071287D01*
X0140037Y0071287D01*
X0140037Y0073745D01*
X0139673Y0074625D01*
X0139000Y0075298D01*
X0137537Y0076760D01*
X0137537Y0116652D01*
X0143635Y0122750D01*
X0158921Y0122750D01*
X0158284Y0122113D01*
X0158284Y0115675D01*
X0158412Y0115546D01*
X0152919Y0115546D01*
X0152118Y0114746D01*
X0152065Y0114768D01*
X0150722Y0114768D01*
X0150669Y0114746D01*
X0149869Y0115546D01*
X0144218Y0115546D01*
X0143284Y0114613D01*
X0143284Y0108175D01*
X0144218Y0107241D01*
X0149869Y0107241D01*
X0150669Y0108041D01*
X0150722Y0108019D01*
X0152065Y0108019D01*
X0152118Y0108041D01*
X0152919Y0107241D01*
X0158412Y0107241D01*
X0158284Y0107113D01*
X0158284Y0100675D01*
X0158412Y0100546D01*
X0152919Y0100546D01*
X0152118Y0099746D01*
X0152065Y0099768D01*
X0150722Y0099768D01*
X0150669Y0099746D01*
X0149869Y0100546D01*
X0144218Y0100546D01*
X0143284Y0099613D01*
X0143284Y0093175D01*
X0144218Y0092241D01*
X0149869Y0092241D01*
X0150669Y0093041D01*
X0150722Y0093019D01*
X0152065Y0093019D01*
X0152118Y0093041D01*
X0152919Y0092241D01*
X0158412Y0092241D01*
X0158284Y0092113D01*
X0158284Y0085675D01*
X0158412Y0085546D01*
X0152919Y0085546D01*
X0152118Y0084746D01*
X0152065Y0084768D01*
X0150722Y0084768D01*
X0150669Y0084746D01*
X0149869Y0085546D01*
X0144218Y0085546D01*
X0143284Y0084613D01*
X0143284Y0078175D01*
X0144218Y0077241D01*
X0149869Y0077241D01*
X0150669Y0078041D01*
X0150722Y0078019D01*
X0152065Y0078019D01*
X0152118Y0078041D01*
X0152919Y0077241D01*
X0158570Y0077241D01*
X0158894Y0077565D01*
X0159218Y0077241D01*
X0164869Y0077241D01*
X0165802Y0078175D01*
X0165802Y0082536D01*
X0166167Y0082172D01*
X0167399Y0082172D01*
X0167283Y0082055D01*
X0166769Y0080815D01*
X0166769Y0079472D01*
X0167283Y0078232D01*
X0167350Y0078165D01*
X0167350Y0077429D01*
X0167350Y0077627D02*
X0165255Y0077627D01*
X0165802Y0078413D02*
X0167208Y0078413D01*
X0166882Y0079199D02*
X0165802Y0079199D01*
X0165802Y0079985D02*
X0166769Y0079985D01*
X0166769Y0080771D02*
X0165802Y0080771D01*
X0165802Y0081557D02*
X0167076Y0081557D01*
X0165996Y0082343D02*
X0165802Y0082343D01*
X0167034Y0076841D02*
X0137537Y0076841D01*
X0137537Y0077627D02*
X0143832Y0077627D01*
X0143284Y0078413D02*
X0137537Y0078413D01*
X0137537Y0079199D02*
X0143284Y0079199D01*
X0143284Y0079985D02*
X0137537Y0079985D01*
X0137537Y0080771D02*
X0143284Y0080771D01*
X0143284Y0081557D02*
X0137537Y0081557D01*
X0137537Y0082343D02*
X0143284Y0082343D01*
X0143284Y0083129D02*
X0137537Y0083129D01*
X0137537Y0083915D02*
X0143284Y0083915D01*
X0143372Y0084700D02*
X0137537Y0084700D01*
X0137537Y0085486D02*
X0144158Y0085486D01*
X0149929Y0085486D02*
X0152859Y0085486D01*
X0158284Y0086272D02*
X0137537Y0086272D01*
X0137537Y0087058D02*
X0158284Y0087058D01*
X0158284Y0087844D02*
X0137537Y0087844D01*
X0137537Y0088630D02*
X0158284Y0088630D01*
X0158284Y0089416D02*
X0137537Y0089416D01*
X0137537Y0090202D02*
X0158284Y0090202D01*
X0158284Y0090988D02*
X0137537Y0090988D01*
X0137537Y0091774D02*
X0158284Y0091774D01*
X0152600Y0092560D02*
X0150187Y0092560D01*
X0143899Y0092560D02*
X0137537Y0092560D01*
X0137537Y0093346D02*
X0143284Y0093346D01*
X0143284Y0094131D02*
X0137537Y0094131D01*
X0137537Y0094917D02*
X0143284Y0094917D01*
X0143284Y0095703D02*
X0137537Y0095703D01*
X0137537Y0096489D02*
X0143284Y0096489D01*
X0143284Y0097275D02*
X0137537Y0097275D01*
X0137537Y0098061D02*
X0143284Y0098061D01*
X0143284Y0098847D02*
X0137537Y0098847D01*
X0137537Y0099633D02*
X0143304Y0099633D01*
X0144090Y0100419D02*
X0137537Y0100419D01*
X0137537Y0101205D02*
X0158284Y0101205D01*
X0158284Y0101991D02*
X0137537Y0101991D01*
X0137537Y0102776D02*
X0158284Y0102776D01*
X0158284Y0103562D02*
X0137537Y0103562D01*
X0137537Y0104348D02*
X0158284Y0104348D01*
X0158284Y0105134D02*
X0137537Y0105134D01*
X0137537Y0105920D02*
X0158284Y0105920D01*
X0158284Y0106706D02*
X0137537Y0106706D01*
X0137537Y0107492D02*
X0143967Y0107492D01*
X0143284Y0108278D02*
X0137537Y0108278D01*
X0137537Y0109064D02*
X0143284Y0109064D01*
X0143284Y0109850D02*
X0137537Y0109850D01*
X0137537Y0110636D02*
X0143284Y0110636D01*
X0143284Y0111422D02*
X0137537Y0111422D01*
X0137537Y0112207D02*
X0143284Y0112207D01*
X0143284Y0112993D02*
X0137537Y0112993D01*
X0137537Y0113779D02*
X0143284Y0113779D01*
X0143284Y0114565D02*
X0137537Y0114565D01*
X0137537Y0115351D02*
X0144022Y0115351D01*
X0140952Y0120067D02*
X0158284Y0120067D01*
X0158284Y0120852D02*
X0141738Y0120852D01*
X0142524Y0121638D02*
X0158284Y0121638D01*
X0158596Y0122424D02*
X0143309Y0122424D01*
X0140166Y0119281D02*
X0158284Y0119281D01*
X0158284Y0118495D02*
X0139380Y0118495D01*
X0138594Y0117709D02*
X0158284Y0117709D01*
X0158284Y0116923D02*
X0137808Y0116923D01*
X0137537Y0116137D02*
X0158284Y0116137D01*
X0152723Y0115351D02*
X0150064Y0115351D01*
X0150120Y0107492D02*
X0152668Y0107492D01*
X0152791Y0100419D02*
X0149997Y0100419D01*
X0150255Y0077627D02*
X0152532Y0077627D01*
X0140037Y0073698D02*
X0167034Y0073698D01*
X0167034Y0074484D02*
X0139731Y0074484D01*
X0139028Y0075270D02*
X0167034Y0075270D01*
X0167034Y0076055D02*
X0138242Y0076055D01*
X0140037Y0072912D02*
X0167034Y0072912D01*
X0167034Y0072126D02*
X0140037Y0072126D01*
X0140037Y0071340D02*
X0167034Y0071340D01*
X0135133Y0069768D02*
X0134520Y0069768D01*
X0134347Y0068982D02*
X0119110Y0068982D01*
X0119552Y0069768D02*
X0130767Y0069768D01*
X0129961Y0070554D02*
X0119552Y0070554D01*
X0119552Y0071340D02*
X0129531Y0071340D01*
X0129269Y0072126D02*
X0119552Y0072126D01*
X0119552Y0072912D02*
X0129269Y0072912D01*
X0129427Y0073698D02*
X0119552Y0073698D01*
X0119552Y0074484D02*
X0129753Y0074484D01*
X0130250Y0075270D02*
X0119552Y0075270D01*
X0119441Y0076055D02*
X0130250Y0076055D01*
X0130250Y0076841D02*
X0120227Y0076841D01*
X0121012Y0077627D02*
X0130250Y0077627D01*
X0130250Y0078413D02*
X0121798Y0078413D01*
X0122584Y0079199D02*
X0130250Y0079199D01*
X0130250Y0079985D02*
X0123370Y0079985D01*
X0123727Y0080771D02*
X0130250Y0080771D01*
X0130250Y0081557D02*
X0123787Y0081557D01*
X0123787Y0082343D02*
X0130250Y0082343D01*
X0130250Y0083129D02*
X0124151Y0083129D01*
X0124537Y0083915D02*
X0130250Y0083915D01*
X0130250Y0084700D02*
X0124768Y0084700D01*
X0124768Y0085486D02*
X0130250Y0085486D01*
X0130250Y0086272D02*
X0124579Y0086272D01*
X0127943Y0087058D02*
X0130250Y0087058D01*
X0130250Y0087844D02*
X0128729Y0087844D01*
X0129515Y0088630D02*
X0130250Y0088630D01*
X0106177Y0068982D02*
X0105360Y0068982D01*
X0099591Y0068196D02*
X0090687Y0068196D01*
X0090687Y0067410D02*
X0099591Y0067410D01*
X0099591Y0066624D02*
X0090687Y0066624D01*
X0090687Y0065839D02*
X0099591Y0065839D01*
X0099591Y0065053D02*
X0090687Y0065053D01*
X0090687Y0064267D02*
X0099591Y0064267D01*
X0099591Y0063481D02*
X0090687Y0063481D01*
X0090687Y0062695D02*
X0099591Y0062695D01*
X0099591Y0061909D02*
X0090687Y0061909D01*
X0090687Y0061123D02*
X0099591Y0061123D01*
X0099591Y0060337D02*
X0090687Y0060337D01*
X0090687Y0059551D02*
X0099591Y0059551D01*
X0099591Y0058765D02*
X0090687Y0058765D01*
X0090687Y0057979D02*
X0099591Y0057979D01*
X0099591Y0057194D02*
X0090687Y0057194D01*
X0090687Y0056408D02*
X0099591Y0056408D01*
X0099591Y0055622D02*
X0090687Y0055622D01*
X0090687Y0054836D02*
X0099591Y0054836D01*
X0099591Y0054050D02*
X0090687Y0054050D01*
X0090687Y0053264D02*
X0099591Y0053264D01*
X0099591Y0052478D02*
X0090687Y0052478D01*
X0090687Y0051692D02*
X0099591Y0051692D01*
X0099591Y0050906D02*
X0090687Y0050906D01*
X0090687Y0050120D02*
X0099591Y0050120D01*
X0099591Y0049334D02*
X0090687Y0049334D01*
X0090687Y0048548D02*
X0099591Y0048548D01*
X0099591Y0047763D02*
X0090687Y0047763D01*
X0090687Y0046977D02*
X0099591Y0046977D01*
X0098464Y0046191D02*
X0091724Y0046191D01*
X0091964Y0045405D02*
X0098225Y0045405D01*
X0098225Y0044619D02*
X0091964Y0044619D01*
X0091964Y0043833D02*
X0098225Y0043833D01*
X0098225Y0043047D02*
X0091964Y0043047D01*
X0091964Y0042261D02*
X0098225Y0042261D01*
X0098225Y0041475D02*
X0091964Y0041475D01*
X0091964Y0040689D02*
X0098225Y0040689D01*
X0098225Y0039903D02*
X0091964Y0039903D01*
X0091568Y0039118D02*
X0098621Y0039118D01*
X0085900Y0046977D02*
X0076937Y0046977D01*
X0076937Y0047763D02*
X0085900Y0047763D01*
X0085900Y0048548D02*
X0076937Y0048548D01*
X0076937Y0049334D02*
X0085900Y0049334D01*
X0085900Y0050120D02*
X0076937Y0050120D01*
X0076937Y0050906D02*
X0085900Y0050906D01*
X0085900Y0051692D02*
X0076937Y0051692D01*
X0076937Y0052478D02*
X0085900Y0052478D01*
X0085900Y0053264D02*
X0076937Y0053264D01*
X0076937Y0054050D02*
X0085900Y0054050D01*
X0085900Y0054836D02*
X0076937Y0054836D01*
X0076937Y0055622D02*
X0085900Y0055622D01*
X0085900Y0056408D02*
X0076937Y0056408D01*
X0076937Y0057194D02*
X0085900Y0057194D01*
X0085900Y0057979D02*
X0076937Y0057979D01*
X0076937Y0058765D02*
X0085900Y0058765D01*
X0085900Y0059551D02*
X0076937Y0059551D01*
X0076937Y0060337D02*
X0085900Y0060337D01*
X0085900Y0061123D02*
X0076937Y0061123D01*
X0076937Y0061909D02*
X0085900Y0061909D01*
X0085900Y0062695D02*
X0076937Y0062695D01*
X0076937Y0063481D02*
X0085900Y0063481D01*
X0085900Y0064267D02*
X0076937Y0064267D01*
X0076937Y0065053D02*
X0085900Y0065053D01*
X0085900Y0065839D02*
X0076937Y0065839D01*
X0076937Y0066624D02*
X0085900Y0066624D01*
X0085900Y0067410D02*
X0076937Y0067410D01*
X0076937Y0068196D02*
X0085900Y0068196D01*
X0091610Y0068982D02*
X0092427Y0068982D01*
X0078677Y0068982D02*
X0077860Y0068982D01*
X0072150Y0068196D02*
X0063187Y0068196D01*
X0063187Y0067410D02*
X0072150Y0067410D01*
X0072150Y0066624D02*
X0063187Y0066624D01*
X0063187Y0065839D02*
X0072150Y0065839D01*
X0072150Y0065053D02*
X0063187Y0065053D01*
X0063187Y0064267D02*
X0072150Y0064267D01*
X0072150Y0063481D02*
X0063187Y0063481D01*
X0063187Y0062695D02*
X0072150Y0062695D01*
X0072150Y0061909D02*
X0063187Y0061909D01*
X0063187Y0061123D02*
X0072150Y0061123D01*
X0072150Y0060337D02*
X0063187Y0060337D01*
X0063187Y0059551D02*
X0072150Y0059551D01*
X0072150Y0058765D02*
X0063187Y0058765D01*
X0063187Y0057979D02*
X0072150Y0057979D01*
X0072150Y0057194D02*
X0063187Y0057194D01*
X0063187Y0056408D02*
X0072150Y0056408D01*
X0072150Y0055622D02*
X0063187Y0055622D01*
X0063187Y0054836D02*
X0072150Y0054836D01*
X0072150Y0054050D02*
X0063187Y0054050D01*
X0063187Y0053264D02*
X0072150Y0053264D01*
X0072150Y0052478D02*
X0063187Y0052478D01*
X0063187Y0051692D02*
X0072150Y0051692D01*
X0072150Y0050906D02*
X0063187Y0050906D01*
X0063187Y0050120D02*
X0072150Y0050120D01*
X0072150Y0049334D02*
X0063187Y0049334D01*
X0063187Y0048548D02*
X0072150Y0048548D01*
X0072150Y0047763D02*
X0063187Y0047763D01*
X0063187Y0046977D02*
X0072150Y0046977D01*
X0070905Y0046191D02*
X0064165Y0046191D01*
X0064405Y0045405D02*
X0070666Y0045405D01*
X0070666Y0044619D02*
X0064405Y0044619D01*
X0064405Y0043833D02*
X0070666Y0043833D01*
X0070666Y0043047D02*
X0064405Y0043047D01*
X0064405Y0042261D02*
X0070666Y0042261D01*
X0070666Y0041475D02*
X0064405Y0041475D01*
X0064405Y0040689D02*
X0070666Y0040689D01*
X0070666Y0039903D02*
X0064405Y0039903D01*
X0064009Y0039118D02*
X0071062Y0039118D01*
X0077789Y0039118D02*
X0084841Y0039118D01*
X0084446Y0039903D02*
X0078184Y0039903D01*
X0078184Y0040689D02*
X0084446Y0040689D01*
X0084446Y0041475D02*
X0078184Y0041475D01*
X0078184Y0042261D02*
X0084446Y0042261D01*
X0084446Y0043047D02*
X0078184Y0043047D01*
X0078184Y0043833D02*
X0084446Y0043833D01*
X0084446Y0044619D02*
X0078184Y0044619D01*
X0078184Y0045405D02*
X0084446Y0045405D01*
X0084685Y0046191D02*
X0077945Y0046191D01*
X0058400Y0046977D02*
X0049437Y0046977D01*
X0049437Y0047763D02*
X0058400Y0047763D01*
X0058400Y0048548D02*
X0049437Y0048548D01*
X0049437Y0049334D02*
X0058400Y0049334D01*
X0058400Y0050120D02*
X0049437Y0050120D01*
X0049437Y0050906D02*
X0058400Y0050906D01*
X0058400Y0051692D02*
X0049437Y0051692D01*
X0049437Y0052478D02*
X0058400Y0052478D01*
X0058400Y0053264D02*
X0049437Y0053264D01*
X0049437Y0054050D02*
X0058400Y0054050D01*
X0058400Y0054836D02*
X0049437Y0054836D01*
X0049437Y0055622D02*
X0058400Y0055622D01*
X0058400Y0056408D02*
X0049437Y0056408D01*
X0049437Y0057194D02*
X0058400Y0057194D01*
X0058400Y0057979D02*
X0049437Y0057979D01*
X0049437Y0058765D02*
X0058400Y0058765D01*
X0058400Y0059551D02*
X0049437Y0059551D01*
X0049437Y0060337D02*
X0058400Y0060337D01*
X0058400Y0061123D02*
X0049437Y0061123D01*
X0049437Y0061909D02*
X0058400Y0061909D01*
X0058400Y0062695D02*
X0049437Y0062695D01*
X0049437Y0063481D02*
X0058400Y0063481D01*
X0058400Y0064267D02*
X0049437Y0064267D01*
X0049437Y0065053D02*
X0058400Y0065053D01*
X0058400Y0065839D02*
X0049437Y0065839D01*
X0049437Y0066624D02*
X0058400Y0066624D01*
X0058400Y0067410D02*
X0049437Y0067410D01*
X0049437Y0068196D02*
X0058400Y0068196D01*
X0064110Y0068982D02*
X0064927Y0068982D01*
X0051177Y0068982D02*
X0050360Y0068982D01*
X0044650Y0068196D02*
X0003187Y0068196D01*
X0003187Y0067410D02*
X0044650Y0067410D01*
X0044650Y0066624D02*
X0003187Y0066624D01*
X0003187Y0065839D02*
X0044650Y0065839D01*
X0044650Y0065053D02*
X0003187Y0065053D01*
X0003187Y0064267D02*
X0044650Y0064267D01*
X0044650Y0063481D02*
X0003187Y0063481D01*
X0003187Y0062695D02*
X0044650Y0062695D01*
X0044650Y0061909D02*
X0003187Y0061909D01*
X0003187Y0061123D02*
X0044650Y0061123D01*
X0044650Y0060337D02*
X0003187Y0060337D01*
X0003187Y0059551D02*
X0044650Y0059551D01*
X0044650Y0058765D02*
X0003187Y0058765D01*
X0003187Y0057979D02*
X0044650Y0057979D01*
X0044650Y0057194D02*
X0003187Y0057194D01*
X0003187Y0056408D02*
X0044650Y0056408D01*
X0044650Y0055622D02*
X0003187Y0055622D01*
X0003187Y0054836D02*
X0044650Y0054836D01*
X0044650Y0054050D02*
X0003187Y0054050D01*
X0003187Y0053264D02*
X0044650Y0053264D01*
X0044650Y0052478D02*
X0003187Y0052478D01*
X0003187Y0051692D02*
X0044650Y0051692D01*
X0044650Y0050906D02*
X0003187Y0050906D01*
X0003187Y0050120D02*
X0044650Y0050120D01*
X0044650Y0049334D02*
X0003187Y0049334D01*
X0003187Y0048548D02*
X0044650Y0048548D01*
X0044650Y0047763D02*
X0003187Y0047763D01*
X0003187Y0046977D02*
X0044650Y0046977D01*
X0043346Y0046191D02*
X0003187Y0046191D01*
X0003187Y0045405D02*
X0043107Y0045405D01*
X0043107Y0044619D02*
X0003187Y0044619D01*
X0003187Y0043833D02*
X0043107Y0043833D01*
X0043107Y0043047D02*
X0003187Y0043047D01*
X0003187Y0042261D02*
X0043107Y0042261D01*
X0043107Y0041475D02*
X0003187Y0041475D01*
X0003187Y0040689D02*
X0043107Y0040689D01*
X0043107Y0039903D02*
X0003187Y0039903D01*
X0003187Y0039118D02*
X0043503Y0039118D01*
X0050230Y0039118D02*
X0057282Y0039118D01*
X0056887Y0039903D02*
X0050625Y0039903D01*
X0050625Y0040689D02*
X0056887Y0040689D01*
X0056887Y0041475D02*
X0050625Y0041475D01*
X0050625Y0042261D02*
X0056887Y0042261D01*
X0056887Y0043047D02*
X0050625Y0043047D01*
X0050625Y0043833D02*
X0056887Y0043833D01*
X0056887Y0044619D02*
X0050625Y0044619D01*
X0050625Y0045405D02*
X0056887Y0045405D01*
X0057126Y0046191D02*
X0050386Y0046191D01*
X0037427Y0068982D02*
X0003187Y0068982D01*
X0003187Y0069768D02*
X0036985Y0069768D01*
X0036985Y0070554D02*
X0003187Y0070554D01*
X0003187Y0071340D02*
X0036985Y0071340D01*
X0036985Y0072126D02*
X0003187Y0072126D01*
X0003187Y0072912D02*
X0036985Y0072912D01*
X0036985Y0073698D02*
X0003187Y0073698D01*
X0003187Y0074484D02*
X0036985Y0074484D01*
X0036985Y0075270D02*
X0003187Y0075270D01*
X0003187Y0076055D02*
X0037178Y0076055D01*
X0022593Y0076841D02*
X0003187Y0076841D01*
X0003187Y0077627D02*
X0021775Y0077627D01*
X0020989Y0078413D02*
X0003187Y0078413D01*
X0003187Y0079199D02*
X0020203Y0079199D01*
X0019417Y0079985D02*
X0003187Y0079985D01*
X0003187Y0080771D02*
X0019061Y0080771D01*
X0019000Y0081557D02*
X0003187Y0081557D01*
X0003187Y0082343D02*
X0019000Y0082343D01*
X0019000Y0083129D02*
X0003187Y0083129D01*
X0003187Y0083915D02*
X0019000Y0083915D01*
X0019000Y0084700D02*
X0003187Y0084700D01*
X0003187Y0085486D02*
X0019000Y0085486D01*
X0019000Y0086272D02*
X0003187Y0086272D01*
X0003187Y0087058D02*
X0019000Y0087058D01*
X0019000Y0087844D02*
X0003187Y0087844D01*
X0003187Y0088630D02*
X0019000Y0088630D01*
X0019000Y0089416D02*
X0003187Y0089416D01*
X0003187Y0090202D02*
X0019000Y0090202D01*
X0019000Y0090988D02*
X0003187Y0090988D01*
X0003187Y0091774D02*
X0019000Y0091774D01*
X0019000Y0092560D02*
X0003187Y0092560D01*
X0003187Y0093346D02*
X0019000Y0093346D01*
X0019000Y0094131D02*
X0003187Y0094131D01*
X0003187Y0094917D02*
X0019000Y0094917D01*
X0019000Y0095703D02*
X0003187Y0095703D01*
X0003187Y0096489D02*
X0019000Y0096489D01*
X0019168Y0097275D02*
X0003187Y0097275D01*
X0003187Y0098061D02*
X0019676Y0098061D01*
X0020462Y0098847D02*
X0003187Y0098847D01*
X0003187Y0099633D02*
X0021248Y0099633D01*
X0022204Y0100419D02*
X0003187Y0100419D01*
X0003187Y0101205D02*
X0027750Y0101205D01*
X0027750Y0101991D02*
X0003187Y0101991D01*
X0003187Y0102776D02*
X0027750Y0102776D01*
X0027750Y0103562D02*
X0003187Y0103562D01*
X0003187Y0104348D02*
X0027750Y0104348D01*
X0027750Y0105134D02*
X0003187Y0105134D01*
X0003187Y0105920D02*
X0027750Y0105920D01*
X0027627Y0106706D02*
X0003187Y0106706D01*
X0003187Y0107492D02*
X0027172Y0107492D01*
X0027172Y0108278D02*
X0003187Y0108278D01*
X0003187Y0109064D02*
X0027172Y0109064D01*
X0027172Y0109850D02*
X0003187Y0109850D01*
X0003187Y0110636D02*
X0027172Y0110636D01*
X0027172Y0111422D02*
X0003187Y0111422D01*
X0003187Y0112207D02*
X0027172Y0112207D01*
X0027172Y0112993D02*
X0003187Y0112993D01*
X0003187Y0113779D02*
X0027172Y0113779D01*
X0027172Y0114565D02*
X0003187Y0114565D01*
X0003187Y0115351D02*
X0027172Y0115351D01*
X0027750Y0116137D02*
X0003187Y0116137D01*
X0003187Y0116923D02*
X0027750Y0116923D01*
X0027750Y0117709D02*
X0003187Y0117709D01*
X0003187Y0118495D02*
X0027750Y0118495D01*
X0027750Y0119281D02*
X0003187Y0119281D01*
X0003187Y0120067D02*
X0027750Y0120067D01*
X0027750Y0120852D02*
X0003187Y0120852D01*
X0003187Y0121638D02*
X0027750Y0121638D01*
X0027750Y0122424D02*
X0003187Y0122424D01*
X0003187Y0123210D02*
X0027442Y0123210D01*
X0026656Y0123996D02*
X0003187Y0123996D01*
X0003187Y0124782D02*
X0025870Y0124782D01*
X0025395Y0125568D02*
X0003187Y0125568D01*
X0003187Y0126354D02*
X0016306Y0126354D01*
X0006012Y0127140D02*
X0003187Y0127140D01*
X0003187Y0127926D02*
X0005227Y0127926D01*
X0004441Y0128712D02*
X0003187Y0128712D01*
X0003187Y0129498D02*
X0003655Y0129498D01*
X0021060Y0142537D02*
X0021755Y0143232D01*
X0022268Y0144472D01*
X0022268Y0145815D01*
X0021755Y0147055D01*
X0020805Y0148005D01*
X0020168Y0148269D01*
X0020805Y0148533D01*
X0021755Y0149482D01*
X0022268Y0150722D01*
X0022268Y0152065D01*
X0021755Y0153305D01*
X0020805Y0154255D01*
X0019565Y0154768D01*
X0018904Y0154768D01*
X0018787Y0154885D01*
X0018787Y0204152D01*
X0022385Y0207750D01*
X0036299Y0207750D01*
X0034025Y0205476D01*
X0033600Y0204449D01*
X0033600Y0200802D01*
X0033175Y0200802D01*
X0032241Y0199869D01*
X0032241Y0194375D01*
X0032113Y0194503D01*
X0025675Y0194503D01*
X0024741Y0193570D01*
X0024741Y0187919D01*
X0025675Y0186985D01*
X0032113Y0186985D01*
X0032644Y0187516D01*
X0033041Y0187118D01*
X0033019Y0187065D01*
X0033019Y0185722D01*
X0033041Y0185669D01*
X0032241Y0184869D01*
X0032241Y0179375D01*
X0032113Y0179503D01*
X0025675Y0179503D01*
X0024741Y0178570D01*
X0024741Y0172919D01*
X0025675Y0171985D01*
X0029672Y0171985D01*
X0029672Y0164661D01*
X0030250Y0164083D01*
X0030250Y0151205D01*
X0030144Y0151098D01*
X0029682Y0151560D01*
X0025606Y0151560D01*
X0024672Y0150627D01*
X0024672Y0143057D01*
X0024152Y0142537D01*
X0021060Y0142537D01*
X0021381Y0142858D02*
X0024473Y0142858D01*
X0024672Y0143644D02*
X0021925Y0143644D01*
X0022251Y0144430D02*
X0024672Y0144430D01*
X0024672Y0145216D02*
X0022268Y0145216D01*
X0022191Y0146002D02*
X0024672Y0146002D01*
X0024672Y0146788D02*
X0021866Y0146788D01*
X0021237Y0147573D02*
X0024672Y0147573D01*
X0024672Y0148359D02*
X0020387Y0148359D01*
X0021418Y0149145D02*
X0024672Y0149145D01*
X0024672Y0149931D02*
X0021941Y0149931D01*
X0022266Y0150717D02*
X0024763Y0150717D01*
X0025548Y0151503D02*
X0022268Y0151503D01*
X0022176Y0152289D02*
X0030250Y0152289D01*
X0030250Y0153075D02*
X0021850Y0153075D01*
X0021199Y0153861D02*
X0030250Y0153861D01*
X0030250Y0154647D02*
X0019859Y0154647D01*
X0018787Y0155433D02*
X0030250Y0155433D01*
X0030250Y0156219D02*
X0018787Y0156219D01*
X0018787Y0157004D02*
X0030250Y0157004D01*
X0030250Y0157790D02*
X0018787Y0157790D01*
X0018787Y0158576D02*
X0030250Y0158576D01*
X0030250Y0159362D02*
X0018787Y0159362D01*
X0018787Y0160148D02*
X0030250Y0160148D01*
X0030250Y0160934D02*
X0018787Y0160934D01*
X0018787Y0161720D02*
X0030250Y0161720D01*
X0030250Y0162506D02*
X0018787Y0162506D01*
X0018787Y0163292D02*
X0030250Y0163292D01*
X0030250Y0164078D02*
X0018787Y0164078D01*
X0018787Y0164864D02*
X0029672Y0164864D01*
X0029672Y0165649D02*
X0018787Y0165649D01*
X0018787Y0166435D02*
X0029672Y0166435D01*
X0029672Y0167221D02*
X0018787Y0167221D01*
X0018787Y0168007D02*
X0029672Y0168007D01*
X0029672Y0168793D02*
X0018787Y0168793D01*
X0018787Y0169579D02*
X0029672Y0169579D01*
X0029672Y0170365D02*
X0018787Y0170365D01*
X0018787Y0171151D02*
X0029672Y0171151D01*
X0029672Y0171937D02*
X0018787Y0171937D01*
X0018787Y0172723D02*
X0024937Y0172723D01*
X0024741Y0173509D02*
X0018787Y0173509D01*
X0018787Y0174295D02*
X0024741Y0174295D01*
X0024741Y0175080D02*
X0018787Y0175080D01*
X0018787Y0175866D02*
X0024741Y0175866D01*
X0024741Y0176652D02*
X0018787Y0176652D01*
X0018787Y0177438D02*
X0024741Y0177438D01*
X0024741Y0178224D02*
X0018787Y0178224D01*
X0018787Y0179010D02*
X0025181Y0179010D01*
X0018787Y0179796D02*
X0032241Y0179796D01*
X0032241Y0180582D02*
X0018787Y0180582D01*
X0018787Y0181368D02*
X0032241Y0181368D01*
X0032241Y0182154D02*
X0018787Y0182154D01*
X0018787Y0182940D02*
X0032241Y0182940D01*
X0032241Y0183725D02*
X0018787Y0183725D01*
X0018787Y0184511D02*
X0032241Y0184511D01*
X0032669Y0185297D02*
X0018787Y0185297D01*
X0018787Y0186083D02*
X0033019Y0186083D01*
X0033019Y0186869D02*
X0018787Y0186869D01*
X0018787Y0187655D02*
X0025004Y0187655D01*
X0024741Y0188441D02*
X0018787Y0188441D01*
X0018787Y0189227D02*
X0024741Y0189227D01*
X0024741Y0190013D02*
X0018787Y0190013D01*
X0018787Y0190799D02*
X0024741Y0190799D01*
X0024741Y0191585D02*
X0018787Y0191585D01*
X0018787Y0192371D02*
X0024741Y0192371D01*
X0024741Y0193156D02*
X0018787Y0193156D01*
X0018787Y0193942D02*
X0025114Y0193942D01*
X0018787Y0194728D02*
X0032241Y0194728D01*
X0032241Y0195514D02*
X0018787Y0195514D01*
X0018787Y0196300D02*
X0032241Y0196300D01*
X0032241Y0197086D02*
X0018787Y0197086D01*
X0018787Y0197872D02*
X0032241Y0197872D01*
X0032241Y0198658D02*
X0018787Y0198658D01*
X0018787Y0199444D02*
X0032241Y0199444D01*
X0032602Y0200230D02*
X0018787Y0200230D01*
X0018787Y0201016D02*
X0033600Y0201016D01*
X0033600Y0201801D02*
X0018787Y0201801D01*
X0018787Y0202587D02*
X0033600Y0202587D01*
X0033600Y0203373D02*
X0018787Y0203373D01*
X0018794Y0204159D02*
X0033600Y0204159D01*
X0033805Y0204945D02*
X0019580Y0204945D01*
X0020366Y0205731D02*
X0034280Y0205731D01*
X0035066Y0206517D02*
X0021152Y0206517D01*
X0021938Y0207303D02*
X0035852Y0207303D01*
X0039824Y0203373D02*
X0048600Y0203373D01*
X0048600Y0203600D02*
X0048600Y0200802D01*
X0048175Y0200802D01*
X0047241Y0199869D01*
X0047241Y0194375D01*
X0047113Y0194503D01*
X0040675Y0194503D01*
X0040546Y0194375D01*
X0040546Y0199869D01*
X0039613Y0200802D01*
X0039187Y0200802D01*
X0039187Y0202737D01*
X0040051Y0203600D01*
X0048600Y0203600D01*
X0048600Y0202587D02*
X0039187Y0202587D01*
X0039187Y0201801D02*
X0048600Y0201801D01*
X0048600Y0201016D02*
X0039187Y0201016D01*
X0040186Y0200230D02*
X0047602Y0200230D01*
X0047241Y0199444D02*
X0040546Y0199444D01*
X0040546Y0198658D02*
X0047241Y0198658D01*
X0047241Y0197872D02*
X0040546Y0197872D01*
X0040546Y0197086D02*
X0047241Y0197086D01*
X0047241Y0196300D02*
X0040546Y0196300D01*
X0040546Y0195514D02*
X0047241Y0195514D01*
X0047241Y0194728D02*
X0040546Y0194728D01*
X0040144Y0187516D02*
X0040675Y0186985D01*
X0047113Y0186985D01*
X0047644Y0187516D01*
X0048041Y0187118D01*
X0048019Y0187065D01*
X0048019Y0185722D01*
X0048041Y0185669D01*
X0047241Y0184869D01*
X0047241Y0179375D01*
X0047113Y0179503D01*
X0040675Y0179503D01*
X0040546Y0179375D01*
X0040546Y0184869D01*
X0039746Y0185669D01*
X0039768Y0185722D01*
X0039768Y0187065D01*
X0039746Y0187118D01*
X0040144Y0187516D01*
X0039768Y0186869D02*
X0048019Y0186869D01*
X0048019Y0186083D02*
X0039768Y0186083D01*
X0040118Y0185297D02*
X0047669Y0185297D01*
X0047241Y0184511D02*
X0040546Y0184511D01*
X0040546Y0183725D02*
X0047241Y0183725D01*
X0047241Y0182940D02*
X0040546Y0182940D01*
X0040546Y0182154D02*
X0047241Y0182154D01*
X0047241Y0181368D02*
X0040546Y0181368D01*
X0040546Y0180582D02*
X0047241Y0180582D01*
X0047241Y0179796D02*
X0040546Y0179796D01*
X0055546Y0179796D02*
X0062241Y0179796D01*
X0062113Y0179503D02*
X0055675Y0179503D01*
X0055546Y0179375D01*
X0055546Y0184869D01*
X0054746Y0185669D01*
X0054768Y0185722D01*
X0054768Y0187065D01*
X0054746Y0187118D01*
X0055144Y0187516D01*
X0055675Y0186985D01*
X0062113Y0186985D01*
X0062644Y0187516D01*
X0063041Y0187118D01*
X0063019Y0187065D01*
X0063019Y0185722D01*
X0063041Y0185669D01*
X0062241Y0184869D01*
X0062241Y0179375D01*
X0062113Y0179503D01*
X0062241Y0180582D02*
X0055546Y0180582D01*
X0055546Y0181368D02*
X0062241Y0181368D01*
X0062241Y0182154D02*
X0055546Y0182154D01*
X0055546Y0182940D02*
X0062241Y0182940D01*
X0062241Y0183725D02*
X0055546Y0183725D01*
X0055546Y0184511D02*
X0062241Y0184511D01*
X0062669Y0185297D02*
X0055118Y0185297D01*
X0054768Y0186083D02*
X0063019Y0186083D01*
X0063019Y0186869D02*
X0054768Y0186869D01*
X0055546Y0194375D02*
X0055546Y0199869D01*
X0054613Y0200802D01*
X0054187Y0200802D01*
X0054187Y0203600D01*
X0063600Y0203600D01*
X0063600Y0200802D01*
X0063175Y0200802D01*
X0062241Y0199869D01*
X0062241Y0194375D01*
X0062113Y0194503D01*
X0055675Y0194503D01*
X0055546Y0194375D01*
X0055546Y0194728D02*
X0062241Y0194728D01*
X0062241Y0195514D02*
X0055546Y0195514D01*
X0055546Y0196300D02*
X0062241Y0196300D01*
X0062241Y0197086D02*
X0055546Y0197086D01*
X0055546Y0197872D02*
X0062241Y0197872D01*
X0062241Y0198658D02*
X0055546Y0198658D01*
X0055546Y0199444D02*
X0062241Y0199444D01*
X0062602Y0200230D02*
X0055186Y0200230D01*
X0054187Y0201016D02*
X0063600Y0201016D01*
X0063600Y0201801D02*
X0054187Y0201801D01*
X0054187Y0202587D02*
X0063600Y0202587D01*
X0063600Y0203373D02*
X0054187Y0203373D01*
X0069187Y0203373D02*
X0084850Y0203373D01*
X0084850Y0203600D02*
X0084850Y0200802D01*
X0084425Y0200802D01*
X0083491Y0199869D01*
X0083491Y0194375D01*
X0083363Y0194503D01*
X0076925Y0194503D01*
X0075991Y0193570D01*
X0075991Y0187919D01*
X0076925Y0186985D01*
X0083363Y0186985D01*
X0083894Y0187516D01*
X0084291Y0187118D01*
X0084269Y0187065D01*
X0084269Y0185722D01*
X0084291Y0185669D01*
X0083491Y0184869D01*
X0083491Y0179375D01*
X0083363Y0179503D01*
X0076925Y0179503D01*
X0075991Y0178570D01*
X0075991Y0172919D01*
X0076925Y0171985D01*
X0080922Y0171985D01*
X0080922Y0164661D01*
X0081500Y0164083D01*
X0081500Y0151205D01*
X0081394Y0151098D01*
X0080932Y0151560D01*
X0076856Y0151560D01*
X0075922Y0150627D01*
X0075922Y0143057D01*
X0075402Y0142537D01*
X0072168Y0142537D01*
X0071288Y0142173D01*
X0070038Y0140923D01*
X0069364Y0140250D01*
X0069076Y0139552D01*
X0068175Y0139552D01*
X0067241Y0138619D01*
X0067241Y0132968D01*
X0067565Y0132644D01*
X0067241Y0132320D01*
X0067241Y0126669D01*
X0068175Y0125735D01*
X0074613Y0125735D01*
X0075144Y0126266D01*
X0075675Y0125735D01*
X0076004Y0125735D01*
X0075519Y0124565D01*
X0075519Y0123222D01*
X0076033Y0121982D01*
X0076982Y0121033D01*
X0078222Y0120519D01*
X0078883Y0120519D01*
X0081500Y0117902D01*
X0081500Y0115949D01*
X0080922Y0115371D01*
X0080922Y0107161D01*
X0081411Y0106671D01*
X0081027Y0106287D01*
X0074043Y0106287D01*
X0073163Y0105923D01*
X0068788Y0101548D01*
X0068516Y0101276D01*
X0068423Y0101500D01*
X0062939Y0106984D01*
X0063115Y0107161D01*
X0063115Y0115371D01*
X0062537Y0115949D01*
X0062537Y0121870D01*
X0062173Y0122750D01*
X0061018Y0123904D01*
X0061018Y0124565D01*
X0060534Y0125735D01*
X0060863Y0125735D01*
X0061796Y0126669D01*
X0061796Y0132320D01*
X0061472Y0132644D01*
X0061796Y0132968D01*
X0061796Y0138619D01*
X0060863Y0139552D01*
X0059120Y0139552D01*
X0059000Y0139673D01*
X0057190Y0141483D01*
X0059682Y0141483D01*
X0060615Y0142417D01*
X0060615Y0147950D01*
X0060991Y0147950D01*
X0060991Y0147919D01*
X0061925Y0146985D01*
X0068363Y0146985D01*
X0068728Y0147350D01*
X0069415Y0147350D01*
X0069482Y0147283D01*
X0070722Y0146769D01*
X0072065Y0146769D01*
X0073305Y0147283D01*
X0074255Y0148232D01*
X0074768Y0149472D01*
X0074768Y0150815D01*
X0074255Y0152055D01*
X0073305Y0153005D01*
X0072065Y0153518D01*
X0070722Y0153518D01*
X0069482Y0153005D01*
X0069415Y0152937D01*
X0069296Y0152937D01*
X0069296Y0153570D01*
X0068363Y0154503D01*
X0061925Y0154503D01*
X0060991Y0153570D01*
X0060991Y0153538D01*
X0057088Y0153538D01*
X0056061Y0153112D01*
X0055275Y0152327D01*
X0055037Y0151752D01*
X0055037Y0164083D01*
X0055144Y0164189D01*
X0055606Y0163727D01*
X0059682Y0163727D01*
X0060615Y0164661D01*
X0060615Y0171985D01*
X0062113Y0171985D01*
X0062644Y0172516D01*
X0063175Y0171985D01*
X0069613Y0171985D01*
X0070546Y0172919D01*
X0070546Y0178570D01*
X0070222Y0178894D01*
X0070546Y0179218D01*
X0070546Y0184869D01*
X0069746Y0185669D01*
X0069768Y0185722D01*
X0069768Y0187065D01*
X0069746Y0187118D01*
X0070546Y0187919D01*
X0070546Y0193570D01*
X0070222Y0193894D01*
X0070546Y0194218D01*
X0070546Y0199869D01*
X0069613Y0200802D01*
X0069187Y0200802D01*
X0069187Y0203600D01*
X0084850Y0203600D01*
X0084850Y0202587D02*
X0069187Y0202587D01*
X0069187Y0201801D02*
X0084850Y0201801D01*
X0084850Y0201016D02*
X0069187Y0201016D01*
X0070186Y0200230D02*
X0083852Y0200230D01*
X0083491Y0199444D02*
X0070546Y0199444D01*
X0070546Y0198658D02*
X0083491Y0198658D01*
X0083491Y0197872D02*
X0070546Y0197872D01*
X0070546Y0197086D02*
X0083491Y0197086D01*
X0083491Y0196300D02*
X0070546Y0196300D01*
X0070546Y0195514D02*
X0083491Y0195514D01*
X0083491Y0194728D02*
X0070546Y0194728D01*
X0070271Y0193942D02*
X0076364Y0193942D01*
X0075991Y0193156D02*
X0070546Y0193156D01*
X0070546Y0192371D02*
X0075991Y0192371D01*
X0075991Y0191585D02*
X0070546Y0191585D01*
X0070546Y0190799D02*
X0075991Y0190799D01*
X0075991Y0190013D02*
X0070546Y0190013D01*
X0070546Y0189227D02*
X0075991Y0189227D01*
X0075991Y0188441D02*
X0070546Y0188441D01*
X0070283Y0187655D02*
X0076254Y0187655D01*
X0070546Y0184511D02*
X0083491Y0184511D01*
X0083491Y0183725D02*
X0070546Y0183725D01*
X0070546Y0182940D02*
X0083491Y0182940D01*
X0083491Y0182154D02*
X0070546Y0182154D01*
X0070546Y0181368D02*
X0083491Y0181368D01*
X0083491Y0180582D02*
X0070546Y0180582D01*
X0070546Y0179796D02*
X0083491Y0179796D01*
X0083919Y0185297D02*
X0070118Y0185297D01*
X0069768Y0186083D02*
X0084269Y0186083D01*
X0084269Y0186869D02*
X0069768Y0186869D01*
X0070339Y0179010D02*
X0076431Y0179010D01*
X0075991Y0178224D02*
X0070546Y0178224D01*
X0070546Y0177438D02*
X0075991Y0177438D01*
X0075991Y0176652D02*
X0070546Y0176652D01*
X0070546Y0175866D02*
X0075991Y0175866D01*
X0075991Y0175080D02*
X0070546Y0175080D01*
X0070546Y0174295D02*
X0075991Y0174295D01*
X0075991Y0173509D02*
X0070546Y0173509D01*
X0070351Y0172723D02*
X0076187Y0172723D01*
X0080922Y0171937D02*
X0060615Y0171937D01*
X0060615Y0171151D02*
X0080922Y0171151D01*
X0080922Y0170365D02*
X0060615Y0170365D01*
X0060615Y0169579D02*
X0080922Y0169579D01*
X0080922Y0168793D02*
X0060615Y0168793D01*
X0060615Y0168007D02*
X0080922Y0168007D01*
X0080922Y0167221D02*
X0060615Y0167221D01*
X0060615Y0166435D02*
X0080922Y0166435D01*
X0080922Y0165649D02*
X0060615Y0165649D01*
X0060615Y0164864D02*
X0080922Y0164864D01*
X0081500Y0164078D02*
X0060032Y0164078D01*
X0055255Y0164078D02*
X0055037Y0164078D01*
X0055037Y0163292D02*
X0081500Y0163292D01*
X0081500Y0162506D02*
X0055037Y0162506D01*
X0055037Y0161720D02*
X0081500Y0161720D01*
X0081500Y0160934D02*
X0055037Y0160934D01*
X0055037Y0160148D02*
X0081500Y0160148D01*
X0081500Y0159362D02*
X0055037Y0159362D01*
X0055037Y0158576D02*
X0081500Y0158576D01*
X0081500Y0157790D02*
X0055037Y0157790D01*
X0055037Y0157004D02*
X0081500Y0157004D01*
X0081500Y0156219D02*
X0055037Y0156219D01*
X0055037Y0155433D02*
X0081500Y0155433D01*
X0081500Y0154647D02*
X0055037Y0154647D01*
X0055037Y0153861D02*
X0061282Y0153861D01*
X0056024Y0153075D02*
X0055037Y0153075D01*
X0055037Y0152289D02*
X0055260Y0152289D01*
X0060615Y0147573D02*
X0061336Y0147573D01*
X0060615Y0146788D02*
X0070677Y0146788D01*
X0072110Y0146788D02*
X0075922Y0146788D01*
X0075922Y0147573D02*
X0073596Y0147573D01*
X0074307Y0148359D02*
X0075922Y0148359D01*
X0075922Y0149145D02*
X0074633Y0149145D01*
X0074768Y0149931D02*
X0075922Y0149931D01*
X0076013Y0150717D02*
X0074768Y0150717D01*
X0074483Y0151503D02*
X0076798Y0151503D01*
X0074021Y0152289D02*
X0081500Y0152289D01*
X0081500Y0153075D02*
X0073136Y0153075D01*
X0069651Y0153075D02*
X0069296Y0153075D01*
X0069005Y0153861D02*
X0081500Y0153861D01*
X0081500Y0151503D02*
X0080989Y0151503D01*
X0075922Y0146002D02*
X0060615Y0146002D01*
X0060615Y0145216D02*
X0075922Y0145216D01*
X0075922Y0144430D02*
X0060615Y0144430D01*
X0060615Y0143644D02*
X0075922Y0143644D01*
X0075723Y0142858D02*
X0060615Y0142858D01*
X0060271Y0142072D02*
X0071187Y0142072D01*
X0070401Y0141286D02*
X0057386Y0141286D01*
X0058172Y0140500D02*
X0069615Y0140500D01*
X0069143Y0139714D02*
X0058958Y0139714D01*
X0061487Y0138928D02*
X0067551Y0138928D01*
X0067241Y0138143D02*
X0061796Y0138143D01*
X0061796Y0137357D02*
X0067241Y0137357D01*
X0067241Y0136571D02*
X0061796Y0136571D01*
X0061796Y0135785D02*
X0067241Y0135785D01*
X0067241Y0134999D02*
X0061796Y0134999D01*
X0061796Y0134213D02*
X0067241Y0134213D01*
X0067241Y0133427D02*
X0061796Y0133427D01*
X0061475Y0132641D02*
X0067563Y0132641D01*
X0067241Y0131855D02*
X0061796Y0131855D01*
X0061796Y0131069D02*
X0067241Y0131069D01*
X0067241Y0130283D02*
X0061796Y0130283D01*
X0061796Y0129498D02*
X0067241Y0129498D01*
X0067241Y0128712D02*
X0061796Y0128712D01*
X0061796Y0127926D02*
X0067241Y0127926D01*
X0067241Y0127140D02*
X0061796Y0127140D01*
X0061482Y0126354D02*
X0067556Y0126354D01*
X0062308Y0122424D02*
X0075849Y0122424D01*
X0075524Y0123210D02*
X0061712Y0123210D01*
X0061018Y0123996D02*
X0075519Y0123996D01*
X0075609Y0124782D02*
X0060929Y0124782D01*
X0060603Y0125568D02*
X0075934Y0125568D01*
X0076376Y0121638D02*
X0062537Y0121638D01*
X0062537Y0120852D02*
X0077417Y0120852D01*
X0079336Y0120067D02*
X0062537Y0120067D01*
X0062537Y0119281D02*
X0080122Y0119281D01*
X0080907Y0118495D02*
X0062537Y0118495D01*
X0062537Y0117709D02*
X0081500Y0117709D01*
X0081500Y0116923D02*
X0062537Y0116923D01*
X0062537Y0116137D02*
X0081500Y0116137D01*
X0080922Y0115351D02*
X0063115Y0115351D01*
X0063115Y0114565D02*
X0080922Y0114565D01*
X0080922Y0113779D02*
X0063115Y0113779D01*
X0063115Y0112993D02*
X0080922Y0112993D01*
X0080922Y0112207D02*
X0063115Y0112207D01*
X0063115Y0111422D02*
X0080922Y0111422D01*
X0080922Y0110636D02*
X0063115Y0110636D01*
X0063115Y0109850D02*
X0080922Y0109850D01*
X0080922Y0109064D02*
X0063115Y0109064D01*
X0063115Y0108278D02*
X0080922Y0108278D01*
X0080922Y0107492D02*
X0063115Y0107492D01*
X0063217Y0106706D02*
X0081377Y0106706D01*
X0073160Y0105920D02*
X0064002Y0105920D01*
X0064788Y0105134D02*
X0072374Y0105134D01*
X0071588Y0104348D02*
X0065574Y0104348D01*
X0066360Y0103562D02*
X0070802Y0103562D01*
X0070016Y0102776D02*
X0067146Y0102776D01*
X0067932Y0101991D02*
X0069230Y0101991D01*
X0106287Y0151752D02*
X0106287Y0164083D01*
X0106394Y0164189D01*
X0106856Y0163727D01*
X0110932Y0163727D01*
X0111865Y0164661D01*
X0111865Y0171985D01*
X0113363Y0171985D01*
X0113894Y0172516D01*
X0114425Y0171985D01*
X0120863Y0171985D01*
X0121100Y0172222D01*
X0121100Y0154588D01*
X0121525Y0153561D01*
X0121686Y0153400D01*
X0120732Y0153005D01*
X0120665Y0152937D01*
X0120546Y0152937D01*
X0120546Y0153570D01*
X0119613Y0154503D01*
X0113175Y0154503D01*
X0112241Y0153570D01*
X0112241Y0153538D01*
X0108338Y0153538D01*
X0107311Y0153112D01*
X0106525Y0152327D01*
X0106287Y0151752D01*
X0106287Y0152289D02*
X0106510Y0152289D01*
X0106287Y0153075D02*
X0107274Y0153075D01*
X0106287Y0153861D02*
X0112532Y0153861D01*
X0106287Y0154647D02*
X0121100Y0154647D01*
X0121100Y0155433D02*
X0106287Y0155433D01*
X0106287Y0156219D02*
X0121100Y0156219D01*
X0121100Y0157004D02*
X0106287Y0157004D01*
X0106287Y0157790D02*
X0121100Y0157790D01*
X0121100Y0158576D02*
X0106287Y0158576D01*
X0106287Y0159362D02*
X0121100Y0159362D01*
X0121100Y0160148D02*
X0106287Y0160148D01*
X0106287Y0160934D02*
X0121100Y0160934D01*
X0121100Y0161720D02*
X0106287Y0161720D01*
X0106287Y0162506D02*
X0121100Y0162506D01*
X0121100Y0163292D02*
X0106287Y0163292D01*
X0106287Y0164078D02*
X0106505Y0164078D01*
X0111282Y0164078D02*
X0121100Y0164078D01*
X0121100Y0164864D02*
X0111865Y0164864D01*
X0111865Y0165649D02*
X0121100Y0165649D01*
X0121100Y0166435D02*
X0111865Y0166435D01*
X0111865Y0167221D02*
X0121100Y0167221D01*
X0121100Y0168007D02*
X0111865Y0168007D01*
X0111865Y0168793D02*
X0121100Y0168793D01*
X0121100Y0169579D02*
X0111865Y0169579D01*
X0111865Y0170365D02*
X0121100Y0170365D01*
X0121100Y0171151D02*
X0111865Y0171151D01*
X0111865Y0171937D02*
X0121100Y0171937D01*
X0113491Y0179375D02*
X0113363Y0179503D01*
X0106925Y0179503D01*
X0106796Y0179375D01*
X0106796Y0184869D01*
X0105996Y0185669D01*
X0106018Y0185722D01*
X0106018Y0187065D01*
X0105996Y0187118D01*
X0106394Y0187516D01*
X0106925Y0186985D01*
X0113363Y0186985D01*
X0113894Y0187516D01*
X0114291Y0187118D01*
X0114269Y0187065D01*
X0114269Y0185722D01*
X0114291Y0185669D01*
X0113491Y0184869D01*
X0113491Y0179375D01*
X0113491Y0179796D02*
X0106796Y0179796D01*
X0106796Y0180582D02*
X0113491Y0180582D01*
X0113491Y0181368D02*
X0106796Y0181368D01*
X0106796Y0182154D02*
X0113491Y0182154D01*
X0113491Y0182940D02*
X0106796Y0182940D01*
X0106796Y0183725D02*
X0113491Y0183725D01*
X0113491Y0184511D02*
X0106796Y0184511D01*
X0106368Y0185297D02*
X0113919Y0185297D01*
X0114269Y0186083D02*
X0106018Y0186083D01*
X0106018Y0186869D02*
X0114269Y0186869D01*
X0113491Y0194375D02*
X0113363Y0194503D01*
X0106925Y0194503D01*
X0106796Y0194375D01*
X0106796Y0199869D01*
X0105863Y0200802D01*
X0105437Y0200802D01*
X0105437Y0203600D01*
X0114850Y0203600D01*
X0114850Y0200802D01*
X0114425Y0200802D01*
X0113491Y0199869D01*
X0113491Y0194375D01*
X0113491Y0194728D02*
X0106796Y0194728D01*
X0106796Y0195514D02*
X0113491Y0195514D01*
X0113491Y0196300D02*
X0106796Y0196300D01*
X0106796Y0197086D02*
X0113491Y0197086D01*
X0113491Y0197872D02*
X0106796Y0197872D01*
X0106796Y0198658D02*
X0113491Y0198658D01*
X0113491Y0199444D02*
X0106796Y0199444D01*
X0106436Y0200230D02*
X0113852Y0200230D01*
X0114850Y0201016D02*
X0105437Y0201016D01*
X0105437Y0201801D02*
X0114850Y0201801D01*
X0114850Y0202587D02*
X0105437Y0202587D01*
X0105437Y0203373D02*
X0114850Y0203373D01*
X0102885Y0217520D02*
X0094655Y0217520D01*
X0095441Y0218306D02*
X0103670Y0218306D01*
X0104456Y0219092D02*
X0096227Y0219092D01*
X0096726Y0219877D02*
X0105242Y0219877D01*
X0102099Y0216734D02*
X0093869Y0216734D01*
X0093083Y0215948D02*
X0101313Y0215948D01*
X0100527Y0215162D02*
X0092297Y0215162D01*
X0091511Y0214376D02*
X0099741Y0214376D01*
X0098955Y0213590D02*
X0090725Y0213590D01*
X0089939Y0212804D02*
X0098169Y0212804D01*
X0099850Y0203600D02*
X0090437Y0203600D01*
X0090437Y0200802D01*
X0090863Y0200802D01*
X0091796Y0199869D01*
X0091796Y0194375D01*
X0091925Y0194503D01*
X0098363Y0194503D01*
X0098491Y0194375D01*
X0098491Y0199869D01*
X0099425Y0200802D01*
X0099850Y0200802D01*
X0099850Y0203600D01*
X0099850Y0203373D02*
X0090437Y0203373D01*
X0090437Y0202587D02*
X0099850Y0202587D01*
X0099850Y0201801D02*
X0090437Y0201801D01*
X0090437Y0201016D02*
X0099850Y0201016D01*
X0098852Y0200230D02*
X0091436Y0200230D01*
X0091796Y0199444D02*
X0098491Y0199444D01*
X0098491Y0198658D02*
X0091796Y0198658D01*
X0091796Y0197872D02*
X0098491Y0197872D01*
X0098491Y0197086D02*
X0091796Y0197086D01*
X0091796Y0196300D02*
X0098491Y0196300D01*
X0098491Y0195514D02*
X0091796Y0195514D01*
X0091796Y0194728D02*
X0098491Y0194728D01*
X0098894Y0187516D02*
X0099291Y0187118D01*
X0099269Y0187065D01*
X0099269Y0185722D01*
X0099291Y0185669D01*
X0098491Y0184869D01*
X0098491Y0179375D01*
X0098363Y0179503D01*
X0091925Y0179503D01*
X0091796Y0179375D01*
X0091796Y0184869D01*
X0090996Y0185669D01*
X0091018Y0185722D01*
X0091018Y0187065D01*
X0090996Y0187118D01*
X0091394Y0187516D01*
X0091925Y0186985D01*
X0098363Y0186985D01*
X0098894Y0187516D01*
X0099269Y0186869D02*
X0091018Y0186869D01*
X0091018Y0186083D02*
X0099269Y0186083D01*
X0098919Y0185297D02*
X0091368Y0185297D01*
X0091796Y0184511D02*
X0098491Y0184511D01*
X0098491Y0183725D02*
X0091796Y0183725D01*
X0091796Y0182940D02*
X0098491Y0182940D01*
X0098491Y0182154D02*
X0091796Y0182154D01*
X0091796Y0181368D02*
X0098491Y0181368D01*
X0098491Y0180582D02*
X0091796Y0180582D01*
X0091796Y0179796D02*
X0098491Y0179796D01*
X0120255Y0153861D02*
X0121401Y0153861D01*
X0120901Y0153075D02*
X0120546Y0153075D01*
X0140037Y0147053D02*
X0140722Y0146769D01*
X0142065Y0146769D01*
X0143305Y0147283D01*
X0144255Y0148232D01*
X0144768Y0149472D01*
X0144768Y0149568D01*
X0149450Y0154250D01*
X0154741Y0154250D01*
X0154741Y0154218D01*
X0155675Y0153284D01*
X0162113Y0153284D01*
X0163046Y0154218D01*
X0163046Y0154250D01*
X0163379Y0154250D01*
X0163379Y0144829D01*
X0159811Y0141262D01*
X0159025Y0140476D01*
X0158600Y0139449D01*
X0158600Y0134623D01*
X0158533Y0134555D01*
X0158019Y0133315D01*
X0158019Y0131972D01*
X0158533Y0130732D01*
X0158602Y0130662D01*
X0141543Y0130662D01*
X0140663Y0130298D01*
X0140037Y0129673D01*
X0140037Y0147053D01*
X0140037Y0146788D02*
X0140677Y0146788D01*
X0140037Y0146002D02*
X0163379Y0146002D01*
X0163379Y0146788D02*
X0142110Y0146788D01*
X0143596Y0147573D02*
X0163379Y0147573D01*
X0163379Y0148359D02*
X0144307Y0148359D01*
X0144633Y0149145D02*
X0163379Y0149145D01*
X0163379Y0149931D02*
X0145132Y0149931D01*
X0145918Y0150717D02*
X0163379Y0150717D01*
X0163379Y0151503D02*
X0146704Y0151503D01*
X0147490Y0152289D02*
X0163379Y0152289D01*
X0163379Y0153075D02*
X0148276Y0153075D01*
X0149062Y0153861D02*
X0155098Y0153861D01*
X0162689Y0153861D02*
X0163379Y0153861D01*
X0163379Y0145216D02*
X0140037Y0145216D01*
X0140037Y0144430D02*
X0162979Y0144430D01*
X0162193Y0143644D02*
X0140037Y0143644D01*
X0140037Y0142858D02*
X0161407Y0142858D01*
X0160621Y0142072D02*
X0140037Y0142072D01*
X0140037Y0141286D02*
X0159835Y0141286D01*
X0159049Y0140500D02*
X0140037Y0140500D01*
X0140037Y0139714D02*
X0158710Y0139714D01*
X0158600Y0138928D02*
X0140037Y0138928D01*
X0140037Y0138143D02*
X0158600Y0138143D01*
X0158600Y0137357D02*
X0140037Y0137357D01*
X0140037Y0136571D02*
X0158600Y0136571D01*
X0158600Y0135785D02*
X0140037Y0135785D01*
X0140037Y0134999D02*
X0158600Y0134999D01*
X0158391Y0134213D02*
X0140037Y0134213D01*
X0140037Y0133427D02*
X0158065Y0133427D01*
X0158019Y0132641D02*
X0140037Y0132641D01*
X0140037Y0131855D02*
X0158067Y0131855D01*
X0158393Y0131069D02*
X0140037Y0131069D01*
X0140037Y0130283D02*
X0140648Y0130283D01*
X0188787Y0116923D02*
X0196985Y0116923D01*
X0196985Y0116137D02*
X0188787Y0116137D01*
X0188787Y0115351D02*
X0196985Y0115351D01*
X0196985Y0114565D02*
X0188787Y0114565D01*
X0188787Y0113779D02*
X0196985Y0113779D01*
X0196985Y0112993D02*
X0196743Y0112993D01*
X0222897Y0184511D02*
X0235820Y0184511D01*
X0235820Y0185297D02*
X0223683Y0185297D01*
X0224468Y0186083D02*
X0235820Y0186083D01*
X0235820Y0186869D02*
X0225254Y0186869D01*
X0226040Y0187655D02*
X0235820Y0187655D01*
X0235820Y0188441D02*
X0226826Y0188441D01*
X0227612Y0189227D02*
X0235820Y0189227D01*
X0235820Y0190013D02*
X0228398Y0190013D01*
X0229184Y0190799D02*
X0235820Y0190799D01*
X0235820Y0191585D02*
X0229796Y0191585D01*
X0230037Y0192371D02*
X0235820Y0192371D01*
X0235820Y0193156D02*
X0230037Y0193156D01*
X0230037Y0193942D02*
X0235820Y0193942D01*
X0235820Y0194728D02*
X0230037Y0194728D01*
X0230037Y0195514D02*
X0235820Y0195514D01*
X0235820Y0196300D02*
X0230037Y0196300D01*
X0230037Y0197086D02*
X0235820Y0197086D01*
X0235820Y0197872D02*
X0230037Y0197872D01*
X0230037Y0198658D02*
X0235820Y0198658D01*
X0235820Y0199444D02*
X0230037Y0199444D01*
X0230037Y0200230D02*
X0235820Y0200230D01*
X0235820Y0201016D02*
X0230037Y0201016D01*
X0230037Y0201801D02*
X0235820Y0201801D01*
X0235820Y0202587D02*
X0230037Y0202587D01*
X0230037Y0203373D02*
X0235820Y0203373D01*
X0235820Y0204159D02*
X0230037Y0204159D01*
X0230037Y0204945D02*
X0235820Y0204945D01*
X0235820Y0205731D02*
X0230037Y0205731D01*
X0230037Y0206517D02*
X0235820Y0206517D01*
X0235820Y0207303D02*
X0230037Y0207303D01*
X0230037Y0208089D02*
X0235820Y0208089D01*
X0235820Y0208875D02*
X0230037Y0208875D01*
X0230037Y0209661D02*
X0235820Y0209661D01*
X0235820Y0210447D02*
X0230037Y0210447D01*
X0229784Y0211232D02*
X0235820Y0211232D01*
X0235820Y0212018D02*
X0229154Y0212018D01*
X0123600Y0289824D02*
X0003287Y0289824D01*
X0003543Y0290610D02*
X0123600Y0290610D01*
X0123600Y0291396D02*
X0003798Y0291396D01*
X0004305Y0292181D02*
X0123696Y0292181D01*
X0124022Y0292967D02*
X0004876Y0292967D01*
X0005875Y0293753D02*
X0124802Y0293753D01*
X0125588Y0294539D02*
X0007512Y0294539D01*
X0003187Y0226165D02*
X0015622Y0226165D01*
X0014494Y0225379D02*
X0003187Y0225379D01*
X0003187Y0224593D02*
X0013708Y0224593D01*
X0012922Y0223807D02*
X0003187Y0223807D01*
X0003187Y0223021D02*
X0012136Y0223021D01*
X0011350Y0222235D02*
X0003187Y0222235D01*
X0003187Y0221449D02*
X0010564Y0221449D01*
X0009778Y0220663D02*
X0003187Y0220663D01*
X0003187Y0219877D02*
X0008992Y0219877D01*
X0008206Y0219092D02*
X0003187Y0219092D01*
X0003187Y0218306D02*
X0007420Y0218306D01*
X0006635Y0217520D02*
X0003187Y0217520D01*
X0003187Y0216734D02*
X0005849Y0216734D01*
X0005063Y0215948D02*
X0003187Y0215948D01*
X0003187Y0215162D02*
X0004277Y0215162D01*
X0003491Y0214376D02*
X0003187Y0214376D01*
X0029739Y0151503D02*
X0030250Y0151503D01*
X0004139Y0006109D02*
X0234869Y0006109D01*
X0234298Y0005323D02*
X0004710Y0005323D01*
X0005561Y0004537D02*
X0233446Y0004537D01*
X0232197Y0003751D02*
X0006811Y0003751D01*
D24*
X0017142Y0017142D03*
X0221866Y0017142D03*
X0221866Y0280921D03*
X0017142Y0280921D03*
D25*
X0036394Y0186394D03*
X0051394Y0186394D03*
X0066394Y0186394D03*
X0073894Y0167644D03*
X0073894Y0161394D03*
X0078894Y0161394D03*
X0067644Y0162644D03*
X0063269Y0162644D03*
X0071394Y0150144D03*
X0078894Y0123894D03*
X0073894Y0112644D03*
X0073894Y0108269D03*
X0069519Y0108269D03*
X0069519Y0112644D03*
X0057644Y0123894D03*
X0042644Y0123894D03*
X0025144Y0102644D03*
X0020144Y0102644D03*
X0020144Y0107019D03*
X0020144Y0111394D03*
X0008894Y0133894D03*
X0013894Y0136394D03*
X0013894Y0142644D03*
X0018894Y0145144D03*
X0018894Y0151394D03*
X0022644Y0161394D03*
X0027644Y0161394D03*
X0022644Y0167644D03*
X0060144Y0096394D03*
X0060144Y0083894D03*
X0055144Y0083894D03*
X0050144Y0083894D03*
X0045144Y0083894D03*
X0040144Y0083894D03*
X0035144Y0083894D03*
X0030144Y0083894D03*
X0078894Y0095144D03*
X0083894Y0083894D03*
X0088894Y0083894D03*
X0093894Y0083894D03*
X0098894Y0083894D03*
X0103894Y0083894D03*
X0108894Y0083894D03*
X0121394Y0085144D03*
X0121394Y0092644D03*
X0117644Y0101394D03*
X0117644Y0121394D03*
X0108894Y0123894D03*
X0093894Y0123894D03*
X0122644Y0150144D03*
X0128894Y0143894D03*
X0141394Y0150144D03*
X0157019Y0145144D03*
X0161394Y0145144D03*
X0161394Y0132644D03*
X0149519Y0120769D03*
X0149519Y0117019D03*
X0151394Y0111394D03*
X0149519Y0105769D03*
X0149519Y0102019D03*
X0151394Y0096394D03*
X0150144Y0090769D03*
X0150144Y0087019D03*
X0151394Y0081394D03*
X0145769Y0075769D03*
X0142019Y0073269D03*
X0140144Y0065144D03*
X0132644Y0072644D03*
X0170144Y0080144D03*
X0200144Y0067644D03*
X0208894Y0065144D03*
X0211394Y0076394D03*
X0212644Y0082019D03*
X0212644Y0085769D03*
X0211394Y0091394D03*
X0212644Y0097019D03*
X0212644Y0100769D03*
X0211394Y0106394D03*
X0212644Y0112019D03*
X0212644Y0115769D03*
X0201394Y0133894D03*
X0201394Y0138269D03*
X0201394Y0142644D03*
X0193269Y0123269D03*
X0195769Y0119519D03*
X0190769Y0119519D03*
X0158894Y0162644D03*
X0153894Y0167644D03*
X0133894Y0167644D03*
X0118269Y0162644D03*
X0113894Y0162644D03*
X0117644Y0186394D03*
X0131394Y0193894D03*
X0131394Y0198894D03*
X0141394Y0208894D03*
X0146394Y0208894D03*
X0145144Y0195144D03*
X0166394Y0213894D03*
X0171394Y0213894D03*
X0176394Y0213894D03*
X0181394Y0213894D03*
X0186394Y0231394D03*
X0191394Y0231394D03*
X0196394Y0231394D03*
X0213894Y0233894D03*
X0213894Y0228894D03*
X0213894Y0220144D03*
X0218894Y0220144D03*
X0223894Y0220144D03*
X0228894Y0220144D03*
X0196394Y0261394D03*
X0188894Y0261394D03*
X0173894Y0252644D03*
X0186394Y0176394D03*
X0186394Y0171394D03*
X0102644Y0186394D03*
X0087644Y0186394D03*
D26*
X0082644Y0185769D03*
X0077644Y0185769D03*
X0092644Y0185769D03*
X0097644Y0185769D03*
X0107644Y0185769D03*
X0112644Y0185769D03*
X0112644Y0201394D03*
X0107644Y0201394D03*
X0097644Y0201394D03*
X0092644Y0201394D03*
X0082644Y0201394D03*
X0077644Y0201394D03*
X0061394Y0201394D03*
X0056394Y0201394D03*
X0046394Y0201394D03*
X0041394Y0201394D03*
X0031394Y0201394D03*
X0026394Y0201394D03*
X0027019Y0185769D03*
X0030769Y0185769D03*
X0042019Y0185769D03*
X0045769Y0185769D03*
X0056832Y0185769D03*
X0060769Y0185769D03*
D27*
X0151394Y0258894D02*
X0151394Y0277644D01*
X0152644Y0278894D01*
X0160144Y0278894D01*
X0165144Y0283579D01*
X0176394Y0283579D01*
X0180144Y0279829D01*
X0180144Y0266394D01*
X0168894Y0255144D01*
X0168894Y0242644D01*
X0183894Y0242644D01*
X0185144Y0243894D01*
X0187258Y0243894D01*
X0187258Y0236394D01*
X0183894Y0236394D01*
X0182644Y0235144D01*
X0182644Y0232221D01*
X0182613Y0232146D01*
X0182613Y0230642D01*
X0182644Y0230567D01*
X0182644Y0228894D01*
X0162644Y0228894D01*
X0155144Y0237644D01*
X0155144Y0255144D01*
X0151394Y0258894D01*
X0151394Y0259313D02*
X0173063Y0259313D01*
X0173861Y0260111D02*
X0151394Y0260111D01*
X0151394Y0260910D02*
X0174660Y0260910D01*
X0175458Y0261708D02*
X0151394Y0261708D01*
X0151394Y0262507D02*
X0176257Y0262507D01*
X0177055Y0263305D02*
X0151394Y0263305D01*
X0151394Y0264104D02*
X0177854Y0264104D01*
X0178652Y0264902D02*
X0151394Y0264902D01*
X0151394Y0265701D02*
X0179451Y0265701D01*
X0180144Y0266499D02*
X0151394Y0266499D01*
X0151394Y0267298D02*
X0180144Y0267298D01*
X0180144Y0268096D02*
X0151394Y0268096D01*
X0151394Y0268895D02*
X0180144Y0268895D01*
X0180144Y0269694D02*
X0151394Y0269694D01*
X0151394Y0270492D02*
X0180144Y0270492D01*
X0180144Y0271291D02*
X0151394Y0271291D01*
X0151394Y0272089D02*
X0180144Y0272089D01*
X0180144Y0272888D02*
X0151394Y0272888D01*
X0151394Y0273686D02*
X0180144Y0273686D01*
X0180144Y0274485D02*
X0151394Y0274485D01*
X0151394Y0275283D02*
X0180144Y0275283D01*
X0180144Y0276082D02*
X0151394Y0276082D01*
X0151394Y0276880D02*
X0180144Y0276880D01*
X0180144Y0277679D02*
X0151429Y0277679D01*
X0152227Y0278477D02*
X0180144Y0278477D01*
X0180144Y0279276D02*
X0160551Y0279276D01*
X0161404Y0280074D02*
X0179898Y0280074D01*
X0179100Y0280873D02*
X0162256Y0280873D01*
X0163108Y0281671D02*
X0178301Y0281671D01*
X0177503Y0282470D02*
X0163960Y0282470D01*
X0164812Y0283268D02*
X0176704Y0283268D01*
X0172264Y0258514D02*
X0151773Y0258514D01*
X0152572Y0257716D02*
X0171466Y0257716D01*
X0170667Y0256917D02*
X0153370Y0256917D01*
X0154169Y0256119D02*
X0169869Y0256119D01*
X0169070Y0255320D02*
X0154967Y0255320D01*
X0155144Y0254522D02*
X0168894Y0254522D01*
X0168894Y0253723D02*
X0155144Y0253723D01*
X0155144Y0252925D02*
X0168894Y0252925D01*
X0168894Y0252126D02*
X0155144Y0252126D01*
X0155144Y0251328D02*
X0168894Y0251328D01*
X0168894Y0250529D02*
X0155144Y0250529D01*
X0155144Y0249731D02*
X0168894Y0249731D01*
X0168894Y0248932D02*
X0155144Y0248932D01*
X0155144Y0248134D02*
X0168894Y0248134D01*
X0168894Y0247335D02*
X0155144Y0247335D01*
X0155144Y0246537D02*
X0168894Y0246537D01*
X0168894Y0245738D02*
X0155144Y0245738D01*
X0155144Y0244940D02*
X0168894Y0244940D01*
X0168894Y0244141D02*
X0155144Y0244141D01*
X0155144Y0243343D02*
X0168894Y0243343D01*
X0158472Y0233760D02*
X0182644Y0233760D01*
X0182644Y0232962D02*
X0159157Y0232962D01*
X0159841Y0232163D02*
X0182620Y0232163D01*
X0182613Y0231365D02*
X0160525Y0231365D01*
X0161210Y0230566D02*
X0182644Y0230566D01*
X0182644Y0229768D02*
X0161894Y0229768D01*
X0162579Y0228969D02*
X0182644Y0228969D01*
X0182644Y0234559D02*
X0157788Y0234559D01*
X0157103Y0235358D02*
X0182858Y0235358D01*
X0183656Y0236156D02*
X0156419Y0236156D01*
X0155734Y0236955D02*
X0187258Y0236955D01*
X0187258Y0237753D02*
X0155144Y0237753D01*
X0155144Y0238552D02*
X0187258Y0238552D01*
X0187258Y0239350D02*
X0155144Y0239350D01*
X0155144Y0240149D02*
X0187258Y0240149D01*
X0187258Y0240947D02*
X0155144Y0240947D01*
X0155144Y0241746D02*
X0187258Y0241746D01*
X0187258Y0242544D02*
X0155144Y0242544D01*
X0184593Y0243343D02*
X0187258Y0243343D01*
X0192644Y0210144D02*
X0227644Y0210144D01*
X0227644Y0192644D01*
X0221394Y0186394D01*
X0192644Y0186394D01*
X0192644Y0210144D01*
X0192644Y0209805D02*
X0227644Y0209805D01*
X0227644Y0209007D02*
X0192644Y0209007D01*
X0192644Y0208208D02*
X0227644Y0208208D01*
X0227644Y0207410D02*
X0192644Y0207410D01*
X0192644Y0206611D02*
X0227644Y0206611D01*
X0227644Y0205813D02*
X0192644Y0205813D01*
X0192644Y0205014D02*
X0227644Y0205014D01*
X0227644Y0204216D02*
X0192644Y0204216D01*
X0192644Y0203417D02*
X0227644Y0203417D01*
X0227644Y0202619D02*
X0192644Y0202619D01*
X0192644Y0201820D02*
X0227644Y0201820D01*
X0227644Y0201022D02*
X0192644Y0201022D01*
X0192644Y0200223D02*
X0227644Y0200223D01*
X0227644Y0199425D02*
X0192644Y0199425D01*
X0192644Y0198626D02*
X0227644Y0198626D01*
X0227644Y0197827D02*
X0192644Y0197827D01*
X0192644Y0197029D02*
X0227644Y0197029D01*
X0227644Y0196230D02*
X0192644Y0196230D01*
X0192644Y0195432D02*
X0227644Y0195432D01*
X0227644Y0194633D02*
X0192644Y0194633D01*
X0192644Y0193835D02*
X0227644Y0193835D01*
X0227644Y0193036D02*
X0192644Y0193036D01*
X0192644Y0192238D02*
X0227238Y0192238D01*
X0226439Y0191439D02*
X0192644Y0191439D01*
X0192644Y0190641D02*
X0225641Y0190641D01*
X0224842Y0189842D02*
X0192644Y0189842D01*
X0192644Y0189044D02*
X0224044Y0189044D01*
X0223245Y0188245D02*
X0192644Y0188245D01*
X0192644Y0187447D02*
X0222447Y0187447D01*
X0221648Y0186648D02*
X0192644Y0186648D01*
D28*
X0196394Y0190144D02*
X0196394Y0201049D01*
X0196049Y0201394D01*
X0196394Y0190144D02*
X0178894Y0190144D01*
X0173894Y0195144D01*
X0168293Y0195144D01*
X0167644Y0195793D01*
X0166994Y0195144D01*
X0158470Y0195144D01*
X0158293Y0195321D01*
X0158293Y0202644D01*
X0158293Y0210144D01*
X0158470Y0195144D02*
X0152019Y0195144D01*
X0148293Y0191418D01*
X0148293Y0166394D01*
X0148293Y0157644D01*
X0148894Y0157043D01*
X0148293Y0157043D01*
X0141394Y0150144D01*
X0148894Y0157043D02*
X0158894Y0157043D01*
X0165616Y0157043D01*
X0166394Y0156266D01*
X0166172Y0156044D01*
X0166172Y0143672D01*
X0161394Y0138894D01*
X0161394Y0132644D01*
X0126394Y0147644D02*
X0117644Y0138894D01*
X0117644Y0121394D01*
X0117644Y0101394D02*
X0100144Y0101394D01*
X0093894Y0095144D01*
X0078894Y0095144D01*
X0078894Y0089022D01*
X0060144Y0096394D02*
X0058894Y0095144D01*
X0026394Y0095144D01*
X0025144Y0093894D01*
X0025144Y0089022D01*
X0057644Y0146522D02*
X0057644Y0150744D01*
X0065144Y0150744D01*
X0065744Y0150144D01*
X0071394Y0150144D01*
X0108894Y0150744D02*
X0108894Y0146522D01*
X0108894Y0150744D02*
X0116394Y0150744D01*
X0116994Y0150144D01*
X0122644Y0150144D01*
X0126394Y0152644D02*
X0123894Y0155144D01*
X0123894Y0206394D01*
X0123894Y0258894D01*
X0127644Y0262644D01*
X0157004Y0262644D01*
X0158254Y0261394D01*
X0174504Y0277644D01*
X0155144Y0287102D02*
X0155144Y0291394D01*
X0153894Y0292644D01*
X0127644Y0292644D01*
X0126394Y0291394D01*
X0126394Y0280921D01*
X0123894Y0206394D02*
X0117644Y0206394D01*
X0117644Y0197043D01*
X0117644Y0206394D02*
X0102644Y0206394D01*
X0102644Y0197043D01*
X0102644Y0206394D02*
X0087644Y0206394D01*
X0087644Y0197043D01*
X0087644Y0206394D02*
X0066394Y0206394D01*
X0066394Y0197043D01*
X0066394Y0206394D02*
X0051394Y0206394D01*
X0051394Y0197043D01*
X0051394Y0206394D02*
X0038894Y0206394D01*
X0036394Y0203894D01*
X0036394Y0197043D01*
X0126394Y0152644D02*
X0126394Y0147644D01*
X0170272Y0085144D02*
X0170272Y0080272D01*
X0170144Y0080144D01*
X0170144Y0074543D01*
X0170793Y0073894D01*
D29*
X0175144Y0068894D02*
X0137644Y0068894D01*
X0137644Y0073269D01*
X0135144Y0075769D01*
X0135144Y0117644D01*
X0142644Y0125144D01*
X0168269Y0125144D01*
X0171394Y0128269D01*
X0171394Y0134022D01*
X0176394Y0134022D02*
X0176394Y0116394D01*
X0175144Y0115144D01*
X0181394Y0108894D01*
X0181394Y0065144D01*
X0180144Y0063894D01*
X0160144Y0063894D01*
X0157644Y0061394D01*
X0157644Y0056994D01*
X0157043Y0056394D01*
X0150744Y0056394D02*
X0150744Y0052043D01*
X0156394Y0046394D01*
X0156394Y0043470D01*
X0157132Y0042732D01*
X0164494Y0052043D02*
X0170144Y0046394D01*
X0170144Y0043441D01*
X0170852Y0042732D01*
X0164494Y0052043D02*
X0164494Y0056394D01*
X0170793Y0056394D02*
X0171394Y0056994D01*
X0171394Y0060144D01*
X0172644Y0061394D01*
X0182644Y0061394D01*
X0183894Y0062644D01*
X0183894Y0096394D01*
X0187644Y0100144D01*
X0183894Y0103894D01*
X0183894Y0110144D01*
X0181394Y0112644D01*
X0181394Y0134022D01*
X0186394Y0134022D02*
X0186394Y0127644D01*
X0225144Y0127644D01*
X0228894Y0123894D01*
X0228894Y0072644D01*
X0225144Y0068894D01*
X0207644Y0068894D01*
X0201394Y0062644D01*
X0193894Y0062644D01*
X0192644Y0061394D01*
X0192644Y0057043D01*
X0191994Y0056394D01*
X0198293Y0056394D02*
X0198293Y0042732D01*
X0184543Y0056394D02*
X0185144Y0056994D01*
X0185144Y0060144D01*
X0186394Y0061394D01*
X0186394Y0067644D01*
X0200144Y0067644D01*
X0200744Y0076394D02*
X0200744Y0083894D01*
X0200744Y0085144D01*
X0192516Y0085144D01*
X0192516Y0090144D02*
X0188894Y0090144D01*
X0186394Y0087644D01*
X0186394Y0067644D01*
X0178894Y0067644D02*
X0177644Y0066394D01*
X0148894Y0066394D01*
X0143894Y0061394D01*
X0140144Y0065144D01*
X0137644Y0068894D02*
X0130144Y0061394D01*
X0130144Y0056915D01*
X0129809Y0056581D01*
X0123510Y0056581D02*
X0123510Y0051778D01*
X0128894Y0046394D01*
X0128894Y0043530D01*
X0129691Y0042732D01*
X0137260Y0051778D02*
X0142644Y0046394D01*
X0142644Y0043500D01*
X0143411Y0042732D01*
X0137260Y0051778D02*
X0137260Y0056581D01*
X0143559Y0056581D02*
X0143894Y0056915D01*
X0143894Y0061394D01*
X0132644Y0072644D02*
X0132644Y0118894D01*
X0142019Y0128269D01*
X0165144Y0128269D01*
X0166394Y0129519D01*
X0166394Y0134022D01*
X0162043Y0118894D02*
X0162043Y0111394D01*
X0162043Y0110144D01*
X0170272Y0110144D01*
X0170272Y0115144D02*
X0175144Y0115144D01*
X0176394Y0105144D02*
X0170272Y0105144D01*
X0170272Y0100144D02*
X0162043Y0100144D01*
X0162043Y0103894D01*
X0162043Y0100144D02*
X0162043Y0096394D01*
X0162043Y0090144D02*
X0162043Y0088894D01*
X0162043Y0081394D01*
X0155744Y0081394D02*
X0151394Y0081394D01*
X0147043Y0081394D01*
X0147043Y0096394D02*
X0151394Y0096394D01*
X0155744Y0096394D01*
X0162043Y0090144D02*
X0170272Y0090144D01*
X0170272Y0095144D02*
X0175144Y0095144D01*
X0176394Y0093894D01*
X0176394Y0070144D01*
X0175144Y0068894D01*
X0178894Y0067644D02*
X0178894Y0102644D01*
X0176394Y0105144D01*
X0186394Y0111394D02*
X0186394Y0127644D01*
X0191394Y0134022D02*
X0191394Y0142644D01*
X0188894Y0145144D01*
X0180144Y0145144D01*
X0176394Y0148894D01*
X0176394Y0156266D01*
X0181394Y0156266D02*
X0181394Y0150144D01*
X0182644Y0148894D01*
X0190144Y0148894D01*
X0191394Y0150144D01*
X0191394Y0156266D01*
X0196394Y0156266D02*
X0200272Y0156266D01*
X0231394Y0125144D01*
X0231394Y0070144D01*
X0226394Y0065144D01*
X0208894Y0065144D01*
X0207043Y0076394D02*
X0211394Y0076394D01*
X0215744Y0076394D01*
X0215744Y0091394D02*
X0211394Y0091394D01*
X0207043Y0091394D01*
X0200744Y0091394D02*
X0200744Y0095144D01*
X0200744Y0096394D01*
X0200744Y0098894D01*
X0200744Y0095144D02*
X0192516Y0095144D01*
X0192516Y0100144D02*
X0187644Y0100144D01*
X0192516Y0105144D02*
X0200744Y0105144D01*
X0200744Y0106394D01*
X0200793Y0106394D01*
X0200744Y0106394D02*
X0200744Y0113894D01*
X0192516Y0110144D02*
X0187644Y0110144D01*
X0186394Y0111394D01*
X0207043Y0106394D02*
X0211394Y0106394D01*
X0215744Y0106394D01*
X0178244Y0056394D02*
X0178244Y0052043D01*
X0183894Y0046394D01*
X0183894Y0043411D01*
X0184573Y0042732D01*
X0184543Y0042762D01*
X0130144Y0092644D02*
X0126522Y0089022D01*
X0113894Y0089022D01*
X0121394Y0092644D02*
X0121394Y0105144D01*
X0127644Y0111394D01*
X0127644Y0121394D01*
X0135144Y0128894D01*
X0135144Y0153894D01*
X0137644Y0156394D01*
X0137644Y0170144D01*
X0130144Y0177644D01*
X0130144Y0182644D01*
X0132644Y0185144D01*
X0127019Y0190769D01*
X0127019Y0200144D01*
X0129519Y0202644D01*
X0138244Y0202644D01*
X0136817Y0190144D02*
X0141394Y0190144D01*
X0142644Y0188894D01*
X0142644Y0174602D01*
X0141935Y0173894D01*
X0141994Y0173835D01*
X0141994Y0166394D01*
X0141994Y0156994D01*
X0137644Y0152644D01*
X0137644Y0127644D01*
X0130144Y0120144D01*
X0130144Y0092644D01*
X0121394Y0085144D02*
X0121394Y0081394D01*
X0117644Y0077644D01*
X0111394Y0077644D01*
X0109494Y0075744D01*
X0109494Y0072644D01*
X0115705Y0072555D02*
X0115705Y0042732D01*
X0101984Y0042732D02*
X0101984Y0072585D01*
X0102043Y0072644D01*
X0095744Y0072644D02*
X0095144Y0073244D01*
X0095144Y0077644D01*
X0092644Y0080144D01*
X0079519Y0080144D01*
X0072644Y0087019D01*
X0072644Y0097644D01*
X0075144Y0100144D01*
X0091394Y0100144D01*
X0093894Y0102644D01*
X0093894Y0111266D01*
X0093894Y0123894D01*
X0093894Y0129494D01*
X0086394Y0129494D01*
X0086394Y0135793D02*
X0086394Y0138894D01*
X0088894Y0141394D01*
X0088894Y0146522D01*
X0093894Y0146522D02*
X0093894Y0135793D01*
X0101394Y0135793D02*
X0101394Y0138894D01*
X0098894Y0141394D01*
X0098894Y0146522D01*
X0093894Y0146522D02*
X0093894Y0168766D01*
X0098894Y0168766D02*
X0098894Y0175744D01*
X0102644Y0175744D01*
X0102644Y0182043D02*
X0102644Y0186394D01*
X0102644Y0190744D01*
X0095144Y0190744D01*
X0087644Y0190744D02*
X0087644Y0186394D01*
X0087644Y0182043D01*
X0087644Y0175744D02*
X0088894Y0174494D01*
X0088894Y0168766D01*
X0083894Y0168766D02*
X0083894Y0146522D01*
X0083894Y0142644D01*
X0078894Y0137644D01*
X0078894Y0135793D01*
X0076394Y0140144D02*
X0072644Y0140144D01*
X0071394Y0138894D01*
X0071394Y0135793D01*
X0071394Y0129494D02*
X0078894Y0129494D01*
X0078894Y0123894D01*
X0083894Y0118894D01*
X0083894Y0111266D01*
X0083894Y0105769D01*
X0082019Y0103894D01*
X0074519Y0103894D01*
X0070144Y0099519D01*
X0070144Y0085769D01*
X0078269Y0077644D01*
X0080769Y0077644D01*
X0082019Y0076394D01*
X0082019Y0072668D01*
X0081994Y0072644D01*
X0074543Y0072644D02*
X0074543Y0042850D01*
X0074425Y0042732D01*
X0060793Y0042880D02*
X0060646Y0042732D01*
X0060793Y0042880D02*
X0060793Y0072644D01*
X0062644Y0078894D02*
X0056394Y0078894D01*
X0055144Y0077644D01*
X0055144Y0073293D01*
X0054494Y0072644D01*
X0047043Y0072644D02*
X0047043Y0042909D01*
X0046866Y0042732D01*
X0040744Y0072644D02*
X0040744Y0077043D01*
X0038894Y0078894D01*
X0023894Y0078894D01*
X0021394Y0081394D01*
X0021394Y0096394D01*
X0023269Y0098269D01*
X0028269Y0098269D01*
X0030144Y0100144D01*
X0030144Y0111266D01*
X0035144Y0111266D01*
X0040144Y0111266D01*
X0045144Y0111266D02*
X0045144Y0121394D01*
X0042644Y0123894D01*
X0042644Y0129494D01*
X0035144Y0129494D01*
X0035144Y0135793D02*
X0035144Y0138894D01*
X0037644Y0141394D01*
X0037644Y0146522D01*
X0032644Y0146522D02*
X0032644Y0142644D01*
X0027644Y0137644D01*
X0027644Y0135793D01*
X0025144Y0140144D02*
X0021394Y0140144D01*
X0020144Y0138894D01*
X0020144Y0135793D01*
X0013894Y0136394D02*
X0008894Y0141394D01*
X0008894Y0208894D01*
X0017644Y0217644D01*
X0063894Y0217644D01*
X0066994Y0220744D01*
X0066994Y0224829D01*
X0060646Y0225931D02*
X0059543Y0224829D01*
X0060646Y0225931D02*
X0060646Y0254346D01*
X0046925Y0254346D02*
X0046925Y0225961D01*
X0045793Y0224829D01*
X0039494Y0224829D02*
X0038559Y0223894D01*
X0016394Y0223894D01*
X0003894Y0211394D01*
X0003894Y0132644D01*
X0007644Y0128894D01*
X0019543Y0128894D01*
X0020144Y0129494D01*
X0027644Y0129494D01*
X0027644Y0126394D01*
X0030144Y0123894D01*
X0030144Y0111266D01*
X0045144Y0111266D02*
X0050144Y0111266D01*
X0050144Y0102644D01*
X0052019Y0100769D01*
X0062019Y0100769D01*
X0063894Y0098894D01*
X0063894Y0080144D01*
X0062644Y0078894D01*
X0066394Y0078894D02*
X0067644Y0077644D01*
X0067644Y0073244D01*
X0068244Y0072644D01*
X0066394Y0078894D02*
X0066394Y0100144D01*
X0060144Y0106394D01*
X0060144Y0111266D01*
X0060144Y0121394D01*
X0057644Y0123894D01*
X0057644Y0129494D01*
X0050144Y0129494D01*
X0050144Y0135793D02*
X0050144Y0138894D01*
X0047644Y0141394D01*
X0047644Y0146522D01*
X0052644Y0146522D02*
X0052644Y0142644D01*
X0057644Y0137644D01*
X0057644Y0135793D01*
X0052644Y0146522D02*
X0052644Y0168766D01*
X0047644Y0168766D02*
X0047644Y0175744D01*
X0051394Y0175744D01*
X0047644Y0175744D02*
X0043894Y0175744D01*
X0037644Y0175744D02*
X0037644Y0168766D01*
X0032644Y0168766D02*
X0032644Y0146522D01*
X0027644Y0146522D02*
X0027644Y0142644D01*
X0025144Y0140144D01*
X0018894Y0145144D02*
X0013894Y0150144D01*
X0013894Y0206394D01*
X0020144Y0212644D01*
X0086394Y0212644D01*
X0094494Y0220744D01*
X0094494Y0224829D01*
X0100793Y0224829D02*
X0101984Y0226020D01*
X0101984Y0254346D01*
X0088205Y0254346D02*
X0088205Y0225990D01*
X0087043Y0224829D01*
X0080744Y0224829D02*
X0080744Y0220744D01*
X0075144Y0215144D01*
X0018894Y0215144D01*
X0011394Y0207644D01*
X0011394Y0145144D01*
X0013894Y0142644D01*
X0006394Y0136394D02*
X0008894Y0133894D01*
X0006394Y0136394D02*
X0006394Y0210144D01*
X0016394Y0220144D01*
X0051394Y0220144D01*
X0053244Y0221994D01*
X0053244Y0224829D01*
X0039494Y0224829D02*
X0039494Y0224179D01*
X0021394Y0210144D02*
X0016394Y0205144D01*
X0016394Y0153894D01*
X0018894Y0151394D01*
X0042644Y0146522D02*
X0042644Y0135793D01*
X0042644Y0146522D02*
X0042644Y0168766D01*
X0037644Y0175744D02*
X0036394Y0175744D01*
X0028894Y0175744D01*
X0036394Y0182043D02*
X0036394Y0186394D01*
X0036394Y0190744D01*
X0028894Y0190744D01*
X0043894Y0190744D02*
X0051394Y0190744D01*
X0051394Y0186394D01*
X0051394Y0182043D01*
X0057644Y0175744D02*
X0058894Y0175744D01*
X0066394Y0175744D01*
X0066394Y0182043D02*
X0066394Y0186394D01*
X0066394Y0190744D01*
X0058894Y0190744D01*
X0057644Y0175744D02*
X0057644Y0168766D01*
X0078894Y0146522D02*
X0078894Y0142644D01*
X0076394Y0140144D01*
X0101394Y0129494D02*
X0108894Y0129494D01*
X0108894Y0123894D01*
X0108894Y0120144D01*
X0111394Y0117644D01*
X0120144Y0117644D01*
X0122644Y0120144D01*
X0122644Y0123894D01*
X0128894Y0130144D01*
X0128894Y0143894D01*
X0132644Y0155144D02*
X0132644Y0130144D01*
X0125144Y0122644D01*
X0125144Y0113894D01*
X0122644Y0111394D01*
X0113894Y0111394D01*
X0113894Y0111266D01*
X0108894Y0111266D02*
X0108894Y0106394D01*
X0110144Y0105144D01*
X0121394Y0105144D01*
X0108894Y0111266D02*
X0103894Y0111266D01*
X0098894Y0111266D02*
X0093894Y0111266D01*
X0088894Y0111266D02*
X0083894Y0111266D01*
X0060144Y0111266D02*
X0055144Y0111266D01*
X0088293Y0072644D02*
X0088293Y0042821D01*
X0088205Y0042732D01*
X0115705Y0072555D02*
X0115793Y0072644D01*
X0147043Y0111394D02*
X0151394Y0111394D01*
X0155744Y0111394D01*
X0171394Y0156266D02*
X0171394Y0161394D01*
X0170144Y0162644D01*
X0158894Y0162644D01*
X0153894Y0167644D02*
X0171394Y0167644D01*
X0173894Y0165144D01*
X0185744Y0165144D01*
X0186394Y0164494D01*
X0186394Y0156266D01*
X0174494Y0173894D02*
X0167043Y0173894D01*
X0167644Y0174494D01*
X0167644Y0185144D01*
X0167644Y0189494D01*
X0167644Y0185144D02*
X0158470Y0185144D01*
X0160744Y0173894D02*
X0153352Y0173894D01*
X0136817Y0185144D02*
X0132644Y0185144D01*
X0117644Y0186394D02*
X0117644Y0182043D01*
X0117644Y0175744D02*
X0110144Y0175744D01*
X0108894Y0174494D01*
X0108894Y0168766D01*
X0103894Y0168766D02*
X0103894Y0146522D01*
X0103894Y0142644D01*
X0108894Y0137644D01*
X0108894Y0135793D01*
X0132644Y0155144D02*
X0133894Y0156394D01*
X0133894Y0167644D01*
X0117644Y0186394D02*
X0117644Y0190744D01*
X0110144Y0190744D01*
X0098894Y0175744D02*
X0095144Y0175744D01*
X0087644Y0175744D02*
X0080144Y0175744D01*
X0080144Y0190744D02*
X0087644Y0190744D01*
X0098894Y0210144D02*
X0021394Y0210144D01*
X0073293Y0224829D02*
X0074366Y0225902D01*
X0074366Y0254346D01*
X0109494Y0224829D02*
X0109494Y0220744D01*
X0098894Y0210144D01*
X0115764Y0224858D02*
X0115793Y0224829D01*
X0115764Y0224858D02*
X0115764Y0254346D01*
X0136433Y0254346D02*
X0143392Y0254346D01*
X0151994Y0245744D01*
X0151994Y0210144D01*
X0170144Y0238894D02*
X0172043Y0238894D01*
X0181394Y0250065D02*
X0181472Y0250144D01*
X0188894Y0250144D01*
X0188894Y0249494D01*
X0188323Y0250065D01*
X0188894Y0249494D02*
X0190144Y0248244D01*
X0190144Y0240055D01*
X0192644Y0240055D02*
X0192644Y0245744D01*
X0196394Y0249494D01*
X0195232Y0240144D02*
X0195144Y0240055D01*
X0195232Y0240144D02*
X0197644Y0240144D01*
X0201994Y0235793D01*
X0201994Y0231394D01*
X0201994Y0223894D01*
X0208293Y0223894D02*
X0208293Y0216394D01*
X0201994Y0216394D02*
X0201994Y0203333D01*
X0194543Y0215144D02*
X0192644Y0217043D01*
X0192644Y0222732D01*
D30*
X0190144Y0222732D02*
X0190144Y0217043D01*
X0188244Y0215144D01*
D31*
X0188244Y0213244D01*
X0185144Y0210144D01*
X0185144Y0202299D01*
X0184238Y0201394D01*
X0108894Y0089022D02*
X0108894Y0083894D01*
X0103894Y0083894D02*
X0103894Y0089022D01*
X0098894Y0089022D02*
X0098894Y0083894D01*
X0093894Y0083894D02*
X0093894Y0089022D01*
X0088894Y0089022D02*
X0088894Y0083894D01*
X0083894Y0083894D02*
X0083894Y0089022D01*
X0060144Y0089022D02*
X0060144Y0083894D01*
X0055144Y0083894D02*
X0055144Y0089022D01*
X0050144Y0089022D02*
X0050144Y0083894D01*
X0045144Y0083894D02*
X0045144Y0089022D01*
X0040144Y0089022D02*
X0040144Y0083894D01*
X0035144Y0083894D02*
X0035144Y0089022D01*
X0030144Y0089022D02*
X0030144Y0083894D01*
M02*
