%
M48
M72
T01C0.0157
T02C0.0236
T03C0.0315
T04C0.0394
T05C0.1693
%
T01
X2702Y18577
X3077Y18577
X4202Y18577
X4577Y18577
X5683Y18577
X6077Y18577
X6139Y20139
X5639Y20139
X4639Y20139
X4139Y20139
X3139Y20139
X2639Y20139
X7764Y20139
X8264Y20139
X9264Y20139
X9764Y20139
X10764Y20139
X11264Y20139
X11264Y18577
X10764Y18577
X9764Y18577
X9264Y18577
X8264Y18577
X7764Y18577
T02
X3014Y8389
X3514Y8389
X4014Y8389
X4514Y8389
X5014Y8389
X5514Y8389
X6014Y8389
X6014Y9639
X6952Y10827
X6952Y11264
X7389Y11264
X7389Y10827
X7889Y9514
X8389Y8389
X8889Y8389
X9389Y8389
X9889Y8389
X10389Y8389
X10889Y8389
X12139Y8514
X12139Y9264
X11764Y10139
X11764Y12139
X10889Y12389
X9389Y12389
X7889Y12389
X5764Y12389
X4264Y12389
X2514Y10264
X2014Y10264
X2014Y10702
X2014Y11139
X889Y13389
X1389Y13639
X1389Y14264
X1889Y14514
X1889Y15139
X2264Y16139
X2764Y16139
X2264Y16764
X3639Y18639
X5139Y18639
X6639Y18639
X7389Y16764
X7389Y16139
X7889Y16139
X6764Y16264
X6327Y16264
X7139Y15014
X8764Y18639
X10264Y18639
X11764Y18639
X13139Y19389
X13139Y19889
X14139Y20889
X14639Y20889
X14514Y19514
X16639Y21389
X17139Y21389
X17639Y21389
X18139Y21389
X18639Y23139
X19139Y23139
X19639Y23139
X21389Y22889
X21389Y23389
X21389Y22014
X21889Y22014
X22389Y22014
X22889Y22014
X19639Y26139
X18889Y26139
X17389Y25264
X18639Y17639
X18639Y17139
X20139Y14264
X20139Y13827
X20139Y13389
X19327Y12327
X19577Y11952
X19077Y11952
X21264Y11577
X21264Y11202
X21139Y10639
X21264Y10077
X21264Y9702
X21139Y9139
X21264Y8577
X21264Y8202
X21139Y7639
X20889Y6514
X20014Y6764
X17014Y8014
X15139Y8139
X15014Y8702
X15014Y9077
X15139Y9639
X14952Y10202
X14952Y10577
X15139Y11139
X14952Y11702
X14952Y12077
X16139Y13264
X16139Y14514
X15702Y14514
X14139Y15014
X12889Y14389
X12264Y15014
X11827Y16264
X11389Y16264
X13389Y16764
X15389Y16764
X15889Y16264
X14577Y7577
X14202Y7327
X14014Y6514
X13264Y7264
T03
X21389Y17825
X21389Y19203
X18828Y27764
X17450Y27764
T04
X4372Y1714
X5750Y1714
X7128Y1714
X8506Y1714
X9883Y1714
X11261Y1714
X12639Y1714
X14017Y1714
X15395Y1714
X16773Y1714
X18151Y1714
X19529Y1714
X14017Y28092
X12639Y28092
X11261Y28092
X9883Y28092
X8506Y28092
X7128Y28092
X5750Y28092
X4372Y28092
T05
X1714Y1714
X22187Y1714
X22187Y28092
X1714Y28092
M30
