G75*
%MOIN*%
%OFA0B0*%
%FSLAX25Y25*%
%IPPOS*%
%LPD*%
%AMOC8*
5,1,8,0,0,1.08239X$1,22.5*
%
%ADD10C,0.00700*%
%ADD11C,0.00591*%
%ADD12C,0.00500*%
%ADD13C,0.00600*%
D10*
X0012017Y0045532D02*
X0011199Y0046349D01*
X0011199Y0048801D01*
X0012834Y0047984D02*
X0012834Y0046349D01*
X0012017Y0045532D01*
X0014469Y0045532D02*
X0014469Y0047984D01*
X0013651Y0048801D01*
X0012834Y0047984D01*
X0013651Y0050688D02*
X0014469Y0051506D01*
X0014469Y0053140D01*
X0013651Y0053958D01*
X0012017Y0053958D01*
X0011199Y0053140D01*
X0011199Y0051506D01*
X0012017Y0050688D01*
X0013651Y0050688D01*
X0014469Y0055845D02*
X0014469Y0057479D01*
X0014469Y0056662D02*
X0009565Y0056662D01*
X0009565Y0055845D01*
X0012017Y0059282D02*
X0011199Y0060100D01*
X0011199Y0062552D01*
X0009565Y0062552D02*
X0014469Y0062552D01*
X0014469Y0060100D01*
X0013651Y0059282D01*
X0012017Y0059282D01*
X0012017Y0064439D02*
X0011199Y0065256D01*
X0011199Y0066891D01*
X0012017Y0067708D01*
X0012834Y0067708D01*
X0012834Y0064439D01*
X0013651Y0064439D02*
X0012017Y0064439D01*
X0013651Y0064439D02*
X0014469Y0065256D01*
X0014469Y0066891D01*
X0014469Y0069595D02*
X0011199Y0069595D01*
X0011199Y0071230D02*
X0011199Y0072047D01*
X0011199Y0071230D02*
X0012834Y0069595D01*
X0014469Y0073892D02*
X0011199Y0073892D01*
X0011199Y0076344D01*
X0012017Y0077161D01*
X0014469Y0077161D01*
X0013651Y0079048D02*
X0012017Y0079048D01*
X0011199Y0079866D01*
X0011199Y0081500D01*
X0012017Y0082318D01*
X0012834Y0082318D01*
X0012834Y0079048D01*
X0013651Y0079048D02*
X0014469Y0079866D01*
X0014469Y0081500D01*
X0014469Y0084205D02*
X0011199Y0084205D01*
X0011199Y0085839D02*
X0011199Y0086657D01*
X0011199Y0085839D02*
X0012834Y0084205D01*
X0013651Y0088502D02*
X0012017Y0088502D01*
X0011199Y0089319D01*
X0011199Y0091771D01*
X0009565Y0091771D02*
X0014469Y0091771D01*
X0014469Y0089319D01*
X0013651Y0088502D01*
X0013651Y0093658D02*
X0013651Y0094476D01*
X0014469Y0094476D01*
X0014469Y0093658D01*
X0013651Y0093658D01*
X0013651Y0096236D02*
X0014469Y0097054D01*
X0014469Y0099506D01*
X0013651Y0101393D02*
X0014469Y0102210D01*
X0014469Y0103845D01*
X0013651Y0104662D01*
X0012017Y0104662D01*
X0011199Y0103845D01*
X0011199Y0102210D01*
X0012017Y0101393D01*
X0013651Y0101393D01*
X0011199Y0099506D02*
X0011199Y0097054D01*
X0012017Y0096236D01*
X0013651Y0096236D01*
X0014469Y0106549D02*
X0011199Y0106549D01*
X0011199Y0107366D01*
X0012017Y0108184D01*
X0011199Y0109001D01*
X0012017Y0109819D01*
X0014469Y0109819D01*
X0014469Y0108184D02*
X0012017Y0108184D01*
X0036855Y0102297D02*
X0038290Y0102297D01*
X0037572Y0102297D02*
X0037572Y0097994D01*
X0036855Y0097994D02*
X0038290Y0097994D01*
X0039924Y0098711D02*
X0040642Y0097994D01*
X0042076Y0097994D01*
X0042794Y0098711D01*
X0044528Y0098711D02*
X0044528Y0099428D01*
X0045246Y0100146D01*
X0046680Y0100146D01*
X0047397Y0099428D01*
X0047397Y0098711D01*
X0046680Y0097994D01*
X0045246Y0097994D01*
X0044528Y0098711D01*
X0045246Y0100146D02*
X0044528Y0100863D01*
X0044528Y0101580D01*
X0045246Y0102297D01*
X0046680Y0102297D01*
X0047397Y0101580D01*
X0047397Y0100863D01*
X0046680Y0100146D01*
X0042794Y0101580D02*
X0042076Y0102297D01*
X0040642Y0102297D01*
X0039924Y0101580D01*
X0039924Y0098711D01*
X0041563Y0064059D02*
X0041563Y0061190D01*
X0043715Y0061190D01*
X0042997Y0062625D01*
X0042997Y0063342D01*
X0043715Y0064059D01*
X0045149Y0064059D01*
X0045867Y0063342D01*
X0045867Y0061908D01*
X0045149Y0061190D01*
X0045867Y0059455D02*
X0042997Y0056586D01*
X0042997Y0054852D02*
X0045867Y0054852D01*
X0045867Y0052700D01*
X0045149Y0051982D01*
X0042997Y0051982D01*
X0042997Y0050248D02*
X0045867Y0050248D01*
X0043715Y0050248D02*
X0043715Y0047379D01*
X0042997Y0047379D02*
X0041563Y0048813D01*
X0042997Y0050248D01*
X0042997Y0047379D02*
X0045867Y0047379D01*
X0045867Y0056586D02*
X0042997Y0059455D01*
X0055342Y0063967D02*
X0057494Y0061815D01*
X0057494Y0064684D01*
X0059646Y0063967D02*
X0055342Y0063967D01*
X0056777Y0060080D02*
X0059646Y0057211D01*
X0059646Y0055477D02*
X0056777Y0055477D01*
X0056777Y0057211D02*
X0059646Y0060080D01*
X0059646Y0055477D02*
X0059646Y0053325D01*
X0058929Y0052607D01*
X0056777Y0052607D01*
X0056777Y0050873D02*
X0055342Y0049438D01*
X0056777Y0048004D01*
X0059646Y0048004D01*
X0057494Y0048004D02*
X0057494Y0050873D01*
X0056777Y0050873D02*
X0059646Y0050873D01*
X0069122Y0049438D02*
X0070556Y0050873D01*
X0073426Y0050873D01*
X0072708Y0052607D02*
X0073426Y0053325D01*
X0073426Y0055477D01*
X0070556Y0055477D01*
X0070556Y0057211D02*
X0073426Y0060080D01*
X0072708Y0061815D02*
X0073426Y0062533D01*
X0073426Y0063967D01*
X0072708Y0064684D01*
X0071991Y0064684D01*
X0071274Y0063967D01*
X0071274Y0063250D01*
X0071274Y0063967D02*
X0070556Y0064684D01*
X0069839Y0064684D01*
X0069122Y0063967D01*
X0069122Y0062533D01*
X0069839Y0061815D01*
X0070556Y0060080D02*
X0073426Y0057211D01*
X0072708Y0052607D02*
X0070556Y0052607D01*
X0071274Y0050873D02*
X0071274Y0048004D01*
X0070556Y0048004D02*
X0069122Y0049438D01*
X0070556Y0048004D02*
X0073426Y0048004D01*
X0082901Y0049438D02*
X0084336Y0048004D01*
X0087205Y0048004D01*
X0085053Y0048004D02*
X0085053Y0050873D01*
X0084336Y0050873D02*
X0087205Y0050873D01*
X0086488Y0052607D02*
X0084336Y0052607D01*
X0084336Y0050873D02*
X0082901Y0049438D01*
X0086488Y0052607D02*
X0087205Y0053325D01*
X0087205Y0055477D01*
X0084336Y0055477D01*
X0084336Y0057211D02*
X0087205Y0060080D01*
X0087205Y0061815D02*
X0084336Y0064684D01*
X0083619Y0064684D01*
X0082901Y0063967D01*
X0082901Y0062533D01*
X0083619Y0061815D01*
X0084336Y0060080D02*
X0087205Y0057211D01*
X0087205Y0061815D02*
X0087205Y0064684D01*
X0096681Y0063250D02*
X0100985Y0063250D01*
X0100985Y0064684D02*
X0100985Y0061815D01*
X0100985Y0060080D02*
X0098116Y0057211D01*
X0098116Y0055477D02*
X0100985Y0055477D01*
X0100985Y0053325D01*
X0100267Y0052607D01*
X0098116Y0052607D01*
X0098116Y0050873D02*
X0096681Y0049438D01*
X0098116Y0048004D01*
X0100985Y0048004D01*
X0098833Y0048004D02*
X0098833Y0050873D01*
X0098116Y0050873D02*
X0100985Y0050873D01*
X0100985Y0057211D02*
X0098116Y0060080D01*
X0098116Y0061815D02*
X0096681Y0063250D01*
X0109743Y0057929D02*
X0110461Y0057929D01*
X0111895Y0057929D02*
X0114764Y0057929D01*
X0114764Y0058646D02*
X0114764Y0057211D01*
X0114764Y0055477D02*
X0114764Y0053325D01*
X0114047Y0052607D01*
X0113330Y0053325D01*
X0113330Y0055477D01*
X0112612Y0055477D02*
X0114764Y0055477D01*
X0112612Y0055477D02*
X0111895Y0054759D01*
X0111895Y0053325D01*
X0110461Y0050873D02*
X0114764Y0050873D01*
X0114764Y0048004D02*
X0110461Y0048004D01*
X0111895Y0049438D01*
X0110461Y0050873D01*
X0111895Y0057211D02*
X0111895Y0057929D01*
X0111895Y0060281D02*
X0111895Y0062433D01*
X0112612Y0063150D01*
X0114764Y0063150D01*
X0114764Y0060281D02*
X0111895Y0060281D01*
X0124240Y0050863D02*
X0124240Y0047994D01*
X0128544Y0047994D01*
X0126392Y0047994D02*
X0126392Y0049428D01*
X0138049Y0048004D02*
X0142353Y0048004D01*
X0142353Y0050873D01*
X0140201Y0049438D02*
X0140201Y0048004D01*
X0138049Y0048004D02*
X0138049Y0050873D01*
X0151829Y0050155D02*
X0151829Y0048004D01*
X0156132Y0048004D01*
X0156132Y0050155D01*
X0155415Y0050873D01*
X0152546Y0050873D01*
X0151829Y0050155D01*
X0155237Y0037012D02*
X0155237Y0032708D01*
X0153086Y0032708D01*
X0152368Y0033426D01*
X0152368Y0034860D01*
X0153086Y0035577D01*
X0155237Y0035577D01*
X0150633Y0034860D02*
X0150633Y0034143D01*
X0147764Y0034143D01*
X0147764Y0033426D02*
X0147764Y0034860D01*
X0148482Y0035577D01*
X0149916Y0035577D01*
X0150633Y0034860D01*
X0149916Y0032708D02*
X0148482Y0032708D01*
X0147764Y0033426D01*
X0146030Y0034143D02*
X0146030Y0034860D01*
X0145312Y0035577D01*
X0143878Y0035577D01*
X0143160Y0034860D01*
X0143160Y0033426D01*
X0143878Y0032708D01*
X0145312Y0032708D01*
X0146030Y0034143D02*
X0143160Y0034143D01*
X0141426Y0032708D02*
X0141426Y0037012D01*
X0138557Y0037012D02*
X0138557Y0032708D01*
X0141426Y0032708D02*
X0138557Y0037012D01*
X0161576Y0037012D02*
X0161576Y0032708D01*
X0161576Y0034143D02*
X0163728Y0034143D01*
X0164445Y0034860D01*
X0164445Y0036295D01*
X0163728Y0037012D01*
X0161576Y0037012D01*
X0166180Y0034860D02*
X0166180Y0033426D01*
X0166897Y0032708D01*
X0168332Y0032708D01*
X0169049Y0033426D01*
X0169049Y0034860D01*
X0168332Y0035577D01*
X0166897Y0035577D01*
X0166180Y0034860D01*
X0170784Y0035577D02*
X0170784Y0033426D01*
X0171501Y0032708D01*
X0172219Y0033426D01*
X0172936Y0032708D01*
X0173653Y0033426D01*
X0173653Y0035577D01*
X0175388Y0034860D02*
X0176105Y0035577D01*
X0177540Y0035577D01*
X0178257Y0034860D01*
X0178257Y0034143D01*
X0175388Y0034143D01*
X0175388Y0033426D02*
X0175388Y0034860D01*
X0175388Y0033426D02*
X0176105Y0032708D01*
X0177540Y0032708D01*
X0179992Y0032708D02*
X0179992Y0035577D01*
X0179992Y0034143D02*
X0181426Y0035577D01*
X0182144Y0035577D01*
X0181510Y0048004D02*
X0181510Y0050155D01*
X0182227Y0050873D01*
X0182945Y0050873D01*
X0183662Y0050155D01*
X0183662Y0048004D01*
X0179358Y0048004D01*
X0179358Y0050155D01*
X0180075Y0050873D01*
X0180793Y0050873D01*
X0181510Y0050155D01*
X0169882Y0050155D02*
X0169165Y0050873D01*
X0169882Y0050155D02*
X0169882Y0048721D01*
X0169165Y0048004D01*
X0166296Y0048004D01*
X0165579Y0048721D01*
X0165579Y0050155D01*
X0166296Y0050873D01*
X0193138Y0049438D02*
X0194572Y0050873D01*
X0197441Y0050873D01*
X0195290Y0050873D02*
X0195290Y0048004D01*
X0194572Y0048004D02*
X0193138Y0049438D01*
X0194572Y0048004D02*
X0197441Y0048004D01*
X0101147Y0098711D02*
X0101147Y0099428D01*
X0100430Y0100146D01*
X0098278Y0100146D01*
X0098278Y0098711D01*
X0098996Y0097994D01*
X0100430Y0097994D01*
X0101147Y0098711D01*
X0099713Y0101580D02*
X0098278Y0100146D01*
X0099713Y0101580D02*
X0101147Y0102297D01*
X0096544Y0101580D02*
X0095826Y0102297D01*
X0094392Y0102297D01*
X0093674Y0101580D01*
X0093674Y0098711D01*
X0094392Y0097994D01*
X0095826Y0097994D01*
X0096544Y0098711D01*
X0092040Y0097994D02*
X0090605Y0097994D01*
X0091322Y0097994D02*
X0091322Y0102297D01*
X0090605Y0102297D02*
X0092040Y0102297D01*
X0086138Y0036295D02*
X0086138Y0033426D01*
X0086856Y0032708D01*
X0088490Y0032708D02*
X0090642Y0032708D01*
X0091360Y0033426D01*
X0090642Y0034143D01*
X0089208Y0034143D01*
X0088490Y0034860D01*
X0089208Y0035577D01*
X0091360Y0035577D01*
X0086856Y0035577D02*
X0085421Y0035577D01*
X0083686Y0035577D02*
X0083686Y0032708D01*
X0081535Y0032708D01*
X0080817Y0033426D01*
X0080817Y0035577D01*
X0079082Y0034860D02*
X0079082Y0033426D01*
X0078365Y0032708D01*
X0076213Y0032708D01*
X0076213Y0031274D02*
X0076213Y0035577D01*
X0078365Y0035577D01*
X0079082Y0034860D01*
X0074579Y0035577D02*
X0073144Y0035577D01*
X0073861Y0036295D02*
X0073861Y0033426D01*
X0074579Y0032708D01*
X0071409Y0032708D02*
X0071409Y0035577D01*
X0071409Y0032708D02*
X0069257Y0032708D01*
X0068540Y0033426D01*
X0068540Y0035577D01*
X0066805Y0036295D02*
X0066805Y0033426D01*
X0066088Y0032708D01*
X0064654Y0032708D01*
X0063936Y0033426D01*
X0063936Y0036295D01*
X0064654Y0037012D01*
X0066088Y0037012D01*
X0066805Y0036295D01*
X0145490Y0181855D02*
X0145490Y0183290D01*
X0145490Y0182572D02*
X0149794Y0182572D01*
X0149794Y0181855D02*
X0149794Y0183290D01*
X0149076Y0184924D02*
X0149794Y0185642D01*
X0149794Y0187076D01*
X0149076Y0187794D01*
X0149076Y0189528D02*
X0146207Y0192397D01*
X0145490Y0192397D01*
X0145490Y0189528D01*
X0146207Y0187794D02*
X0145490Y0187076D01*
X0145490Y0185642D01*
X0146207Y0184924D01*
X0149076Y0184924D01*
X0149076Y0189528D02*
X0149794Y0189528D01*
X0141606Y0232059D02*
X0138737Y0232059D01*
X0138020Y0232776D01*
X0138020Y0234210D01*
X0138737Y0234928D01*
X0140171Y0234928D02*
X0140171Y0233493D01*
X0140171Y0234928D02*
X0141606Y0234928D01*
X0142323Y0234210D01*
X0142323Y0232776D01*
X0141606Y0232059D01*
X0142323Y0236663D02*
X0138020Y0236663D01*
X0142323Y0239532D01*
X0138020Y0239532D01*
X0138020Y0241267D02*
X0138020Y0243418D01*
X0138737Y0244136D01*
X0141606Y0244136D01*
X0142323Y0243418D01*
X0142323Y0241267D01*
X0138020Y0241267D01*
X0129528Y0242701D02*
X0128093Y0244136D01*
X0125224Y0244136D01*
X0125224Y0241267D02*
X0128093Y0241267D01*
X0129528Y0242701D01*
X0127376Y0239532D02*
X0127376Y0236663D01*
X0125224Y0238814D01*
X0129528Y0238814D01*
X0129528Y0234928D02*
X0129528Y0232059D01*
X0126659Y0234928D01*
X0125942Y0234928D01*
X0125224Y0234210D01*
X0125224Y0232776D01*
X0125942Y0232059D01*
X0114764Y0232059D02*
X0110461Y0232059D01*
X0111895Y0233493D01*
X0110461Y0234928D01*
X0114764Y0234928D01*
X0114047Y0236663D02*
X0114764Y0237380D01*
X0114764Y0239532D01*
X0112612Y0239532D01*
X0111895Y0238814D01*
X0111895Y0237380D01*
X0113330Y0237380D02*
X0113330Y0239532D01*
X0113330Y0237380D02*
X0114047Y0236663D01*
X0114764Y0241267D02*
X0114764Y0242701D01*
X0114764Y0241984D02*
X0111895Y0241984D01*
X0111895Y0241267D01*
X0110461Y0241984D02*
X0109743Y0241984D01*
X0111895Y0244336D02*
X0111895Y0246488D01*
X0112612Y0247205D01*
X0114764Y0247205D01*
X0114764Y0244336D02*
X0111895Y0244336D01*
X0100985Y0244136D02*
X0098116Y0241267D01*
X0098116Y0239532D02*
X0100985Y0239532D01*
X0100985Y0237380D01*
X0100267Y0236663D01*
X0098116Y0236663D01*
X0098116Y0234928D02*
X0100985Y0234928D01*
X0098833Y0234928D02*
X0098833Y0232059D01*
X0098116Y0232059D02*
X0096681Y0233493D01*
X0098116Y0234928D01*
X0098116Y0232059D02*
X0100985Y0232059D01*
X0100985Y0241267D02*
X0098116Y0244136D01*
X0098116Y0245870D02*
X0096681Y0247305D01*
X0100985Y0247305D01*
X0100985Y0245870D02*
X0100985Y0248740D01*
X0088340Y0261055D02*
X0089058Y0261772D01*
X0088340Y0262489D01*
X0086906Y0262489D01*
X0086189Y0263207D01*
X0086906Y0263924D01*
X0089058Y0263924D01*
X0088340Y0261055D02*
X0086189Y0261055D01*
X0084554Y0261055D02*
X0083837Y0261772D01*
X0083837Y0264641D01*
X0084554Y0263924D02*
X0083119Y0263924D01*
X0081384Y0263924D02*
X0081384Y0261055D01*
X0079233Y0261055D01*
X0078515Y0261772D01*
X0078515Y0263924D01*
X0076780Y0263207D02*
X0076780Y0261772D01*
X0076063Y0261055D01*
X0073911Y0261055D01*
X0073911Y0259620D02*
X0073911Y0263924D01*
X0076063Y0263924D01*
X0076780Y0263207D01*
X0072177Y0263207D02*
X0072177Y0261055D01*
X0072177Y0263207D02*
X0071459Y0263924D01*
X0069307Y0263924D01*
X0069307Y0261055D01*
X0067673Y0261055D02*
X0066238Y0261055D01*
X0066955Y0261055D02*
X0066955Y0265358D01*
X0066238Y0265358D02*
X0067673Y0265358D01*
X0068855Y0248740D02*
X0069572Y0248740D01*
X0070290Y0248022D01*
X0071007Y0248740D01*
X0071724Y0248740D01*
X0072441Y0248022D01*
X0072441Y0246588D01*
X0071724Y0245870D01*
X0072441Y0244136D02*
X0069572Y0241267D01*
X0069572Y0239532D02*
X0072441Y0239532D01*
X0072441Y0237380D01*
X0071724Y0236663D01*
X0069572Y0236663D01*
X0069572Y0234928D02*
X0072441Y0234928D01*
X0070290Y0234928D02*
X0070290Y0232059D01*
X0069572Y0232059D02*
X0068138Y0233493D01*
X0069572Y0234928D01*
X0069572Y0232059D02*
X0072441Y0232059D01*
X0072441Y0241267D02*
X0069572Y0244136D01*
X0068855Y0245870D02*
X0068138Y0246588D01*
X0068138Y0248022D01*
X0068855Y0248740D01*
X0070290Y0248022D02*
X0070290Y0247305D01*
X0058662Y0248022D02*
X0054358Y0248022D01*
X0056510Y0245870D01*
X0056510Y0248740D01*
X0055793Y0244136D02*
X0058662Y0241267D01*
X0058662Y0239532D02*
X0055793Y0239532D01*
X0055793Y0241267D02*
X0058662Y0244136D01*
X0058662Y0239532D02*
X0058662Y0237380D01*
X0057945Y0236663D01*
X0055793Y0236663D01*
X0055793Y0234928D02*
X0058662Y0234928D01*
X0056510Y0234928D02*
X0056510Y0232059D01*
X0055793Y0232059D02*
X0054358Y0233493D01*
X0055793Y0234928D01*
X0055793Y0232059D02*
X0058662Y0232059D01*
X0045867Y0232059D02*
X0042997Y0232059D01*
X0041563Y0233493D01*
X0042997Y0234928D01*
X0045867Y0234928D01*
X0045149Y0236663D02*
X0045867Y0237380D01*
X0045867Y0239532D01*
X0042997Y0239532D01*
X0042997Y0241267D02*
X0045867Y0244136D01*
X0045149Y0245870D02*
X0045867Y0246588D01*
X0045867Y0248022D01*
X0045149Y0248740D01*
X0043715Y0248740D01*
X0042997Y0248022D01*
X0042997Y0247305D01*
X0043715Y0245870D01*
X0041563Y0245870D01*
X0041563Y0248740D01*
X0042997Y0244136D02*
X0045867Y0241267D01*
X0045149Y0236663D02*
X0042997Y0236663D01*
X0043715Y0234928D02*
X0043715Y0232059D01*
X0081917Y0233493D02*
X0083352Y0234928D01*
X0086221Y0234928D01*
X0085504Y0236663D02*
X0086221Y0237380D01*
X0086221Y0239532D01*
X0083352Y0239532D01*
X0083352Y0241267D02*
X0086221Y0244136D01*
X0086221Y0245870D02*
X0083352Y0248740D01*
X0082634Y0248740D01*
X0081917Y0248022D01*
X0081917Y0246588D01*
X0082634Y0245870D01*
X0083352Y0244136D02*
X0086221Y0241267D01*
X0086221Y0245870D02*
X0086221Y0248740D01*
X0085504Y0236663D02*
X0083352Y0236663D01*
X0084069Y0234928D02*
X0084069Y0232059D01*
X0083352Y0232059D02*
X0081917Y0233493D01*
X0083352Y0232059D02*
X0086221Y0232059D01*
X0123492Y0261055D02*
X0123492Y0265358D01*
X0125643Y0265358D01*
X0126361Y0264641D01*
X0126361Y0263207D01*
X0125643Y0262489D01*
X0123492Y0262489D01*
X0128095Y0261772D02*
X0128813Y0261055D01*
X0130247Y0261055D01*
X0130965Y0261772D01*
X0130965Y0263207D01*
X0130247Y0263924D01*
X0128813Y0263924D01*
X0128095Y0263207D01*
X0128095Y0261772D01*
X0132699Y0261772D02*
X0133417Y0261055D01*
X0134134Y0261772D01*
X0134851Y0261055D01*
X0135569Y0261772D01*
X0135569Y0263924D01*
X0137303Y0263207D02*
X0138021Y0263924D01*
X0139455Y0263924D01*
X0140172Y0263207D01*
X0140172Y0262489D01*
X0137303Y0262489D01*
X0137303Y0261772D02*
X0137303Y0263207D01*
X0137303Y0261772D02*
X0138021Y0261055D01*
X0139455Y0261055D01*
X0141907Y0261055D02*
X0141907Y0263924D01*
X0141907Y0262489D02*
X0143342Y0263924D01*
X0144059Y0263924D01*
X0132699Y0263924D02*
X0132699Y0261772D01*
X0179240Y0274107D02*
X0179957Y0273390D01*
X0182826Y0273390D01*
X0183544Y0274107D01*
X0183544Y0275542D01*
X0182826Y0276259D01*
X0181392Y0277994D02*
X0181392Y0280863D01*
X0183544Y0280146D02*
X0179240Y0280146D01*
X0181392Y0277994D01*
X0179957Y0276259D02*
X0179240Y0275542D01*
X0179240Y0274107D01*
X0210357Y0187297D02*
X0209640Y0186580D01*
X0209640Y0183711D01*
X0210357Y0182994D01*
X0211792Y0182994D01*
X0212509Y0183711D01*
X0214244Y0183711D02*
X0214961Y0182994D01*
X0216396Y0182994D01*
X0217113Y0183711D01*
X0217113Y0186580D01*
X0216396Y0187297D01*
X0214961Y0187297D01*
X0214244Y0186580D01*
X0214244Y0185863D01*
X0214961Y0185146D01*
X0217113Y0185146D01*
X0212509Y0186580D02*
X0211792Y0187297D01*
X0210357Y0187297D01*
D11*
X0036827Y0030528D02*
X0036827Y0002969D01*
X0119504Y0002969D01*
X0119504Y0030528D01*
X0036827Y0030528D01*
X0036827Y0028953D02*
X0036827Y0038795D01*
X0036827Y0067339D01*
X0050606Y0067339D01*
X0050606Y0038795D01*
X0064386Y0038795D01*
X0064386Y0067339D01*
X0078165Y0067339D01*
X0078165Y0038795D01*
X0091945Y0038795D01*
X0091945Y0067339D01*
X0078165Y0067339D01*
X0077496Y0069297D02*
X0077496Y0075990D01*
X0065291Y0075990D01*
X0065291Y0069297D01*
X0077496Y0069297D01*
X0079041Y0069297D02*
X0091246Y0069297D01*
X0091246Y0075990D01*
X0079041Y0075990D01*
X0079041Y0069297D01*
X0091945Y0067339D02*
X0105724Y0067339D01*
X0105724Y0038795D01*
X0119504Y0038795D01*
X0119504Y0029937D01*
X0119504Y0030528D02*
X0119504Y0002969D01*
X0202181Y0002969D01*
X0202181Y0030528D01*
X0119504Y0030528D01*
X0119504Y0038795D02*
X0119504Y0052309D01*
X0133283Y0052309D01*
X0133283Y0038795D01*
X0147063Y0038795D01*
X0147063Y0052309D01*
X0133283Y0052309D01*
X0132762Y0053234D02*
X0132762Y0059927D01*
X0120557Y0059927D01*
X0120557Y0053234D01*
X0132762Y0053234D01*
X0134307Y0053234D02*
X0134307Y0059927D01*
X0146512Y0059927D01*
X0146512Y0053234D01*
X0134307Y0053234D01*
X0133283Y0038795D02*
X0119504Y0038795D01*
X0119504Y0052309D02*
X0119504Y0067339D01*
X0105724Y0067339D01*
X0104996Y0069297D02*
X0104996Y0075990D01*
X0092791Y0075990D01*
X0092791Y0069297D01*
X0104996Y0069297D01*
X0106541Y0069297D02*
X0118746Y0069297D01*
X0118746Y0075990D01*
X0106541Y0075990D01*
X0106541Y0069297D01*
X0116472Y0093057D02*
X0116472Y0107230D01*
X0076315Y0107230D01*
X0076315Y0093057D01*
X0116472Y0093057D01*
X0111949Y0104474D02*
X0111951Y0104557D01*
X0111957Y0104641D01*
X0111967Y0104724D01*
X0111980Y0104806D01*
X0111998Y0104888D01*
X0112020Y0104968D01*
X0112045Y0105048D01*
X0112074Y0105126D01*
X0112106Y0105203D01*
X0112143Y0105279D01*
X0112182Y0105352D01*
X0112226Y0105423D01*
X0112272Y0105493D01*
X0112322Y0105560D01*
X0112375Y0105625D01*
X0112430Y0105687D01*
X0112489Y0105746D01*
X0112551Y0105803D01*
X0112615Y0105856D01*
X0112681Y0105907D01*
X0112750Y0105954D01*
X0112821Y0105998D01*
X0112894Y0106039D01*
X0112969Y0106076D01*
X0113045Y0106109D01*
X0113123Y0106139D01*
X0113203Y0106165D01*
X0113283Y0106188D01*
X0113364Y0106206D01*
X0113447Y0106221D01*
X0113529Y0106232D01*
X0113613Y0106239D01*
X0113696Y0106242D01*
X0113780Y0106241D01*
X0113863Y0106236D01*
X0113946Y0106227D01*
X0114029Y0106214D01*
X0114110Y0106198D01*
X0114191Y0106177D01*
X0114271Y0106153D01*
X0114350Y0106125D01*
X0114427Y0106093D01*
X0114503Y0106058D01*
X0114577Y0106019D01*
X0114649Y0105977D01*
X0114719Y0105931D01*
X0114786Y0105882D01*
X0114852Y0105830D01*
X0114914Y0105775D01*
X0114975Y0105717D01*
X0115032Y0105656D01*
X0115086Y0105593D01*
X0115137Y0105527D01*
X0115186Y0105458D01*
X0115230Y0105388D01*
X0115272Y0105315D01*
X0115310Y0105241D01*
X0115344Y0105165D01*
X0115375Y0105087D01*
X0115402Y0105008D01*
X0115426Y0104928D01*
X0115445Y0104847D01*
X0115461Y0104765D01*
X0115473Y0104682D01*
X0115481Y0104599D01*
X0115485Y0104516D01*
X0115485Y0104432D01*
X0115481Y0104349D01*
X0115473Y0104266D01*
X0115461Y0104183D01*
X0115445Y0104101D01*
X0115426Y0104020D01*
X0115402Y0103940D01*
X0115375Y0103861D01*
X0115344Y0103783D01*
X0115310Y0103707D01*
X0115272Y0103633D01*
X0115230Y0103560D01*
X0115186Y0103490D01*
X0115137Y0103421D01*
X0115086Y0103355D01*
X0115032Y0103292D01*
X0114975Y0103231D01*
X0114914Y0103173D01*
X0114852Y0103118D01*
X0114786Y0103066D01*
X0114719Y0103017D01*
X0114649Y0102971D01*
X0114577Y0102929D01*
X0114503Y0102890D01*
X0114427Y0102855D01*
X0114350Y0102823D01*
X0114271Y0102795D01*
X0114191Y0102771D01*
X0114110Y0102750D01*
X0114029Y0102734D01*
X0113946Y0102721D01*
X0113863Y0102712D01*
X0113780Y0102707D01*
X0113696Y0102706D01*
X0113613Y0102709D01*
X0113529Y0102716D01*
X0113447Y0102727D01*
X0113364Y0102742D01*
X0113283Y0102760D01*
X0113203Y0102783D01*
X0113123Y0102809D01*
X0113045Y0102839D01*
X0112969Y0102872D01*
X0112894Y0102909D01*
X0112821Y0102950D01*
X0112750Y0102994D01*
X0112681Y0103041D01*
X0112615Y0103092D01*
X0112551Y0103145D01*
X0112489Y0103202D01*
X0112430Y0103261D01*
X0112375Y0103323D01*
X0112322Y0103388D01*
X0112272Y0103455D01*
X0112226Y0103525D01*
X0112182Y0103596D01*
X0112143Y0103669D01*
X0112106Y0103745D01*
X0112074Y0103822D01*
X0112045Y0103900D01*
X0112020Y0103980D01*
X0111998Y0104060D01*
X0111980Y0104142D01*
X0111967Y0104224D01*
X0111957Y0104307D01*
X0111951Y0104391D01*
X0111949Y0104474D01*
X0112644Y0116394D02*
X0112644Y0125144D01*
X0112240Y0126541D02*
X0105547Y0126541D01*
X0105547Y0138746D01*
X0112240Y0138746D01*
X0112240Y0126541D01*
X0104740Y0126541D02*
X0098047Y0126541D01*
X0098047Y0138746D01*
X0104740Y0138746D01*
X0104740Y0126541D01*
X0097644Y0125144D02*
X0097644Y0116394D01*
X0097240Y0126541D02*
X0090547Y0126541D01*
X0090547Y0138746D01*
X0097240Y0138746D01*
X0097240Y0126541D01*
X0089740Y0126541D02*
X0083047Y0126541D01*
X0083047Y0138746D01*
X0089740Y0138746D01*
X0089740Y0126541D01*
X0082644Y0125144D02*
X0082644Y0116394D01*
X0082240Y0126541D02*
X0075547Y0126541D01*
X0075547Y0138746D01*
X0082240Y0138746D01*
X0082240Y0126541D01*
X0074740Y0126541D02*
X0068047Y0126541D01*
X0068047Y0138746D01*
X0074740Y0138746D01*
X0074740Y0126541D01*
X0067644Y0125144D02*
X0067644Y0116394D01*
X0062722Y0107230D02*
X0062722Y0093057D01*
X0022565Y0093057D01*
X0022565Y0107230D01*
X0062722Y0107230D01*
X0058199Y0104474D02*
X0058201Y0104557D01*
X0058207Y0104641D01*
X0058217Y0104724D01*
X0058230Y0104806D01*
X0058248Y0104888D01*
X0058270Y0104968D01*
X0058295Y0105048D01*
X0058324Y0105126D01*
X0058356Y0105203D01*
X0058393Y0105279D01*
X0058432Y0105352D01*
X0058476Y0105423D01*
X0058522Y0105493D01*
X0058572Y0105560D01*
X0058625Y0105625D01*
X0058680Y0105687D01*
X0058739Y0105746D01*
X0058801Y0105803D01*
X0058865Y0105856D01*
X0058931Y0105907D01*
X0059000Y0105954D01*
X0059071Y0105998D01*
X0059144Y0106039D01*
X0059219Y0106076D01*
X0059295Y0106109D01*
X0059373Y0106139D01*
X0059453Y0106165D01*
X0059533Y0106188D01*
X0059614Y0106206D01*
X0059697Y0106221D01*
X0059779Y0106232D01*
X0059863Y0106239D01*
X0059946Y0106242D01*
X0060030Y0106241D01*
X0060113Y0106236D01*
X0060196Y0106227D01*
X0060279Y0106214D01*
X0060360Y0106198D01*
X0060441Y0106177D01*
X0060521Y0106153D01*
X0060600Y0106125D01*
X0060677Y0106093D01*
X0060753Y0106058D01*
X0060827Y0106019D01*
X0060899Y0105977D01*
X0060969Y0105931D01*
X0061036Y0105882D01*
X0061102Y0105830D01*
X0061164Y0105775D01*
X0061225Y0105717D01*
X0061282Y0105656D01*
X0061336Y0105593D01*
X0061387Y0105527D01*
X0061436Y0105458D01*
X0061480Y0105388D01*
X0061522Y0105315D01*
X0061560Y0105241D01*
X0061594Y0105165D01*
X0061625Y0105087D01*
X0061652Y0105008D01*
X0061676Y0104928D01*
X0061695Y0104847D01*
X0061711Y0104765D01*
X0061723Y0104682D01*
X0061731Y0104599D01*
X0061735Y0104516D01*
X0061735Y0104432D01*
X0061731Y0104349D01*
X0061723Y0104266D01*
X0061711Y0104183D01*
X0061695Y0104101D01*
X0061676Y0104020D01*
X0061652Y0103940D01*
X0061625Y0103861D01*
X0061594Y0103783D01*
X0061560Y0103707D01*
X0061522Y0103633D01*
X0061480Y0103560D01*
X0061436Y0103490D01*
X0061387Y0103421D01*
X0061336Y0103355D01*
X0061282Y0103292D01*
X0061225Y0103231D01*
X0061164Y0103173D01*
X0061102Y0103118D01*
X0061036Y0103066D01*
X0060969Y0103017D01*
X0060899Y0102971D01*
X0060827Y0102929D01*
X0060753Y0102890D01*
X0060677Y0102855D01*
X0060600Y0102823D01*
X0060521Y0102795D01*
X0060441Y0102771D01*
X0060360Y0102750D01*
X0060279Y0102734D01*
X0060196Y0102721D01*
X0060113Y0102712D01*
X0060030Y0102707D01*
X0059946Y0102706D01*
X0059863Y0102709D01*
X0059779Y0102716D01*
X0059697Y0102727D01*
X0059614Y0102742D01*
X0059533Y0102760D01*
X0059453Y0102783D01*
X0059373Y0102809D01*
X0059295Y0102839D01*
X0059219Y0102872D01*
X0059144Y0102909D01*
X0059071Y0102950D01*
X0059000Y0102994D01*
X0058931Y0103041D01*
X0058865Y0103092D01*
X0058801Y0103145D01*
X0058739Y0103202D01*
X0058680Y0103261D01*
X0058625Y0103323D01*
X0058572Y0103388D01*
X0058522Y0103455D01*
X0058476Y0103525D01*
X0058432Y0103596D01*
X0058393Y0103669D01*
X0058356Y0103745D01*
X0058324Y0103822D01*
X0058295Y0103900D01*
X0058270Y0103980D01*
X0058248Y0104060D01*
X0058230Y0104142D01*
X0058217Y0104224D01*
X0058207Y0104307D01*
X0058201Y0104391D01*
X0058199Y0104474D01*
X0061394Y0116394D02*
X0061394Y0125144D01*
X0060990Y0126541D02*
X0054297Y0126541D01*
X0054297Y0138746D01*
X0060990Y0138746D01*
X0060990Y0126541D01*
X0053490Y0126541D02*
X0046797Y0126541D01*
X0046797Y0138746D01*
X0053490Y0138746D01*
X0053490Y0126541D01*
X0046394Y0125144D02*
X0046394Y0116394D01*
X0045990Y0126541D02*
X0039297Y0126541D01*
X0039297Y0138746D01*
X0045990Y0138746D01*
X0045990Y0126541D01*
X0038490Y0126541D02*
X0031797Y0126541D01*
X0031797Y0138746D01*
X0038490Y0138746D01*
X0038490Y0126541D01*
X0031394Y0125144D02*
X0031394Y0116394D01*
X0030990Y0126541D02*
X0024297Y0126541D01*
X0024297Y0138746D01*
X0030990Y0138746D01*
X0030990Y0126541D01*
X0023490Y0126541D02*
X0016797Y0126541D01*
X0016797Y0138746D01*
X0023490Y0138746D01*
X0023490Y0126541D01*
X0016394Y0125144D02*
X0016394Y0116394D01*
X0025419Y0151148D02*
X0025419Y0164140D01*
X0059868Y0164140D01*
X0059868Y0151148D01*
X0025419Y0151148D01*
X0025547Y0172791D02*
X0032240Y0172791D01*
X0032240Y0184996D01*
X0025547Y0184996D01*
X0025547Y0172791D01*
X0033047Y0172791D02*
X0033047Y0184996D01*
X0039740Y0184996D01*
X0039740Y0172791D01*
X0033047Y0172791D01*
X0040547Y0172791D02*
X0047240Y0172791D01*
X0047240Y0184996D01*
X0040547Y0184996D01*
X0040547Y0172791D01*
X0048047Y0172791D02*
X0048047Y0184996D01*
X0054740Y0184996D01*
X0054740Y0172791D01*
X0048047Y0172791D01*
X0055547Y0172791D02*
X0062240Y0172791D01*
X0062240Y0184996D01*
X0055547Y0184996D01*
X0055547Y0172791D01*
X0063047Y0172791D02*
X0063047Y0184996D01*
X0069740Y0184996D01*
X0069740Y0172791D01*
X0063047Y0172791D01*
X0055251Y0161758D02*
X0055253Y0161841D01*
X0055259Y0161925D01*
X0055269Y0162008D01*
X0055282Y0162090D01*
X0055300Y0162172D01*
X0055322Y0162252D01*
X0055347Y0162332D01*
X0055376Y0162410D01*
X0055408Y0162487D01*
X0055445Y0162563D01*
X0055484Y0162636D01*
X0055528Y0162707D01*
X0055574Y0162777D01*
X0055624Y0162844D01*
X0055677Y0162909D01*
X0055732Y0162971D01*
X0055791Y0163030D01*
X0055853Y0163087D01*
X0055917Y0163140D01*
X0055983Y0163191D01*
X0056052Y0163238D01*
X0056123Y0163282D01*
X0056196Y0163323D01*
X0056271Y0163360D01*
X0056347Y0163393D01*
X0056425Y0163423D01*
X0056505Y0163449D01*
X0056585Y0163472D01*
X0056666Y0163490D01*
X0056749Y0163505D01*
X0056831Y0163516D01*
X0056915Y0163523D01*
X0056998Y0163526D01*
X0057082Y0163525D01*
X0057165Y0163520D01*
X0057248Y0163511D01*
X0057331Y0163498D01*
X0057412Y0163482D01*
X0057493Y0163461D01*
X0057573Y0163437D01*
X0057652Y0163409D01*
X0057729Y0163377D01*
X0057805Y0163342D01*
X0057879Y0163303D01*
X0057951Y0163261D01*
X0058021Y0163215D01*
X0058088Y0163166D01*
X0058154Y0163114D01*
X0058216Y0163059D01*
X0058277Y0163001D01*
X0058334Y0162940D01*
X0058388Y0162877D01*
X0058439Y0162811D01*
X0058488Y0162742D01*
X0058532Y0162672D01*
X0058574Y0162599D01*
X0058612Y0162525D01*
X0058646Y0162449D01*
X0058677Y0162371D01*
X0058704Y0162292D01*
X0058728Y0162212D01*
X0058747Y0162131D01*
X0058763Y0162049D01*
X0058775Y0161966D01*
X0058783Y0161883D01*
X0058787Y0161800D01*
X0058787Y0161716D01*
X0058783Y0161633D01*
X0058775Y0161550D01*
X0058763Y0161467D01*
X0058747Y0161385D01*
X0058728Y0161304D01*
X0058704Y0161224D01*
X0058677Y0161145D01*
X0058646Y0161067D01*
X0058612Y0160991D01*
X0058574Y0160917D01*
X0058532Y0160844D01*
X0058488Y0160774D01*
X0058439Y0160705D01*
X0058388Y0160639D01*
X0058334Y0160576D01*
X0058277Y0160515D01*
X0058216Y0160457D01*
X0058154Y0160402D01*
X0058088Y0160350D01*
X0058021Y0160301D01*
X0057951Y0160255D01*
X0057879Y0160213D01*
X0057805Y0160174D01*
X0057729Y0160139D01*
X0057652Y0160107D01*
X0057573Y0160079D01*
X0057493Y0160055D01*
X0057412Y0160034D01*
X0057331Y0160018D01*
X0057248Y0160005D01*
X0057165Y0159996D01*
X0057082Y0159991D01*
X0056998Y0159990D01*
X0056915Y0159993D01*
X0056831Y0160000D01*
X0056749Y0160011D01*
X0056666Y0160026D01*
X0056585Y0160044D01*
X0056505Y0160067D01*
X0056425Y0160093D01*
X0056347Y0160123D01*
X0056271Y0160156D01*
X0056196Y0160193D01*
X0056123Y0160234D01*
X0056052Y0160278D01*
X0055983Y0160325D01*
X0055917Y0160376D01*
X0055853Y0160429D01*
X0055791Y0160486D01*
X0055732Y0160545D01*
X0055677Y0160607D01*
X0055624Y0160672D01*
X0055574Y0160739D01*
X0055528Y0160809D01*
X0055484Y0160880D01*
X0055445Y0160953D01*
X0055408Y0161029D01*
X0055376Y0161106D01*
X0055347Y0161184D01*
X0055322Y0161264D01*
X0055300Y0161344D01*
X0055282Y0161426D01*
X0055269Y0161508D01*
X0055259Y0161591D01*
X0055253Y0161675D01*
X0055251Y0161758D01*
X0061797Y0159996D02*
X0068490Y0159996D01*
X0068490Y0147791D01*
X0061797Y0147791D01*
X0061797Y0159996D01*
X0076669Y0164140D02*
X0076669Y0151148D01*
X0111118Y0151148D01*
X0111118Y0164140D01*
X0076669Y0164140D01*
X0076797Y0172791D02*
X0083490Y0172791D01*
X0083490Y0184996D01*
X0076797Y0184996D01*
X0076797Y0172791D01*
X0084297Y0172791D02*
X0090990Y0172791D01*
X0090990Y0184996D01*
X0084297Y0184996D01*
X0084297Y0172791D01*
X0091797Y0172791D02*
X0091797Y0184996D01*
X0098490Y0184996D01*
X0098490Y0172791D01*
X0091797Y0172791D01*
X0099297Y0172791D02*
X0105990Y0172791D01*
X0105990Y0184996D01*
X0099297Y0184996D01*
X0099297Y0172791D01*
X0106797Y0172791D02*
X0106797Y0184996D01*
X0113490Y0184996D01*
X0113490Y0172791D01*
X0106797Y0172791D01*
X0114297Y0172791D02*
X0120990Y0172791D01*
X0120990Y0184996D01*
X0114297Y0184996D01*
X0114297Y0172791D01*
X0106501Y0161758D02*
X0106503Y0161841D01*
X0106509Y0161925D01*
X0106519Y0162008D01*
X0106532Y0162090D01*
X0106550Y0162172D01*
X0106572Y0162252D01*
X0106597Y0162332D01*
X0106626Y0162410D01*
X0106658Y0162487D01*
X0106695Y0162563D01*
X0106734Y0162636D01*
X0106778Y0162707D01*
X0106824Y0162777D01*
X0106874Y0162844D01*
X0106927Y0162909D01*
X0106982Y0162971D01*
X0107041Y0163030D01*
X0107103Y0163087D01*
X0107167Y0163140D01*
X0107233Y0163191D01*
X0107302Y0163238D01*
X0107373Y0163282D01*
X0107446Y0163323D01*
X0107521Y0163360D01*
X0107597Y0163393D01*
X0107675Y0163423D01*
X0107755Y0163449D01*
X0107835Y0163472D01*
X0107916Y0163490D01*
X0107999Y0163505D01*
X0108081Y0163516D01*
X0108165Y0163523D01*
X0108248Y0163526D01*
X0108332Y0163525D01*
X0108415Y0163520D01*
X0108498Y0163511D01*
X0108581Y0163498D01*
X0108662Y0163482D01*
X0108743Y0163461D01*
X0108823Y0163437D01*
X0108902Y0163409D01*
X0108979Y0163377D01*
X0109055Y0163342D01*
X0109129Y0163303D01*
X0109201Y0163261D01*
X0109271Y0163215D01*
X0109338Y0163166D01*
X0109404Y0163114D01*
X0109466Y0163059D01*
X0109527Y0163001D01*
X0109584Y0162940D01*
X0109638Y0162877D01*
X0109689Y0162811D01*
X0109738Y0162742D01*
X0109782Y0162672D01*
X0109824Y0162599D01*
X0109862Y0162525D01*
X0109896Y0162449D01*
X0109927Y0162371D01*
X0109954Y0162292D01*
X0109978Y0162212D01*
X0109997Y0162131D01*
X0110013Y0162049D01*
X0110025Y0161966D01*
X0110033Y0161883D01*
X0110037Y0161800D01*
X0110037Y0161716D01*
X0110033Y0161633D01*
X0110025Y0161550D01*
X0110013Y0161467D01*
X0109997Y0161385D01*
X0109978Y0161304D01*
X0109954Y0161224D01*
X0109927Y0161145D01*
X0109896Y0161067D01*
X0109862Y0160991D01*
X0109824Y0160917D01*
X0109782Y0160844D01*
X0109738Y0160774D01*
X0109689Y0160705D01*
X0109638Y0160639D01*
X0109584Y0160576D01*
X0109527Y0160515D01*
X0109466Y0160457D01*
X0109404Y0160402D01*
X0109338Y0160350D01*
X0109271Y0160301D01*
X0109201Y0160255D01*
X0109129Y0160213D01*
X0109055Y0160174D01*
X0108979Y0160139D01*
X0108902Y0160107D01*
X0108823Y0160079D01*
X0108743Y0160055D01*
X0108662Y0160034D01*
X0108581Y0160018D01*
X0108498Y0160005D01*
X0108415Y0159996D01*
X0108332Y0159991D01*
X0108248Y0159990D01*
X0108165Y0159993D01*
X0108081Y0160000D01*
X0107999Y0160011D01*
X0107916Y0160026D01*
X0107835Y0160044D01*
X0107755Y0160067D01*
X0107675Y0160093D01*
X0107597Y0160123D01*
X0107521Y0160156D01*
X0107446Y0160193D01*
X0107373Y0160234D01*
X0107302Y0160278D01*
X0107233Y0160325D01*
X0107167Y0160376D01*
X0107103Y0160429D01*
X0107041Y0160486D01*
X0106982Y0160545D01*
X0106927Y0160607D01*
X0106874Y0160672D01*
X0106824Y0160739D01*
X0106778Y0160809D01*
X0106734Y0160880D01*
X0106695Y0160953D01*
X0106658Y0161029D01*
X0106626Y0161106D01*
X0106597Y0161184D01*
X0106572Y0161264D01*
X0106550Y0161344D01*
X0106532Y0161426D01*
X0106519Y0161508D01*
X0106509Y0161591D01*
X0106503Y0161675D01*
X0106501Y0161758D01*
X0113047Y0159996D02*
X0119740Y0159996D01*
X0119740Y0147791D01*
X0113047Y0147791D01*
X0113047Y0159996D01*
X0113490Y0187791D02*
X0106797Y0187791D01*
X0106797Y0199996D01*
X0113490Y0199996D01*
X0113490Y0187791D01*
X0114297Y0187791D02*
X0120990Y0187791D01*
X0120990Y0199996D01*
X0114297Y0199996D01*
X0114297Y0187791D01*
X0105990Y0187791D02*
X0099297Y0187791D01*
X0099297Y0199996D01*
X0105990Y0199996D01*
X0105990Y0187791D01*
X0098490Y0187791D02*
X0091797Y0187791D01*
X0091797Y0199996D01*
X0098490Y0199996D01*
X0098490Y0187791D01*
X0090990Y0187791D02*
X0084297Y0187791D01*
X0084297Y0199996D01*
X0090990Y0199996D01*
X0090990Y0187791D01*
X0083490Y0187791D02*
X0076797Y0187791D01*
X0076797Y0199996D01*
X0083490Y0199996D01*
X0083490Y0187791D01*
X0076394Y0202644D02*
X0076394Y0212644D01*
X0070144Y0212644D02*
X0070144Y0202644D01*
X0069740Y0199996D02*
X0063047Y0199996D01*
X0063047Y0187791D01*
X0069740Y0187791D01*
X0069740Y0199996D01*
X0062240Y0199996D02*
X0055547Y0199996D01*
X0055547Y0187791D01*
X0062240Y0187791D01*
X0062240Y0199996D01*
X0054740Y0199996D02*
X0048047Y0199996D01*
X0048047Y0187791D01*
X0054740Y0187791D01*
X0054740Y0199996D01*
X0055144Y0202644D02*
X0055144Y0212644D01*
X0050291Y0221482D02*
X0062496Y0221482D01*
X0062496Y0228175D01*
X0050291Y0228175D01*
X0050291Y0221482D01*
X0048746Y0221482D02*
X0048746Y0228175D01*
X0036541Y0228175D01*
X0036541Y0221482D01*
X0048746Y0221482D01*
X0050606Y0229740D02*
X0050606Y0258283D01*
X0064386Y0258283D01*
X0064386Y0229740D01*
X0078165Y0229740D01*
X0078165Y0258283D01*
X0091945Y0258283D01*
X0091945Y0229740D01*
X0105724Y0229740D01*
X0105724Y0258283D01*
X0119504Y0258283D01*
X0147063Y0258283D01*
X0147063Y0269110D01*
X0147063Y0267535D02*
X0147063Y0295094D01*
X0119504Y0295094D01*
X0119504Y0267535D01*
X0036827Y0267535D01*
X0036827Y0295094D01*
X0119504Y0295094D01*
X0119504Y0267535D01*
X0147063Y0267535D01*
X0151994Y0272732D02*
X0158293Y0272732D01*
X0158293Y0279819D01*
X0155144Y0279819D01*
X0151994Y0282969D01*
X0158293Y0282969D01*
X0155144Y0279819D01*
X0151994Y0279819D01*
X0151994Y0282969D01*
X0151994Y0290055D01*
X0158293Y0290055D01*
X0158293Y0282969D01*
X0158293Y0279819D01*
X0151994Y0279819D02*
X0151994Y0272732D01*
X0147063Y0258283D02*
X0147063Y0250409D01*
X0133283Y0250409D01*
X0133283Y0229740D01*
X0147063Y0229740D01*
X0147063Y0250409D01*
X0133283Y0250409D02*
X0119504Y0250409D01*
X0119504Y0258283D01*
X0119504Y0269110D01*
X0105724Y0258283D02*
X0091945Y0258283D01*
X0078165Y0258283D02*
X0064386Y0258283D01*
X0050606Y0258283D02*
X0036827Y0258283D01*
X0036827Y0229740D01*
X0050606Y0229740D01*
X0064386Y0229740D01*
X0064041Y0228175D02*
X0064041Y0221482D01*
X0076246Y0221482D01*
X0076246Y0228175D01*
X0064041Y0228175D01*
X0077791Y0228175D02*
X0077791Y0221482D01*
X0089996Y0221482D01*
X0089996Y0228175D01*
X0077791Y0228175D01*
X0078165Y0229740D02*
X0091945Y0229740D01*
X0091541Y0228175D02*
X0091541Y0221482D01*
X0103746Y0221482D01*
X0103746Y0228175D01*
X0091541Y0228175D01*
X0105724Y0229740D02*
X0119504Y0229740D01*
X0133283Y0229740D01*
X0119504Y0229740D02*
X0119504Y0250409D01*
X0118746Y0228175D02*
X0106541Y0228175D01*
X0106541Y0221482D01*
X0118746Y0221482D01*
X0118746Y0228175D01*
X0121394Y0212644D02*
X0121394Y0202644D01*
X0135291Y0205990D02*
X0135291Y0199297D01*
X0147496Y0199297D01*
X0147496Y0205990D01*
X0135291Y0205990D01*
X0140557Y0197093D02*
X0140557Y0178195D01*
X0154730Y0178195D01*
X0154730Y0197093D01*
X0140557Y0197093D01*
X0141158Y0194730D02*
X0141160Y0194814D01*
X0141166Y0194897D01*
X0141176Y0194981D01*
X0141190Y0195063D01*
X0141208Y0195145D01*
X0141229Y0195226D01*
X0141255Y0195306D01*
X0141284Y0195384D01*
X0141317Y0195462D01*
X0141354Y0195537D01*
X0141394Y0195610D01*
X0141438Y0195682D01*
X0141485Y0195751D01*
X0141535Y0195819D01*
X0141588Y0195883D01*
X0141645Y0195945D01*
X0141704Y0196004D01*
X0141766Y0196061D01*
X0141830Y0196114D01*
X0141898Y0196164D01*
X0141967Y0196211D01*
X0142038Y0196255D01*
X0142112Y0196295D01*
X0142187Y0196332D01*
X0142265Y0196365D01*
X0142343Y0196394D01*
X0142423Y0196420D01*
X0142504Y0196441D01*
X0142586Y0196459D01*
X0142668Y0196473D01*
X0142752Y0196483D01*
X0142835Y0196489D01*
X0142919Y0196491D01*
X0143003Y0196489D01*
X0143086Y0196483D01*
X0143170Y0196473D01*
X0143252Y0196459D01*
X0143334Y0196441D01*
X0143415Y0196420D01*
X0143495Y0196394D01*
X0143573Y0196365D01*
X0143651Y0196332D01*
X0143726Y0196295D01*
X0143799Y0196255D01*
X0143871Y0196211D01*
X0143940Y0196164D01*
X0144008Y0196114D01*
X0144072Y0196061D01*
X0144134Y0196004D01*
X0144193Y0195945D01*
X0144250Y0195883D01*
X0144303Y0195819D01*
X0144353Y0195751D01*
X0144400Y0195682D01*
X0144444Y0195611D01*
X0144484Y0195537D01*
X0144521Y0195462D01*
X0144554Y0195384D01*
X0144583Y0195306D01*
X0144609Y0195226D01*
X0144630Y0195145D01*
X0144648Y0195063D01*
X0144662Y0194981D01*
X0144672Y0194897D01*
X0144678Y0194814D01*
X0144680Y0194730D01*
X0144678Y0194646D01*
X0144672Y0194563D01*
X0144662Y0194479D01*
X0144648Y0194397D01*
X0144630Y0194315D01*
X0144609Y0194234D01*
X0144583Y0194154D01*
X0144554Y0194076D01*
X0144521Y0193998D01*
X0144484Y0193923D01*
X0144444Y0193850D01*
X0144400Y0193778D01*
X0144353Y0193709D01*
X0144303Y0193641D01*
X0144250Y0193577D01*
X0144193Y0193515D01*
X0144134Y0193456D01*
X0144072Y0193399D01*
X0144008Y0193346D01*
X0143940Y0193296D01*
X0143871Y0193249D01*
X0143800Y0193205D01*
X0143726Y0193165D01*
X0143651Y0193128D01*
X0143573Y0193095D01*
X0143495Y0193066D01*
X0143415Y0193040D01*
X0143334Y0193019D01*
X0143252Y0193001D01*
X0143170Y0192987D01*
X0143086Y0192977D01*
X0143003Y0192971D01*
X0142919Y0192969D01*
X0142835Y0192971D01*
X0142752Y0192977D01*
X0142668Y0192987D01*
X0142586Y0193001D01*
X0142504Y0193019D01*
X0142423Y0193040D01*
X0142343Y0193066D01*
X0142265Y0193095D01*
X0142187Y0193128D01*
X0142112Y0193165D01*
X0142039Y0193205D01*
X0141967Y0193249D01*
X0141898Y0193296D01*
X0141830Y0193346D01*
X0141766Y0193399D01*
X0141704Y0193456D01*
X0141645Y0193515D01*
X0141588Y0193577D01*
X0141535Y0193641D01*
X0141485Y0193709D01*
X0141438Y0193778D01*
X0141394Y0193849D01*
X0141354Y0193923D01*
X0141317Y0193998D01*
X0141284Y0194076D01*
X0141255Y0194154D01*
X0141229Y0194234D01*
X0141208Y0194315D01*
X0141190Y0194397D01*
X0141176Y0194479D01*
X0141166Y0194563D01*
X0141160Y0194646D01*
X0141158Y0194730D01*
X0149041Y0199297D02*
X0149041Y0205990D01*
X0161246Y0205990D01*
X0161246Y0199297D01*
X0149041Y0199297D01*
X0149041Y0206797D02*
X0149041Y0213490D01*
X0161246Y0213490D01*
X0161246Y0206797D01*
X0149041Y0206797D01*
X0164297Y0198746D02*
X0164297Y0186541D01*
X0170990Y0186541D01*
X0170990Y0198746D01*
X0164297Y0198746D01*
X0165813Y0216945D02*
X0165813Y0235843D01*
X0174474Y0235843D01*
X0174474Y0216945D01*
X0165813Y0216945D01*
X0174563Y0216945D02*
X0174563Y0235843D01*
X0183224Y0235843D01*
X0183224Y0216945D01*
X0174563Y0216945D01*
X0185291Y0218490D02*
X0185291Y0211797D01*
X0197496Y0211797D01*
X0197496Y0218490D01*
X0185291Y0218490D01*
X0185488Y0226276D02*
X0197299Y0226276D01*
X0197299Y0236512D01*
X0185488Y0236512D01*
X0185488Y0226276D01*
X0194224Y0234819D02*
X0194226Y0234894D01*
X0194232Y0234968D01*
X0194242Y0235042D01*
X0194255Y0235115D01*
X0194273Y0235188D01*
X0194294Y0235259D01*
X0194319Y0235330D01*
X0194348Y0235399D01*
X0194381Y0235466D01*
X0194417Y0235531D01*
X0194456Y0235595D01*
X0194498Y0235656D01*
X0194544Y0235715D01*
X0194593Y0235772D01*
X0194645Y0235825D01*
X0194699Y0235876D01*
X0194756Y0235925D01*
X0194816Y0235969D01*
X0194878Y0236011D01*
X0194942Y0236050D01*
X0195008Y0236085D01*
X0195075Y0236116D01*
X0195145Y0236144D01*
X0195215Y0236168D01*
X0195287Y0236189D01*
X0195360Y0236205D01*
X0195433Y0236218D01*
X0195508Y0236227D01*
X0195582Y0236232D01*
X0195657Y0236233D01*
X0195731Y0236230D01*
X0195806Y0236223D01*
X0195879Y0236212D01*
X0195953Y0236198D01*
X0196025Y0236179D01*
X0196096Y0236157D01*
X0196166Y0236131D01*
X0196235Y0236101D01*
X0196301Y0236068D01*
X0196366Y0236031D01*
X0196429Y0235991D01*
X0196490Y0235947D01*
X0196548Y0235901D01*
X0196604Y0235851D01*
X0196657Y0235799D01*
X0196708Y0235744D01*
X0196755Y0235686D01*
X0196799Y0235626D01*
X0196840Y0235563D01*
X0196878Y0235499D01*
X0196912Y0235433D01*
X0196943Y0235364D01*
X0196970Y0235295D01*
X0196993Y0235224D01*
X0197012Y0235152D01*
X0197028Y0235079D01*
X0197040Y0235005D01*
X0197048Y0234931D01*
X0197052Y0234856D01*
X0197052Y0234782D01*
X0197048Y0234707D01*
X0197040Y0234633D01*
X0197028Y0234559D01*
X0197012Y0234486D01*
X0196993Y0234414D01*
X0196970Y0234343D01*
X0196943Y0234274D01*
X0196912Y0234205D01*
X0196878Y0234139D01*
X0196840Y0234075D01*
X0196799Y0234012D01*
X0196755Y0233952D01*
X0196708Y0233894D01*
X0196657Y0233839D01*
X0196604Y0233787D01*
X0196548Y0233737D01*
X0196490Y0233691D01*
X0196429Y0233647D01*
X0196366Y0233607D01*
X0196301Y0233570D01*
X0196235Y0233537D01*
X0196166Y0233507D01*
X0196096Y0233481D01*
X0196025Y0233459D01*
X0195953Y0233440D01*
X0195879Y0233426D01*
X0195806Y0233415D01*
X0195731Y0233408D01*
X0195657Y0233405D01*
X0195582Y0233406D01*
X0195508Y0233411D01*
X0195433Y0233420D01*
X0195360Y0233433D01*
X0195287Y0233449D01*
X0195215Y0233470D01*
X0195145Y0233494D01*
X0195075Y0233522D01*
X0195008Y0233553D01*
X0194942Y0233588D01*
X0194878Y0233627D01*
X0194816Y0233669D01*
X0194756Y0233713D01*
X0194699Y0233762D01*
X0194645Y0233813D01*
X0194593Y0233866D01*
X0194544Y0233923D01*
X0194498Y0233982D01*
X0194456Y0234043D01*
X0194417Y0234107D01*
X0194381Y0234172D01*
X0194348Y0234239D01*
X0194319Y0234308D01*
X0194294Y0234379D01*
X0194273Y0234450D01*
X0194255Y0234523D01*
X0194242Y0234596D01*
X0194232Y0234670D01*
X0194226Y0234744D01*
X0194224Y0234819D01*
X0199041Y0234740D02*
X0199041Y0228047D01*
X0211246Y0228047D01*
X0211246Y0234740D01*
X0199041Y0234740D01*
X0199041Y0227240D02*
X0199041Y0220547D01*
X0211246Y0220547D01*
X0211246Y0227240D01*
X0199041Y0227240D01*
X0199041Y0219740D02*
X0199041Y0213047D01*
X0211246Y0213047D01*
X0211246Y0219740D01*
X0199041Y0219740D01*
X0213047Y0217496D02*
X0213047Y0205291D01*
X0219740Y0205291D01*
X0219740Y0217496D01*
X0213047Y0217496D01*
X0220547Y0217496D02*
X0227240Y0217496D01*
X0227240Y0205291D01*
X0220547Y0205291D01*
X0220547Y0217496D01*
X0213776Y0200069D02*
X0213776Y0197069D01*
X0215276Y0198569D02*
X0212276Y0198569D01*
X0198146Y0185144D02*
X0198151Y0185530D01*
X0198165Y0185917D01*
X0198189Y0186302D01*
X0198222Y0186688D01*
X0198264Y0187072D01*
X0198316Y0187455D01*
X0198378Y0187836D01*
X0198449Y0188216D01*
X0198529Y0188594D01*
X0198618Y0188970D01*
X0198716Y0189344D01*
X0198824Y0189715D01*
X0198941Y0190084D01*
X0199067Y0190449D01*
X0199201Y0190812D01*
X0199345Y0191170D01*
X0199497Y0191526D01*
X0199658Y0191877D01*
X0199828Y0192224D01*
X0200006Y0192568D01*
X0200192Y0192906D01*
X0200386Y0193240D01*
X0200589Y0193569D01*
X0200800Y0193893D01*
X0201019Y0194212D01*
X0201245Y0194525D01*
X0201479Y0194833D01*
X0201721Y0195134D01*
X0201969Y0195430D01*
X0202226Y0195720D01*
X0202489Y0196003D01*
X0202758Y0196280D01*
X0203035Y0196549D01*
X0203318Y0196812D01*
X0203608Y0197069D01*
X0203904Y0197317D01*
X0204205Y0197559D01*
X0204513Y0197793D01*
X0204826Y0198019D01*
X0205145Y0198238D01*
X0205469Y0198449D01*
X0205798Y0198652D01*
X0206132Y0198846D01*
X0206470Y0199032D01*
X0206814Y0199210D01*
X0207161Y0199380D01*
X0207512Y0199541D01*
X0207868Y0199693D01*
X0208226Y0199837D01*
X0208589Y0199971D01*
X0208954Y0200097D01*
X0209323Y0200214D01*
X0209694Y0200322D01*
X0210068Y0200420D01*
X0210444Y0200509D01*
X0210822Y0200589D01*
X0211202Y0200660D01*
X0211583Y0200722D01*
X0211966Y0200774D01*
X0212350Y0200816D01*
X0212736Y0200849D01*
X0213121Y0200873D01*
X0213508Y0200887D01*
X0213894Y0200892D01*
X0214280Y0200887D01*
X0214667Y0200873D01*
X0215052Y0200849D01*
X0215438Y0200816D01*
X0215822Y0200774D01*
X0216205Y0200722D01*
X0216586Y0200660D01*
X0216966Y0200589D01*
X0217344Y0200509D01*
X0217720Y0200420D01*
X0218094Y0200322D01*
X0218465Y0200214D01*
X0218834Y0200097D01*
X0219199Y0199971D01*
X0219562Y0199837D01*
X0219920Y0199693D01*
X0220276Y0199541D01*
X0220627Y0199380D01*
X0220974Y0199210D01*
X0221318Y0199032D01*
X0221656Y0198846D01*
X0221990Y0198652D01*
X0222319Y0198449D01*
X0222643Y0198238D01*
X0222962Y0198019D01*
X0223275Y0197793D01*
X0223583Y0197559D01*
X0223884Y0197317D01*
X0224180Y0197069D01*
X0224470Y0196812D01*
X0224753Y0196549D01*
X0225030Y0196280D01*
X0225299Y0196003D01*
X0225562Y0195720D01*
X0225819Y0195430D01*
X0226067Y0195134D01*
X0226309Y0194833D01*
X0226543Y0194525D01*
X0226769Y0194212D01*
X0226988Y0193893D01*
X0227199Y0193569D01*
X0227402Y0193240D01*
X0227596Y0192906D01*
X0227782Y0192568D01*
X0227960Y0192224D01*
X0228130Y0191877D01*
X0228291Y0191526D01*
X0228443Y0191170D01*
X0228587Y0190812D01*
X0228721Y0190449D01*
X0228847Y0190084D01*
X0228964Y0189715D01*
X0229072Y0189344D01*
X0229170Y0188970D01*
X0229259Y0188594D01*
X0229339Y0188216D01*
X0229410Y0187836D01*
X0229472Y0187455D01*
X0229524Y0187072D01*
X0229566Y0186688D01*
X0229599Y0186302D01*
X0229623Y0185917D01*
X0229637Y0185530D01*
X0229642Y0185144D01*
X0229637Y0184758D01*
X0229623Y0184371D01*
X0229599Y0183986D01*
X0229566Y0183600D01*
X0229524Y0183216D01*
X0229472Y0182833D01*
X0229410Y0182452D01*
X0229339Y0182072D01*
X0229259Y0181694D01*
X0229170Y0181318D01*
X0229072Y0180944D01*
X0228964Y0180573D01*
X0228847Y0180204D01*
X0228721Y0179839D01*
X0228587Y0179476D01*
X0228443Y0179118D01*
X0228291Y0178762D01*
X0228130Y0178411D01*
X0227960Y0178064D01*
X0227782Y0177720D01*
X0227596Y0177382D01*
X0227402Y0177048D01*
X0227199Y0176719D01*
X0226988Y0176395D01*
X0226769Y0176076D01*
X0226543Y0175763D01*
X0226309Y0175455D01*
X0226067Y0175154D01*
X0225819Y0174858D01*
X0225562Y0174568D01*
X0225299Y0174285D01*
X0225030Y0174008D01*
X0224753Y0173739D01*
X0224470Y0173476D01*
X0224180Y0173219D01*
X0223884Y0172971D01*
X0223583Y0172729D01*
X0223275Y0172495D01*
X0222962Y0172269D01*
X0222643Y0172050D01*
X0222319Y0171839D01*
X0221990Y0171636D01*
X0221656Y0171442D01*
X0221318Y0171256D01*
X0220974Y0171078D01*
X0220627Y0170908D01*
X0220276Y0170747D01*
X0219920Y0170595D01*
X0219562Y0170451D01*
X0219199Y0170317D01*
X0218834Y0170191D01*
X0218465Y0170074D01*
X0218094Y0169966D01*
X0217720Y0169868D01*
X0217344Y0169779D01*
X0216966Y0169699D01*
X0216586Y0169628D01*
X0216205Y0169566D01*
X0215822Y0169514D01*
X0215438Y0169472D01*
X0215052Y0169439D01*
X0214667Y0169415D01*
X0214280Y0169401D01*
X0213894Y0169396D01*
X0213508Y0169401D01*
X0213121Y0169415D01*
X0212736Y0169439D01*
X0212350Y0169472D01*
X0211966Y0169514D01*
X0211583Y0169566D01*
X0211202Y0169628D01*
X0210822Y0169699D01*
X0210444Y0169779D01*
X0210068Y0169868D01*
X0209694Y0169966D01*
X0209323Y0170074D01*
X0208954Y0170191D01*
X0208589Y0170317D01*
X0208226Y0170451D01*
X0207868Y0170595D01*
X0207512Y0170747D01*
X0207161Y0170908D01*
X0206814Y0171078D01*
X0206470Y0171256D01*
X0206132Y0171442D01*
X0205798Y0171636D01*
X0205469Y0171839D01*
X0205145Y0172050D01*
X0204826Y0172269D01*
X0204513Y0172495D01*
X0204205Y0172729D01*
X0203904Y0172971D01*
X0203608Y0173219D01*
X0203318Y0173476D01*
X0203035Y0173739D01*
X0202758Y0174008D01*
X0202489Y0174285D01*
X0202226Y0174568D01*
X0201969Y0174858D01*
X0201721Y0175154D01*
X0201479Y0175455D01*
X0201245Y0175763D01*
X0201019Y0176076D01*
X0200800Y0176395D01*
X0200589Y0176719D01*
X0200386Y0177048D01*
X0200192Y0177382D01*
X0200006Y0177720D01*
X0199828Y0178064D01*
X0199658Y0178411D01*
X0199497Y0178762D01*
X0199345Y0179118D01*
X0199201Y0179476D01*
X0199067Y0179839D01*
X0198941Y0180204D01*
X0198824Y0180573D01*
X0198716Y0180944D01*
X0198618Y0181318D01*
X0198529Y0181694D01*
X0198449Y0182072D01*
X0198378Y0182452D01*
X0198316Y0182833D01*
X0198264Y0183216D01*
X0198222Y0183600D01*
X0198189Y0183986D01*
X0198165Y0184371D01*
X0198151Y0184758D01*
X0198146Y0185144D01*
X0183746Y0177240D02*
X0183746Y0170547D01*
X0171541Y0170547D01*
X0171541Y0177240D01*
X0183746Y0177240D01*
X0182791Y0168490D02*
X0182791Y0161797D01*
X0194996Y0161797D01*
X0194996Y0168490D01*
X0182791Y0168490D01*
X0169996Y0170547D02*
X0169996Y0177240D01*
X0157791Y0177240D01*
X0157791Y0170547D01*
X0169996Y0170547D01*
X0162240Y0159996D02*
X0155547Y0159996D01*
X0155547Y0147791D01*
X0162240Y0147791D01*
X0162240Y0159996D01*
X0164169Y0151640D02*
X0198618Y0151640D01*
X0198618Y0138648D01*
X0164169Y0138648D01*
X0164169Y0151640D01*
X0165251Y0141030D02*
X0165253Y0141113D01*
X0165259Y0141197D01*
X0165269Y0141280D01*
X0165282Y0141362D01*
X0165300Y0141444D01*
X0165322Y0141524D01*
X0165347Y0141604D01*
X0165376Y0141682D01*
X0165408Y0141759D01*
X0165445Y0141835D01*
X0165484Y0141908D01*
X0165528Y0141979D01*
X0165574Y0142049D01*
X0165624Y0142116D01*
X0165677Y0142181D01*
X0165732Y0142243D01*
X0165791Y0142302D01*
X0165853Y0142359D01*
X0165917Y0142412D01*
X0165983Y0142463D01*
X0166052Y0142510D01*
X0166123Y0142554D01*
X0166196Y0142595D01*
X0166271Y0142632D01*
X0166347Y0142665D01*
X0166425Y0142695D01*
X0166505Y0142721D01*
X0166585Y0142744D01*
X0166666Y0142762D01*
X0166749Y0142777D01*
X0166831Y0142788D01*
X0166915Y0142795D01*
X0166998Y0142798D01*
X0167082Y0142797D01*
X0167165Y0142792D01*
X0167248Y0142783D01*
X0167331Y0142770D01*
X0167412Y0142754D01*
X0167493Y0142733D01*
X0167573Y0142709D01*
X0167652Y0142681D01*
X0167729Y0142649D01*
X0167805Y0142614D01*
X0167879Y0142575D01*
X0167951Y0142533D01*
X0168021Y0142487D01*
X0168088Y0142438D01*
X0168154Y0142386D01*
X0168216Y0142331D01*
X0168277Y0142273D01*
X0168334Y0142212D01*
X0168388Y0142149D01*
X0168439Y0142083D01*
X0168488Y0142014D01*
X0168532Y0141944D01*
X0168574Y0141871D01*
X0168612Y0141797D01*
X0168646Y0141721D01*
X0168677Y0141643D01*
X0168704Y0141564D01*
X0168728Y0141484D01*
X0168747Y0141403D01*
X0168763Y0141321D01*
X0168775Y0141238D01*
X0168783Y0141155D01*
X0168787Y0141072D01*
X0168787Y0140988D01*
X0168783Y0140905D01*
X0168775Y0140822D01*
X0168763Y0140739D01*
X0168747Y0140657D01*
X0168728Y0140576D01*
X0168704Y0140496D01*
X0168677Y0140417D01*
X0168646Y0140339D01*
X0168612Y0140263D01*
X0168574Y0140189D01*
X0168532Y0140116D01*
X0168488Y0140046D01*
X0168439Y0139977D01*
X0168388Y0139911D01*
X0168334Y0139848D01*
X0168277Y0139787D01*
X0168216Y0139729D01*
X0168154Y0139674D01*
X0168088Y0139622D01*
X0168021Y0139573D01*
X0167951Y0139527D01*
X0167879Y0139485D01*
X0167805Y0139446D01*
X0167729Y0139411D01*
X0167652Y0139379D01*
X0167573Y0139351D01*
X0167493Y0139327D01*
X0167412Y0139306D01*
X0167331Y0139290D01*
X0167248Y0139277D01*
X0167165Y0139268D01*
X0167082Y0139263D01*
X0166998Y0139262D01*
X0166915Y0139265D01*
X0166831Y0139272D01*
X0166749Y0139283D01*
X0166666Y0139298D01*
X0166585Y0139316D01*
X0166505Y0139339D01*
X0166425Y0139365D01*
X0166347Y0139395D01*
X0166271Y0139428D01*
X0166196Y0139465D01*
X0166123Y0139506D01*
X0166052Y0139550D01*
X0165983Y0139597D01*
X0165917Y0139648D01*
X0165853Y0139701D01*
X0165791Y0139758D01*
X0165732Y0139817D01*
X0165677Y0139879D01*
X0165624Y0139944D01*
X0165574Y0140011D01*
X0165528Y0140081D01*
X0165484Y0140152D01*
X0165445Y0140225D01*
X0165408Y0140301D01*
X0165376Y0140378D01*
X0165347Y0140456D01*
X0165322Y0140536D01*
X0165300Y0140616D01*
X0165282Y0140698D01*
X0165269Y0140780D01*
X0165259Y0140863D01*
X0165253Y0140947D01*
X0165251Y0141030D01*
X0164996Y0122240D02*
X0152791Y0122240D01*
X0152791Y0115547D01*
X0164996Y0115547D01*
X0164996Y0122240D01*
X0164996Y0114740D02*
X0164996Y0108047D01*
X0152791Y0108047D01*
X0152791Y0114740D01*
X0164996Y0114740D01*
X0164996Y0107240D02*
X0152791Y0107240D01*
X0152791Y0100547D01*
X0164996Y0100547D01*
X0164996Y0107240D01*
X0164996Y0099740D02*
X0164996Y0093047D01*
X0152791Y0093047D01*
X0152791Y0099740D01*
X0164996Y0099740D01*
X0164996Y0092240D02*
X0152791Y0092240D01*
X0152791Y0085547D01*
X0164996Y0085547D01*
X0164996Y0092240D01*
X0164996Y0084740D02*
X0164996Y0078047D01*
X0152791Y0078047D01*
X0152791Y0084740D01*
X0164996Y0084740D01*
X0161541Y0077240D02*
X0161541Y0070547D01*
X0173746Y0070547D01*
X0173746Y0077240D01*
X0161541Y0077240D01*
X0149996Y0078047D02*
X0149996Y0084740D01*
X0137791Y0084740D01*
X0137791Y0078047D01*
X0149996Y0078047D01*
X0149996Y0093047D02*
X0137791Y0093047D01*
X0137791Y0099740D01*
X0149996Y0099740D01*
X0149996Y0093047D01*
X0149996Y0108047D02*
X0137791Y0108047D01*
X0137791Y0114740D01*
X0149996Y0114740D01*
X0149996Y0108047D01*
X0174898Y0117368D02*
X0174898Y0082919D01*
X0187890Y0082919D01*
X0187890Y0117368D01*
X0174898Y0117368D01*
X0197791Y0117240D02*
X0197791Y0110547D01*
X0209996Y0110547D01*
X0209996Y0117240D01*
X0197791Y0117240D01*
X0197791Y0109740D02*
X0197791Y0103047D01*
X0209996Y0103047D01*
X0209996Y0109740D01*
X0197791Y0109740D01*
X0197791Y0102240D02*
X0197791Y0095547D01*
X0209996Y0095547D01*
X0209996Y0102240D01*
X0197791Y0102240D01*
X0197791Y0094740D02*
X0197791Y0088047D01*
X0209996Y0088047D01*
X0209996Y0094740D01*
X0197791Y0094740D01*
X0197791Y0087240D02*
X0197791Y0080547D01*
X0209996Y0080547D01*
X0209996Y0087240D01*
X0197791Y0087240D01*
X0197791Y0079740D02*
X0197791Y0073047D01*
X0209996Y0073047D01*
X0209996Y0079740D01*
X0197791Y0079740D01*
X0183740Y0085769D02*
X0183742Y0085852D01*
X0183748Y0085936D01*
X0183758Y0086019D01*
X0183771Y0086101D01*
X0183789Y0086183D01*
X0183811Y0086263D01*
X0183836Y0086343D01*
X0183865Y0086421D01*
X0183897Y0086498D01*
X0183934Y0086574D01*
X0183973Y0086647D01*
X0184017Y0086718D01*
X0184063Y0086788D01*
X0184113Y0086855D01*
X0184166Y0086920D01*
X0184221Y0086982D01*
X0184280Y0087041D01*
X0184342Y0087098D01*
X0184406Y0087151D01*
X0184472Y0087202D01*
X0184541Y0087249D01*
X0184612Y0087293D01*
X0184685Y0087334D01*
X0184760Y0087371D01*
X0184836Y0087404D01*
X0184914Y0087434D01*
X0184994Y0087460D01*
X0185074Y0087483D01*
X0185155Y0087501D01*
X0185238Y0087516D01*
X0185320Y0087527D01*
X0185404Y0087534D01*
X0185487Y0087537D01*
X0185571Y0087536D01*
X0185654Y0087531D01*
X0185737Y0087522D01*
X0185820Y0087509D01*
X0185901Y0087493D01*
X0185982Y0087472D01*
X0186062Y0087448D01*
X0186141Y0087420D01*
X0186218Y0087388D01*
X0186294Y0087353D01*
X0186368Y0087314D01*
X0186440Y0087272D01*
X0186510Y0087226D01*
X0186577Y0087177D01*
X0186643Y0087125D01*
X0186705Y0087070D01*
X0186766Y0087012D01*
X0186823Y0086951D01*
X0186877Y0086888D01*
X0186928Y0086822D01*
X0186977Y0086753D01*
X0187021Y0086683D01*
X0187063Y0086610D01*
X0187101Y0086536D01*
X0187135Y0086460D01*
X0187166Y0086382D01*
X0187193Y0086303D01*
X0187217Y0086223D01*
X0187236Y0086142D01*
X0187252Y0086060D01*
X0187264Y0085977D01*
X0187272Y0085894D01*
X0187276Y0085811D01*
X0187276Y0085727D01*
X0187272Y0085644D01*
X0187264Y0085561D01*
X0187252Y0085478D01*
X0187236Y0085396D01*
X0187217Y0085315D01*
X0187193Y0085235D01*
X0187166Y0085156D01*
X0187135Y0085078D01*
X0187101Y0085002D01*
X0187063Y0084928D01*
X0187021Y0084855D01*
X0186977Y0084785D01*
X0186928Y0084716D01*
X0186877Y0084650D01*
X0186823Y0084587D01*
X0186766Y0084526D01*
X0186705Y0084468D01*
X0186643Y0084413D01*
X0186577Y0084361D01*
X0186510Y0084312D01*
X0186440Y0084266D01*
X0186368Y0084224D01*
X0186294Y0084185D01*
X0186218Y0084150D01*
X0186141Y0084118D01*
X0186062Y0084090D01*
X0185982Y0084066D01*
X0185901Y0084045D01*
X0185820Y0084029D01*
X0185737Y0084016D01*
X0185654Y0084007D01*
X0185571Y0084002D01*
X0185487Y0084001D01*
X0185404Y0084004D01*
X0185320Y0084011D01*
X0185238Y0084022D01*
X0185155Y0084037D01*
X0185074Y0084055D01*
X0184994Y0084078D01*
X0184914Y0084104D01*
X0184836Y0084134D01*
X0184760Y0084167D01*
X0184685Y0084204D01*
X0184612Y0084245D01*
X0184541Y0084289D01*
X0184472Y0084336D01*
X0184406Y0084387D01*
X0184342Y0084440D01*
X0184280Y0084497D01*
X0184221Y0084556D01*
X0184166Y0084618D01*
X0184113Y0084683D01*
X0184063Y0084750D01*
X0184017Y0084820D01*
X0183973Y0084891D01*
X0183934Y0084964D01*
X0183897Y0085040D01*
X0183865Y0085117D01*
X0183836Y0085195D01*
X0183811Y0085275D01*
X0183789Y0085355D01*
X0183771Y0085437D01*
X0183758Y0085519D01*
X0183748Y0085602D01*
X0183742Y0085686D01*
X0183740Y0085769D01*
X0187496Y0059740D02*
X0175291Y0059740D01*
X0175291Y0053047D01*
X0187496Y0053047D01*
X0187496Y0059740D01*
X0189041Y0059740D02*
X0189041Y0053047D01*
X0201246Y0053047D01*
X0201246Y0059740D01*
X0189041Y0059740D01*
X0188402Y0052309D02*
X0188402Y0038795D01*
X0202181Y0038795D01*
X0202181Y0052309D01*
X0188402Y0052309D01*
X0174622Y0052309D01*
X0174622Y0038795D01*
X0188402Y0038795D01*
X0202181Y0038795D02*
X0202181Y0029937D01*
X0174622Y0038795D02*
X0160843Y0038795D01*
X0160843Y0052309D01*
X0147063Y0052309D01*
X0147791Y0053047D02*
X0147791Y0059740D01*
X0159996Y0059740D01*
X0159996Y0053047D01*
X0147791Y0053047D01*
X0160843Y0052309D02*
X0174622Y0052309D01*
X0173746Y0053047D02*
X0173746Y0059740D01*
X0161541Y0059740D01*
X0161541Y0053047D01*
X0173746Y0053047D01*
X0160843Y0038795D02*
X0147063Y0038795D01*
X0105724Y0038795D02*
X0091945Y0038795D01*
X0078165Y0038795D02*
X0064386Y0038795D01*
X0050606Y0038795D02*
X0036827Y0038795D01*
X0050606Y0067339D02*
X0064386Y0067339D01*
X0063746Y0069297D02*
X0063746Y0075990D01*
X0051541Y0075990D01*
X0051541Y0069297D01*
X0063746Y0069297D01*
X0049996Y0069297D02*
X0049996Y0075990D01*
X0037791Y0075990D01*
X0037791Y0069297D01*
X0049996Y0069297D01*
X0139041Y0163047D02*
X0151246Y0163047D01*
X0151246Y0169740D01*
X0139041Y0169740D01*
X0139041Y0163047D01*
X0138982Y0170744D02*
X0138982Y0177043D01*
X0146069Y0177043D01*
X0146069Y0173894D01*
X0149219Y0177043D01*
X0149219Y0170744D01*
X0146069Y0173894D01*
X0146069Y0170744D01*
X0138982Y0170744D01*
X0146069Y0170744D02*
X0149219Y0170744D01*
X0156305Y0170744D01*
X0156305Y0177043D01*
X0149219Y0177043D01*
X0146069Y0177043D01*
X0106394Y0202644D02*
X0106394Y0212644D01*
X0091394Y0212644D02*
X0091394Y0202644D01*
X0047240Y0199996D02*
X0047240Y0187791D01*
X0040547Y0187791D01*
X0040547Y0199996D01*
X0047240Y0199996D01*
X0039740Y0199996D02*
X0033047Y0199996D01*
X0033047Y0187791D01*
X0039740Y0187791D01*
X0039740Y0199996D01*
X0040144Y0202644D02*
X0040144Y0212644D01*
X0032240Y0199996D02*
X0025547Y0199996D01*
X0025547Y0187791D01*
X0032240Y0187791D01*
X0032240Y0199996D01*
X0025144Y0202644D02*
X0025144Y0212644D01*
X0036827Y0258283D02*
X0036827Y0269110D01*
X0166469Y0277526D02*
X0169469Y0277526D01*
X0167969Y0279026D02*
X0167969Y0276026D01*
X0165646Y0277644D02*
X0165651Y0278030D01*
X0165665Y0278417D01*
X0165689Y0278802D01*
X0165722Y0279188D01*
X0165764Y0279572D01*
X0165816Y0279955D01*
X0165878Y0280336D01*
X0165949Y0280716D01*
X0166029Y0281094D01*
X0166118Y0281470D01*
X0166216Y0281844D01*
X0166324Y0282215D01*
X0166441Y0282584D01*
X0166567Y0282949D01*
X0166701Y0283312D01*
X0166845Y0283670D01*
X0166997Y0284026D01*
X0167158Y0284377D01*
X0167328Y0284724D01*
X0167506Y0285068D01*
X0167692Y0285406D01*
X0167886Y0285740D01*
X0168089Y0286069D01*
X0168300Y0286393D01*
X0168519Y0286712D01*
X0168745Y0287025D01*
X0168979Y0287333D01*
X0169221Y0287634D01*
X0169469Y0287930D01*
X0169726Y0288220D01*
X0169989Y0288503D01*
X0170258Y0288780D01*
X0170535Y0289049D01*
X0170818Y0289312D01*
X0171108Y0289569D01*
X0171404Y0289817D01*
X0171705Y0290059D01*
X0172013Y0290293D01*
X0172326Y0290519D01*
X0172645Y0290738D01*
X0172969Y0290949D01*
X0173298Y0291152D01*
X0173632Y0291346D01*
X0173970Y0291532D01*
X0174314Y0291710D01*
X0174661Y0291880D01*
X0175012Y0292041D01*
X0175368Y0292193D01*
X0175726Y0292337D01*
X0176089Y0292471D01*
X0176454Y0292597D01*
X0176823Y0292714D01*
X0177194Y0292822D01*
X0177568Y0292920D01*
X0177944Y0293009D01*
X0178322Y0293089D01*
X0178702Y0293160D01*
X0179083Y0293222D01*
X0179466Y0293274D01*
X0179850Y0293316D01*
X0180236Y0293349D01*
X0180621Y0293373D01*
X0181008Y0293387D01*
X0181394Y0293392D01*
X0181780Y0293387D01*
X0182167Y0293373D01*
X0182552Y0293349D01*
X0182938Y0293316D01*
X0183322Y0293274D01*
X0183705Y0293222D01*
X0184086Y0293160D01*
X0184466Y0293089D01*
X0184844Y0293009D01*
X0185220Y0292920D01*
X0185594Y0292822D01*
X0185965Y0292714D01*
X0186334Y0292597D01*
X0186699Y0292471D01*
X0187062Y0292337D01*
X0187420Y0292193D01*
X0187776Y0292041D01*
X0188127Y0291880D01*
X0188474Y0291710D01*
X0188818Y0291532D01*
X0189156Y0291346D01*
X0189490Y0291152D01*
X0189819Y0290949D01*
X0190143Y0290738D01*
X0190462Y0290519D01*
X0190775Y0290293D01*
X0191083Y0290059D01*
X0191384Y0289817D01*
X0191680Y0289569D01*
X0191970Y0289312D01*
X0192253Y0289049D01*
X0192530Y0288780D01*
X0192799Y0288503D01*
X0193062Y0288220D01*
X0193319Y0287930D01*
X0193567Y0287634D01*
X0193809Y0287333D01*
X0194043Y0287025D01*
X0194269Y0286712D01*
X0194488Y0286393D01*
X0194699Y0286069D01*
X0194902Y0285740D01*
X0195096Y0285406D01*
X0195282Y0285068D01*
X0195460Y0284724D01*
X0195630Y0284377D01*
X0195791Y0284026D01*
X0195943Y0283670D01*
X0196087Y0283312D01*
X0196221Y0282949D01*
X0196347Y0282584D01*
X0196464Y0282215D01*
X0196572Y0281844D01*
X0196670Y0281470D01*
X0196759Y0281094D01*
X0196839Y0280716D01*
X0196910Y0280336D01*
X0196972Y0279955D01*
X0197024Y0279572D01*
X0197066Y0279188D01*
X0197099Y0278802D01*
X0197123Y0278417D01*
X0197137Y0278030D01*
X0197142Y0277644D01*
X0197137Y0277258D01*
X0197123Y0276871D01*
X0197099Y0276486D01*
X0197066Y0276100D01*
X0197024Y0275716D01*
X0196972Y0275333D01*
X0196910Y0274952D01*
X0196839Y0274572D01*
X0196759Y0274194D01*
X0196670Y0273818D01*
X0196572Y0273444D01*
X0196464Y0273073D01*
X0196347Y0272704D01*
X0196221Y0272339D01*
X0196087Y0271976D01*
X0195943Y0271618D01*
X0195791Y0271262D01*
X0195630Y0270911D01*
X0195460Y0270564D01*
X0195282Y0270220D01*
X0195096Y0269882D01*
X0194902Y0269548D01*
X0194699Y0269219D01*
X0194488Y0268895D01*
X0194269Y0268576D01*
X0194043Y0268263D01*
X0193809Y0267955D01*
X0193567Y0267654D01*
X0193319Y0267358D01*
X0193062Y0267068D01*
X0192799Y0266785D01*
X0192530Y0266508D01*
X0192253Y0266239D01*
X0191970Y0265976D01*
X0191680Y0265719D01*
X0191384Y0265471D01*
X0191083Y0265229D01*
X0190775Y0264995D01*
X0190462Y0264769D01*
X0190143Y0264550D01*
X0189819Y0264339D01*
X0189490Y0264136D01*
X0189156Y0263942D01*
X0188818Y0263756D01*
X0188474Y0263578D01*
X0188127Y0263408D01*
X0187776Y0263247D01*
X0187420Y0263095D01*
X0187062Y0262951D01*
X0186699Y0262817D01*
X0186334Y0262691D01*
X0185965Y0262574D01*
X0185594Y0262466D01*
X0185220Y0262368D01*
X0184844Y0262279D01*
X0184466Y0262199D01*
X0184086Y0262128D01*
X0183705Y0262066D01*
X0183322Y0262014D01*
X0182938Y0261972D01*
X0182552Y0261939D01*
X0182167Y0261915D01*
X0181780Y0261901D01*
X0181394Y0261896D01*
X0181008Y0261901D01*
X0180621Y0261915D01*
X0180236Y0261939D01*
X0179850Y0261972D01*
X0179466Y0262014D01*
X0179083Y0262066D01*
X0178702Y0262128D01*
X0178322Y0262199D01*
X0177944Y0262279D01*
X0177568Y0262368D01*
X0177194Y0262466D01*
X0176823Y0262574D01*
X0176454Y0262691D01*
X0176089Y0262817D01*
X0175726Y0262951D01*
X0175368Y0263095D01*
X0175012Y0263247D01*
X0174661Y0263408D01*
X0174314Y0263578D01*
X0173970Y0263756D01*
X0173632Y0263942D01*
X0173298Y0264136D01*
X0172969Y0264339D01*
X0172645Y0264550D01*
X0172326Y0264769D01*
X0172013Y0264995D01*
X0171705Y0265229D01*
X0171404Y0265471D01*
X0171108Y0265719D01*
X0170818Y0265976D01*
X0170535Y0266239D01*
X0170258Y0266508D01*
X0169989Y0266785D01*
X0169726Y0267068D01*
X0169469Y0267358D01*
X0169221Y0267654D01*
X0168979Y0267955D01*
X0168745Y0268263D01*
X0168519Y0268576D01*
X0168300Y0268895D01*
X0168089Y0269219D01*
X0167886Y0269548D01*
X0167692Y0269882D01*
X0167506Y0270220D01*
X0167328Y0270564D01*
X0167158Y0270911D01*
X0166997Y0271262D01*
X0166845Y0271618D01*
X0166701Y0271976D01*
X0166567Y0272339D01*
X0166441Y0272704D01*
X0166324Y0273073D01*
X0166216Y0273444D01*
X0166118Y0273818D01*
X0166029Y0274194D01*
X0165949Y0274572D01*
X0165878Y0274952D01*
X0165816Y0275333D01*
X0165764Y0275716D01*
X0165722Y0276100D01*
X0165689Y0276486D01*
X0165665Y0276871D01*
X0165651Y0277258D01*
X0165646Y0277644D01*
X0185547Y0258746D02*
X0192240Y0258746D01*
X0192240Y0246541D01*
X0185547Y0246541D01*
X0185547Y0258746D01*
X0183756Y0252624D02*
X0179031Y0252624D01*
X0179031Y0245931D01*
X0183756Y0245931D01*
X0181394Y0242781D01*
X0179031Y0245931D01*
X0179031Y0242781D01*
X0183756Y0242781D01*
X0183756Y0237663D01*
X0179031Y0237663D01*
X0179031Y0242781D01*
X0183756Y0242781D02*
X0183756Y0245931D01*
X0183756Y0252624D01*
X0177240Y0249996D02*
X0170547Y0249996D01*
X0170547Y0237791D01*
X0177240Y0237791D01*
X0177240Y0249996D01*
X0193047Y0246541D02*
X0199740Y0246541D01*
X0199740Y0258746D01*
X0193047Y0258746D01*
X0193047Y0246541D01*
X0212791Y0109740D02*
X0212791Y0103047D01*
X0224996Y0103047D01*
X0224996Y0109740D01*
X0212791Y0109740D01*
X0212791Y0094740D02*
X0212791Y0088047D01*
X0224996Y0088047D01*
X0224996Y0094740D01*
X0212791Y0094740D01*
X0212791Y0079740D02*
X0212791Y0073047D01*
X0224996Y0073047D01*
X0224996Y0079740D01*
X0212791Y0079740D01*
D12*
X0195656Y0193520D02*
X0184632Y0193520D01*
X0182270Y0195882D01*
X0182270Y0206906D01*
X0184632Y0209268D01*
X0195656Y0209268D01*
X0198018Y0206906D01*
X0198018Y0195882D01*
X0195656Y0193520D01*
X0119394Y0202894D02*
X0115891Y0202894D01*
X0119394Y0205229D01*
X0115891Y0205229D01*
X0115891Y0206577D02*
X0115891Y0208328D01*
X0116475Y0208912D01*
X0117642Y0208912D01*
X0118226Y0208328D01*
X0118226Y0206577D01*
X0119394Y0206577D02*
X0115891Y0206577D01*
X0115891Y0210260D02*
X0119394Y0212595D01*
X0115891Y0212595D01*
X0115891Y0210260D02*
X0119394Y0210260D01*
X0111894Y0210260D02*
X0108391Y0210260D01*
X0108391Y0212011D01*
X0108975Y0212595D01*
X0110142Y0212595D01*
X0110726Y0212011D01*
X0110726Y0210260D01*
X0111894Y0208912D02*
X0108391Y0208912D01*
X0108391Y0206577D02*
X0111894Y0208912D01*
X0111894Y0206577D02*
X0108391Y0206577D01*
X0108975Y0205229D02*
X0108391Y0204645D01*
X0108391Y0202894D01*
X0111894Y0202894D01*
X0110726Y0202894D02*
X0110726Y0204645D01*
X0110142Y0205229D01*
X0108975Y0205229D01*
X0104394Y0205229D02*
X0100891Y0205229D01*
X0100891Y0206577D02*
X0100891Y0208328D01*
X0101475Y0208912D01*
X0102642Y0208912D01*
X0103226Y0208328D01*
X0103226Y0206577D01*
X0104394Y0206577D02*
X0100891Y0206577D01*
X0100891Y0210260D02*
X0104394Y0212595D01*
X0100891Y0212595D01*
X0100891Y0210260D02*
X0104394Y0210260D01*
X0104394Y0205229D02*
X0100891Y0202894D01*
X0104394Y0202894D01*
X0096894Y0202894D02*
X0093391Y0202894D01*
X0093391Y0204645D01*
X0093975Y0205229D01*
X0095142Y0205229D01*
X0095726Y0204645D01*
X0095726Y0202894D01*
X0096894Y0206577D02*
X0093391Y0206577D01*
X0096894Y0208912D01*
X0093391Y0208912D01*
X0093391Y0210260D02*
X0093391Y0212011D01*
X0093975Y0212595D01*
X0095142Y0212595D01*
X0095726Y0212011D01*
X0095726Y0210260D01*
X0096894Y0210260D02*
X0093391Y0210260D01*
X0089394Y0210260D02*
X0085891Y0210260D01*
X0089394Y0212595D01*
X0085891Y0212595D01*
X0086475Y0208912D02*
X0087642Y0208912D01*
X0088226Y0208328D01*
X0088226Y0206577D01*
X0089394Y0206577D02*
X0085891Y0206577D01*
X0085891Y0208328D01*
X0086475Y0208912D01*
X0085891Y0205229D02*
X0089394Y0205229D01*
X0085891Y0202894D01*
X0089394Y0202894D01*
X0081894Y0202894D02*
X0078391Y0202894D01*
X0078391Y0204645D01*
X0078975Y0205229D01*
X0080142Y0205229D01*
X0080726Y0204645D01*
X0080726Y0202894D01*
X0081894Y0206577D02*
X0078391Y0206577D01*
X0081894Y0208912D01*
X0078391Y0208912D01*
X0078391Y0210260D02*
X0078391Y0212011D01*
X0078975Y0212595D01*
X0080142Y0212595D01*
X0080726Y0212011D01*
X0080726Y0210260D01*
X0081894Y0210260D02*
X0078391Y0210260D01*
X0068144Y0210260D02*
X0064641Y0210260D01*
X0068144Y0212595D01*
X0064641Y0212595D01*
X0065225Y0208912D02*
X0066392Y0208912D01*
X0066976Y0208328D01*
X0066976Y0206577D01*
X0068144Y0206577D02*
X0064641Y0206577D01*
X0064641Y0208328D01*
X0065225Y0208912D01*
X0064641Y0205229D02*
X0068144Y0205229D01*
X0064641Y0202894D01*
X0068144Y0202894D01*
X0060644Y0202894D02*
X0057141Y0202894D01*
X0057141Y0204645D01*
X0057725Y0205229D01*
X0058892Y0205229D01*
X0059476Y0204645D01*
X0059476Y0202894D01*
X0060644Y0206577D02*
X0057141Y0206577D01*
X0060644Y0208912D01*
X0057141Y0208912D01*
X0057141Y0210260D02*
X0057141Y0212011D01*
X0057725Y0212595D01*
X0058892Y0212595D01*
X0059476Y0212011D01*
X0059476Y0210260D01*
X0060644Y0210260D02*
X0057141Y0210260D01*
X0053144Y0210260D02*
X0049641Y0210260D01*
X0053144Y0212595D01*
X0049641Y0212595D01*
X0050225Y0208912D02*
X0049641Y0208328D01*
X0049641Y0206577D01*
X0053144Y0206577D01*
X0051976Y0206577D02*
X0051976Y0208328D01*
X0051392Y0208912D01*
X0050225Y0208912D01*
X0049641Y0205229D02*
X0053144Y0205229D01*
X0049641Y0202894D01*
X0053144Y0202894D01*
X0045644Y0202894D02*
X0042141Y0202894D01*
X0042141Y0204645D01*
X0042725Y0205229D01*
X0043892Y0205229D01*
X0044476Y0204645D01*
X0044476Y0202894D01*
X0045644Y0206577D02*
X0042141Y0206577D01*
X0045644Y0208912D01*
X0042141Y0208912D01*
X0042141Y0210260D02*
X0042141Y0212011D01*
X0042725Y0212595D01*
X0043892Y0212595D01*
X0044476Y0212011D01*
X0044476Y0210260D01*
X0045644Y0210260D02*
X0042141Y0210260D01*
X0038144Y0210260D02*
X0034641Y0210260D01*
X0038144Y0212595D01*
X0034641Y0212595D01*
X0035225Y0208912D02*
X0034641Y0208328D01*
X0034641Y0206577D01*
X0038144Y0206577D01*
X0036976Y0206577D02*
X0036976Y0208328D01*
X0036392Y0208912D01*
X0035225Y0208912D01*
X0034641Y0205229D02*
X0038144Y0205229D01*
X0034641Y0202894D01*
X0038144Y0202894D01*
X0030644Y0202894D02*
X0027141Y0202894D01*
X0027141Y0204645D01*
X0027725Y0205229D01*
X0028892Y0205229D01*
X0029476Y0204645D01*
X0029476Y0202894D01*
X0030644Y0206577D02*
X0027141Y0206577D01*
X0030644Y0208912D01*
X0027141Y0208912D01*
X0027141Y0210260D02*
X0027141Y0212011D01*
X0027725Y0212595D01*
X0028892Y0212595D01*
X0029476Y0212011D01*
X0029476Y0210260D01*
X0030644Y0210260D02*
X0027141Y0210260D01*
X0033391Y0125118D02*
X0035726Y0125118D01*
X0036894Y0123950D01*
X0035726Y0122782D01*
X0033391Y0122782D01*
X0033391Y0121434D02*
X0036894Y0121434D01*
X0033391Y0119099D01*
X0036894Y0119099D01*
X0036894Y0117811D02*
X0036894Y0116644D01*
X0036894Y0117228D02*
X0033391Y0117228D01*
X0033391Y0117811D02*
X0033391Y0116644D01*
X0021894Y0116644D02*
X0021894Y0117811D01*
X0021894Y0117228D02*
X0018391Y0117228D01*
X0018391Y0117811D02*
X0018391Y0116644D01*
X0018391Y0119099D02*
X0021894Y0121434D01*
X0018391Y0121434D01*
X0018391Y0122782D02*
X0020726Y0122782D01*
X0021894Y0123950D01*
X0020726Y0125118D01*
X0018391Y0125118D01*
X0018391Y0119099D02*
X0021894Y0119099D01*
X0048391Y0119099D02*
X0051894Y0121434D01*
X0048391Y0121434D01*
X0048391Y0122782D02*
X0050726Y0122782D01*
X0051894Y0123950D01*
X0050726Y0125118D01*
X0048391Y0125118D01*
X0048391Y0119099D02*
X0051894Y0119099D01*
X0051894Y0117811D02*
X0051894Y0116644D01*
X0051894Y0117228D02*
X0048391Y0117228D01*
X0048391Y0117811D02*
X0048391Y0116644D01*
X0069641Y0116644D02*
X0069641Y0117811D01*
X0069641Y0117228D02*
X0073144Y0117228D01*
X0073144Y0117811D02*
X0073144Y0116644D01*
X0073144Y0119099D02*
X0069641Y0119099D01*
X0073144Y0121434D01*
X0069641Y0121434D01*
X0069641Y0122782D02*
X0071976Y0122782D01*
X0073144Y0123950D01*
X0071976Y0125118D01*
X0069641Y0125118D01*
X0084641Y0125118D02*
X0086976Y0125118D01*
X0088144Y0123950D01*
X0086976Y0122782D01*
X0084641Y0122782D01*
X0084641Y0121434D02*
X0088144Y0121434D01*
X0084641Y0119099D01*
X0088144Y0119099D01*
X0088144Y0117811D02*
X0088144Y0116644D01*
X0088144Y0117228D02*
X0084641Y0117228D01*
X0084641Y0117811D02*
X0084641Y0116644D01*
X0099641Y0116644D02*
X0099641Y0117811D01*
X0099641Y0117228D02*
X0103144Y0117228D01*
X0103144Y0117811D02*
X0103144Y0116644D01*
X0103144Y0119099D02*
X0099641Y0119099D01*
X0103144Y0121434D01*
X0099641Y0121434D01*
X0099641Y0122782D02*
X0101976Y0122782D01*
X0103144Y0123950D01*
X0101976Y0125118D01*
X0099641Y0125118D01*
D13*
X0098664Y0155444D02*
X0095728Y0155444D01*
X0098664Y0158380D01*
X0098664Y0159113D01*
X0097930Y0159847D01*
X0096462Y0159847D01*
X0095728Y0159113D01*
X0094060Y0159113D02*
X0093326Y0159847D01*
X0091858Y0159847D01*
X0091124Y0159113D01*
X0091124Y0156178D01*
X0091858Y0155444D01*
X0093326Y0155444D01*
X0094060Y0156178D01*
X0089523Y0155444D02*
X0088055Y0155444D01*
X0088789Y0155444D02*
X0088789Y0159847D01*
X0088055Y0159847D02*
X0089523Y0159847D01*
X0047414Y0159113D02*
X0047414Y0158380D01*
X0046680Y0157646D01*
X0047414Y0156912D01*
X0047414Y0156178D01*
X0046680Y0155444D01*
X0045212Y0155444D01*
X0044478Y0156178D01*
X0042810Y0156178D02*
X0042076Y0155444D01*
X0040608Y0155444D01*
X0039874Y0156178D01*
X0039874Y0159113D01*
X0040608Y0159847D01*
X0042076Y0159847D01*
X0042810Y0159113D01*
X0044478Y0159113D02*
X0045212Y0159847D01*
X0046680Y0159847D01*
X0047414Y0159113D01*
X0046680Y0157646D02*
X0045946Y0157646D01*
X0038273Y0159847D02*
X0036805Y0159847D01*
X0037539Y0159847D02*
X0037539Y0155444D01*
X0036805Y0155444D02*
X0038273Y0155444D01*
X0175555Y0147347D02*
X0177023Y0147347D01*
X0176289Y0147347D02*
X0176289Y0142944D01*
X0175555Y0142944D02*
X0177023Y0142944D01*
X0178624Y0143678D02*
X0179358Y0142944D01*
X0180826Y0142944D01*
X0181560Y0143678D01*
X0183228Y0143678D02*
X0183962Y0142944D01*
X0185430Y0142944D01*
X0186164Y0143678D01*
X0186164Y0145146D01*
X0185430Y0145880D01*
X0184696Y0145880D01*
X0183228Y0145146D01*
X0183228Y0147347D01*
X0186164Y0147347D01*
X0181560Y0146613D02*
X0180826Y0147347D01*
X0179358Y0147347D01*
X0178624Y0146613D01*
X0178624Y0143678D01*
X0181392Y0104914D02*
X0181392Y0101978D01*
X0179190Y0104180D01*
X0183594Y0104180D01*
X0182860Y0100310D02*
X0183594Y0099576D01*
X0183594Y0098108D01*
X0182860Y0097374D01*
X0179924Y0097374D01*
X0179190Y0098108D01*
X0179190Y0099576D01*
X0179924Y0100310D01*
X0179190Y0095773D02*
X0179190Y0094305D01*
X0179190Y0095039D02*
X0183594Y0095039D01*
X0183594Y0094305D02*
X0183594Y0095773D01*
M02*
