G75*
%MOIN*%
%OFA0B0*%
%FSLAX25Y25*%
%IPPOS*%
%LPD*%
%AMOC8*
5,1,8,0,0,1.08239X$1,22.5*
%
%ADD10R,0.04331X0.05118*%
%ADD11R,0.01772X0.06496*%
%ADD12R,0.09843X0.15748*%
%ADD13R,0.05118X0.04331*%
%ADD14R,0.07087X0.06299*%
%ADD15R,0.04331X0.04331*%
%ADD16C,0.08661*%
%ADD17OC8,0.08661*%
%ADD18R,0.02756X0.06890*%
%ADD19R,0.02362X0.03150*%
%ADD20C,0.05937*%
%ADD21R,0.06890X0.02756*%
%ADD22C,0.00787*%
%ADD23C,0.28346*%
%ADD24C,0.04362*%
%ADD25C,0.00800*%
%ADD26C,0.02400*%
%ADD27C,0.01600*%
%ADD28C,0.01800*%
%ADD29C,0.04000*%
%ADD30C,0.03200*%
D10*
X0039350Y0055000D03*
X0045650Y0055000D03*
X0053100Y0055000D03*
X0059400Y0055000D03*
X0066850Y0055000D03*
X0073150Y0055000D03*
X0080600Y0055000D03*
X0086900Y0055000D03*
X0094350Y0055000D03*
X0100650Y0055000D03*
X0108100Y0055000D03*
X0114400Y0055000D03*
X0122116Y0055187D03*
X0128415Y0055187D03*
X0135866Y0055187D03*
X0142165Y0055187D03*
X0149350Y0055000D03*
X0155650Y0055000D03*
X0163100Y0055000D03*
X0169400Y0055000D03*
X0176850Y0055000D03*
X0183150Y0055000D03*
X0190600Y0055000D03*
X0196900Y0055000D03*
X0196900Y0041339D03*
X0190600Y0041339D03*
X0183179Y0041339D03*
X0176880Y0041339D03*
X0169459Y0041339D03*
X0163159Y0041339D03*
X0155738Y0041339D03*
X0149439Y0041339D03*
X0142018Y0041339D03*
X0135719Y0041339D03*
X0128297Y0041339D03*
X0121998Y0041339D03*
X0150600Y0076250D03*
X0156900Y0076250D03*
X0156900Y0083750D03*
X0150600Y0083750D03*
X0154350Y0091250D03*
X0160650Y0091250D03*
X0160650Y0098750D03*
X0154350Y0098750D03*
X0154350Y0106250D03*
X0160650Y0106250D03*
X0160650Y0113750D03*
X0154350Y0113750D03*
X0145650Y0106250D03*
X0139350Y0106250D03*
X0139350Y0091250D03*
X0145650Y0091250D03*
X0164350Y0077500D03*
X0170650Y0077500D03*
X0199350Y0076250D03*
X0205650Y0076250D03*
X0205650Y0083750D03*
X0199350Y0083750D03*
X0199350Y0091250D03*
X0205650Y0091250D03*
X0205650Y0098750D03*
X0199350Y0098750D03*
X0199350Y0106250D03*
X0205650Y0106250D03*
X0205650Y0113750D03*
X0199350Y0113750D03*
X0214350Y0106250D03*
X0220650Y0106250D03*
X0220650Y0091250D03*
X0214350Y0091250D03*
X0214350Y0076250D03*
X0220650Y0076250D03*
X0143150Y0160000D03*
X0136850Y0160000D03*
X0155600Y0167500D03*
X0161900Y0167500D03*
X0160965Y0175236D03*
X0167264Y0175236D03*
X0153150Y0195000D03*
X0146850Y0195000D03*
X0139400Y0195000D03*
X0133100Y0195000D03*
X0146850Y0203750D03*
X0153150Y0203750D03*
X0135039Y0234252D03*
X0128740Y0234252D03*
X0114370Y0234252D03*
X0108071Y0234252D03*
X0100591Y0234252D03*
X0094291Y0234252D03*
X0086811Y0234252D03*
X0080512Y0234252D03*
X0072972Y0234252D03*
X0066673Y0234252D03*
X0059252Y0234252D03*
X0052953Y0234252D03*
X0045531Y0234252D03*
X0039232Y0234252D03*
X0038100Y0205000D03*
X0044400Y0205000D03*
X0051850Y0205000D03*
X0058150Y0205000D03*
X0065600Y0205000D03*
X0071900Y0205000D03*
X0079350Y0205000D03*
X0085650Y0205000D03*
X0093100Y0205000D03*
X0099400Y0205000D03*
X0108100Y0205000D03*
X0114400Y0205000D03*
X0186850Y0195000D03*
X0193150Y0195000D03*
X0200600Y0196250D03*
X0206900Y0196250D03*
X0206900Y0203750D03*
X0206900Y0211250D03*
X0200600Y0211250D03*
X0200600Y0203750D03*
D11*
X0193750Y0202589D03*
X0191250Y0202589D03*
X0188750Y0202589D03*
X0186250Y0202589D03*
X0186250Y0219911D03*
X0188750Y0219911D03*
X0191250Y0219911D03*
X0193750Y0219911D03*
D12*
X0197411Y0180000D03*
X0180089Y0180000D03*
D13*
X0161014Y0183465D03*
X0161014Y0189764D03*
X0172500Y0220600D03*
X0172500Y0226900D03*
X0187500Y0229350D03*
X0187500Y0235650D03*
X0195000Y0235650D03*
X0195000Y0229350D03*
X0215000Y0191900D03*
X0215000Y0185600D03*
X0222500Y0185600D03*
X0222500Y0191900D03*
X0158583Y0150276D03*
X0158583Y0143976D03*
X0116250Y0164350D03*
X0116250Y0170650D03*
X0108750Y0170650D03*
X0108750Y0164350D03*
X0101250Y0164350D03*
X0101250Y0170650D03*
X0093750Y0170650D03*
X0093750Y0164350D03*
X0086250Y0164350D03*
X0086250Y0170650D03*
X0078750Y0170650D03*
X0078750Y0164350D03*
X0065000Y0164350D03*
X0065000Y0170650D03*
X0057500Y0170650D03*
X0057500Y0164350D03*
X0050000Y0164350D03*
X0050000Y0170650D03*
X0042500Y0170650D03*
X0042500Y0164350D03*
X0035000Y0164350D03*
X0035000Y0170650D03*
X0027500Y0170650D03*
X0027500Y0164350D03*
X0035000Y0179350D03*
X0035000Y0185650D03*
X0050000Y0185650D03*
X0050000Y0179350D03*
X0065000Y0179350D03*
X0065000Y0185650D03*
X0086250Y0185650D03*
X0086250Y0179350D03*
X0101250Y0179350D03*
X0101250Y0185650D03*
X0116250Y0185650D03*
X0116250Y0179350D03*
X0115000Y0145650D03*
X0115000Y0139350D03*
X0107500Y0124400D03*
X0107500Y0118100D03*
X0100000Y0118100D03*
X0100000Y0124400D03*
X0092500Y0124400D03*
X0092500Y0118100D03*
X0085000Y0118100D03*
X0085000Y0124400D03*
X0077500Y0124400D03*
X0077500Y0118100D03*
X0070000Y0118100D03*
X0070000Y0124400D03*
X0056250Y0124400D03*
X0056250Y0118100D03*
X0048750Y0118100D03*
X0048750Y0124400D03*
X0041250Y0124400D03*
X0041250Y0118100D03*
X0033750Y0118100D03*
X0033750Y0124400D03*
X0026250Y0124400D03*
X0026250Y0118100D03*
X0018750Y0118100D03*
X0018750Y0124400D03*
X0063750Y0139350D03*
X0063750Y0145650D03*
X0140000Y0083150D03*
X0140000Y0076850D03*
X0113839Y0046929D03*
X0113839Y0040630D03*
X0100089Y0040659D03*
X0100089Y0046959D03*
X0086339Y0046988D03*
X0086339Y0040689D03*
X0072589Y0040719D03*
X0072589Y0047018D03*
X0058839Y0047047D03*
X0058839Y0040748D03*
X0045089Y0040778D03*
X0045089Y0047077D03*
D14*
X0168750Y0200738D03*
X0177500Y0200738D03*
X0177500Y0211762D03*
X0168750Y0211762D03*
D15*
X0156250Y0255541D03*
X0156250Y0266959D03*
X0148209Y0167500D03*
X0136791Y0167500D03*
D16*
X0215000Y0170640D03*
X0173110Y0256250D03*
D17*
X0186890Y0256250D03*
X0215000Y0156860D03*
D18*
X0195000Y0151122D03*
X0190000Y0151122D03*
X0185000Y0151122D03*
X0180000Y0151122D03*
X0175000Y0151122D03*
X0170000Y0151122D03*
X0165000Y0151122D03*
X0165000Y0128878D03*
X0170000Y0128878D03*
X0175000Y0128878D03*
X0180000Y0128878D03*
X0185000Y0128878D03*
X0190000Y0128878D03*
X0195000Y0128878D03*
X0107500Y0135128D03*
X0102500Y0135128D03*
X0097500Y0135128D03*
X0092500Y0135128D03*
X0087500Y0135128D03*
X0082500Y0135128D03*
X0077500Y0135128D03*
X0056250Y0135128D03*
X0051250Y0135128D03*
X0046250Y0135128D03*
X0041250Y0135128D03*
X0036250Y0135128D03*
X0031250Y0135128D03*
X0026250Y0135128D03*
X0026250Y0157372D03*
X0031250Y0157372D03*
X0036250Y0157372D03*
X0041250Y0157372D03*
X0046250Y0157372D03*
X0051250Y0157372D03*
X0056250Y0157372D03*
X0077500Y0157372D03*
X0082500Y0157372D03*
X0087500Y0157372D03*
X0092500Y0157372D03*
X0097500Y0157372D03*
X0102500Y0157372D03*
X0107500Y0157372D03*
X0105000Y0106122D03*
X0110000Y0106122D03*
X0100000Y0106122D03*
X0095000Y0106122D03*
X0090000Y0106122D03*
X0085000Y0106122D03*
X0080000Y0106122D03*
X0075000Y0106122D03*
X0058750Y0106122D03*
X0053750Y0106122D03*
X0048750Y0106122D03*
X0043750Y0106122D03*
X0038750Y0106122D03*
X0033750Y0106122D03*
X0028750Y0106122D03*
X0023750Y0106122D03*
X0023750Y0083878D03*
X0028750Y0083878D03*
X0033750Y0083878D03*
X0038750Y0083878D03*
X0043750Y0083878D03*
X0048750Y0083878D03*
X0053750Y0083878D03*
X0058750Y0083878D03*
X0075000Y0083878D03*
X0080000Y0083878D03*
X0085000Y0083878D03*
X0090000Y0083878D03*
X0095000Y0083878D03*
X0100000Y0083878D03*
X0105000Y0083878D03*
X0110000Y0083878D03*
D19*
X0180000Y0220079D03*
X0180000Y0229921D03*
D20*
X0138780Y0257858D02*
X0138780Y0263795D01*
X0125000Y0263795D02*
X0125000Y0257858D01*
X0111220Y0257858D02*
X0111220Y0263795D01*
X0097441Y0263795D02*
X0097441Y0257858D01*
X0083661Y0257858D02*
X0083661Y0263795D01*
X0069882Y0263795D02*
X0069882Y0257858D01*
X0056102Y0257858D02*
X0056102Y0263795D01*
X0042323Y0263795D02*
X0042323Y0257858D01*
X0042323Y0017732D02*
X0042323Y0011795D01*
X0056102Y0011795D02*
X0056102Y0017732D01*
X0069882Y0017732D02*
X0069882Y0011795D01*
X0083661Y0011795D02*
X0083661Y0017732D01*
X0097441Y0017732D02*
X0097441Y0011795D01*
X0111220Y0011795D02*
X0111220Y0017732D01*
X0125000Y0017732D02*
X0125000Y0011795D01*
X0138780Y0011795D02*
X0138780Y0017732D01*
X0152559Y0017732D02*
X0152559Y0011795D01*
X0166339Y0011795D02*
X0166339Y0017732D01*
X0180118Y0017732D02*
X0180118Y0011795D01*
X0193898Y0011795D02*
X0193898Y0017732D01*
D21*
X0191122Y0083750D03*
X0191122Y0088750D03*
X0191122Y0093750D03*
X0191122Y0098750D03*
X0191122Y0103750D03*
X0191122Y0108750D03*
X0191122Y0113750D03*
X0168878Y0113750D03*
X0168878Y0108750D03*
X0168878Y0103750D03*
X0168878Y0098750D03*
X0168878Y0093750D03*
X0168878Y0088750D03*
X0168878Y0083750D03*
X0153327Y0173750D03*
X0153327Y0178750D03*
X0153327Y0183750D03*
X0153327Y0188750D03*
X0131673Y0188750D03*
X0131673Y0183750D03*
X0131673Y0178750D03*
X0131673Y0173750D03*
D22*
X0002456Y0005114D02*
X0003575Y0003575D01*
X0005114Y0002456D01*
X0006923Y0001869D01*
X0007874Y0001794D01*
X0228347Y0001794D01*
X0229298Y0001869D01*
X0231107Y0002456D01*
X0232646Y0003575D01*
X0233764Y0005114D01*
X0234352Y0006923D01*
X0234427Y0007874D01*
X0234427Y0267717D01*
X0234352Y0268668D01*
X0233764Y0270477D01*
X0232646Y0272016D01*
X0231107Y0273134D01*
X0229298Y0273722D01*
X0228346Y0273797D01*
X0156970Y0273797D01*
X0157707Y0273059D01*
X0158957Y0271809D01*
X0159444Y0270635D01*
X0159444Y0270349D01*
X0160009Y0269784D01*
X0160009Y0264133D01*
X0159075Y0263200D01*
X0153425Y0263200D01*
X0152491Y0264133D01*
X0152491Y0268056D01*
X0152145Y0268056D01*
X0152138Y0268050D01*
X0150751Y0267475D01*
X0149249Y0267475D01*
X0147862Y0268050D01*
X0147855Y0268056D01*
X0128823Y0268056D01*
X0128194Y0267427D01*
X0128194Y0267053D01*
X0128868Y0266380D01*
X0129562Y0264703D01*
X0129562Y0256951D01*
X0128868Y0255274D01*
X0127584Y0253991D01*
X0125907Y0253296D01*
X0124093Y0253296D01*
X0122416Y0253991D01*
X0121132Y0255274D01*
X0120438Y0256951D01*
X0120438Y0264703D01*
X0121132Y0266380D01*
X0121806Y0267053D01*
X0121806Y0269385D01*
X0122293Y0270559D01*
X0123191Y0271457D01*
X0125530Y0273797D01*
X0007874Y0273797D01*
X0006923Y0273722D01*
X0005114Y0273134D01*
X0003575Y0272016D01*
X0002456Y0270477D01*
X0001869Y0268668D01*
X0001794Y0267717D01*
X0001794Y0193929D01*
X0013644Y0205779D01*
X0014524Y0206144D01*
X0034341Y0206144D01*
X0034341Y0208219D01*
X0035275Y0209153D01*
X0040926Y0209153D01*
X0041250Y0208829D01*
X0041574Y0209153D01*
X0043138Y0209153D01*
X0043138Y0230099D01*
X0042706Y0230099D01*
X0041772Y0231033D01*
X0041772Y0237471D01*
X0042706Y0238405D01*
X0048357Y0238405D01*
X0049291Y0237471D01*
X0049291Y0231033D01*
X0048357Y0230099D01*
X0047925Y0230099D01*
X0047925Y0208453D01*
X0048125Y0208253D01*
X0049025Y0209153D01*
X0054676Y0209153D01*
X0055000Y0208829D01*
X0055324Y0209153D01*
X0056858Y0209153D01*
X0056858Y0230099D01*
X0056426Y0230099D01*
X0055493Y0231033D01*
X0055493Y0237471D01*
X0056426Y0238405D01*
X0062077Y0238405D01*
X0063011Y0237471D01*
X0063011Y0231033D01*
X0062077Y0230099D01*
X0061646Y0230099D01*
X0061646Y0208482D01*
X0061875Y0208253D01*
X0062775Y0209153D01*
X0068426Y0209153D01*
X0068750Y0208829D01*
X0069074Y0209153D01*
X0070579Y0209153D01*
X0070579Y0230099D01*
X0070147Y0230099D01*
X0069213Y0231033D01*
X0069213Y0237471D01*
X0070147Y0238405D01*
X0075798Y0238405D01*
X0076731Y0237471D01*
X0076731Y0231033D01*
X0075798Y0230099D01*
X0075366Y0230099D01*
X0075366Y0208512D01*
X0075625Y0208253D01*
X0076525Y0209153D01*
X0082176Y0209153D01*
X0082500Y0208829D01*
X0082824Y0209153D01*
X0084417Y0209153D01*
X0084417Y0230099D01*
X0083986Y0230099D01*
X0083052Y0231033D01*
X0083052Y0237471D01*
X0083986Y0238405D01*
X0089637Y0238405D01*
X0090570Y0237471D01*
X0090570Y0231033D01*
X0089637Y0230099D01*
X0089205Y0230099D01*
X0089205Y0208423D01*
X0089375Y0208253D01*
X0090275Y0209153D01*
X0095926Y0209153D01*
X0096250Y0208829D01*
X0096574Y0209153D01*
X0098197Y0209153D01*
X0098197Y0230099D01*
X0097765Y0230099D01*
X0096831Y0231033D01*
X0096831Y0237471D01*
X0097765Y0238405D01*
X0103416Y0238405D01*
X0104350Y0237471D01*
X0104350Y0231033D01*
X0103416Y0230099D01*
X0102984Y0230099D01*
X0102984Y0208394D01*
X0103159Y0208219D01*
X0103159Y0201781D01*
X0102225Y0200847D01*
X0096574Y0200847D01*
X0096250Y0201171D01*
X0095926Y0200847D01*
X0095494Y0200847D01*
X0095494Y0200124D01*
X0095130Y0199244D01*
X0088279Y0192394D01*
X0096508Y0192394D01*
X0105118Y0201004D01*
X0104341Y0201781D01*
X0104341Y0208219D01*
X0105275Y0209153D01*
X0110926Y0209153D01*
X0111250Y0208829D01*
X0111574Y0209153D01*
X0111976Y0209153D01*
X0111976Y0230099D01*
X0111545Y0230099D01*
X0110611Y0231033D01*
X0110611Y0237471D01*
X0111545Y0238405D01*
X0117196Y0238405D01*
X0118129Y0237471D01*
X0118129Y0231033D01*
X0117196Y0230099D01*
X0116764Y0230099D01*
X0116764Y0209153D01*
X0117225Y0209153D01*
X0118159Y0208219D01*
X0118159Y0201781D01*
X0117225Y0200847D01*
X0111574Y0200847D01*
X0111250Y0201171D01*
X0110926Y0200847D01*
X0110494Y0200847D01*
X0110494Y0200124D01*
X0110130Y0199244D01*
X0100294Y0189409D01*
X0104469Y0189409D01*
X0105403Y0188475D01*
X0105403Y0188443D01*
X0112097Y0188443D01*
X0112097Y0188475D01*
X0113031Y0189409D01*
X0119469Y0189409D01*
X0119706Y0189172D01*
X0119706Y0238056D01*
X0120132Y0239082D01*
X0122632Y0241582D01*
X0123417Y0242368D01*
X0124444Y0242794D01*
X0150106Y0242794D01*
X0150106Y0256726D01*
X0150471Y0257606D01*
X0151721Y0258856D01*
X0152394Y0259529D01*
X0153274Y0259894D01*
X0160258Y0259894D01*
X0164221Y0263856D01*
X0164894Y0264529D01*
X0165774Y0264894D01*
X0175476Y0264894D01*
X0176356Y0264529D01*
X0180106Y0260779D01*
X0180779Y0260106D01*
X0181144Y0259226D01*
X0181144Y0248869D01*
X0181179Y0248514D01*
X0181144Y0248397D01*
X0181144Y0248274D01*
X0181007Y0247944D01*
X0180904Y0247603D01*
X0180826Y0247508D01*
X0180779Y0247394D01*
X0180527Y0247142D01*
X0169894Y0234146D01*
X0169894Y0227028D01*
X0181678Y0225064D01*
X0181721Y0225106D01*
X0182394Y0225779D01*
X0183274Y0226144D01*
X0183728Y0226144D01*
X0183347Y0226525D01*
X0183347Y0227606D01*
X0182695Y0227606D01*
X0181841Y0226753D01*
X0178159Y0226753D01*
X0177225Y0227686D01*
X0177225Y0232156D01*
X0178159Y0233090D01*
X0181841Y0233090D01*
X0182537Y0232394D01*
X0183565Y0232394D01*
X0184281Y0233109D01*
X0190719Y0233109D01*
X0191250Y0232579D01*
X0191781Y0233109D01*
X0198219Y0233109D01*
X0199153Y0232176D01*
X0199153Y0226525D01*
X0198219Y0225591D01*
X0194626Y0225591D01*
X0193788Y0224753D01*
X0195296Y0224753D01*
X0196230Y0223820D01*
X0196230Y0222394D01*
X0196726Y0222394D01*
X0197606Y0222029D01*
X0198279Y0221356D01*
X0202630Y0217006D01*
X0202994Y0216126D01*
X0234427Y0216126D01*
X0234427Y0215340D02*
X0203488Y0215340D01*
X0203426Y0215403D02*
X0202994Y0215403D01*
X0202994Y0216126D01*
X0203426Y0215403D02*
X0204359Y0214469D01*
X0204359Y0208031D01*
X0204231Y0207903D01*
X0209725Y0207903D01*
X0210659Y0206969D01*
X0210659Y0200531D01*
X0210128Y0200000D01*
X0210659Y0199469D01*
X0210659Y0193031D01*
X0209725Y0192097D01*
X0204074Y0192097D01*
X0203750Y0192421D01*
X0203426Y0192097D01*
X0202994Y0192097D01*
X0202994Y0189894D01*
X0225476Y0189894D01*
X0226356Y0189529D01*
X0227029Y0188856D01*
X0227394Y0187976D01*
X0227394Y0170774D01*
X0227029Y0169894D01*
X0220779Y0163644D01*
X0220106Y0162971D01*
X0219226Y0162606D01*
X0190774Y0162606D01*
X0189894Y0162971D01*
X0189221Y0163644D01*
X0188856Y0164524D01*
X0188856Y0165956D01*
X0173194Y0165956D01*
X0172167Y0166382D01*
X0171382Y0167167D01*
X0171382Y0167168D01*
X0170918Y0167632D01*
X0170917Y0167632D01*
X0170132Y0168417D01*
X0169706Y0169444D01*
X0169706Y0182593D01*
X0165329Y0186970D01*
X0165167Y0186970D01*
X0165167Y0186938D01*
X0164842Y0186614D01*
X0165167Y0186290D01*
X0165167Y0180639D01*
X0164233Y0179706D01*
X0163407Y0179706D01*
X0163407Y0179389D01*
X0163790Y0179389D01*
X0164724Y0178455D01*
X0164724Y0172017D01*
X0164359Y0171653D01*
X0164725Y0171653D01*
X0165659Y0170719D01*
X0165659Y0164281D01*
X0164725Y0163347D01*
X0159074Y0163347D01*
X0158750Y0163671D01*
X0158426Y0163347D01*
X0152775Y0163347D01*
X0151841Y0164281D01*
X0151841Y0164548D01*
X0151034Y0163741D01*
X0146387Y0163741D01*
X0146909Y0163219D01*
X0146909Y0157525D01*
X0147890Y0157525D01*
X0149894Y0159529D01*
X0150774Y0159894D01*
X0184226Y0159894D01*
X0185106Y0159529D01*
X0185779Y0158856D01*
X0187029Y0157606D01*
X0187394Y0156726D01*
X0187394Y0155805D01*
X0187500Y0155699D01*
X0187962Y0156161D01*
X0192038Y0156161D01*
X0192500Y0155699D01*
X0192962Y0156161D01*
X0197038Y0156161D01*
X0197972Y0155227D01*
X0197972Y0147017D01*
X0197394Y0146439D01*
X0197394Y0145991D01*
X0203491Y0139894D01*
X0210476Y0139894D01*
X0211356Y0139529D01*
X0231356Y0119529D01*
X0232029Y0118856D01*
X0232394Y0117976D01*
X0232394Y0070774D01*
X0232029Y0069894D01*
X0231356Y0069221D01*
X0231356Y0069221D01*
X0225106Y0062971D01*
X0224226Y0062606D01*
X0209195Y0062606D01*
X0208388Y0061800D01*
X0207001Y0061225D01*
X0205499Y0061225D01*
X0204112Y0061800D01*
X0203050Y0062862D01*
X0202522Y0064137D01*
X0199529Y0061144D01*
X0198856Y0060471D01*
X0197976Y0060106D01*
X0194741Y0060106D01*
X0193644Y0059008D01*
X0193644Y0058935D01*
X0193750Y0058829D01*
X0194074Y0059153D01*
X0199725Y0059153D01*
X0200659Y0058219D01*
X0200659Y0051781D01*
X0199725Y0050847D01*
X0199293Y0050847D01*
X0199293Y0045491D01*
X0199725Y0045491D01*
X0200659Y0044558D01*
X0200659Y0038119D01*
X0199725Y0037186D01*
X0194074Y0037186D01*
X0193141Y0038119D01*
X0193141Y0044558D01*
X0194074Y0045491D01*
X0194506Y0045491D01*
X0194506Y0050847D01*
X0194074Y0050847D01*
X0193750Y0051171D01*
X0193426Y0050847D01*
X0187775Y0050847D01*
X0186875Y0051747D01*
X0185975Y0050847D01*
X0180324Y0050847D01*
X0180000Y0051171D01*
X0179857Y0051028D01*
X0183856Y0047029D01*
X0184529Y0046356D01*
X0184887Y0045491D01*
X0186005Y0045491D01*
X0186938Y0044558D01*
X0186938Y0038119D01*
X0186005Y0037186D01*
X0180354Y0037186D01*
X0179420Y0038119D01*
X0179420Y0044558D01*
X0179489Y0044626D01*
X0174821Y0049294D01*
X0174457Y0050173D01*
X0174457Y0050847D01*
X0174025Y0050847D01*
X0173125Y0051747D01*
X0172225Y0050847D01*
X0166574Y0050847D01*
X0166250Y0051171D01*
X0166107Y0051028D01*
X0170106Y0047029D01*
X0170106Y0047029D01*
X0170779Y0046356D01*
X0171137Y0045491D01*
X0172284Y0045491D01*
X0173218Y0044558D01*
X0173218Y0038119D01*
X0172284Y0037186D01*
X0166633Y0037186D01*
X0165700Y0038119D01*
X0165700Y0044558D01*
X0165753Y0044611D01*
X0161744Y0048620D01*
X0161744Y0048620D01*
X0161071Y0049294D01*
X0160707Y0050173D01*
X0160707Y0050847D01*
X0160275Y0050847D01*
X0159375Y0051747D01*
X0158475Y0050847D01*
X0152824Y0050847D01*
X0152500Y0051171D01*
X0152357Y0051028D01*
X0156356Y0047029D01*
X0157029Y0046356D01*
X0157387Y0045491D01*
X0158564Y0045491D01*
X0159497Y0044558D01*
X0159497Y0038119D01*
X0158564Y0037186D01*
X0152913Y0037186D01*
X0151979Y0038119D01*
X0151979Y0044558D01*
X0152018Y0044597D01*
X0147321Y0049294D01*
X0146957Y0050173D01*
X0146957Y0050847D01*
X0146525Y0050847D01*
X0145664Y0051708D01*
X0144991Y0051034D01*
X0139340Y0051034D01*
X0139016Y0051358D01*
X0138692Y0051034D01*
X0138601Y0051034D01*
X0142606Y0047029D01*
X0143279Y0046356D01*
X0143637Y0045491D01*
X0144843Y0045491D01*
X0145777Y0044558D01*
X0145777Y0038119D01*
X0144843Y0037186D01*
X0139192Y0037186D01*
X0138259Y0038119D01*
X0138259Y0044558D01*
X0138283Y0044582D01*
X0133837Y0049028D01*
X0133472Y0049908D01*
X0133472Y0051034D01*
X0133041Y0051034D01*
X0132141Y0051934D01*
X0131241Y0051034D01*
X0125590Y0051034D01*
X0125266Y0051358D01*
X0124942Y0051034D01*
X0124851Y0051034D01*
X0128856Y0047029D01*
X0129529Y0046356D01*
X0129887Y0045491D01*
X0131123Y0045491D01*
X0132056Y0044558D01*
X0132056Y0038119D01*
X0131123Y0037186D01*
X0125472Y0037186D01*
X0124538Y0038119D01*
X0124538Y0044558D01*
X0124548Y0044567D01*
X0120087Y0049028D01*
X0119722Y0049908D01*
X0119722Y0051034D01*
X0119291Y0051034D01*
X0118357Y0051968D01*
X0118357Y0058406D01*
X0119291Y0059340D01*
X0124942Y0059340D01*
X0125266Y0059016D01*
X0125590Y0059340D01*
X0126207Y0059340D01*
X0126386Y0059771D01*
X0127971Y0061356D01*
X0128644Y0062029D01*
X0129524Y0062394D01*
X0132758Y0062394D01*
X0134137Y0063772D01*
X0132862Y0064300D01*
X0131800Y0065362D01*
X0131225Y0066749D01*
X0131225Y0067890D01*
X0130471Y0068644D01*
X0130106Y0069524D01*
X0130106Y0085471D01*
X0126484Y0081849D01*
X0125604Y0081484D01*
X0112972Y0081484D01*
X0112972Y0079773D01*
X0112038Y0078839D01*
X0107962Y0078839D01*
X0107500Y0079301D01*
X0107038Y0078839D01*
X0105694Y0078839D01*
X0105694Y0077573D01*
X0110808Y0072459D01*
X0111294Y0071285D01*
X0111294Y0058873D01*
X0111574Y0059153D01*
X0117225Y0059153D01*
X0118159Y0058219D01*
X0118159Y0051781D01*
X0117225Y0050847D01*
X0116232Y0050847D01*
X0116232Y0050688D01*
X0117058Y0050688D01*
X0117991Y0049755D01*
X0117991Y0044104D01*
X0117667Y0043780D01*
X0117991Y0043455D01*
X0117991Y0037804D01*
X0117058Y0036871D01*
X0116544Y0036871D01*
X0116544Y0031157D01*
X0119868Y0027832D01*
X0120294Y0026806D01*
X0120294Y0009444D01*
X0119868Y0008417D01*
X0119082Y0007632D01*
X0119082Y0007632D01*
X0115332Y0003882D01*
X0114306Y0003456D01*
X0039444Y0003456D01*
X0038417Y0003882D01*
X0034667Y0007632D01*
X0033882Y0008417D01*
X0033456Y0009444D01*
X0033456Y0023843D01*
X0032167Y0025132D01*
X0031382Y0025917D01*
X0030956Y0026944D01*
X0030956Y0066343D01*
X0021382Y0075917D01*
X0020956Y0076944D01*
X0020956Y0079595D01*
X0020778Y0079773D01*
X0020778Y0087983D01*
X0020956Y0088161D01*
X0020956Y0089306D01*
X0021382Y0090332D01*
X0023882Y0092832D01*
X0024667Y0093618D01*
X0025694Y0094044D01*
X0073056Y0094044D01*
X0074082Y0093618D01*
X0075000Y0092701D01*
X0075132Y0092832D01*
X0075132Y0092832D01*
X0075917Y0093618D01*
X0076944Y0094044D01*
X0121205Y0094044D01*
X0121612Y0094450D01*
X0122999Y0095025D01*
X0124501Y0095025D01*
X0125888Y0094450D01*
X0126950Y0093388D01*
X0127525Y0092001D01*
X0127525Y0090499D01*
X0126950Y0089112D01*
X0125888Y0088050D01*
X0124501Y0087475D01*
X0122999Y0087475D01*
X0121612Y0088050D01*
X0121205Y0088456D01*
X0112498Y0088456D01*
X0112972Y0087983D01*
X0112972Y0086272D01*
X0124136Y0086272D01*
X0127606Y0089741D01*
X0127606Y0099221D01*
X0126356Y0097971D01*
X0125476Y0097606D01*
X0105774Y0097606D01*
X0104894Y0097971D01*
X0104221Y0098644D01*
X0102971Y0099894D01*
X0102606Y0100774D01*
X0102606Y0101439D01*
X0102500Y0101545D01*
X0102038Y0101083D01*
X0097962Y0101083D01*
X0097500Y0101545D01*
X0097038Y0101083D01*
X0092962Y0101083D01*
X0092500Y0101545D01*
X0092038Y0101083D01*
X0087962Y0101083D01*
X0087500Y0101545D01*
X0087038Y0101083D01*
X0082962Y0101083D01*
X0082500Y0101545D01*
X0082038Y0101083D01*
X0077962Y0101083D01*
X0077028Y0102017D01*
X0077028Y0110133D01*
X0076800Y0110362D01*
X0076225Y0111749D01*
X0076225Y0112890D01*
X0076144Y0112971D01*
X0076144Y0112971D01*
X0075471Y0113644D01*
X0075182Y0114341D01*
X0074281Y0114341D01*
X0073750Y0114872D01*
X0073219Y0114341D01*
X0066781Y0114341D01*
X0065847Y0115275D01*
X0065847Y0120926D01*
X0066171Y0121250D01*
X0065847Y0121574D01*
X0065847Y0127225D01*
X0066781Y0128159D01*
X0067682Y0128159D01*
X0067971Y0128856D01*
X0068644Y0129529D01*
X0069894Y0130779D01*
X0070774Y0131144D01*
X0074009Y0131144D01*
X0074528Y0131664D01*
X0074528Y0139233D01*
X0075462Y0140167D01*
X0079538Y0140167D01*
X0080000Y0139705D01*
X0080106Y0139811D01*
X0080106Y0152689D01*
X0079528Y0153267D01*
X0079528Y0160591D01*
X0075531Y0160591D01*
X0074597Y0161525D01*
X0074597Y0167176D01*
X0075531Y0168109D01*
X0081969Y0168109D01*
X0082097Y0167981D01*
X0082097Y0173475D01*
X0082591Y0173969D01*
X0082475Y0174249D01*
X0082475Y0175751D01*
X0082591Y0176031D01*
X0082097Y0176525D01*
X0082097Y0182176D01*
X0082421Y0182500D01*
X0082097Y0182824D01*
X0082097Y0182856D01*
X0069153Y0182856D01*
X0069153Y0182824D01*
X0068829Y0182500D01*
X0069153Y0182176D01*
X0069153Y0176525D01*
X0068659Y0176031D01*
X0068775Y0175751D01*
X0068775Y0174249D01*
X0068659Y0173969D01*
X0069153Y0173475D01*
X0069153Y0167824D01*
X0068829Y0167500D01*
X0069153Y0167176D01*
X0069153Y0161525D01*
X0068219Y0160591D01*
X0061781Y0160591D01*
X0061250Y0161122D01*
X0060719Y0160591D01*
X0059222Y0160591D01*
X0059222Y0153267D01*
X0058288Y0152333D01*
X0054212Y0152333D01*
X0053750Y0152795D01*
X0053644Y0152689D01*
X0053644Y0140358D01*
X0053882Y0140933D01*
X0054667Y0141719D01*
X0055694Y0142144D01*
X0059597Y0142144D01*
X0059597Y0142176D01*
X0060531Y0143109D01*
X0066969Y0143109D01*
X0067903Y0142176D01*
X0067903Y0141967D01*
X0069249Y0142525D01*
X0070751Y0142525D01*
X0072138Y0141950D01*
X0073200Y0140888D01*
X0073775Y0139501D01*
X0073775Y0137999D01*
X0073200Y0136612D01*
X0072138Y0135550D01*
X0070751Y0134975D01*
X0069249Y0134975D01*
X0067862Y0135550D01*
X0067455Y0135956D01*
X0067334Y0135956D01*
X0066969Y0135591D01*
X0060531Y0135591D01*
X0059597Y0136525D01*
X0059597Y0136557D01*
X0059222Y0136557D01*
X0059222Y0131023D01*
X0058288Y0130089D01*
X0055796Y0130089D01*
X0057606Y0128279D01*
X0057727Y0128159D01*
X0059469Y0128159D01*
X0060403Y0127225D01*
X0060403Y0121574D01*
X0060079Y0121250D01*
X0060403Y0120926D01*
X0060403Y0115901D01*
X0060888Y0115700D01*
X0061950Y0114638D01*
X0062525Y0113251D01*
X0062525Y0111749D01*
X0061950Y0110362D01*
X0061722Y0110133D01*
X0061722Y0102017D01*
X0060788Y0101083D01*
X0056712Y0101083D01*
X0056250Y0101545D01*
X0055788Y0101083D01*
X0051712Y0101083D01*
X0051250Y0101545D01*
X0050788Y0101083D01*
X0046712Y0101083D01*
X0046250Y0101545D01*
X0045788Y0101083D01*
X0041712Y0101083D01*
X0041250Y0101545D01*
X0040788Y0101083D01*
X0036712Y0101083D01*
X0036250Y0101545D01*
X0035788Y0101083D01*
X0031712Y0101083D01*
X0031250Y0101545D01*
X0030788Y0101083D01*
X0026712Y0101083D01*
X0025778Y0102017D01*
X0025778Y0110227D01*
X0026356Y0110805D01*
X0026356Y0111508D01*
X0024221Y0113644D01*
X0023932Y0114341D01*
X0023031Y0114341D01*
X0022500Y0114872D01*
X0021969Y0114341D01*
X0015531Y0114341D01*
X0014766Y0115106D01*
X0005774Y0115106D01*
X0004894Y0115471D01*
X0004221Y0116144D01*
X0001794Y0118571D01*
X0001794Y0007874D01*
X0001869Y0006923D01*
X0002456Y0005114D01*
X0002330Y0005501D02*
X0036798Y0005501D01*
X0037584Y0004715D02*
X0002746Y0004715D01*
X0003317Y0003930D02*
X0038370Y0003930D01*
X0036012Y0006287D02*
X0002075Y0006287D01*
X0001857Y0007073D02*
X0035226Y0007073D01*
X0034440Y0007859D02*
X0001795Y0007859D01*
X0001794Y0008645D02*
X0033787Y0008645D01*
X0033462Y0009431D02*
X0001794Y0009431D01*
X0001794Y0010217D02*
X0033456Y0010217D01*
X0033456Y0011003D02*
X0001794Y0011003D01*
X0001794Y0011789D02*
X0033456Y0011789D01*
X0033456Y0012575D02*
X0001794Y0012575D01*
X0001794Y0013361D02*
X0033456Y0013361D01*
X0033456Y0014146D02*
X0001794Y0014146D01*
X0001794Y0014932D02*
X0033456Y0014932D01*
X0033456Y0015718D02*
X0001794Y0015718D01*
X0001794Y0016504D02*
X0033456Y0016504D01*
X0033456Y0017290D02*
X0001794Y0017290D01*
X0001794Y0018076D02*
X0033456Y0018076D01*
X0033456Y0018862D02*
X0001794Y0018862D01*
X0001794Y0019648D02*
X0033456Y0019648D01*
X0033456Y0020434D02*
X0001794Y0020434D01*
X0001794Y0021220D02*
X0033456Y0021220D01*
X0033456Y0022006D02*
X0001794Y0022006D01*
X0001794Y0022791D02*
X0033456Y0022791D01*
X0033456Y0023577D02*
X0001794Y0023577D01*
X0001794Y0024363D02*
X0032936Y0024363D01*
X0032150Y0025149D02*
X0001794Y0025149D01*
X0001794Y0025935D02*
X0031374Y0025935D01*
X0031049Y0026721D02*
X0001794Y0026721D01*
X0001794Y0027507D02*
X0030956Y0027507D01*
X0030956Y0028293D02*
X0001794Y0028293D01*
X0001794Y0029079D02*
X0030956Y0029079D01*
X0030956Y0029865D02*
X0001794Y0029865D01*
X0001794Y0030651D02*
X0030956Y0030651D01*
X0030956Y0031437D02*
X0001794Y0031437D01*
X0001794Y0032222D02*
X0030956Y0032222D01*
X0030956Y0033008D02*
X0001794Y0033008D01*
X0001794Y0033794D02*
X0030956Y0033794D01*
X0030956Y0034580D02*
X0001794Y0034580D01*
X0001794Y0035366D02*
X0030956Y0035366D01*
X0030956Y0036152D02*
X0001794Y0036152D01*
X0001794Y0036938D02*
X0030956Y0036938D01*
X0030956Y0037724D02*
X0001794Y0037724D01*
X0001794Y0038510D02*
X0030956Y0038510D01*
X0030956Y0039296D02*
X0001794Y0039296D01*
X0001794Y0040082D02*
X0030956Y0040082D01*
X0030956Y0040867D02*
X0001794Y0040867D01*
X0001794Y0041653D02*
X0030956Y0041653D01*
X0030956Y0042439D02*
X0001794Y0042439D01*
X0001794Y0043225D02*
X0030956Y0043225D01*
X0030956Y0044011D02*
X0001794Y0044011D01*
X0001794Y0044797D02*
X0030956Y0044797D01*
X0030956Y0045583D02*
X0001794Y0045583D01*
X0001794Y0046369D02*
X0030956Y0046369D01*
X0030956Y0047155D02*
X0001794Y0047155D01*
X0001794Y0047941D02*
X0030956Y0047941D01*
X0030956Y0048727D02*
X0001794Y0048727D01*
X0001794Y0049513D02*
X0030956Y0049513D01*
X0030956Y0050298D02*
X0001794Y0050298D01*
X0001794Y0051084D02*
X0030956Y0051084D01*
X0030956Y0051870D02*
X0001794Y0051870D01*
X0001794Y0052656D02*
X0030956Y0052656D01*
X0030956Y0053442D02*
X0001794Y0053442D01*
X0001794Y0054228D02*
X0030956Y0054228D01*
X0030956Y0055014D02*
X0001794Y0055014D01*
X0001794Y0055800D02*
X0030956Y0055800D01*
X0030956Y0056586D02*
X0001794Y0056586D01*
X0001794Y0057372D02*
X0030956Y0057372D01*
X0030956Y0058158D02*
X0001794Y0058158D01*
X0001794Y0058943D02*
X0030956Y0058943D01*
X0030956Y0059729D02*
X0001794Y0059729D01*
X0001794Y0060515D02*
X0030956Y0060515D01*
X0030956Y0061301D02*
X0001794Y0061301D01*
X0001794Y0062087D02*
X0030956Y0062087D01*
X0030956Y0062873D02*
X0001794Y0062873D01*
X0001794Y0063659D02*
X0030956Y0063659D01*
X0030956Y0064445D02*
X0001794Y0064445D01*
X0001794Y0065231D02*
X0030956Y0065231D01*
X0030956Y0066017D02*
X0001794Y0066017D01*
X0001794Y0066803D02*
X0030497Y0066803D01*
X0029711Y0067589D02*
X0001794Y0067589D01*
X0001794Y0068374D02*
X0028925Y0068374D01*
X0028139Y0069160D02*
X0001794Y0069160D01*
X0001794Y0069946D02*
X0027353Y0069946D01*
X0026567Y0070732D02*
X0001794Y0070732D01*
X0001794Y0071518D02*
X0025781Y0071518D01*
X0024995Y0072304D02*
X0001794Y0072304D01*
X0001794Y0073090D02*
X0024209Y0073090D01*
X0023423Y0073876D02*
X0001794Y0073876D01*
X0001794Y0074662D02*
X0022637Y0074662D01*
X0021851Y0075448D02*
X0001794Y0075448D01*
X0001794Y0076234D02*
X0021251Y0076234D01*
X0020956Y0077019D02*
X0001794Y0077019D01*
X0001794Y0077805D02*
X0020956Y0077805D01*
X0020956Y0078591D02*
X0001794Y0078591D01*
X0001794Y0079377D02*
X0020956Y0079377D01*
X0020778Y0080163D02*
X0001794Y0080163D01*
X0001794Y0080949D02*
X0020778Y0080949D01*
X0020778Y0081735D02*
X0001794Y0081735D01*
X0001794Y0082521D02*
X0020778Y0082521D01*
X0020778Y0083307D02*
X0001794Y0083307D01*
X0001794Y0084093D02*
X0020778Y0084093D01*
X0020778Y0084879D02*
X0001794Y0084879D01*
X0001794Y0085665D02*
X0020778Y0085665D01*
X0020778Y0086450D02*
X0001794Y0086450D01*
X0001794Y0087236D02*
X0020778Y0087236D01*
X0020818Y0088022D02*
X0001794Y0088022D01*
X0001794Y0088808D02*
X0020956Y0088808D01*
X0021076Y0089594D02*
X0001794Y0089594D01*
X0001794Y0090380D02*
X0021429Y0090380D01*
X0022215Y0091166D02*
X0001794Y0091166D01*
X0001794Y0091952D02*
X0023001Y0091952D01*
X0023787Y0092738D02*
X0001794Y0092738D01*
X0001794Y0093524D02*
X0024573Y0093524D01*
X0026413Y0101383D02*
X0001794Y0101383D01*
X0001794Y0102169D02*
X0025778Y0102169D01*
X0025778Y0102955D02*
X0001794Y0102955D01*
X0001794Y0103741D02*
X0025778Y0103741D01*
X0025778Y0104526D02*
X0001794Y0104526D01*
X0001794Y0105312D02*
X0025778Y0105312D01*
X0025778Y0106098D02*
X0001794Y0106098D01*
X0001794Y0106884D02*
X0025778Y0106884D01*
X0025778Y0107670D02*
X0001794Y0107670D01*
X0001794Y0108456D02*
X0025778Y0108456D01*
X0025778Y0109242D02*
X0001794Y0109242D01*
X0001794Y0110028D02*
X0025778Y0110028D01*
X0026356Y0110814D02*
X0001794Y0110814D01*
X0001794Y0111600D02*
X0026265Y0111600D01*
X0025479Y0112386D02*
X0001794Y0112386D01*
X0001794Y0113171D02*
X0024693Y0113171D01*
X0024091Y0113957D02*
X0001794Y0113957D01*
X0001794Y0114743D02*
X0015129Y0114743D01*
X0022371Y0114743D02*
X0022629Y0114743D01*
X0031087Y0101383D02*
X0031413Y0101383D01*
X0036087Y0101383D02*
X0036413Y0101383D01*
X0041087Y0101383D02*
X0041413Y0101383D01*
X0046087Y0101383D02*
X0046413Y0101383D01*
X0051087Y0101383D02*
X0051413Y0101383D01*
X0056087Y0101383D02*
X0056413Y0101383D01*
X0061087Y0101383D02*
X0077663Y0101383D01*
X0077028Y0102169D02*
X0061722Y0102169D01*
X0061722Y0102955D02*
X0077028Y0102955D01*
X0077028Y0103741D02*
X0061722Y0103741D01*
X0061722Y0104526D02*
X0077028Y0104526D01*
X0077028Y0105312D02*
X0061722Y0105312D01*
X0061722Y0106098D02*
X0077028Y0106098D01*
X0077028Y0106884D02*
X0061722Y0106884D01*
X0061722Y0107670D02*
X0077028Y0107670D01*
X0077028Y0108456D02*
X0061722Y0108456D01*
X0061722Y0109242D02*
X0077028Y0109242D01*
X0077028Y0110028D02*
X0061722Y0110028D01*
X0062137Y0110814D02*
X0076613Y0110814D01*
X0076287Y0111600D02*
X0062463Y0111600D01*
X0062525Y0112386D02*
X0076225Y0112386D01*
X0075943Y0113171D02*
X0062525Y0113171D01*
X0062232Y0113957D02*
X0075341Y0113957D01*
X0073879Y0114743D02*
X0073621Y0114743D01*
X0066379Y0114743D02*
X0061845Y0114743D01*
X0061059Y0115529D02*
X0065847Y0115529D01*
X0065847Y0116315D02*
X0060403Y0116315D01*
X0060403Y0117101D02*
X0065847Y0117101D01*
X0065847Y0117887D02*
X0060403Y0117887D01*
X0060403Y0118673D02*
X0065847Y0118673D01*
X0065847Y0119459D02*
X0060403Y0119459D01*
X0060403Y0120245D02*
X0065847Y0120245D01*
X0065952Y0121031D02*
X0060298Y0121031D01*
X0060403Y0121816D02*
X0065847Y0121816D01*
X0065847Y0122602D02*
X0060403Y0122602D01*
X0060403Y0123388D02*
X0065847Y0123388D01*
X0065847Y0124174D02*
X0060403Y0124174D01*
X0060403Y0124960D02*
X0065847Y0124960D01*
X0065847Y0125746D02*
X0060403Y0125746D01*
X0060403Y0126532D02*
X0065847Y0126532D01*
X0065940Y0127318D02*
X0060310Y0127318D01*
X0059524Y0128104D02*
X0066726Y0128104D01*
X0068005Y0128890D02*
X0056995Y0128890D01*
X0056210Y0129676D02*
X0068790Y0129676D01*
X0069576Y0130462D02*
X0058660Y0130462D01*
X0059222Y0131247D02*
X0074112Y0131247D01*
X0074528Y0132033D02*
X0059222Y0132033D01*
X0059222Y0132819D02*
X0074528Y0132819D01*
X0074528Y0133605D02*
X0059222Y0133605D01*
X0059222Y0134391D02*
X0074528Y0134391D01*
X0074528Y0135177D02*
X0071238Y0135177D01*
X0072551Y0135963D02*
X0074528Y0135963D01*
X0074528Y0136749D02*
X0073257Y0136749D01*
X0073582Y0137535D02*
X0074528Y0137535D01*
X0074528Y0138321D02*
X0073775Y0138321D01*
X0073775Y0139107D02*
X0074528Y0139107D01*
X0075188Y0139892D02*
X0073613Y0139892D01*
X0073287Y0140678D02*
X0080106Y0140678D01*
X0080106Y0139892D02*
X0079812Y0139892D01*
X0080106Y0141464D02*
X0072624Y0141464D01*
X0071414Y0142250D02*
X0080106Y0142250D01*
X0080106Y0143036D02*
X0067042Y0143036D01*
X0067828Y0142250D02*
X0068586Y0142250D01*
X0060458Y0143036D02*
X0053644Y0143036D01*
X0053644Y0142250D02*
X0059672Y0142250D01*
X0054413Y0141464D02*
X0053644Y0141464D01*
X0053644Y0140678D02*
X0053776Y0140678D01*
X0053644Y0143822D02*
X0080106Y0143822D01*
X0080106Y0144608D02*
X0053644Y0144608D01*
X0053644Y0145394D02*
X0080106Y0145394D01*
X0080106Y0146180D02*
X0053644Y0146180D01*
X0053644Y0146966D02*
X0080106Y0146966D01*
X0080106Y0147752D02*
X0053644Y0147752D01*
X0053644Y0148538D02*
X0080106Y0148538D01*
X0080106Y0149323D02*
X0053644Y0149323D01*
X0053644Y0150109D02*
X0080106Y0150109D01*
X0080106Y0150895D02*
X0053644Y0150895D01*
X0053644Y0151681D02*
X0080106Y0151681D01*
X0080106Y0152467D02*
X0058422Y0152467D01*
X0059208Y0153253D02*
X0079542Y0153253D01*
X0079528Y0154039D02*
X0059222Y0154039D01*
X0059222Y0154825D02*
X0079528Y0154825D01*
X0079528Y0155611D02*
X0059222Y0155611D01*
X0059222Y0156397D02*
X0079528Y0156397D01*
X0079528Y0157183D02*
X0059222Y0157183D01*
X0059222Y0157968D02*
X0079528Y0157968D01*
X0079528Y0158754D02*
X0059222Y0158754D01*
X0059222Y0159540D02*
X0079528Y0159540D01*
X0079528Y0160326D02*
X0059222Y0160326D01*
X0061240Y0161112D02*
X0061260Y0161112D01*
X0068740Y0161112D02*
X0075010Y0161112D01*
X0074597Y0161898D02*
X0069153Y0161898D01*
X0069153Y0162684D02*
X0074597Y0162684D01*
X0074597Y0163470D02*
X0069153Y0163470D01*
X0069153Y0164256D02*
X0074597Y0164256D01*
X0074597Y0165042D02*
X0069153Y0165042D01*
X0069153Y0165828D02*
X0074597Y0165828D01*
X0074597Y0166614D02*
X0069153Y0166614D01*
X0068929Y0167399D02*
X0074821Y0167399D01*
X0069153Y0168185D02*
X0082097Y0168185D01*
X0082097Y0168971D02*
X0069153Y0168971D01*
X0069153Y0169757D02*
X0082097Y0169757D01*
X0082097Y0170543D02*
X0069153Y0170543D01*
X0069153Y0171329D02*
X0082097Y0171329D01*
X0082097Y0172115D02*
X0069153Y0172115D01*
X0069153Y0172901D02*
X0082097Y0172901D01*
X0082309Y0173687D02*
X0068941Y0173687D01*
X0068775Y0174473D02*
X0082475Y0174473D01*
X0082475Y0175259D02*
X0068775Y0175259D01*
X0068672Y0176044D02*
X0082578Y0176044D01*
X0082097Y0176830D02*
X0069153Y0176830D01*
X0069153Y0177616D02*
X0082097Y0177616D01*
X0082097Y0178402D02*
X0069153Y0178402D01*
X0069153Y0179188D02*
X0082097Y0179188D01*
X0082097Y0179974D02*
X0069153Y0179974D01*
X0069153Y0180760D02*
X0082097Y0180760D01*
X0082097Y0181546D02*
X0069153Y0181546D01*
X0068997Y0182332D02*
X0082253Y0182332D01*
X0090079Y0182500D02*
X0090403Y0182824D01*
X0090403Y0182856D01*
X0097097Y0182856D01*
X0097097Y0182824D01*
X0097421Y0182500D01*
X0097097Y0182176D01*
X0097097Y0176525D01*
X0097591Y0176031D01*
X0097475Y0175751D01*
X0097475Y0174249D01*
X0097591Y0173969D01*
X0097097Y0173475D01*
X0097097Y0167981D01*
X0096969Y0168109D01*
X0090531Y0168109D01*
X0090403Y0167981D01*
X0090403Y0173475D01*
X0089909Y0173969D01*
X0090025Y0174249D01*
X0090025Y0175751D01*
X0089909Y0176031D01*
X0090403Y0176525D01*
X0090403Y0182176D01*
X0090079Y0182500D01*
X0090247Y0182332D02*
X0097253Y0182332D01*
X0097097Y0181546D02*
X0090403Y0181546D01*
X0090403Y0180760D02*
X0097097Y0180760D01*
X0097097Y0179974D02*
X0090403Y0179974D01*
X0090403Y0179188D02*
X0097097Y0179188D01*
X0097097Y0178402D02*
X0090403Y0178402D01*
X0090403Y0177616D02*
X0097097Y0177616D01*
X0097097Y0176830D02*
X0090403Y0176830D01*
X0089922Y0176044D02*
X0097578Y0176044D01*
X0097475Y0175259D02*
X0090025Y0175259D01*
X0090025Y0174473D02*
X0097475Y0174473D01*
X0097309Y0173687D02*
X0090191Y0173687D01*
X0090403Y0172901D02*
X0097097Y0172901D01*
X0097097Y0172115D02*
X0090403Y0172115D01*
X0090403Y0171329D02*
X0097097Y0171329D01*
X0097097Y0170543D02*
X0090403Y0170543D01*
X0090403Y0169757D02*
X0097097Y0169757D01*
X0097097Y0168971D02*
X0090403Y0168971D01*
X0090403Y0168185D02*
X0097097Y0168185D01*
X0105403Y0168185D02*
X0112097Y0168185D01*
X0111969Y0168109D02*
X0105531Y0168109D01*
X0105403Y0167981D01*
X0105403Y0173475D01*
X0104909Y0173969D01*
X0105025Y0174249D01*
X0105025Y0175751D01*
X0104909Y0176031D01*
X0105403Y0176525D01*
X0105403Y0182176D01*
X0105079Y0182500D01*
X0105403Y0182824D01*
X0105403Y0182856D01*
X0112097Y0182856D01*
X0112097Y0182824D01*
X0112421Y0182500D01*
X0112097Y0182176D01*
X0112097Y0176525D01*
X0112591Y0176031D01*
X0112475Y0175751D01*
X0112475Y0174249D01*
X0112591Y0173969D01*
X0112097Y0173475D01*
X0112097Y0167981D01*
X0111969Y0168109D01*
X0112097Y0168971D02*
X0105403Y0168971D01*
X0105403Y0169757D02*
X0112097Y0169757D01*
X0112097Y0170543D02*
X0105403Y0170543D01*
X0105403Y0171329D02*
X0112097Y0171329D01*
X0112097Y0172115D02*
X0105403Y0172115D01*
X0105403Y0172901D02*
X0112097Y0172901D01*
X0112309Y0173687D02*
X0105191Y0173687D01*
X0105025Y0174473D02*
X0112475Y0174473D01*
X0112475Y0175259D02*
X0105025Y0175259D01*
X0104922Y0176044D02*
X0112578Y0176044D01*
X0112097Y0176830D02*
X0105403Y0176830D01*
X0105403Y0177616D02*
X0112097Y0177616D01*
X0112097Y0178402D02*
X0105403Y0178402D01*
X0105403Y0179188D02*
X0112097Y0179188D01*
X0112097Y0179974D02*
X0105403Y0179974D01*
X0105403Y0180760D02*
X0112097Y0180760D01*
X0112097Y0181546D02*
X0105403Y0181546D01*
X0105247Y0182332D02*
X0112253Y0182332D01*
X0112241Y0188619D02*
X0105259Y0188619D01*
X0104473Y0189405D02*
X0113027Y0189405D01*
X0119473Y0189405D02*
X0119706Y0189405D01*
X0119706Y0190191D02*
X0101076Y0190191D01*
X0101862Y0190977D02*
X0119706Y0190977D01*
X0119706Y0191763D02*
X0102648Y0191763D01*
X0103434Y0192549D02*
X0119706Y0192549D01*
X0119706Y0193335D02*
X0104220Y0193335D01*
X0105006Y0194120D02*
X0119706Y0194120D01*
X0119706Y0194906D02*
X0105792Y0194906D01*
X0106577Y0195692D02*
X0119706Y0195692D01*
X0119706Y0196478D02*
X0107363Y0196478D01*
X0108149Y0197264D02*
X0119706Y0197264D01*
X0119706Y0198050D02*
X0108935Y0198050D01*
X0109721Y0198836D02*
X0119706Y0198836D01*
X0119706Y0199622D02*
X0110286Y0199622D01*
X0110494Y0200408D02*
X0119706Y0200408D01*
X0119706Y0201194D02*
X0117572Y0201194D01*
X0118159Y0201980D02*
X0119706Y0201980D01*
X0119706Y0202766D02*
X0118159Y0202766D01*
X0118159Y0203551D02*
X0119706Y0203551D01*
X0119706Y0204337D02*
X0118159Y0204337D01*
X0118159Y0205123D02*
X0119706Y0205123D01*
X0119706Y0205909D02*
X0118159Y0205909D01*
X0118159Y0206695D02*
X0119706Y0206695D01*
X0119706Y0207481D02*
X0118159Y0207481D01*
X0118111Y0208267D02*
X0119706Y0208267D01*
X0119706Y0209053D02*
X0117325Y0209053D01*
X0116764Y0209839D02*
X0119706Y0209839D01*
X0119706Y0210625D02*
X0116764Y0210625D01*
X0116764Y0211411D02*
X0119706Y0211411D01*
X0119706Y0212196D02*
X0116764Y0212196D01*
X0116764Y0212982D02*
X0119706Y0212982D01*
X0119706Y0213768D02*
X0116764Y0213768D01*
X0116764Y0214554D02*
X0119706Y0214554D01*
X0119706Y0215340D02*
X0116764Y0215340D01*
X0116764Y0216126D02*
X0119706Y0216126D01*
X0119706Y0216912D02*
X0116764Y0216912D01*
X0116764Y0217698D02*
X0119706Y0217698D01*
X0119706Y0218484D02*
X0116764Y0218484D01*
X0116764Y0219270D02*
X0119706Y0219270D01*
X0119706Y0220056D02*
X0116764Y0220056D01*
X0116764Y0220842D02*
X0119706Y0220842D01*
X0119706Y0221627D02*
X0116764Y0221627D01*
X0116764Y0222413D02*
X0119706Y0222413D01*
X0119706Y0223199D02*
X0116764Y0223199D01*
X0116764Y0223985D02*
X0119706Y0223985D01*
X0119706Y0224771D02*
X0116764Y0224771D01*
X0116764Y0225557D02*
X0119706Y0225557D01*
X0119706Y0226343D02*
X0116764Y0226343D01*
X0116764Y0227129D02*
X0119706Y0227129D01*
X0119706Y0227915D02*
X0116764Y0227915D01*
X0116764Y0228701D02*
X0119706Y0228701D01*
X0119706Y0229487D02*
X0116764Y0229487D01*
X0117369Y0230272D02*
X0119706Y0230272D01*
X0119706Y0231058D02*
X0118129Y0231058D01*
X0118129Y0231844D02*
X0119706Y0231844D01*
X0119706Y0232630D02*
X0118129Y0232630D01*
X0118129Y0233416D02*
X0119706Y0233416D01*
X0119706Y0234202D02*
X0118129Y0234202D01*
X0118129Y0234988D02*
X0119706Y0234988D01*
X0119706Y0235774D02*
X0118129Y0235774D01*
X0118129Y0236560D02*
X0119706Y0236560D01*
X0119706Y0237346D02*
X0118129Y0237346D01*
X0117469Y0238132D02*
X0119738Y0238132D01*
X0120063Y0238918D02*
X0001794Y0238918D01*
X0001794Y0239703D02*
X0120753Y0239703D01*
X0121538Y0240489D02*
X0001794Y0240489D01*
X0001794Y0241275D02*
X0122324Y0241275D01*
X0123110Y0242061D02*
X0001794Y0242061D01*
X0001794Y0242847D02*
X0150106Y0242847D01*
X0150106Y0243633D02*
X0001794Y0243633D01*
X0001794Y0244419D02*
X0150106Y0244419D01*
X0150106Y0245205D02*
X0001794Y0245205D01*
X0001794Y0245991D02*
X0150106Y0245991D01*
X0150106Y0246777D02*
X0001794Y0246777D01*
X0001794Y0247563D02*
X0150106Y0247563D01*
X0150106Y0248348D02*
X0001794Y0248348D01*
X0001794Y0249134D02*
X0150106Y0249134D01*
X0150106Y0249920D02*
X0001794Y0249920D01*
X0001794Y0250706D02*
X0150106Y0250706D01*
X0150106Y0251492D02*
X0001794Y0251492D01*
X0001794Y0252278D02*
X0150106Y0252278D01*
X0150106Y0253064D02*
X0001794Y0253064D01*
X0001794Y0253850D02*
X0040078Y0253850D01*
X0039739Y0253991D02*
X0041415Y0253296D01*
X0043230Y0253296D01*
X0044907Y0253991D01*
X0046190Y0255274D01*
X0046885Y0256951D01*
X0046885Y0264703D01*
X0046190Y0266380D01*
X0044907Y0267663D01*
X0043230Y0268357D01*
X0041415Y0268357D01*
X0039739Y0267663D01*
X0038455Y0266380D01*
X0037761Y0264703D01*
X0037761Y0256951D01*
X0038455Y0255274D01*
X0039739Y0253991D01*
X0039093Y0254636D02*
X0001794Y0254636D01*
X0001794Y0255422D02*
X0038394Y0255422D01*
X0038068Y0256208D02*
X0001794Y0256208D01*
X0001794Y0256994D02*
X0037761Y0256994D01*
X0037761Y0257779D02*
X0001794Y0257779D01*
X0001794Y0258565D02*
X0037761Y0258565D01*
X0037761Y0259351D02*
X0001794Y0259351D01*
X0001794Y0260137D02*
X0037761Y0260137D01*
X0037761Y0260923D02*
X0001794Y0260923D01*
X0001794Y0261709D02*
X0037761Y0261709D01*
X0037761Y0262495D02*
X0001794Y0262495D01*
X0001794Y0263281D02*
X0037761Y0263281D01*
X0037761Y0264067D02*
X0001794Y0264067D01*
X0001794Y0264853D02*
X0037823Y0264853D01*
X0038148Y0265639D02*
X0001794Y0265639D01*
X0001794Y0266424D02*
X0038500Y0266424D01*
X0039286Y0267210D02*
X0001794Y0267210D01*
X0001816Y0267996D02*
X0040543Y0267996D01*
X0044102Y0267996D02*
X0054323Y0267996D01*
X0053518Y0267663D02*
X0055195Y0268357D01*
X0057010Y0268357D01*
X0058687Y0267663D01*
X0059970Y0266380D01*
X0060665Y0264703D01*
X0060665Y0256951D01*
X0059970Y0255274D01*
X0058687Y0253991D01*
X0057010Y0253296D01*
X0055195Y0253296D01*
X0053518Y0253991D01*
X0052235Y0255274D01*
X0051540Y0256951D01*
X0051540Y0264703D01*
X0052235Y0266380D01*
X0053518Y0267663D01*
X0053066Y0267210D02*
X0045360Y0267210D01*
X0046146Y0266424D02*
X0052280Y0266424D01*
X0051928Y0265639D02*
X0046497Y0265639D01*
X0046823Y0264853D02*
X0051602Y0264853D01*
X0051540Y0264067D02*
X0046885Y0264067D01*
X0046885Y0263281D02*
X0051540Y0263281D01*
X0051540Y0262495D02*
X0046885Y0262495D01*
X0046885Y0261709D02*
X0051540Y0261709D01*
X0051540Y0260923D02*
X0046885Y0260923D01*
X0046885Y0260137D02*
X0051540Y0260137D01*
X0051540Y0259351D02*
X0046885Y0259351D01*
X0046885Y0258565D02*
X0051540Y0258565D01*
X0051540Y0257779D02*
X0046885Y0257779D01*
X0046885Y0256994D02*
X0051540Y0256994D01*
X0051848Y0256208D02*
X0046577Y0256208D01*
X0046252Y0255422D02*
X0052174Y0255422D01*
X0052873Y0254636D02*
X0045552Y0254636D01*
X0044567Y0253850D02*
X0053858Y0253850D01*
X0058347Y0253850D02*
X0067637Y0253850D01*
X0067298Y0253991D02*
X0068974Y0253296D01*
X0070789Y0253296D01*
X0072466Y0253991D01*
X0073750Y0255274D01*
X0074444Y0256951D01*
X0074444Y0264703D01*
X0073750Y0266380D01*
X0072466Y0267663D01*
X0070789Y0268357D01*
X0068974Y0268357D01*
X0067298Y0267663D01*
X0066014Y0266380D01*
X0065320Y0264703D01*
X0065320Y0256951D01*
X0066014Y0255274D01*
X0067298Y0253991D01*
X0066652Y0254636D02*
X0059332Y0254636D01*
X0060031Y0255422D02*
X0065953Y0255422D01*
X0065628Y0256208D02*
X0060357Y0256208D01*
X0060665Y0256994D02*
X0065320Y0256994D01*
X0065320Y0257779D02*
X0060665Y0257779D01*
X0060665Y0258565D02*
X0065320Y0258565D01*
X0065320Y0259351D02*
X0060665Y0259351D01*
X0060665Y0260137D02*
X0065320Y0260137D01*
X0065320Y0260923D02*
X0060665Y0260923D01*
X0060665Y0261709D02*
X0065320Y0261709D01*
X0065320Y0262495D02*
X0060665Y0262495D01*
X0060665Y0263281D02*
X0065320Y0263281D01*
X0065320Y0264067D02*
X0060665Y0264067D01*
X0060602Y0264853D02*
X0065382Y0264853D01*
X0065707Y0265639D02*
X0060277Y0265639D01*
X0059925Y0266424D02*
X0066059Y0266424D01*
X0066845Y0267210D02*
X0059139Y0267210D01*
X0057882Y0267996D02*
X0068102Y0267996D01*
X0071661Y0267996D02*
X0081882Y0267996D01*
X0081077Y0267663D02*
X0079794Y0266380D01*
X0079099Y0264703D01*
X0079099Y0256951D01*
X0079794Y0255274D01*
X0081077Y0253991D01*
X0082754Y0253296D01*
X0084569Y0253296D01*
X0086246Y0253991D01*
X0087529Y0255274D01*
X0088224Y0256951D01*
X0088224Y0264703D01*
X0087529Y0266380D01*
X0086246Y0267663D01*
X0084569Y0268357D01*
X0082754Y0268357D01*
X0081077Y0267663D01*
X0080625Y0267210D02*
X0072919Y0267210D01*
X0073705Y0266424D02*
X0079839Y0266424D01*
X0079487Y0265639D02*
X0074056Y0265639D01*
X0074382Y0264853D02*
X0079161Y0264853D01*
X0079099Y0264067D02*
X0074444Y0264067D01*
X0074444Y0263281D02*
X0079099Y0263281D01*
X0079099Y0262495D02*
X0074444Y0262495D01*
X0074444Y0261709D02*
X0079099Y0261709D01*
X0079099Y0260923D02*
X0074444Y0260923D01*
X0074444Y0260137D02*
X0079099Y0260137D01*
X0079099Y0259351D02*
X0074444Y0259351D01*
X0074444Y0258565D02*
X0079099Y0258565D01*
X0079099Y0257779D02*
X0074444Y0257779D01*
X0074444Y0256994D02*
X0079099Y0256994D01*
X0079407Y0256208D02*
X0074136Y0256208D01*
X0073811Y0255422D02*
X0079733Y0255422D01*
X0080432Y0254636D02*
X0073111Y0254636D01*
X0072126Y0253850D02*
X0081417Y0253850D01*
X0085906Y0253850D02*
X0095196Y0253850D01*
X0094857Y0253991D02*
X0096533Y0253296D01*
X0098348Y0253296D01*
X0100025Y0253991D01*
X0101309Y0255274D01*
X0102003Y0256951D01*
X0102003Y0264703D01*
X0101309Y0266380D01*
X0100025Y0267663D01*
X0098348Y0268357D01*
X0096533Y0268357D01*
X0094857Y0267663D01*
X0093573Y0266380D01*
X0092879Y0264703D01*
X0092879Y0256951D01*
X0093573Y0255274D01*
X0094857Y0253991D01*
X0094211Y0254636D02*
X0086891Y0254636D01*
X0087590Y0255422D02*
X0093512Y0255422D01*
X0093187Y0256208D02*
X0087916Y0256208D01*
X0088224Y0256994D02*
X0092879Y0256994D01*
X0092879Y0257779D02*
X0088224Y0257779D01*
X0088224Y0258565D02*
X0092879Y0258565D01*
X0092879Y0259351D02*
X0088224Y0259351D01*
X0088224Y0260137D02*
X0092879Y0260137D01*
X0092879Y0260923D02*
X0088224Y0260923D01*
X0088224Y0261709D02*
X0092879Y0261709D01*
X0092879Y0262495D02*
X0088224Y0262495D01*
X0088224Y0263281D02*
X0092879Y0263281D01*
X0092879Y0264067D02*
X0088224Y0264067D01*
X0088162Y0264853D02*
X0092941Y0264853D01*
X0093266Y0265639D02*
X0087836Y0265639D01*
X0087484Y0266424D02*
X0093618Y0266424D01*
X0094404Y0267210D02*
X0086698Y0267210D01*
X0085441Y0267996D02*
X0095662Y0267996D01*
X0099220Y0267996D02*
X0109441Y0267996D01*
X0108636Y0267663D02*
X0107353Y0266380D01*
X0106658Y0264703D01*
X0106658Y0256951D01*
X0107353Y0255274D01*
X0108636Y0253991D01*
X0110313Y0253296D01*
X0112128Y0253296D01*
X0113805Y0253991D01*
X0115088Y0255274D01*
X0115783Y0256951D01*
X0115783Y0264703D01*
X0115088Y0266380D01*
X0113805Y0267663D01*
X0112128Y0268357D01*
X0110313Y0268357D01*
X0108636Y0267663D01*
X0108184Y0267210D02*
X0100478Y0267210D01*
X0101264Y0266424D02*
X0107398Y0266424D01*
X0107046Y0265639D02*
X0101616Y0265639D01*
X0101941Y0264853D02*
X0106720Y0264853D01*
X0106658Y0264067D02*
X0102003Y0264067D01*
X0102003Y0263281D02*
X0106658Y0263281D01*
X0106658Y0262495D02*
X0102003Y0262495D01*
X0102003Y0261709D02*
X0106658Y0261709D01*
X0106658Y0260923D02*
X0102003Y0260923D01*
X0102003Y0260137D02*
X0106658Y0260137D01*
X0106658Y0259351D02*
X0102003Y0259351D01*
X0102003Y0258565D02*
X0106658Y0258565D01*
X0106658Y0257779D02*
X0102003Y0257779D01*
X0102003Y0256994D02*
X0106658Y0256994D01*
X0106966Y0256208D02*
X0101695Y0256208D01*
X0101370Y0255422D02*
X0107292Y0255422D01*
X0107991Y0254636D02*
X0100670Y0254636D01*
X0099685Y0253850D02*
X0108976Y0253850D01*
X0113465Y0253850D02*
X0122755Y0253850D01*
X0121771Y0254636D02*
X0114450Y0254636D01*
X0115149Y0255422D02*
X0121071Y0255422D01*
X0120746Y0256208D02*
X0115475Y0256208D01*
X0115783Y0256994D02*
X0120438Y0256994D01*
X0120438Y0257779D02*
X0115783Y0257779D01*
X0115783Y0258565D02*
X0120438Y0258565D01*
X0120438Y0259351D02*
X0115783Y0259351D01*
X0115783Y0260137D02*
X0120438Y0260137D01*
X0120438Y0260923D02*
X0115783Y0260923D01*
X0115783Y0261709D02*
X0120438Y0261709D01*
X0120438Y0262495D02*
X0115783Y0262495D01*
X0115783Y0263281D02*
X0120438Y0263281D01*
X0120438Y0264067D02*
X0115783Y0264067D01*
X0115721Y0264853D02*
X0120500Y0264853D01*
X0120825Y0265639D02*
X0115395Y0265639D01*
X0115043Y0266424D02*
X0121177Y0266424D01*
X0121806Y0267210D02*
X0114257Y0267210D01*
X0113000Y0267996D02*
X0121806Y0267996D01*
X0121806Y0268782D02*
X0001906Y0268782D01*
X0002161Y0269568D02*
X0121882Y0269568D01*
X0122208Y0270354D02*
X0002416Y0270354D01*
X0002938Y0271140D02*
X0122873Y0271140D01*
X0123659Y0271926D02*
X0003509Y0271926D01*
X0004532Y0272712D02*
X0124445Y0272712D01*
X0125231Y0273498D02*
X0006233Y0273498D01*
X0001794Y0238132D02*
X0042433Y0238132D01*
X0041772Y0237346D02*
X0001794Y0237346D01*
X0001794Y0236560D02*
X0041772Y0236560D01*
X0041772Y0235774D02*
X0001794Y0235774D01*
X0001794Y0234988D02*
X0041772Y0234988D01*
X0041772Y0234202D02*
X0001794Y0234202D01*
X0001794Y0233416D02*
X0041772Y0233416D01*
X0041772Y0232630D02*
X0001794Y0232630D01*
X0001794Y0231844D02*
X0041772Y0231844D01*
X0041772Y0231058D02*
X0001794Y0231058D01*
X0001794Y0230272D02*
X0042533Y0230272D01*
X0043138Y0229487D02*
X0001794Y0229487D01*
X0001794Y0228701D02*
X0043138Y0228701D01*
X0043138Y0227915D02*
X0001794Y0227915D01*
X0001794Y0227129D02*
X0043138Y0227129D01*
X0043138Y0226343D02*
X0001794Y0226343D01*
X0001794Y0225557D02*
X0043138Y0225557D01*
X0043138Y0224771D02*
X0001794Y0224771D01*
X0001794Y0223985D02*
X0043138Y0223985D01*
X0043138Y0223199D02*
X0001794Y0223199D01*
X0001794Y0222413D02*
X0043138Y0222413D01*
X0043138Y0221627D02*
X0001794Y0221627D01*
X0001794Y0220842D02*
X0043138Y0220842D01*
X0043138Y0220056D02*
X0001794Y0220056D01*
X0001794Y0219270D02*
X0043138Y0219270D01*
X0043138Y0218484D02*
X0001794Y0218484D01*
X0001794Y0217698D02*
X0043138Y0217698D01*
X0043138Y0216912D02*
X0001794Y0216912D01*
X0001794Y0216126D02*
X0043138Y0216126D01*
X0043138Y0215340D02*
X0001794Y0215340D01*
X0001794Y0214554D02*
X0043138Y0214554D01*
X0043138Y0213768D02*
X0001794Y0213768D01*
X0001794Y0212982D02*
X0043138Y0212982D01*
X0043138Y0212196D02*
X0001794Y0212196D01*
X0001794Y0211411D02*
X0043138Y0211411D01*
X0043138Y0210625D02*
X0001794Y0210625D01*
X0001794Y0209839D02*
X0043138Y0209839D01*
X0041474Y0209053D02*
X0041026Y0209053D01*
X0035175Y0209053D02*
X0001794Y0209053D01*
X0001794Y0208267D02*
X0034389Y0208267D01*
X0034341Y0207481D02*
X0001794Y0207481D01*
X0001794Y0206695D02*
X0034341Y0206695D01*
X0047925Y0209053D02*
X0048925Y0209053D01*
X0048139Y0208267D02*
X0048111Y0208267D01*
X0047925Y0209839D02*
X0056858Y0209839D01*
X0056858Y0210625D02*
X0047925Y0210625D01*
X0047925Y0211411D02*
X0056858Y0211411D01*
X0056858Y0212196D02*
X0047925Y0212196D01*
X0047925Y0212982D02*
X0056858Y0212982D01*
X0056858Y0213768D02*
X0047925Y0213768D01*
X0047925Y0214554D02*
X0056858Y0214554D01*
X0056858Y0215340D02*
X0047925Y0215340D01*
X0047925Y0216126D02*
X0056858Y0216126D01*
X0056858Y0216912D02*
X0047925Y0216912D01*
X0047925Y0217698D02*
X0056858Y0217698D01*
X0056858Y0218484D02*
X0047925Y0218484D01*
X0047925Y0219270D02*
X0056858Y0219270D01*
X0056858Y0220056D02*
X0047925Y0220056D01*
X0047925Y0220842D02*
X0056858Y0220842D01*
X0056858Y0221627D02*
X0047925Y0221627D01*
X0047925Y0222413D02*
X0056858Y0222413D01*
X0056858Y0223199D02*
X0047925Y0223199D01*
X0047925Y0223985D02*
X0056858Y0223985D01*
X0056858Y0224771D02*
X0047925Y0224771D01*
X0047925Y0225557D02*
X0056858Y0225557D01*
X0056858Y0226343D02*
X0047925Y0226343D01*
X0047925Y0227129D02*
X0056858Y0227129D01*
X0056858Y0227915D02*
X0047925Y0227915D01*
X0047925Y0228701D02*
X0056858Y0228701D01*
X0056858Y0229487D02*
X0047925Y0229487D01*
X0048530Y0230272D02*
X0056253Y0230272D01*
X0055493Y0231058D02*
X0049291Y0231058D01*
X0049291Y0231844D02*
X0055493Y0231844D01*
X0055493Y0232630D02*
X0049291Y0232630D01*
X0049291Y0233416D02*
X0055493Y0233416D01*
X0055493Y0234202D02*
X0049291Y0234202D01*
X0049291Y0234988D02*
X0055493Y0234988D01*
X0055493Y0235774D02*
X0049291Y0235774D01*
X0049291Y0236560D02*
X0055493Y0236560D01*
X0055493Y0237346D02*
X0049291Y0237346D01*
X0048630Y0238132D02*
X0056153Y0238132D01*
X0062351Y0238132D02*
X0069874Y0238132D01*
X0069213Y0237346D02*
X0063011Y0237346D01*
X0063011Y0236560D02*
X0069213Y0236560D01*
X0069213Y0235774D02*
X0063011Y0235774D01*
X0063011Y0234988D02*
X0069213Y0234988D01*
X0069213Y0234202D02*
X0063011Y0234202D01*
X0063011Y0233416D02*
X0069213Y0233416D01*
X0069213Y0232630D02*
X0063011Y0232630D01*
X0063011Y0231844D02*
X0069213Y0231844D01*
X0069213Y0231058D02*
X0063011Y0231058D01*
X0062251Y0230272D02*
X0069974Y0230272D01*
X0070579Y0229487D02*
X0061646Y0229487D01*
X0061646Y0228701D02*
X0070579Y0228701D01*
X0070579Y0227915D02*
X0061646Y0227915D01*
X0061646Y0227129D02*
X0070579Y0227129D01*
X0070579Y0226343D02*
X0061646Y0226343D01*
X0061646Y0225557D02*
X0070579Y0225557D01*
X0070579Y0224771D02*
X0061646Y0224771D01*
X0061646Y0223985D02*
X0070579Y0223985D01*
X0070579Y0223199D02*
X0061646Y0223199D01*
X0061646Y0222413D02*
X0070579Y0222413D01*
X0070579Y0221627D02*
X0061646Y0221627D01*
X0061646Y0220842D02*
X0070579Y0220842D01*
X0070579Y0220056D02*
X0061646Y0220056D01*
X0061646Y0219270D02*
X0070579Y0219270D01*
X0070579Y0218484D02*
X0061646Y0218484D01*
X0061646Y0217698D02*
X0070579Y0217698D01*
X0070579Y0216912D02*
X0061646Y0216912D01*
X0061646Y0216126D02*
X0070579Y0216126D01*
X0070579Y0215340D02*
X0061646Y0215340D01*
X0061646Y0214554D02*
X0070579Y0214554D01*
X0070579Y0213768D02*
X0061646Y0213768D01*
X0061646Y0212982D02*
X0070579Y0212982D01*
X0070579Y0212196D02*
X0061646Y0212196D01*
X0061646Y0211411D02*
X0070579Y0211411D01*
X0070579Y0210625D02*
X0061646Y0210625D01*
X0061646Y0209839D02*
X0070579Y0209839D01*
X0068974Y0209053D02*
X0068526Y0209053D01*
X0062675Y0209053D02*
X0061646Y0209053D01*
X0061861Y0208267D02*
X0061889Y0208267D01*
X0055224Y0209053D02*
X0054776Y0209053D01*
X0075366Y0209053D02*
X0076425Y0209053D01*
X0075639Y0208267D02*
X0075611Y0208267D01*
X0075366Y0209839D02*
X0084417Y0209839D01*
X0084417Y0210625D02*
X0075366Y0210625D01*
X0075366Y0211411D02*
X0084417Y0211411D01*
X0084417Y0212196D02*
X0075366Y0212196D01*
X0075366Y0212982D02*
X0084417Y0212982D01*
X0084417Y0213768D02*
X0075366Y0213768D01*
X0075366Y0214554D02*
X0084417Y0214554D01*
X0084417Y0215340D02*
X0075366Y0215340D01*
X0075366Y0216126D02*
X0084417Y0216126D01*
X0084417Y0216912D02*
X0075366Y0216912D01*
X0075366Y0217698D02*
X0084417Y0217698D01*
X0084417Y0218484D02*
X0075366Y0218484D01*
X0075366Y0219270D02*
X0084417Y0219270D01*
X0084417Y0220056D02*
X0075366Y0220056D01*
X0075366Y0220842D02*
X0084417Y0220842D01*
X0084417Y0221627D02*
X0075366Y0221627D01*
X0075366Y0222413D02*
X0084417Y0222413D01*
X0084417Y0223199D02*
X0075366Y0223199D01*
X0075366Y0223985D02*
X0084417Y0223985D01*
X0084417Y0224771D02*
X0075366Y0224771D01*
X0075366Y0225557D02*
X0084417Y0225557D01*
X0084417Y0226343D02*
X0075366Y0226343D01*
X0075366Y0227129D02*
X0084417Y0227129D01*
X0084417Y0227915D02*
X0075366Y0227915D01*
X0075366Y0228701D02*
X0084417Y0228701D01*
X0084417Y0229487D02*
X0075366Y0229487D01*
X0075971Y0230272D02*
X0083812Y0230272D01*
X0083052Y0231058D02*
X0076731Y0231058D01*
X0076731Y0231844D02*
X0083052Y0231844D01*
X0083052Y0232630D02*
X0076731Y0232630D01*
X0076731Y0233416D02*
X0083052Y0233416D01*
X0083052Y0234202D02*
X0076731Y0234202D01*
X0076731Y0234988D02*
X0083052Y0234988D01*
X0083052Y0235774D02*
X0076731Y0235774D01*
X0076731Y0236560D02*
X0083052Y0236560D01*
X0083052Y0237346D02*
X0076731Y0237346D01*
X0076071Y0238132D02*
X0083712Y0238132D01*
X0089910Y0238132D02*
X0097492Y0238132D01*
X0096831Y0237346D02*
X0090570Y0237346D01*
X0090570Y0236560D02*
X0096831Y0236560D01*
X0096831Y0235774D02*
X0090570Y0235774D01*
X0090570Y0234988D02*
X0096831Y0234988D01*
X0096831Y0234202D02*
X0090570Y0234202D01*
X0090570Y0233416D02*
X0096831Y0233416D01*
X0096831Y0232630D02*
X0090570Y0232630D01*
X0090570Y0231844D02*
X0096831Y0231844D01*
X0096831Y0231058D02*
X0090570Y0231058D01*
X0089810Y0230272D02*
X0097592Y0230272D01*
X0098197Y0229487D02*
X0089205Y0229487D01*
X0089205Y0228701D02*
X0098197Y0228701D01*
X0098197Y0227915D02*
X0089205Y0227915D01*
X0089205Y0227129D02*
X0098197Y0227129D01*
X0098197Y0226343D02*
X0089205Y0226343D01*
X0089205Y0225557D02*
X0098197Y0225557D01*
X0098197Y0224771D02*
X0089205Y0224771D01*
X0089205Y0223985D02*
X0098197Y0223985D01*
X0098197Y0223199D02*
X0089205Y0223199D01*
X0089205Y0222413D02*
X0098197Y0222413D01*
X0098197Y0221627D02*
X0089205Y0221627D01*
X0089205Y0220842D02*
X0098197Y0220842D01*
X0098197Y0220056D02*
X0089205Y0220056D01*
X0089205Y0219270D02*
X0098197Y0219270D01*
X0098197Y0218484D02*
X0089205Y0218484D01*
X0089205Y0217698D02*
X0098197Y0217698D01*
X0098197Y0216912D02*
X0089205Y0216912D01*
X0089205Y0216126D02*
X0098197Y0216126D01*
X0098197Y0215340D02*
X0089205Y0215340D01*
X0089205Y0214554D02*
X0098197Y0214554D01*
X0098197Y0213768D02*
X0089205Y0213768D01*
X0089205Y0212982D02*
X0098197Y0212982D01*
X0098197Y0212196D02*
X0089205Y0212196D01*
X0089205Y0211411D02*
X0098197Y0211411D01*
X0098197Y0210625D02*
X0089205Y0210625D01*
X0089205Y0209839D02*
X0098197Y0209839D01*
X0096474Y0209053D02*
X0096026Y0209053D01*
X0090175Y0209053D02*
X0089205Y0209053D01*
X0089361Y0208267D02*
X0089389Y0208267D01*
X0082724Y0209053D02*
X0082276Y0209053D01*
X0093935Y0198050D02*
X0102165Y0198050D01*
X0102951Y0198836D02*
X0094721Y0198836D01*
X0095286Y0199622D02*
X0103737Y0199622D01*
X0104523Y0200408D02*
X0095494Y0200408D01*
X0093149Y0197264D02*
X0101379Y0197264D01*
X0100593Y0196478D02*
X0092363Y0196478D01*
X0091577Y0195692D02*
X0099807Y0195692D01*
X0099021Y0194906D02*
X0090792Y0194906D01*
X0090006Y0194120D02*
X0098235Y0194120D01*
X0097449Y0193335D02*
X0089220Y0193335D01*
X0088434Y0192549D02*
X0096663Y0192549D01*
X0102572Y0201194D02*
X0104928Y0201194D01*
X0104341Y0201980D02*
X0103159Y0201980D01*
X0103159Y0202766D02*
X0104341Y0202766D01*
X0104341Y0203551D02*
X0103159Y0203551D01*
X0103159Y0204337D02*
X0104341Y0204337D01*
X0104341Y0205123D02*
X0103159Y0205123D01*
X0103159Y0205909D02*
X0104341Y0205909D01*
X0104341Y0206695D02*
X0103159Y0206695D01*
X0103159Y0207481D02*
X0104341Y0207481D01*
X0104389Y0208267D02*
X0103111Y0208267D01*
X0102984Y0209053D02*
X0105175Y0209053D01*
X0102984Y0209839D02*
X0111976Y0209839D01*
X0111976Y0210625D02*
X0102984Y0210625D01*
X0102984Y0211411D02*
X0111976Y0211411D01*
X0111976Y0212196D02*
X0102984Y0212196D01*
X0102984Y0212982D02*
X0111976Y0212982D01*
X0111976Y0213768D02*
X0102984Y0213768D01*
X0102984Y0214554D02*
X0111976Y0214554D01*
X0111976Y0215340D02*
X0102984Y0215340D01*
X0102984Y0216126D02*
X0111976Y0216126D01*
X0111976Y0216912D02*
X0102984Y0216912D01*
X0102984Y0217698D02*
X0111976Y0217698D01*
X0111976Y0218484D02*
X0102984Y0218484D01*
X0102984Y0219270D02*
X0111976Y0219270D01*
X0111976Y0220056D02*
X0102984Y0220056D01*
X0102984Y0220842D02*
X0111976Y0220842D01*
X0111976Y0221627D02*
X0102984Y0221627D01*
X0102984Y0222413D02*
X0111976Y0222413D01*
X0111976Y0223199D02*
X0102984Y0223199D01*
X0102984Y0223985D02*
X0111976Y0223985D01*
X0111976Y0224771D02*
X0102984Y0224771D01*
X0102984Y0225557D02*
X0111976Y0225557D01*
X0111976Y0226343D02*
X0102984Y0226343D01*
X0102984Y0227129D02*
X0111976Y0227129D01*
X0111976Y0227915D02*
X0102984Y0227915D01*
X0102984Y0228701D02*
X0111976Y0228701D01*
X0111976Y0229487D02*
X0102984Y0229487D01*
X0103589Y0230272D02*
X0111371Y0230272D01*
X0110611Y0231058D02*
X0104350Y0231058D01*
X0104350Y0231844D02*
X0110611Y0231844D01*
X0110611Y0232630D02*
X0104350Y0232630D01*
X0104350Y0233416D02*
X0110611Y0233416D01*
X0110611Y0234202D02*
X0104350Y0234202D01*
X0104350Y0234988D02*
X0110611Y0234988D01*
X0110611Y0235774D02*
X0104350Y0235774D01*
X0104350Y0236560D02*
X0110611Y0236560D01*
X0110611Y0237346D02*
X0104350Y0237346D01*
X0103689Y0238132D02*
X0111271Y0238132D01*
X0125294Y0236343D02*
X0126157Y0237206D01*
X0131280Y0237206D01*
X0131280Y0231033D01*
X0132214Y0230099D01*
X0137865Y0230099D01*
X0138798Y0231033D01*
X0138798Y0231858D01*
X0141007Y0231858D01*
X0145106Y0227758D01*
X0145106Y0207903D01*
X0144025Y0207903D01*
X0143091Y0206969D01*
X0143091Y0200531D01*
X0144025Y0199597D01*
X0149676Y0199597D01*
X0150000Y0199921D01*
X0150324Y0199597D01*
X0150356Y0199597D01*
X0150356Y0199153D01*
X0150324Y0199153D01*
X0149391Y0198219D01*
X0149391Y0191781D01*
X0149450Y0191722D01*
X0149222Y0191722D01*
X0149044Y0191544D01*
X0146944Y0191544D01*
X0145917Y0191118D01*
X0145132Y0190332D01*
X0140781Y0185982D01*
X0140356Y0184955D01*
X0140356Y0170520D01*
X0139894Y0170982D01*
X0139894Y0182976D01*
X0139529Y0183856D01*
X0138856Y0184529D01*
X0137606Y0185779D01*
X0136726Y0186144D01*
X0136356Y0186144D01*
X0135778Y0186722D01*
X0128644Y0186722D01*
X0128644Y0191509D01*
X0129341Y0192206D01*
X0129341Y0191781D01*
X0130275Y0190847D01*
X0135926Y0190847D01*
X0136859Y0191781D01*
X0136859Y0198219D01*
X0135926Y0199153D01*
X0130275Y0199153D01*
X0129341Y0198219D01*
X0129341Y0197394D01*
X0128274Y0197394D01*
X0127394Y0197029D01*
X0126721Y0196356D01*
X0125294Y0194929D01*
X0125294Y0236343D01*
X0125511Y0236560D02*
X0131280Y0236560D01*
X0131280Y0235774D02*
X0125294Y0235774D01*
X0125294Y0234988D02*
X0131280Y0234988D01*
X0131280Y0234202D02*
X0125294Y0234202D01*
X0125294Y0233416D02*
X0131280Y0233416D01*
X0131280Y0232630D02*
X0125294Y0232630D01*
X0125294Y0231844D02*
X0131280Y0231844D01*
X0131280Y0231058D02*
X0125294Y0231058D01*
X0125294Y0230272D02*
X0132041Y0230272D01*
X0138038Y0230272D02*
X0142592Y0230272D01*
X0143378Y0229487D02*
X0125294Y0229487D01*
X0125294Y0228701D02*
X0144164Y0228701D01*
X0144950Y0227915D02*
X0125294Y0227915D01*
X0125294Y0227129D02*
X0145106Y0227129D01*
X0145106Y0226343D02*
X0125294Y0226343D01*
X0125294Y0225557D02*
X0145106Y0225557D01*
X0145106Y0224771D02*
X0125294Y0224771D01*
X0125294Y0223985D02*
X0145106Y0223985D01*
X0145106Y0223199D02*
X0125294Y0223199D01*
X0125294Y0222413D02*
X0145106Y0222413D01*
X0145106Y0221627D02*
X0125294Y0221627D01*
X0125294Y0220842D02*
X0145106Y0220842D01*
X0145106Y0220056D02*
X0125294Y0220056D01*
X0125294Y0219270D02*
X0145106Y0219270D01*
X0145106Y0218484D02*
X0125294Y0218484D01*
X0125294Y0217698D02*
X0145106Y0217698D01*
X0145106Y0216912D02*
X0125294Y0216912D01*
X0125294Y0216126D02*
X0145106Y0216126D01*
X0145106Y0215340D02*
X0125294Y0215340D01*
X0125294Y0214554D02*
X0145106Y0214554D01*
X0145106Y0213768D02*
X0125294Y0213768D01*
X0125294Y0212982D02*
X0145106Y0212982D01*
X0145106Y0212196D02*
X0125294Y0212196D01*
X0125294Y0211411D02*
X0145106Y0211411D01*
X0145106Y0210625D02*
X0125294Y0210625D01*
X0125294Y0209839D02*
X0145106Y0209839D01*
X0145106Y0209053D02*
X0125294Y0209053D01*
X0125294Y0208267D02*
X0145106Y0208267D01*
X0143603Y0207481D02*
X0125294Y0207481D01*
X0125294Y0206695D02*
X0143091Y0206695D01*
X0143091Y0205909D02*
X0125294Y0205909D01*
X0125294Y0205123D02*
X0143091Y0205123D01*
X0143091Y0204337D02*
X0125294Y0204337D01*
X0125294Y0203551D02*
X0143091Y0203551D01*
X0143091Y0202766D02*
X0125294Y0202766D01*
X0125294Y0201980D02*
X0143091Y0201980D01*
X0143091Y0201194D02*
X0125294Y0201194D01*
X0125294Y0200408D02*
X0143214Y0200408D01*
X0144000Y0199622D02*
X0125294Y0199622D01*
X0125294Y0198836D02*
X0129958Y0198836D01*
X0129341Y0198050D02*
X0125294Y0198050D01*
X0125294Y0197264D02*
X0127961Y0197264D01*
X0126843Y0196478D02*
X0125294Y0196478D01*
X0125294Y0195692D02*
X0126057Y0195692D01*
X0126721Y0196356D02*
X0126721Y0196356D01*
X0128898Y0191763D02*
X0129359Y0191763D01*
X0128644Y0190977D02*
X0130145Y0190977D01*
X0128644Y0190191D02*
X0144990Y0190191D01*
X0145776Y0190977D02*
X0136055Y0190977D01*
X0136841Y0191763D02*
X0149409Y0191763D01*
X0149391Y0192549D02*
X0136859Y0192549D01*
X0136859Y0193335D02*
X0149391Y0193335D01*
X0149391Y0194120D02*
X0136859Y0194120D01*
X0136859Y0194906D02*
X0149391Y0194906D01*
X0149391Y0195692D02*
X0136859Y0195692D01*
X0136859Y0196478D02*
X0149391Y0196478D01*
X0149391Y0197264D02*
X0136859Y0197264D01*
X0136859Y0198050D02*
X0149391Y0198050D01*
X0150007Y0198836D02*
X0136243Y0198836D01*
X0128644Y0189405D02*
X0144204Y0189405D01*
X0143418Y0188619D02*
X0128644Y0188619D01*
X0128644Y0187833D02*
X0142632Y0187833D01*
X0141846Y0187047D02*
X0128644Y0187047D01*
X0136239Y0186261D02*
X0141060Y0186261D01*
X0140571Y0185475D02*
X0137910Y0185475D01*
X0138696Y0184690D02*
X0140356Y0184690D01*
X0140356Y0183904D02*
X0139482Y0183904D01*
X0139835Y0183118D02*
X0140356Y0183118D01*
X0140356Y0182332D02*
X0139894Y0182332D01*
X0139894Y0181546D02*
X0140356Y0181546D01*
X0140356Y0180760D02*
X0139894Y0180760D01*
X0139894Y0179974D02*
X0140356Y0179974D01*
X0140356Y0179188D02*
X0139894Y0179188D01*
X0139894Y0178402D02*
X0140356Y0178402D01*
X0140356Y0177616D02*
X0139894Y0177616D01*
X0139894Y0176830D02*
X0140356Y0176830D01*
X0140356Y0176044D02*
X0139894Y0176044D01*
X0139894Y0175259D02*
X0140356Y0175259D01*
X0140356Y0174473D02*
X0139894Y0174473D01*
X0139894Y0173687D02*
X0140356Y0173687D01*
X0140356Y0172901D02*
X0139894Y0172901D01*
X0139894Y0172115D02*
X0140356Y0172115D01*
X0140356Y0171329D02*
X0139894Y0171329D01*
X0140333Y0170543D02*
X0140356Y0170543D01*
X0146658Y0163470D02*
X0152652Y0163470D01*
X0151866Y0164256D02*
X0151549Y0164256D01*
X0149921Y0159540D02*
X0146909Y0159540D01*
X0146909Y0158754D02*
X0149119Y0158754D01*
X0148333Y0157968D02*
X0146909Y0157968D01*
X0146909Y0160326D02*
X0234427Y0160326D01*
X0234427Y0159540D02*
X0185079Y0159540D01*
X0185881Y0158754D02*
X0234427Y0158754D01*
X0234427Y0157968D02*
X0186667Y0157968D01*
X0187205Y0157183D02*
X0234427Y0157183D01*
X0234427Y0156397D02*
X0187394Y0156397D01*
X0190586Y0162684D02*
X0146909Y0162684D01*
X0146909Y0161898D02*
X0234427Y0161898D01*
X0234427Y0161112D02*
X0146909Y0161112D01*
X0140356Y0155847D02*
X0140356Y0145045D01*
X0140781Y0144018D01*
X0143725Y0141074D01*
X0143725Y0140499D01*
X0144300Y0139112D01*
X0145362Y0138050D01*
X0146749Y0137475D01*
X0148251Y0137475D01*
X0149638Y0138050D01*
X0150700Y0139112D01*
X0151275Y0140499D01*
X0151275Y0142001D01*
X0150700Y0143388D01*
X0150294Y0143795D01*
X0150294Y0146343D01*
X0151433Y0147482D01*
X0154430Y0147482D01*
X0154430Y0147450D01*
X0155363Y0146517D01*
X0161802Y0146517D01*
X0162165Y0146880D01*
X0162962Y0146083D01*
X0167038Y0146083D01*
X0167500Y0146545D01*
X0167606Y0146439D01*
X0167606Y0142241D01*
X0162758Y0137394D01*
X0148274Y0137394D01*
X0147394Y0137029D01*
X0145390Y0135025D01*
X0144249Y0135025D01*
X0142862Y0134450D01*
X0141800Y0133388D01*
X0141225Y0132001D01*
X0141225Y0130499D01*
X0141800Y0129112D01*
X0142563Y0128349D01*
X0142394Y0128279D01*
X0141721Y0127606D01*
X0139894Y0125779D01*
X0139894Y0156065D01*
X0140000Y0156171D01*
X0140324Y0155847D01*
X0140356Y0155847D01*
X0140356Y0155611D02*
X0139894Y0155611D01*
X0139894Y0154825D02*
X0140356Y0154825D01*
X0140356Y0154039D02*
X0139894Y0154039D01*
X0139894Y0153253D02*
X0140356Y0153253D01*
X0140356Y0152467D02*
X0139894Y0152467D01*
X0139894Y0151681D02*
X0140356Y0151681D01*
X0140356Y0150895D02*
X0139894Y0150895D01*
X0139894Y0150109D02*
X0140356Y0150109D01*
X0140356Y0149323D02*
X0139894Y0149323D01*
X0139894Y0148538D02*
X0140356Y0148538D01*
X0140356Y0147752D02*
X0139894Y0147752D01*
X0139894Y0146966D02*
X0140356Y0146966D01*
X0140356Y0146180D02*
X0139894Y0146180D01*
X0139894Y0145394D02*
X0140356Y0145394D01*
X0140537Y0144608D02*
X0139894Y0144608D01*
X0139894Y0143822D02*
X0140977Y0143822D01*
X0141763Y0143036D02*
X0139894Y0143036D01*
X0139894Y0142250D02*
X0142549Y0142250D01*
X0143335Y0141464D02*
X0139894Y0141464D01*
X0139894Y0140678D02*
X0143725Y0140678D01*
X0143976Y0139892D02*
X0139894Y0139892D01*
X0139894Y0139107D02*
X0144305Y0139107D01*
X0145091Y0138321D02*
X0139894Y0138321D01*
X0139894Y0137535D02*
X0146605Y0137535D01*
X0147114Y0136749D02*
X0139894Y0136749D01*
X0139894Y0135963D02*
X0146328Y0135963D01*
X0145542Y0135177D02*
X0139894Y0135177D01*
X0139894Y0134391D02*
X0142803Y0134391D01*
X0142017Y0133605D02*
X0139894Y0133605D01*
X0139894Y0132819D02*
X0141564Y0132819D01*
X0141239Y0132033D02*
X0139894Y0132033D01*
X0139894Y0131247D02*
X0141225Y0131247D01*
X0141241Y0130462D02*
X0139894Y0130462D01*
X0139894Y0129676D02*
X0141566Y0129676D01*
X0142022Y0128890D02*
X0139894Y0128890D01*
X0139894Y0128104D02*
X0142219Y0128104D01*
X0141433Y0127318D02*
X0139894Y0127318D01*
X0139894Y0126532D02*
X0140647Y0126532D01*
X0146157Y0115956D02*
X0156891Y0115956D01*
X0156891Y0110531D01*
X0157019Y0110403D01*
X0151525Y0110403D01*
X0151031Y0109909D01*
X0150751Y0110025D01*
X0149249Y0110025D01*
X0148969Y0109909D01*
X0148475Y0110403D01*
X0142824Y0110403D01*
X0142500Y0110079D01*
X0142176Y0110403D01*
X0142144Y0110403D01*
X0142144Y0111943D01*
X0146157Y0115956D01*
X0145730Y0115529D02*
X0156891Y0115529D01*
X0156891Y0114743D02*
X0144944Y0114743D01*
X0144158Y0113957D02*
X0156891Y0113957D01*
X0156891Y0113171D02*
X0143372Y0113171D01*
X0142586Y0112386D02*
X0156891Y0112386D01*
X0156891Y0111600D02*
X0142144Y0111600D01*
X0142144Y0110814D02*
X0156891Y0110814D01*
X0151150Y0110028D02*
X0148850Y0110028D01*
X0148969Y0102591D02*
X0149249Y0102475D01*
X0150751Y0102475D01*
X0151031Y0102591D01*
X0151525Y0102097D01*
X0157019Y0102097D01*
X0156891Y0101969D01*
X0156891Y0095531D01*
X0157019Y0095403D01*
X0151525Y0095403D01*
X0151031Y0094909D01*
X0150751Y0095025D01*
X0149249Y0095025D01*
X0148969Y0094909D01*
X0148475Y0095403D01*
X0143217Y0095403D01*
X0143775Y0096749D01*
X0143775Y0098251D01*
X0143200Y0099638D01*
X0142794Y0100045D01*
X0142794Y0102128D01*
X0142824Y0102097D01*
X0148475Y0102097D01*
X0148969Y0102591D01*
X0148547Y0102169D02*
X0151453Y0102169D01*
X0156891Y0101383D02*
X0142794Y0101383D01*
X0142794Y0100597D02*
X0156891Y0100597D01*
X0156891Y0099811D02*
X0143027Y0099811D01*
X0143454Y0099025D02*
X0156891Y0099025D01*
X0156891Y0098239D02*
X0143775Y0098239D01*
X0143775Y0097453D02*
X0156891Y0097453D01*
X0156891Y0096667D02*
X0143741Y0096667D01*
X0143415Y0095881D02*
X0156891Y0095881D01*
X0151218Y0095095D02*
X0148782Y0095095D01*
X0148969Y0087591D02*
X0149249Y0087475D01*
X0150751Y0087475D01*
X0151031Y0087591D01*
X0151525Y0087097D01*
X0153269Y0087097D01*
X0153141Y0086969D01*
X0153141Y0080531D01*
X0153269Y0080403D01*
X0147775Y0080403D01*
X0146915Y0079543D01*
X0145751Y0080025D01*
X0144249Y0080025D01*
X0143934Y0079894D01*
X0143829Y0080000D01*
X0144153Y0080324D01*
X0144153Y0085975D01*
X0143219Y0086909D01*
X0142794Y0086909D01*
X0142794Y0087128D01*
X0142824Y0087097D01*
X0148475Y0087097D01*
X0148969Y0087591D01*
X0148614Y0087236D02*
X0151386Y0087236D01*
X0153141Y0086450D02*
X0143677Y0086450D01*
X0144153Y0085665D02*
X0153141Y0085665D01*
X0153141Y0084879D02*
X0144153Y0084879D01*
X0144153Y0084093D02*
X0153141Y0084093D01*
X0153141Y0083307D02*
X0144153Y0083307D01*
X0144153Y0082521D02*
X0153141Y0082521D01*
X0153141Y0081735D02*
X0144153Y0081735D01*
X0144153Y0080949D02*
X0153141Y0080949D01*
X0147535Y0080163D02*
X0143992Y0080163D01*
X0142820Y0073091D02*
X0139044Y0073091D01*
X0142241Y0069894D01*
X0167268Y0069894D01*
X0166800Y0070362D01*
X0166225Y0071749D01*
X0166225Y0073251D01*
X0166800Y0074638D01*
X0166891Y0074729D01*
X0166891Y0080719D01*
X0166950Y0080778D01*
X0164773Y0080778D01*
X0163839Y0081712D01*
X0163839Y0082954D01*
X0163279Y0082394D01*
X0162606Y0081721D01*
X0161726Y0081356D01*
X0160659Y0081356D01*
X0160659Y0080531D01*
X0160128Y0080000D01*
X0160659Y0079469D01*
X0160659Y0073031D01*
X0159725Y0072097D01*
X0154074Y0072097D01*
X0153750Y0072421D01*
X0153426Y0072097D01*
X0147775Y0072097D01*
X0146915Y0072957D01*
X0145751Y0072475D01*
X0144249Y0072475D01*
X0142862Y0073050D01*
X0142820Y0073091D01*
X0142822Y0073090D02*
X0139045Y0073090D01*
X0139831Y0072304D02*
X0147568Y0072304D01*
X0142189Y0069946D02*
X0167215Y0069946D01*
X0166646Y0070732D02*
X0141403Y0070732D01*
X0140617Y0071518D02*
X0166321Y0071518D01*
X0166225Y0072304D02*
X0159932Y0072304D01*
X0160659Y0073090D02*
X0166225Y0073090D01*
X0166484Y0073876D02*
X0160659Y0073876D01*
X0160659Y0074662D02*
X0166823Y0074662D01*
X0166891Y0075448D02*
X0160659Y0075448D01*
X0160659Y0076234D02*
X0166891Y0076234D01*
X0166891Y0077019D02*
X0160659Y0077019D01*
X0160659Y0077805D02*
X0166891Y0077805D01*
X0166891Y0078591D02*
X0160659Y0078591D01*
X0160659Y0079377D02*
X0166891Y0079377D01*
X0166891Y0080163D02*
X0160291Y0080163D01*
X0160659Y0080949D02*
X0164602Y0080949D01*
X0163839Y0081735D02*
X0162620Y0081735D01*
X0163406Y0082521D02*
X0163839Y0082521D01*
X0153867Y0072304D02*
X0153633Y0072304D01*
X0152587Y0051084D02*
X0152413Y0051084D01*
X0153087Y0050298D02*
X0160707Y0050298D01*
X0160980Y0049513D02*
X0153873Y0049513D01*
X0154659Y0048727D02*
X0161638Y0048727D01*
X0162424Y0047941D02*
X0155445Y0047941D01*
X0156230Y0047155D02*
X0163210Y0047155D01*
X0163996Y0046369D02*
X0157016Y0046369D01*
X0157349Y0045583D02*
X0164782Y0045583D01*
X0165568Y0044797D02*
X0159258Y0044797D01*
X0159497Y0044011D02*
X0165700Y0044011D01*
X0165700Y0043225D02*
X0159497Y0043225D01*
X0159497Y0042439D02*
X0165700Y0042439D01*
X0165700Y0041653D02*
X0159497Y0041653D01*
X0159497Y0040867D02*
X0165700Y0040867D01*
X0165700Y0040082D02*
X0159497Y0040082D01*
X0159497Y0039296D02*
X0165700Y0039296D01*
X0165700Y0038510D02*
X0159497Y0038510D01*
X0159102Y0037724D02*
X0166095Y0037724D01*
X0172822Y0037724D02*
X0179816Y0037724D01*
X0179420Y0038510D02*
X0173218Y0038510D01*
X0173218Y0039296D02*
X0179420Y0039296D01*
X0179420Y0040082D02*
X0173218Y0040082D01*
X0173218Y0040867D02*
X0179420Y0040867D01*
X0179420Y0041653D02*
X0173218Y0041653D01*
X0173218Y0042439D02*
X0179420Y0042439D01*
X0179420Y0043225D02*
X0173218Y0043225D01*
X0173218Y0044011D02*
X0179420Y0044011D01*
X0179318Y0044797D02*
X0172978Y0044797D01*
X0171099Y0045583D02*
X0178532Y0045583D01*
X0177746Y0046369D02*
X0170766Y0046369D01*
X0169980Y0047155D02*
X0176960Y0047155D01*
X0176174Y0047941D02*
X0169194Y0047941D01*
X0168409Y0048727D02*
X0175388Y0048727D01*
X0174730Y0049513D02*
X0167623Y0049513D01*
X0166837Y0050298D02*
X0174457Y0050298D01*
X0173788Y0051084D02*
X0172462Y0051084D01*
X0166337Y0051084D02*
X0166163Y0051084D01*
X0160038Y0051084D02*
X0158712Y0051084D01*
X0151818Y0044797D02*
X0145537Y0044797D01*
X0145777Y0044011D02*
X0151979Y0044011D01*
X0151979Y0043225D02*
X0145777Y0043225D01*
X0145777Y0042439D02*
X0151979Y0042439D01*
X0151979Y0041653D02*
X0145777Y0041653D01*
X0145777Y0040867D02*
X0151979Y0040867D01*
X0151979Y0040082D02*
X0145777Y0040082D01*
X0145777Y0039296D02*
X0151979Y0039296D01*
X0151979Y0038510D02*
X0145777Y0038510D01*
X0145381Y0037724D02*
X0152375Y0037724D01*
X0151032Y0045583D02*
X0143599Y0045583D01*
X0143266Y0046369D02*
X0150246Y0046369D01*
X0149460Y0047155D02*
X0142480Y0047155D01*
X0141695Y0047941D02*
X0148674Y0047941D01*
X0147888Y0048727D02*
X0140909Y0048727D01*
X0140123Y0049513D02*
X0147230Y0049513D01*
X0146957Y0050298D02*
X0139337Y0050298D01*
X0139290Y0051084D02*
X0138742Y0051084D01*
X0134924Y0047941D02*
X0127945Y0047941D01*
X0128730Y0047155D02*
X0135710Y0047155D01*
X0136496Y0046369D02*
X0129516Y0046369D01*
X0129849Y0045583D02*
X0137282Y0045583D01*
X0138068Y0044797D02*
X0131817Y0044797D01*
X0132056Y0044011D02*
X0138259Y0044011D01*
X0138259Y0043225D02*
X0132056Y0043225D01*
X0132056Y0042439D02*
X0138259Y0042439D01*
X0138259Y0041653D02*
X0132056Y0041653D01*
X0132056Y0040867D02*
X0138259Y0040867D01*
X0138259Y0040082D02*
X0132056Y0040082D01*
X0132056Y0039296D02*
X0138259Y0039296D01*
X0138259Y0038510D02*
X0132056Y0038510D01*
X0131661Y0037724D02*
X0138654Y0037724D01*
X0134138Y0048727D02*
X0127159Y0048727D01*
X0126373Y0049513D02*
X0133636Y0049513D01*
X0133472Y0050298D02*
X0125587Y0050298D01*
X0125540Y0051084D02*
X0124992Y0051084D01*
X0121174Y0047941D02*
X0117991Y0047941D01*
X0117991Y0048727D02*
X0120388Y0048727D01*
X0119886Y0049513D02*
X0117991Y0049513D01*
X0117448Y0050298D02*
X0119722Y0050298D01*
X0119241Y0051084D02*
X0117462Y0051084D01*
X0118159Y0051870D02*
X0118455Y0051870D01*
X0118357Y0052656D02*
X0118159Y0052656D01*
X0118159Y0053442D02*
X0118357Y0053442D01*
X0118357Y0054228D02*
X0118159Y0054228D01*
X0118159Y0055014D02*
X0118357Y0055014D01*
X0118357Y0055800D02*
X0118159Y0055800D01*
X0118159Y0056586D02*
X0118357Y0056586D01*
X0118357Y0057372D02*
X0118159Y0057372D01*
X0118159Y0058158D02*
X0118357Y0058158D01*
X0118894Y0058943D02*
X0117434Y0058943D01*
X0111365Y0058943D02*
X0111294Y0058943D01*
X0111294Y0059729D02*
X0126369Y0059729D01*
X0127130Y0060515D02*
X0111294Y0060515D01*
X0111294Y0061301D02*
X0127916Y0061301D01*
X0128784Y0062087D02*
X0111294Y0062087D01*
X0111294Y0062873D02*
X0133238Y0062873D01*
X0134024Y0063659D02*
X0111294Y0063659D01*
X0111294Y0064445D02*
X0132717Y0064445D01*
X0131931Y0065231D02*
X0111294Y0065231D01*
X0111294Y0066017D02*
X0131529Y0066017D01*
X0131225Y0066803D02*
X0111294Y0066803D01*
X0111294Y0067589D02*
X0131225Y0067589D01*
X0130740Y0068374D02*
X0111294Y0068374D01*
X0111294Y0069160D02*
X0130257Y0069160D01*
X0130106Y0069946D02*
X0111294Y0069946D01*
X0111294Y0070732D02*
X0130106Y0070732D01*
X0130106Y0071518D02*
X0111197Y0071518D01*
X0110872Y0072304D02*
X0130106Y0072304D01*
X0130106Y0073090D02*
X0110177Y0073090D01*
X0109391Y0073876D02*
X0130106Y0073876D01*
X0130106Y0074662D02*
X0108605Y0074662D01*
X0107819Y0075448D02*
X0130106Y0075448D01*
X0130106Y0076234D02*
X0107033Y0076234D01*
X0106247Y0077019D02*
X0130106Y0077019D01*
X0130106Y0077805D02*
X0105694Y0077805D01*
X0105694Y0078591D02*
X0130106Y0078591D01*
X0130106Y0079377D02*
X0112576Y0079377D01*
X0112972Y0080163D02*
X0130106Y0080163D01*
X0130106Y0080949D02*
X0112972Y0080949D01*
X0112972Y0086450D02*
X0124315Y0086450D01*
X0125101Y0087236D02*
X0112972Y0087236D01*
X0112932Y0088022D02*
X0121678Y0088022D01*
X0125822Y0088022D02*
X0125887Y0088022D01*
X0126647Y0088808D02*
X0126673Y0088808D01*
X0127150Y0089594D02*
X0127459Y0089594D01*
X0127475Y0090380D02*
X0127606Y0090380D01*
X0127606Y0091166D02*
X0127525Y0091166D01*
X0127525Y0091952D02*
X0127606Y0091952D01*
X0127606Y0092738D02*
X0127220Y0092738D01*
X0127606Y0093524D02*
X0126815Y0093524D01*
X0126029Y0094310D02*
X0127606Y0094310D01*
X0127606Y0095095D02*
X0001794Y0095095D01*
X0001794Y0094310D02*
X0121471Y0094310D01*
X0126624Y0098239D02*
X0127606Y0098239D01*
X0127606Y0097453D02*
X0001794Y0097453D01*
X0001794Y0096667D02*
X0127606Y0096667D01*
X0127606Y0095881D02*
X0001794Y0095881D01*
X0001794Y0098239D02*
X0104626Y0098239D01*
X0103840Y0099025D02*
X0001794Y0099025D01*
X0001794Y0099811D02*
X0103054Y0099811D01*
X0102680Y0100597D02*
X0001794Y0100597D01*
X0001794Y0115529D02*
X0004836Y0115529D01*
X0004050Y0116315D02*
X0001794Y0116315D01*
X0001794Y0117101D02*
X0003264Y0117101D01*
X0002478Y0117887D02*
X0001794Y0117887D01*
X0020232Y0131144D02*
X0020700Y0131612D01*
X0021275Y0132999D01*
X0021275Y0134501D01*
X0020700Y0135888D01*
X0019713Y0136875D01*
X0020700Y0137862D01*
X0021275Y0139249D01*
X0021275Y0140751D01*
X0020700Y0142138D01*
X0019638Y0143200D01*
X0018251Y0143775D01*
X0017394Y0143775D01*
X0017394Y0184008D01*
X0020991Y0187606D01*
X0030847Y0187606D01*
X0030847Y0182824D01*
X0031171Y0182500D01*
X0030847Y0182176D01*
X0030847Y0176525D01*
X0031341Y0176031D01*
X0031225Y0175751D01*
X0031225Y0174249D01*
X0031341Y0173969D01*
X0030847Y0173475D01*
X0030847Y0167981D01*
X0030719Y0168109D01*
X0024281Y0168109D01*
X0023347Y0167176D01*
X0023347Y0161525D01*
X0024281Y0160591D01*
X0028278Y0160591D01*
X0028278Y0153267D01*
X0028856Y0152689D01*
X0028856Y0139811D01*
X0028750Y0139705D01*
X0028288Y0140167D01*
X0024212Y0140167D01*
X0023278Y0139233D01*
X0023278Y0131664D01*
X0022758Y0131144D01*
X0020232Y0131144D01*
X0020336Y0131247D02*
X0022862Y0131247D01*
X0023278Y0132033D02*
X0020875Y0132033D01*
X0021200Y0132819D02*
X0023278Y0132819D01*
X0023278Y0133605D02*
X0021275Y0133605D01*
X0021275Y0134391D02*
X0023278Y0134391D01*
X0023278Y0135177D02*
X0020995Y0135177D01*
X0020625Y0135963D02*
X0023278Y0135963D01*
X0023278Y0136749D02*
X0019840Y0136749D01*
X0020373Y0137535D02*
X0023278Y0137535D01*
X0023278Y0138321D02*
X0020890Y0138321D01*
X0021216Y0139107D02*
X0023278Y0139107D01*
X0023938Y0139892D02*
X0021275Y0139892D01*
X0021275Y0140678D02*
X0028856Y0140678D01*
X0028856Y0139892D02*
X0028562Y0139892D01*
X0028856Y0141464D02*
X0020979Y0141464D01*
X0020588Y0142250D02*
X0028856Y0142250D01*
X0028856Y0143036D02*
X0019802Y0143036D01*
X0017394Y0143822D02*
X0028856Y0143822D01*
X0028856Y0144608D02*
X0017394Y0144608D01*
X0017394Y0145394D02*
X0028856Y0145394D01*
X0028856Y0146180D02*
X0017394Y0146180D01*
X0017394Y0146966D02*
X0028856Y0146966D01*
X0028856Y0147752D02*
X0017394Y0147752D01*
X0017394Y0148538D02*
X0028856Y0148538D01*
X0028856Y0149323D02*
X0017394Y0149323D01*
X0017394Y0150109D02*
X0028856Y0150109D01*
X0028856Y0150895D02*
X0017394Y0150895D01*
X0017394Y0151681D02*
X0028856Y0151681D01*
X0028856Y0152467D02*
X0017394Y0152467D01*
X0017394Y0153253D02*
X0028292Y0153253D01*
X0028278Y0154039D02*
X0017394Y0154039D01*
X0017394Y0154825D02*
X0028278Y0154825D01*
X0028278Y0155611D02*
X0017394Y0155611D01*
X0017394Y0156397D02*
X0028278Y0156397D01*
X0028278Y0157183D02*
X0017394Y0157183D01*
X0017394Y0157968D02*
X0028278Y0157968D01*
X0028278Y0158754D02*
X0017394Y0158754D01*
X0017394Y0159540D02*
X0028278Y0159540D01*
X0028278Y0160326D02*
X0017394Y0160326D01*
X0017394Y0161112D02*
X0023760Y0161112D01*
X0023347Y0161898D02*
X0017394Y0161898D01*
X0017394Y0162684D02*
X0023347Y0162684D01*
X0023347Y0163470D02*
X0017394Y0163470D01*
X0017394Y0164256D02*
X0023347Y0164256D01*
X0023347Y0165042D02*
X0017394Y0165042D01*
X0017394Y0165828D02*
X0023347Y0165828D01*
X0023347Y0166614D02*
X0017394Y0166614D01*
X0017394Y0167399D02*
X0023571Y0167399D01*
X0017394Y0168185D02*
X0030847Y0168185D01*
X0030847Y0168971D02*
X0017394Y0168971D01*
X0017394Y0169757D02*
X0030847Y0169757D01*
X0030847Y0170543D02*
X0017394Y0170543D01*
X0017394Y0171329D02*
X0030847Y0171329D01*
X0030847Y0172115D02*
X0017394Y0172115D01*
X0017394Y0172901D02*
X0030847Y0172901D01*
X0031059Y0173687D02*
X0017394Y0173687D01*
X0017394Y0174473D02*
X0031225Y0174473D01*
X0031225Y0175259D02*
X0017394Y0175259D01*
X0017394Y0176044D02*
X0031328Y0176044D01*
X0030847Y0176830D02*
X0017394Y0176830D01*
X0017394Y0177616D02*
X0030847Y0177616D01*
X0030847Y0178402D02*
X0017394Y0178402D01*
X0017394Y0179188D02*
X0030847Y0179188D01*
X0030847Y0179974D02*
X0017394Y0179974D01*
X0017394Y0180760D02*
X0030847Y0180760D01*
X0030847Y0181546D02*
X0017394Y0181546D01*
X0017394Y0182332D02*
X0031003Y0182332D01*
X0030847Y0183118D02*
X0017394Y0183118D01*
X0017394Y0183904D02*
X0030847Y0183904D01*
X0030847Y0184690D02*
X0018075Y0184690D01*
X0018861Y0185475D02*
X0030847Y0185475D01*
X0030847Y0186261D02*
X0019647Y0186261D01*
X0020432Y0187047D02*
X0030847Y0187047D01*
X0038829Y0182500D02*
X0039153Y0182824D01*
X0039153Y0182856D01*
X0045847Y0182856D01*
X0045847Y0182824D01*
X0046171Y0182500D01*
X0045847Y0182176D01*
X0045847Y0176525D01*
X0046341Y0176031D01*
X0046225Y0175751D01*
X0046225Y0174249D01*
X0046341Y0173969D01*
X0045847Y0173475D01*
X0045847Y0167981D01*
X0045719Y0168109D01*
X0039281Y0168109D01*
X0039153Y0167981D01*
X0039153Y0173475D01*
X0038659Y0173969D01*
X0038775Y0174249D01*
X0038775Y0175751D01*
X0038659Y0176031D01*
X0039153Y0176525D01*
X0039153Y0182176D01*
X0038829Y0182500D01*
X0038997Y0182332D02*
X0046003Y0182332D01*
X0045847Y0181546D02*
X0039153Y0181546D01*
X0039153Y0180760D02*
X0045847Y0180760D01*
X0045847Y0179974D02*
X0039153Y0179974D01*
X0039153Y0179188D02*
X0045847Y0179188D01*
X0045847Y0178402D02*
X0039153Y0178402D01*
X0039153Y0177616D02*
X0045847Y0177616D01*
X0045847Y0176830D02*
X0039153Y0176830D01*
X0038672Y0176044D02*
X0046328Y0176044D01*
X0046225Y0175259D02*
X0038775Y0175259D01*
X0038775Y0174473D02*
X0046225Y0174473D01*
X0046059Y0173687D02*
X0038941Y0173687D01*
X0039153Y0172901D02*
X0045847Y0172901D01*
X0045847Y0172115D02*
X0039153Y0172115D01*
X0039153Y0171329D02*
X0045847Y0171329D01*
X0045847Y0170543D02*
X0039153Y0170543D01*
X0039153Y0169757D02*
X0045847Y0169757D01*
X0045847Y0168971D02*
X0039153Y0168971D01*
X0039153Y0168185D02*
X0045847Y0168185D01*
X0054153Y0168185D02*
X0060847Y0168185D01*
X0060719Y0168109D02*
X0054281Y0168109D01*
X0054153Y0167981D01*
X0054153Y0173475D01*
X0053659Y0173969D01*
X0053775Y0174249D01*
X0053775Y0175751D01*
X0053659Y0176031D01*
X0054153Y0176525D01*
X0054153Y0182176D01*
X0053829Y0182500D01*
X0054153Y0182824D01*
X0054153Y0182856D01*
X0060847Y0182856D01*
X0060847Y0182824D01*
X0061171Y0182500D01*
X0060847Y0182176D01*
X0060847Y0176525D01*
X0061341Y0176031D01*
X0061225Y0175751D01*
X0061225Y0174249D01*
X0061341Y0173969D01*
X0060847Y0173475D01*
X0060847Y0167981D01*
X0060719Y0168109D01*
X0060847Y0168971D02*
X0054153Y0168971D01*
X0054153Y0169757D02*
X0060847Y0169757D01*
X0060847Y0170543D02*
X0054153Y0170543D01*
X0054153Y0171329D02*
X0060847Y0171329D01*
X0060847Y0172115D02*
X0054153Y0172115D01*
X0054153Y0172901D02*
X0060847Y0172901D01*
X0061059Y0173687D02*
X0053941Y0173687D01*
X0053775Y0174473D02*
X0061225Y0174473D01*
X0061225Y0175259D02*
X0053775Y0175259D01*
X0053672Y0176044D02*
X0061328Y0176044D01*
X0060847Y0176830D02*
X0054153Y0176830D01*
X0054153Y0177616D02*
X0060847Y0177616D01*
X0060847Y0178402D02*
X0054153Y0178402D01*
X0054153Y0179188D02*
X0060847Y0179188D01*
X0060847Y0179974D02*
X0054153Y0179974D01*
X0054153Y0180760D02*
X0060847Y0180760D01*
X0060847Y0181546D02*
X0054153Y0181546D01*
X0053997Y0182332D02*
X0061003Y0182332D01*
X0054078Y0152467D02*
X0053644Y0152467D01*
X0059222Y0135963D02*
X0060159Y0135963D01*
X0059222Y0135177D02*
X0068762Y0135177D01*
X0082337Y0101383D02*
X0082663Y0101383D01*
X0087337Y0101383D02*
X0087663Y0101383D01*
X0092337Y0101383D02*
X0092663Y0101383D01*
X0097337Y0101383D02*
X0097663Y0101383D01*
X0102337Y0101383D02*
X0102606Y0101383D01*
X0127410Y0099025D02*
X0127606Y0099025D01*
X0129514Y0084879D02*
X0130106Y0084879D01*
X0130106Y0084093D02*
X0128728Y0084093D01*
X0127942Y0083307D02*
X0130106Y0083307D01*
X0130106Y0082521D02*
X0127156Y0082521D01*
X0126209Y0081735D02*
X0130106Y0081735D01*
X0132077Y0051870D02*
X0132205Y0051870D01*
X0132991Y0051084D02*
X0131291Y0051084D01*
X0124318Y0044797D02*
X0117991Y0044797D01*
X0117991Y0045583D02*
X0123532Y0045583D01*
X0122746Y0046369D02*
X0117991Y0046369D01*
X0117991Y0047155D02*
X0121960Y0047155D01*
X0124538Y0044011D02*
X0117899Y0044011D01*
X0117991Y0043225D02*
X0124538Y0043225D01*
X0124538Y0042439D02*
X0117991Y0042439D01*
X0117991Y0041653D02*
X0124538Y0041653D01*
X0124538Y0040867D02*
X0117991Y0040867D01*
X0117991Y0040082D02*
X0124538Y0040082D01*
X0124538Y0039296D02*
X0117991Y0039296D01*
X0117991Y0038510D02*
X0124538Y0038510D01*
X0124934Y0037724D02*
X0117911Y0037724D01*
X0117125Y0036938D02*
X0234427Y0036938D01*
X0234427Y0037724D02*
X0200263Y0037724D01*
X0200659Y0038510D02*
X0234427Y0038510D01*
X0234427Y0039296D02*
X0200659Y0039296D01*
X0200659Y0040082D02*
X0234427Y0040082D01*
X0234427Y0040867D02*
X0200659Y0040867D01*
X0200659Y0041653D02*
X0234427Y0041653D01*
X0234427Y0042439D02*
X0200659Y0042439D01*
X0200659Y0043225D02*
X0234427Y0043225D01*
X0234427Y0044011D02*
X0200659Y0044011D01*
X0200419Y0044797D02*
X0234427Y0044797D01*
X0234427Y0045583D02*
X0199293Y0045583D01*
X0199293Y0046369D02*
X0234427Y0046369D01*
X0234427Y0047155D02*
X0199293Y0047155D01*
X0199293Y0047941D02*
X0234427Y0047941D01*
X0234427Y0048727D02*
X0199293Y0048727D01*
X0199293Y0049513D02*
X0234427Y0049513D01*
X0234427Y0050298D02*
X0199293Y0050298D01*
X0199962Y0051084D02*
X0234427Y0051084D01*
X0234427Y0051870D02*
X0200659Y0051870D01*
X0200659Y0052656D02*
X0234427Y0052656D01*
X0234427Y0053442D02*
X0200659Y0053442D01*
X0200659Y0054228D02*
X0234427Y0054228D01*
X0234427Y0055014D02*
X0200659Y0055014D01*
X0200659Y0055800D02*
X0234427Y0055800D01*
X0234427Y0056586D02*
X0200659Y0056586D01*
X0200659Y0057372D02*
X0234427Y0057372D01*
X0234427Y0058158D02*
X0200659Y0058158D01*
X0199934Y0058943D02*
X0234427Y0058943D01*
X0234427Y0059729D02*
X0194365Y0059729D01*
X0193865Y0058943D02*
X0193644Y0058943D01*
X0198900Y0060515D02*
X0234427Y0060515D01*
X0234427Y0061301D02*
X0207184Y0061301D01*
X0208675Y0062087D02*
X0234427Y0062087D01*
X0234427Y0062873D02*
X0224870Y0062873D01*
X0225794Y0063659D02*
X0234427Y0063659D01*
X0234427Y0064445D02*
X0226580Y0064445D01*
X0227366Y0065231D02*
X0234427Y0065231D01*
X0234427Y0066017D02*
X0228152Y0066017D01*
X0228938Y0066803D02*
X0234427Y0066803D01*
X0234427Y0067589D02*
X0229724Y0067589D01*
X0230510Y0068374D02*
X0234427Y0068374D01*
X0234427Y0069160D02*
X0231296Y0069160D01*
X0232051Y0069946D02*
X0234427Y0069946D01*
X0234427Y0070732D02*
X0232376Y0070732D01*
X0232394Y0071518D02*
X0234427Y0071518D01*
X0234427Y0072304D02*
X0232394Y0072304D01*
X0232394Y0073090D02*
X0234427Y0073090D01*
X0234427Y0073876D02*
X0232394Y0073876D01*
X0232394Y0074662D02*
X0234427Y0074662D01*
X0234427Y0075448D02*
X0232394Y0075448D01*
X0232394Y0076234D02*
X0234427Y0076234D01*
X0234427Y0077019D02*
X0232394Y0077019D01*
X0232394Y0077805D02*
X0234427Y0077805D01*
X0234427Y0078591D02*
X0232394Y0078591D01*
X0232394Y0079377D02*
X0234427Y0079377D01*
X0234427Y0080163D02*
X0232394Y0080163D01*
X0232394Y0080949D02*
X0234427Y0080949D01*
X0234427Y0081735D02*
X0232394Y0081735D01*
X0232394Y0082521D02*
X0234427Y0082521D01*
X0234427Y0083307D02*
X0232394Y0083307D01*
X0232394Y0084093D02*
X0234427Y0084093D01*
X0234427Y0084879D02*
X0232394Y0084879D01*
X0232394Y0085665D02*
X0234427Y0085665D01*
X0234427Y0086450D02*
X0232394Y0086450D01*
X0232394Y0087236D02*
X0234427Y0087236D01*
X0234427Y0088022D02*
X0232394Y0088022D01*
X0232394Y0088808D02*
X0234427Y0088808D01*
X0234427Y0089594D02*
X0232394Y0089594D01*
X0232394Y0090380D02*
X0234427Y0090380D01*
X0234427Y0091166D02*
X0232394Y0091166D01*
X0232394Y0091952D02*
X0234427Y0091952D01*
X0234427Y0092738D02*
X0232394Y0092738D01*
X0232394Y0093524D02*
X0234427Y0093524D01*
X0234427Y0094310D02*
X0232394Y0094310D01*
X0232394Y0095095D02*
X0234427Y0095095D01*
X0234427Y0095881D02*
X0232394Y0095881D01*
X0232394Y0096667D02*
X0234427Y0096667D01*
X0234427Y0097453D02*
X0232394Y0097453D01*
X0232394Y0098239D02*
X0234427Y0098239D01*
X0234427Y0099025D02*
X0232394Y0099025D01*
X0232394Y0099811D02*
X0234427Y0099811D01*
X0234427Y0100597D02*
X0232394Y0100597D01*
X0232394Y0101383D02*
X0234427Y0101383D01*
X0234427Y0102169D02*
X0232394Y0102169D01*
X0232394Y0102955D02*
X0234427Y0102955D01*
X0234427Y0103741D02*
X0232394Y0103741D01*
X0232394Y0104526D02*
X0234427Y0104526D01*
X0234427Y0105312D02*
X0232394Y0105312D01*
X0232394Y0106098D02*
X0234427Y0106098D01*
X0234427Y0106884D02*
X0232394Y0106884D01*
X0232394Y0107670D02*
X0234427Y0107670D01*
X0234427Y0108456D02*
X0232394Y0108456D01*
X0232394Y0109242D02*
X0234427Y0109242D01*
X0234427Y0110028D02*
X0232394Y0110028D01*
X0232394Y0110814D02*
X0234427Y0110814D01*
X0234427Y0111600D02*
X0232394Y0111600D01*
X0232394Y0112386D02*
X0234427Y0112386D01*
X0234427Y0113171D02*
X0232394Y0113171D01*
X0232394Y0113957D02*
X0234427Y0113957D01*
X0234427Y0114743D02*
X0232394Y0114743D01*
X0232394Y0115529D02*
X0234427Y0115529D01*
X0234427Y0116315D02*
X0232394Y0116315D01*
X0232394Y0117101D02*
X0234427Y0117101D01*
X0234427Y0117887D02*
X0232394Y0117887D01*
X0232105Y0118673D02*
X0234427Y0118673D01*
X0234427Y0119459D02*
X0231426Y0119459D01*
X0230641Y0120245D02*
X0234427Y0120245D01*
X0234427Y0121031D02*
X0229855Y0121031D01*
X0229069Y0121816D02*
X0234427Y0121816D01*
X0234427Y0122602D02*
X0228283Y0122602D01*
X0227497Y0123388D02*
X0234427Y0123388D01*
X0234427Y0124174D02*
X0226711Y0124174D01*
X0225925Y0124960D02*
X0234427Y0124960D01*
X0234427Y0125746D02*
X0225139Y0125746D01*
X0224353Y0126532D02*
X0234427Y0126532D01*
X0234427Y0127318D02*
X0223567Y0127318D01*
X0222781Y0128104D02*
X0234427Y0128104D01*
X0234427Y0128890D02*
X0221995Y0128890D01*
X0221210Y0129676D02*
X0234427Y0129676D01*
X0234427Y0130462D02*
X0220424Y0130462D01*
X0219638Y0131247D02*
X0234427Y0131247D01*
X0234427Y0132033D02*
X0218852Y0132033D01*
X0218066Y0132819D02*
X0234427Y0132819D01*
X0234427Y0133605D02*
X0217280Y0133605D01*
X0216494Y0134391D02*
X0234427Y0134391D01*
X0234427Y0135177D02*
X0215708Y0135177D01*
X0214922Y0135963D02*
X0234427Y0135963D01*
X0234427Y0136749D02*
X0214136Y0136749D01*
X0213350Y0137535D02*
X0234427Y0137535D01*
X0234427Y0138321D02*
X0212565Y0138321D01*
X0211779Y0139107D02*
X0234427Y0139107D01*
X0234427Y0139892D02*
X0210479Y0139892D01*
X0209008Y0135106D02*
X0217971Y0126144D01*
X0192972Y0126144D01*
X0192972Y0132983D01*
X0192394Y0133561D01*
X0192394Y0135476D01*
X0192029Y0136356D01*
X0191356Y0137029D01*
X0185779Y0142606D01*
X0189226Y0142606D01*
X0190106Y0142971D01*
X0190779Y0143644D01*
X0190779Y0143644D01*
X0191356Y0144221D01*
X0192029Y0144894D01*
X0192394Y0145774D01*
X0192394Y0146439D01*
X0192500Y0146545D01*
X0192606Y0146439D01*
X0192606Y0144524D01*
X0192971Y0143644D01*
X0200471Y0136144D01*
X0201144Y0135471D01*
X0202024Y0135106D01*
X0209008Y0135106D01*
X0209724Y0134391D02*
X0192394Y0134391D01*
X0192394Y0133605D02*
X0210510Y0133605D01*
X0211296Y0132819D02*
X0192972Y0132819D01*
X0192972Y0132033D02*
X0212081Y0132033D01*
X0212867Y0131247D02*
X0192972Y0131247D01*
X0192972Y0130462D02*
X0213653Y0130462D01*
X0214439Y0129676D02*
X0192972Y0129676D01*
X0192972Y0128890D02*
X0215225Y0128890D01*
X0216011Y0128104D02*
X0192972Y0128104D01*
X0192972Y0127318D02*
X0216797Y0127318D01*
X0217583Y0126532D02*
X0192972Y0126532D01*
X0192394Y0135177D02*
X0201853Y0135177D01*
X0200652Y0135963D02*
X0192192Y0135963D01*
X0191636Y0136749D02*
X0199866Y0136749D01*
X0199080Y0137535D02*
X0190850Y0137535D01*
X0190065Y0138321D02*
X0198294Y0138321D01*
X0197508Y0139107D02*
X0189279Y0139107D01*
X0188493Y0139892D02*
X0196722Y0139892D01*
X0195936Y0140678D02*
X0187707Y0140678D01*
X0186921Y0141464D02*
X0195150Y0141464D01*
X0194365Y0142250D02*
X0186135Y0142250D01*
X0190171Y0143036D02*
X0193579Y0143036D01*
X0192897Y0143822D02*
X0190957Y0143822D01*
X0191356Y0144221D02*
X0191356Y0144221D01*
X0191743Y0144608D02*
X0192606Y0144608D01*
X0192606Y0145394D02*
X0192236Y0145394D01*
X0192394Y0146180D02*
X0192606Y0146180D01*
X0197394Y0146180D02*
X0234427Y0146180D01*
X0234427Y0146966D02*
X0197920Y0146966D01*
X0197972Y0147752D02*
X0234427Y0147752D01*
X0234427Y0148538D02*
X0197972Y0148538D01*
X0197972Y0149323D02*
X0234427Y0149323D01*
X0234427Y0150109D02*
X0197972Y0150109D01*
X0197972Y0150895D02*
X0234427Y0150895D01*
X0234427Y0151681D02*
X0197972Y0151681D01*
X0197972Y0152467D02*
X0234427Y0152467D01*
X0234427Y0153253D02*
X0197972Y0153253D01*
X0197972Y0154039D02*
X0234427Y0154039D01*
X0234427Y0154825D02*
X0197972Y0154825D01*
X0197588Y0155611D02*
X0234427Y0155611D01*
X0234427Y0162684D02*
X0219414Y0162684D01*
X0220605Y0163470D02*
X0234427Y0163470D01*
X0234427Y0164256D02*
X0221391Y0164256D01*
X0222177Y0165042D02*
X0234427Y0165042D01*
X0234427Y0165828D02*
X0222963Y0165828D01*
X0223749Y0166614D02*
X0234427Y0166614D01*
X0234427Y0167399D02*
X0224535Y0167399D01*
X0225321Y0168185D02*
X0234427Y0168185D01*
X0234427Y0168971D02*
X0226106Y0168971D01*
X0226892Y0169757D02*
X0234427Y0169757D01*
X0234427Y0170543D02*
X0227298Y0170543D01*
X0227394Y0171329D02*
X0234427Y0171329D01*
X0234427Y0172115D02*
X0227394Y0172115D01*
X0227394Y0172901D02*
X0234427Y0172901D01*
X0234427Y0173687D02*
X0227394Y0173687D01*
X0227394Y0174473D02*
X0234427Y0174473D01*
X0234427Y0175259D02*
X0227394Y0175259D01*
X0227394Y0176044D02*
X0234427Y0176044D01*
X0234427Y0176830D02*
X0227394Y0176830D01*
X0227394Y0177616D02*
X0234427Y0177616D01*
X0234427Y0178402D02*
X0227394Y0178402D01*
X0227394Y0179188D02*
X0234427Y0179188D01*
X0234427Y0179974D02*
X0227394Y0179974D01*
X0227394Y0180760D02*
X0234427Y0180760D01*
X0234427Y0181546D02*
X0227394Y0181546D01*
X0227394Y0182332D02*
X0234427Y0182332D01*
X0234427Y0183118D02*
X0227394Y0183118D01*
X0227394Y0183904D02*
X0234427Y0183904D01*
X0234427Y0184690D02*
X0227394Y0184690D01*
X0227394Y0185475D02*
X0234427Y0185475D01*
X0234427Y0186261D02*
X0227394Y0186261D01*
X0227394Y0187047D02*
X0234427Y0187047D01*
X0234427Y0187833D02*
X0227394Y0187833D01*
X0227127Y0188619D02*
X0234427Y0188619D01*
X0234427Y0189405D02*
X0226480Y0189405D01*
X0234427Y0190191D02*
X0202994Y0190191D01*
X0202994Y0190977D02*
X0234427Y0190977D01*
X0234427Y0191763D02*
X0202994Y0191763D01*
X0196841Y0198286D02*
X0195975Y0199153D01*
X0193730Y0199153D01*
X0193730Y0206497D01*
X0192796Y0207430D01*
X0187204Y0207430D01*
X0186270Y0206497D01*
X0186270Y0203119D01*
X0186256Y0203085D01*
X0186256Y0199153D01*
X0184025Y0199153D01*
X0183091Y0198219D01*
X0183091Y0194424D01*
X0178135Y0189468D01*
X0174507Y0189468D01*
X0173574Y0188534D01*
X0173574Y0186627D01*
X0168069Y0192132D01*
X0167042Y0192557D01*
X0165167Y0192557D01*
X0165167Y0192589D01*
X0164233Y0193523D01*
X0157795Y0193523D01*
X0156909Y0192637D01*
X0156909Y0198219D01*
X0155975Y0199153D01*
X0155943Y0199153D01*
X0155943Y0199597D01*
X0155975Y0199597D01*
X0156909Y0200531D01*
X0156909Y0206969D01*
X0155975Y0207903D01*
X0150324Y0207903D01*
X0150000Y0207579D01*
X0149894Y0207685D01*
X0149894Y0229226D01*
X0149529Y0230106D01*
X0148856Y0230779D01*
X0143354Y0236281D01*
X0142474Y0236646D01*
X0138798Y0236646D01*
X0138798Y0237206D01*
X0150106Y0237206D01*
X0150106Y0214524D01*
X0150471Y0213644D01*
X0151144Y0212971D01*
X0155763Y0208352D01*
X0156039Y0208045D01*
X0156098Y0208017D01*
X0156144Y0207971D01*
X0156526Y0207813D01*
X0156899Y0207635D01*
X0156964Y0207631D01*
X0157024Y0207606D01*
X0157437Y0207606D01*
X0164321Y0207244D01*
X0164547Y0207019D01*
X0168605Y0207019D01*
X0180714Y0206381D01*
X0180774Y0206356D01*
X0181187Y0206356D01*
X0181600Y0206335D01*
X0181661Y0206356D01*
X0181726Y0206356D01*
X0182108Y0206514D01*
X0182497Y0206652D01*
X0182546Y0206696D01*
X0182606Y0206721D01*
X0182898Y0207013D01*
X0183205Y0207289D01*
X0183233Y0207348D01*
X0183279Y0207394D01*
X0183437Y0207776D01*
X0183615Y0208149D01*
X0183619Y0208214D01*
X0183644Y0208274D01*
X0183644Y0208687D01*
X0183665Y0209100D01*
X0183644Y0209161D01*
X0183644Y0213856D01*
X0186726Y0213856D01*
X0187606Y0214221D01*
X0188279Y0214894D01*
X0188352Y0215070D01*
X0195296Y0215070D01*
X0196230Y0216003D01*
X0196230Y0216635D01*
X0197618Y0215246D01*
X0196841Y0214469D01*
X0196841Y0208031D01*
X0197372Y0207500D01*
X0196841Y0206969D01*
X0196841Y0200531D01*
X0197372Y0200000D01*
X0196841Y0199469D01*
X0196841Y0198286D01*
X0196841Y0198836D02*
X0196292Y0198836D01*
X0196994Y0199622D02*
X0193730Y0199622D01*
X0193730Y0200408D02*
X0196964Y0200408D01*
X0196841Y0201194D02*
X0193730Y0201194D01*
X0193730Y0201980D02*
X0196841Y0201980D01*
X0196841Y0202766D02*
X0193730Y0202766D01*
X0193730Y0203551D02*
X0196841Y0203551D01*
X0196841Y0204337D02*
X0193730Y0204337D01*
X0193730Y0205123D02*
X0196841Y0205123D01*
X0196841Y0205909D02*
X0193730Y0205909D01*
X0193531Y0206695D02*
X0196841Y0206695D01*
X0197353Y0207481D02*
X0183315Y0207481D01*
X0183641Y0208267D02*
X0196841Y0208267D01*
X0196841Y0209053D02*
X0183663Y0209053D01*
X0183644Y0209839D02*
X0196841Y0209839D01*
X0196841Y0210625D02*
X0183644Y0210625D01*
X0183644Y0211411D02*
X0196841Y0211411D01*
X0196841Y0212196D02*
X0183644Y0212196D01*
X0183644Y0212982D02*
X0196841Y0212982D01*
X0196841Y0213768D02*
X0183644Y0213768D01*
X0187939Y0214554D02*
X0196926Y0214554D01*
X0197525Y0215340D02*
X0195566Y0215340D01*
X0196230Y0216126D02*
X0196739Y0216126D01*
X0200365Y0219270D02*
X0234427Y0219270D01*
X0234427Y0220056D02*
X0199580Y0220056D01*
X0198794Y0220842D02*
X0234427Y0220842D01*
X0234427Y0221627D02*
X0198008Y0221627D01*
X0196230Y0222413D02*
X0234427Y0222413D01*
X0234427Y0223199D02*
X0196230Y0223199D01*
X0196064Y0223985D02*
X0234427Y0223985D01*
X0234427Y0224771D02*
X0193806Y0224771D01*
X0194592Y0225557D02*
X0234427Y0225557D01*
X0234427Y0226343D02*
X0198971Y0226343D01*
X0199153Y0227129D02*
X0234427Y0227129D01*
X0234427Y0227915D02*
X0199153Y0227915D01*
X0199153Y0228701D02*
X0234427Y0228701D01*
X0234427Y0229487D02*
X0199153Y0229487D01*
X0199153Y0230272D02*
X0234427Y0230272D01*
X0234427Y0231058D02*
X0199153Y0231058D01*
X0199153Y0231844D02*
X0234427Y0231844D01*
X0234427Y0232630D02*
X0198698Y0232630D01*
X0191302Y0232630D02*
X0191198Y0232630D01*
X0183802Y0232630D02*
X0182301Y0232630D01*
X0177699Y0232630D02*
X0169894Y0232630D01*
X0169894Y0231844D02*
X0177225Y0231844D01*
X0177225Y0231058D02*
X0169894Y0231058D01*
X0169894Y0230272D02*
X0177225Y0230272D01*
X0177225Y0229487D02*
X0169894Y0229487D01*
X0169894Y0228701D02*
X0177225Y0228701D01*
X0177225Y0227915D02*
X0169894Y0227915D01*
X0169894Y0227129D02*
X0177783Y0227129D01*
X0178718Y0225557D02*
X0182172Y0225557D01*
X0183529Y0226343D02*
X0174003Y0226343D01*
X0169894Y0233416D02*
X0234427Y0233416D01*
X0234427Y0234202D02*
X0169940Y0234202D01*
X0170583Y0234988D02*
X0234427Y0234988D01*
X0234427Y0235774D02*
X0171226Y0235774D01*
X0171869Y0236560D02*
X0234427Y0236560D01*
X0234427Y0237346D02*
X0172512Y0237346D01*
X0173155Y0238132D02*
X0234427Y0238132D01*
X0234427Y0238918D02*
X0173798Y0238918D01*
X0174441Y0239703D02*
X0234427Y0239703D01*
X0234427Y0240489D02*
X0175084Y0240489D01*
X0175727Y0241275D02*
X0234427Y0241275D01*
X0234427Y0242061D02*
X0176370Y0242061D01*
X0177013Y0242847D02*
X0234427Y0242847D01*
X0234427Y0243633D02*
X0177656Y0243633D01*
X0178299Y0244419D02*
X0234427Y0244419D01*
X0234427Y0245205D02*
X0178942Y0245205D01*
X0179585Y0245991D02*
X0234427Y0245991D01*
X0234427Y0246777D02*
X0180228Y0246777D01*
X0180871Y0247563D02*
X0234427Y0247563D01*
X0234427Y0248348D02*
X0181144Y0248348D01*
X0181144Y0249134D02*
X0234427Y0249134D01*
X0234427Y0249920D02*
X0181144Y0249920D01*
X0181144Y0250706D02*
X0234427Y0250706D01*
X0234427Y0251492D02*
X0181144Y0251492D01*
X0181144Y0252278D02*
X0234427Y0252278D01*
X0234427Y0253064D02*
X0181144Y0253064D01*
X0181144Y0253850D02*
X0234427Y0253850D01*
X0234427Y0254636D02*
X0181144Y0254636D01*
X0181144Y0255422D02*
X0234427Y0255422D01*
X0234427Y0256208D02*
X0181144Y0256208D01*
X0181144Y0256994D02*
X0234427Y0256994D01*
X0234427Y0257779D02*
X0181144Y0257779D01*
X0181144Y0258565D02*
X0234427Y0258565D01*
X0234427Y0259351D02*
X0181092Y0259351D01*
X0180748Y0260137D02*
X0234427Y0260137D01*
X0234427Y0260923D02*
X0179962Y0260923D01*
X0179176Y0261709D02*
X0234427Y0261709D01*
X0234427Y0262495D02*
X0178390Y0262495D01*
X0177604Y0263281D02*
X0234427Y0263281D01*
X0234427Y0264067D02*
X0176818Y0264067D01*
X0175575Y0264853D02*
X0234427Y0264853D01*
X0234427Y0265639D02*
X0160009Y0265639D01*
X0160009Y0266424D02*
X0234427Y0266424D01*
X0234427Y0267210D02*
X0160009Y0267210D01*
X0160009Y0267996D02*
X0234405Y0267996D01*
X0234315Y0268782D02*
X0160009Y0268782D01*
X0160009Y0269568D02*
X0234059Y0269568D01*
X0233804Y0270354D02*
X0159444Y0270354D01*
X0159235Y0271140D02*
X0233282Y0271140D01*
X0232711Y0271926D02*
X0158841Y0271926D01*
X0158055Y0272712D02*
X0231688Y0272712D01*
X0229988Y0273498D02*
X0157269Y0273498D01*
X0152491Y0267996D02*
X0152009Y0267996D01*
X0152491Y0267210D02*
X0128194Y0267210D01*
X0128763Y0267996D02*
X0147991Y0267996D01*
X0152491Y0266424D02*
X0128823Y0266424D01*
X0129175Y0265639D02*
X0152491Y0265639D01*
X0152491Y0264853D02*
X0129500Y0264853D01*
X0129562Y0264067D02*
X0152557Y0264067D01*
X0153343Y0263281D02*
X0129562Y0263281D01*
X0129562Y0262495D02*
X0162860Y0262495D01*
X0163646Y0263281D02*
X0159157Y0263281D01*
X0159943Y0264067D02*
X0164432Y0264067D01*
X0165675Y0264853D02*
X0160009Y0264853D01*
X0162074Y0261709D02*
X0129562Y0261709D01*
X0129562Y0260923D02*
X0161288Y0260923D01*
X0160502Y0260137D02*
X0129562Y0260137D01*
X0129562Y0259351D02*
X0152216Y0259351D01*
X0151430Y0258565D02*
X0129562Y0258565D01*
X0129562Y0257779D02*
X0150644Y0257779D01*
X0150217Y0256994D02*
X0129562Y0256994D01*
X0129254Y0256208D02*
X0150106Y0256208D01*
X0150106Y0255422D02*
X0128929Y0255422D01*
X0128229Y0254636D02*
X0150106Y0254636D01*
X0150106Y0253850D02*
X0127244Y0253850D01*
X0142681Y0236560D02*
X0150106Y0236560D01*
X0150106Y0235774D02*
X0143861Y0235774D01*
X0144647Y0234988D02*
X0150106Y0234988D01*
X0150106Y0234202D02*
X0145433Y0234202D01*
X0146219Y0233416D02*
X0150106Y0233416D01*
X0150106Y0232630D02*
X0147005Y0232630D01*
X0147791Y0231844D02*
X0150106Y0231844D01*
X0150106Y0231058D02*
X0148577Y0231058D01*
X0149363Y0230272D02*
X0150106Y0230272D01*
X0150106Y0229487D02*
X0149786Y0229487D01*
X0149894Y0228701D02*
X0150106Y0228701D01*
X0150106Y0227915D02*
X0149894Y0227915D01*
X0149894Y0227129D02*
X0150106Y0227129D01*
X0150106Y0226343D02*
X0149894Y0226343D01*
X0149894Y0225557D02*
X0150106Y0225557D01*
X0150106Y0224771D02*
X0149894Y0224771D01*
X0149894Y0223985D02*
X0150106Y0223985D01*
X0150106Y0223199D02*
X0149894Y0223199D01*
X0149894Y0222413D02*
X0150106Y0222413D01*
X0150106Y0221627D02*
X0149894Y0221627D01*
X0149894Y0220842D02*
X0150106Y0220842D01*
X0150106Y0220056D02*
X0149894Y0220056D01*
X0149894Y0219270D02*
X0150106Y0219270D01*
X0150106Y0218484D02*
X0149894Y0218484D01*
X0149894Y0217698D02*
X0150106Y0217698D01*
X0150106Y0216912D02*
X0149894Y0216912D01*
X0149894Y0216126D02*
X0150106Y0216126D01*
X0150106Y0215340D02*
X0149894Y0215340D01*
X0149894Y0214554D02*
X0150106Y0214554D01*
X0149894Y0213768D02*
X0150419Y0213768D01*
X0149894Y0212982D02*
X0151132Y0212982D01*
X0151918Y0212196D02*
X0149894Y0212196D01*
X0149894Y0211411D02*
X0152704Y0211411D01*
X0153490Y0210625D02*
X0149894Y0210625D01*
X0149894Y0209839D02*
X0154276Y0209839D01*
X0155062Y0209053D02*
X0149894Y0209053D01*
X0149894Y0208267D02*
X0155839Y0208267D01*
X0156397Y0207481D02*
X0159818Y0207481D01*
X0156909Y0206695D02*
X0174750Y0206695D01*
X0182545Y0206695D02*
X0186469Y0206695D01*
X0186270Y0205909D02*
X0156909Y0205909D01*
X0156909Y0205123D02*
X0186270Y0205123D01*
X0186270Y0204337D02*
X0156909Y0204337D01*
X0156909Y0203551D02*
X0186270Y0203551D01*
X0186256Y0202766D02*
X0156909Y0202766D01*
X0156909Y0201980D02*
X0186256Y0201980D01*
X0186256Y0201194D02*
X0156909Y0201194D01*
X0156786Y0200408D02*
X0186256Y0200408D01*
X0186256Y0199622D02*
X0156000Y0199622D01*
X0156292Y0198836D02*
X0183708Y0198836D01*
X0183091Y0198050D02*
X0156909Y0198050D01*
X0156909Y0197264D02*
X0183091Y0197264D01*
X0183091Y0196478D02*
X0156909Y0196478D01*
X0156909Y0195692D02*
X0183091Y0195692D01*
X0183091Y0194906D02*
X0156909Y0194906D01*
X0156909Y0194120D02*
X0182788Y0194120D01*
X0182002Y0193335D02*
X0164421Y0193335D01*
X0167063Y0192549D02*
X0181216Y0192549D01*
X0180430Y0191763D02*
X0168438Y0191763D01*
X0169224Y0190977D02*
X0179645Y0190977D01*
X0178859Y0190191D02*
X0170010Y0190191D01*
X0170796Y0189405D02*
X0174444Y0189405D01*
X0173659Y0188619D02*
X0171582Y0188619D01*
X0172368Y0187833D02*
X0173574Y0187833D01*
X0173574Y0187047D02*
X0173154Y0187047D01*
X0169181Y0183118D02*
X0165167Y0183118D01*
X0165167Y0183904D02*
X0168395Y0183904D01*
X0167610Y0184690D02*
X0165167Y0184690D01*
X0165167Y0185475D02*
X0166824Y0185475D01*
X0166038Y0186261D02*
X0165167Y0186261D01*
X0165167Y0182332D02*
X0169706Y0182332D01*
X0169706Y0181546D02*
X0165167Y0181546D01*
X0165167Y0180760D02*
X0169706Y0180760D01*
X0169706Y0179974D02*
X0164502Y0179974D01*
X0163991Y0179188D02*
X0169706Y0179188D01*
X0169706Y0178402D02*
X0164724Y0178402D01*
X0164724Y0177616D02*
X0169706Y0177616D01*
X0169706Y0176830D02*
X0164724Y0176830D01*
X0164724Y0176044D02*
X0169706Y0176044D01*
X0169706Y0175259D02*
X0164724Y0175259D01*
X0164724Y0174473D02*
X0169706Y0174473D01*
X0169706Y0173687D02*
X0164724Y0173687D01*
X0164724Y0172901D02*
X0169706Y0172901D01*
X0169706Y0172115D02*
X0164724Y0172115D01*
X0165049Y0171329D02*
X0169706Y0171329D01*
X0169706Y0170543D02*
X0165659Y0170543D01*
X0165659Y0169757D02*
X0169706Y0169757D01*
X0169902Y0168971D02*
X0165659Y0168971D01*
X0165659Y0168185D02*
X0170364Y0168185D01*
X0171150Y0167399D02*
X0165659Y0167399D01*
X0165659Y0166614D02*
X0171936Y0166614D01*
X0165659Y0165828D02*
X0188856Y0165828D01*
X0188856Y0165042D02*
X0165659Y0165042D01*
X0165634Y0164256D02*
X0188967Y0164256D01*
X0189395Y0163470D02*
X0164848Y0163470D01*
X0158951Y0163470D02*
X0158548Y0163470D01*
X0154914Y0146966D02*
X0150917Y0146966D01*
X0150294Y0146180D02*
X0162866Y0146180D01*
X0167134Y0146180D02*
X0167606Y0146180D01*
X0167606Y0145394D02*
X0150294Y0145394D01*
X0150294Y0144608D02*
X0167606Y0144608D01*
X0167606Y0143822D02*
X0150294Y0143822D01*
X0150846Y0143036D02*
X0167606Y0143036D01*
X0167606Y0142250D02*
X0151171Y0142250D01*
X0151275Y0141464D02*
X0166829Y0141464D01*
X0166043Y0140678D02*
X0151275Y0140678D01*
X0151023Y0139892D02*
X0165257Y0139892D01*
X0164471Y0139107D02*
X0150695Y0139107D01*
X0149909Y0138321D02*
X0163685Y0138321D01*
X0162900Y0137535D02*
X0148395Y0137535D01*
X0121024Y0142525D02*
X0120499Y0142525D01*
X0119153Y0141967D01*
X0119153Y0142176D01*
X0118219Y0143109D01*
X0111781Y0143109D01*
X0110847Y0142176D01*
X0110847Y0142144D01*
X0106944Y0142144D01*
X0105917Y0141719D01*
X0105132Y0140933D01*
X0104894Y0140358D01*
X0104894Y0152689D01*
X0105000Y0152795D01*
X0105462Y0152333D01*
X0109538Y0152333D01*
X0110472Y0153267D01*
X0110472Y0160591D01*
X0111969Y0160591D01*
X0112500Y0161122D01*
X0113031Y0160591D01*
X0119469Y0160591D01*
X0119706Y0160828D01*
X0119706Y0144444D01*
X0120132Y0143417D01*
X0121024Y0142525D01*
X0120513Y0143036D02*
X0118292Y0143036D01*
X0119078Y0142250D02*
X0119836Y0142250D01*
X0119964Y0143822D02*
X0104894Y0143822D01*
X0104894Y0143036D02*
X0111708Y0143036D01*
X0110922Y0142250D02*
X0104894Y0142250D01*
X0104894Y0141464D02*
X0105663Y0141464D01*
X0105026Y0140678D02*
X0104894Y0140678D01*
X0104894Y0144608D02*
X0119706Y0144608D01*
X0119706Y0145394D02*
X0104894Y0145394D01*
X0104894Y0146180D02*
X0119706Y0146180D01*
X0119706Y0146966D02*
X0104894Y0146966D01*
X0104894Y0147752D02*
X0119706Y0147752D01*
X0119706Y0148538D02*
X0104894Y0148538D01*
X0104894Y0149323D02*
X0119706Y0149323D01*
X0119706Y0150109D02*
X0104894Y0150109D01*
X0104894Y0150895D02*
X0119706Y0150895D01*
X0119706Y0151681D02*
X0104894Y0151681D01*
X0104894Y0152467D02*
X0105328Y0152467D01*
X0109672Y0152467D02*
X0119706Y0152467D01*
X0119706Y0153253D02*
X0110458Y0153253D01*
X0110472Y0154039D02*
X0119706Y0154039D01*
X0119706Y0154825D02*
X0110472Y0154825D01*
X0110472Y0155611D02*
X0119706Y0155611D01*
X0119706Y0156397D02*
X0110472Y0156397D01*
X0110472Y0157183D02*
X0119706Y0157183D01*
X0119706Y0157968D02*
X0110472Y0157968D01*
X0110472Y0158754D02*
X0119706Y0158754D01*
X0119706Y0159540D02*
X0110472Y0159540D01*
X0110472Y0160326D02*
X0119706Y0160326D01*
X0112510Y0161112D02*
X0112490Y0161112D01*
X0149701Y0199622D02*
X0150299Y0199622D01*
X0156909Y0193335D02*
X0157606Y0193335D01*
X0182217Y0227129D02*
X0183347Y0227129D01*
X0201151Y0218484D02*
X0234427Y0218484D01*
X0234427Y0217698D02*
X0201937Y0217698D01*
X0202668Y0216912D02*
X0234427Y0216912D01*
X0234427Y0214554D02*
X0204274Y0214554D01*
X0204359Y0213768D02*
X0234427Y0213768D01*
X0234427Y0212982D02*
X0204359Y0212982D01*
X0204359Y0212196D02*
X0234427Y0212196D01*
X0234427Y0211411D02*
X0204359Y0211411D01*
X0204359Y0210625D02*
X0234427Y0210625D01*
X0234427Y0209839D02*
X0204359Y0209839D01*
X0204359Y0209053D02*
X0234427Y0209053D01*
X0234427Y0208267D02*
X0204359Y0208267D01*
X0210147Y0207481D02*
X0234427Y0207481D01*
X0234427Y0206695D02*
X0210659Y0206695D01*
X0210659Y0205909D02*
X0234427Y0205909D01*
X0234427Y0205123D02*
X0210659Y0205123D01*
X0210659Y0204337D02*
X0234427Y0204337D01*
X0234427Y0203551D02*
X0210659Y0203551D01*
X0210659Y0202766D02*
X0234427Y0202766D01*
X0234427Y0201980D02*
X0210659Y0201980D01*
X0210659Y0201194D02*
X0234427Y0201194D01*
X0234427Y0200408D02*
X0210536Y0200408D01*
X0210506Y0199622D02*
X0234427Y0199622D01*
X0234427Y0198836D02*
X0210659Y0198836D01*
X0210659Y0198050D02*
X0234427Y0198050D01*
X0234427Y0197264D02*
X0210659Y0197264D01*
X0210659Y0196478D02*
X0234427Y0196478D01*
X0234427Y0195692D02*
X0210659Y0195692D01*
X0210659Y0194906D02*
X0234427Y0194906D01*
X0234427Y0194120D02*
X0210659Y0194120D01*
X0210659Y0193335D02*
X0234427Y0193335D01*
X0234427Y0192549D02*
X0210177Y0192549D01*
X0197991Y0145394D02*
X0234427Y0145394D01*
X0234427Y0144608D02*
X0198777Y0144608D01*
X0199563Y0143822D02*
X0234427Y0143822D01*
X0234427Y0143036D02*
X0200349Y0143036D01*
X0201135Y0142250D02*
X0234427Y0142250D01*
X0234427Y0141464D02*
X0201921Y0141464D01*
X0202707Y0140678D02*
X0234427Y0140678D01*
X0216343Y0115956D02*
X0217856Y0114443D01*
X0217856Y0110403D01*
X0217824Y0110403D01*
X0217500Y0110079D01*
X0217176Y0110403D01*
X0211525Y0110403D01*
X0211031Y0109909D01*
X0210751Y0110025D01*
X0209249Y0110025D01*
X0208969Y0109909D01*
X0208475Y0110403D01*
X0202981Y0110403D01*
X0203109Y0110531D01*
X0203109Y0115956D01*
X0216343Y0115956D01*
X0216770Y0115529D02*
X0203109Y0115529D01*
X0203109Y0114743D02*
X0217556Y0114743D01*
X0217856Y0113957D02*
X0203109Y0113957D01*
X0203109Y0113171D02*
X0217856Y0113171D01*
X0217856Y0112386D02*
X0203109Y0112386D01*
X0203109Y0111600D02*
X0217856Y0111600D01*
X0217856Y0110814D02*
X0203109Y0110814D01*
X0208850Y0110028D02*
X0211150Y0110028D01*
X0211031Y0102591D02*
X0211525Y0102097D01*
X0217176Y0102097D01*
X0217500Y0102421D01*
X0217824Y0102097D01*
X0217856Y0102097D01*
X0217856Y0095403D01*
X0217824Y0095403D01*
X0217500Y0095079D01*
X0217176Y0095403D01*
X0211525Y0095403D01*
X0211031Y0094909D01*
X0210751Y0095025D01*
X0209249Y0095025D01*
X0208969Y0094909D01*
X0208475Y0095403D01*
X0202981Y0095403D01*
X0203109Y0095531D01*
X0203109Y0101969D01*
X0202981Y0102097D01*
X0208475Y0102097D01*
X0208969Y0102591D01*
X0209249Y0102475D01*
X0210751Y0102475D01*
X0211031Y0102591D01*
X0211453Y0102169D02*
X0208547Y0102169D01*
X0203109Y0101383D02*
X0217856Y0101383D01*
X0217856Y0100597D02*
X0203109Y0100597D01*
X0203109Y0099811D02*
X0217856Y0099811D01*
X0217856Y0099025D02*
X0203109Y0099025D01*
X0203109Y0098239D02*
X0217856Y0098239D01*
X0217856Y0097453D02*
X0203109Y0097453D01*
X0203109Y0096667D02*
X0217856Y0096667D01*
X0217856Y0095881D02*
X0203109Y0095881D01*
X0208782Y0095095D02*
X0211218Y0095095D01*
X0217483Y0095095D02*
X0217517Y0095095D01*
X0217753Y0102169D02*
X0217247Y0102169D01*
X0217500Y0087421D02*
X0217824Y0087097D01*
X0217856Y0087097D01*
X0217856Y0080403D01*
X0217824Y0080403D01*
X0217500Y0080079D01*
X0217176Y0080403D01*
X0211525Y0080403D01*
X0211031Y0079909D01*
X0210751Y0080025D01*
X0209249Y0080025D01*
X0208969Y0079909D01*
X0208475Y0080403D01*
X0202981Y0080403D01*
X0203109Y0080531D01*
X0203109Y0086969D01*
X0202981Y0087097D01*
X0208475Y0087097D01*
X0208969Y0087591D01*
X0209249Y0087475D01*
X0210751Y0087475D01*
X0211031Y0087591D01*
X0211525Y0087097D01*
X0217176Y0087097D01*
X0217500Y0087421D01*
X0217315Y0087236D02*
X0217685Y0087236D01*
X0217856Y0086450D02*
X0203109Y0086450D01*
X0203109Y0085665D02*
X0217856Y0085665D01*
X0217856Y0084879D02*
X0203109Y0084879D01*
X0203109Y0084093D02*
X0217856Y0084093D01*
X0217856Y0083307D02*
X0203109Y0083307D01*
X0203109Y0082521D02*
X0217856Y0082521D01*
X0217856Y0081735D02*
X0203109Y0081735D01*
X0203109Y0080949D02*
X0217856Y0080949D01*
X0217584Y0080163D02*
X0217416Y0080163D01*
X0211285Y0080163D02*
X0208715Y0080163D01*
X0208614Y0087236D02*
X0211386Y0087236D01*
X0195591Y0111357D02*
X0195227Y0111722D01*
X0187394Y0111722D01*
X0187394Y0116018D01*
X0187862Y0115550D01*
X0189249Y0114975D01*
X0190751Y0114975D01*
X0192138Y0115550D01*
X0192545Y0115956D01*
X0195591Y0115956D01*
X0195591Y0111357D01*
X0195591Y0111600D02*
X0195349Y0111600D01*
X0195591Y0112386D02*
X0187394Y0112386D01*
X0187394Y0113171D02*
X0195591Y0113171D01*
X0195591Y0113957D02*
X0187394Y0113957D01*
X0187394Y0114743D02*
X0195591Y0114743D01*
X0195591Y0115529D02*
X0192088Y0115529D01*
X0187912Y0115529D02*
X0187394Y0115529D01*
X0202044Y0063659D02*
X0202720Y0063659D01*
X0203045Y0062873D02*
X0201258Y0062873D01*
X0200472Y0062087D02*
X0203824Y0062087D01*
X0205316Y0061301D02*
X0199686Y0061301D01*
X0193837Y0051084D02*
X0193663Y0051084D01*
X0194506Y0050298D02*
X0180587Y0050298D01*
X0180087Y0051084D02*
X0179913Y0051084D01*
X0181373Y0049513D02*
X0194506Y0049513D01*
X0194506Y0048727D02*
X0182159Y0048727D01*
X0182945Y0047941D02*
X0194506Y0047941D01*
X0194506Y0047155D02*
X0183730Y0047155D01*
X0184516Y0046369D02*
X0194506Y0046369D01*
X0194506Y0045583D02*
X0184849Y0045583D01*
X0186699Y0044797D02*
X0193380Y0044797D01*
X0193141Y0044011D02*
X0186938Y0044011D01*
X0186938Y0043225D02*
X0193141Y0043225D01*
X0193141Y0042439D02*
X0186938Y0042439D01*
X0186938Y0041653D02*
X0193141Y0041653D01*
X0193141Y0040867D02*
X0186938Y0040867D01*
X0186938Y0040082D02*
X0193141Y0040082D01*
X0193141Y0039296D02*
X0186938Y0039296D01*
X0186938Y0038510D02*
X0193141Y0038510D01*
X0193536Y0037724D02*
X0186543Y0037724D01*
X0186212Y0051084D02*
X0187538Y0051084D01*
X0192990Y0022294D02*
X0191313Y0021600D01*
X0190030Y0020317D01*
X0189335Y0018640D01*
X0189335Y0010888D01*
X0190030Y0009211D01*
X0191313Y0007928D01*
X0192990Y0007233D01*
X0194805Y0007233D01*
X0196482Y0007928D01*
X0197765Y0009211D01*
X0198460Y0010888D01*
X0198460Y0018640D01*
X0197765Y0020317D01*
X0196482Y0021600D01*
X0194805Y0022294D01*
X0192990Y0022294D01*
X0192293Y0022006D02*
X0181723Y0022006D01*
X0181026Y0022294D02*
X0179211Y0022294D01*
X0177534Y0021600D01*
X0176250Y0020317D01*
X0175556Y0018640D01*
X0175556Y0010888D01*
X0176250Y0009211D01*
X0177534Y0007928D01*
X0179211Y0007233D01*
X0181026Y0007233D01*
X0182702Y0007928D01*
X0183986Y0009211D01*
X0184680Y0010888D01*
X0184680Y0018640D01*
X0183986Y0020317D01*
X0182702Y0021600D01*
X0181026Y0022294D01*
X0183083Y0021220D02*
X0190933Y0021220D01*
X0190147Y0020434D02*
X0183869Y0020434D01*
X0184263Y0019648D02*
X0189753Y0019648D01*
X0189427Y0018862D02*
X0184588Y0018862D01*
X0184680Y0018076D02*
X0189335Y0018076D01*
X0189335Y0017290D02*
X0184680Y0017290D01*
X0184680Y0016504D02*
X0189335Y0016504D01*
X0189335Y0015718D02*
X0184680Y0015718D01*
X0184680Y0014932D02*
X0189335Y0014932D01*
X0189335Y0014146D02*
X0184680Y0014146D01*
X0184680Y0013361D02*
X0189335Y0013361D01*
X0189335Y0012575D02*
X0184680Y0012575D01*
X0184680Y0011789D02*
X0189335Y0011789D01*
X0189335Y0011003D02*
X0184680Y0011003D01*
X0184402Y0010217D02*
X0189613Y0010217D01*
X0189939Y0009431D02*
X0184077Y0009431D01*
X0183420Y0008645D02*
X0190596Y0008645D01*
X0191479Y0007859D02*
X0182537Y0007859D01*
X0177699Y0007859D02*
X0168758Y0007859D01*
X0168923Y0007928D02*
X0170206Y0009211D01*
X0170901Y0010888D01*
X0170901Y0018640D01*
X0170206Y0020317D01*
X0168923Y0021600D01*
X0167246Y0022294D01*
X0165431Y0022294D01*
X0163754Y0021600D01*
X0162471Y0020317D01*
X0161776Y0018640D01*
X0161776Y0010888D01*
X0162471Y0009211D01*
X0163754Y0007928D01*
X0165431Y0007233D01*
X0167246Y0007233D01*
X0168923Y0007928D01*
X0169640Y0008645D02*
X0176816Y0008645D01*
X0176159Y0009431D02*
X0170297Y0009431D01*
X0170623Y0010217D02*
X0175834Y0010217D01*
X0175556Y0011003D02*
X0170901Y0011003D01*
X0170901Y0011789D02*
X0175556Y0011789D01*
X0175556Y0012575D02*
X0170901Y0012575D01*
X0170901Y0013361D02*
X0175556Y0013361D01*
X0175556Y0014146D02*
X0170901Y0014146D01*
X0170901Y0014932D02*
X0175556Y0014932D01*
X0175556Y0015718D02*
X0170901Y0015718D01*
X0170901Y0016504D02*
X0175556Y0016504D01*
X0175556Y0017290D02*
X0170901Y0017290D01*
X0170901Y0018076D02*
X0175556Y0018076D01*
X0175648Y0018862D02*
X0170809Y0018862D01*
X0170483Y0019648D02*
X0175973Y0019648D01*
X0176368Y0020434D02*
X0170089Y0020434D01*
X0169303Y0021220D02*
X0177154Y0021220D01*
X0178513Y0022006D02*
X0167944Y0022006D01*
X0164734Y0022006D02*
X0154164Y0022006D01*
X0153467Y0022294D02*
X0155143Y0021600D01*
X0156427Y0020317D01*
X0157121Y0018640D01*
X0157121Y0010888D01*
X0156427Y0009211D01*
X0155143Y0007928D01*
X0153467Y0007233D01*
X0151652Y0007233D01*
X0149975Y0007928D01*
X0148691Y0009211D01*
X0147997Y0010888D01*
X0147997Y0018640D01*
X0148691Y0020317D01*
X0149975Y0021600D01*
X0151652Y0022294D01*
X0153467Y0022294D01*
X0155524Y0021220D02*
X0163374Y0021220D01*
X0162588Y0020434D02*
X0156310Y0020434D01*
X0156704Y0019648D02*
X0162194Y0019648D01*
X0161868Y0018862D02*
X0157029Y0018862D01*
X0157121Y0018076D02*
X0161776Y0018076D01*
X0161776Y0017290D02*
X0157121Y0017290D01*
X0157121Y0016504D02*
X0161776Y0016504D01*
X0161776Y0015718D02*
X0157121Y0015718D01*
X0157121Y0014932D02*
X0161776Y0014932D01*
X0161776Y0014146D02*
X0157121Y0014146D01*
X0157121Y0013361D02*
X0161776Y0013361D01*
X0161776Y0012575D02*
X0157121Y0012575D01*
X0157121Y0011789D02*
X0161776Y0011789D01*
X0161776Y0011003D02*
X0157121Y0011003D01*
X0156843Y0010217D02*
X0162054Y0010217D01*
X0162380Y0009431D02*
X0156518Y0009431D01*
X0155861Y0008645D02*
X0163037Y0008645D01*
X0163920Y0007859D02*
X0154978Y0007859D01*
X0150140Y0007859D02*
X0141198Y0007859D01*
X0141364Y0007928D02*
X0142647Y0009211D01*
X0143342Y0010888D01*
X0143342Y0018640D01*
X0142647Y0020317D01*
X0141364Y0021600D01*
X0139687Y0022294D01*
X0137872Y0022294D01*
X0136195Y0021600D01*
X0134912Y0020317D01*
X0134217Y0018640D01*
X0134217Y0010888D01*
X0134912Y0009211D01*
X0136195Y0007928D01*
X0137872Y0007233D01*
X0139687Y0007233D01*
X0141364Y0007928D01*
X0142081Y0008645D02*
X0149257Y0008645D01*
X0148600Y0009431D02*
X0142738Y0009431D01*
X0143064Y0010217D02*
X0148275Y0010217D01*
X0147997Y0011003D02*
X0143342Y0011003D01*
X0143342Y0011789D02*
X0147997Y0011789D01*
X0147997Y0012575D02*
X0143342Y0012575D01*
X0143342Y0013361D02*
X0147997Y0013361D01*
X0147997Y0014146D02*
X0143342Y0014146D01*
X0143342Y0014932D02*
X0147997Y0014932D01*
X0147997Y0015718D02*
X0143342Y0015718D01*
X0143342Y0016504D02*
X0147997Y0016504D01*
X0147997Y0017290D02*
X0143342Y0017290D01*
X0143342Y0018076D02*
X0147997Y0018076D01*
X0148089Y0018862D02*
X0143250Y0018862D01*
X0142924Y0019648D02*
X0148414Y0019648D01*
X0148809Y0020434D02*
X0142530Y0020434D01*
X0141744Y0021220D02*
X0149594Y0021220D01*
X0150954Y0022006D02*
X0140385Y0022006D01*
X0137175Y0022006D02*
X0126605Y0022006D01*
X0125907Y0022294D02*
X0124093Y0022294D01*
X0122416Y0021600D01*
X0121132Y0020317D01*
X0120438Y0018640D01*
X0120438Y0010888D01*
X0121132Y0009211D01*
X0122416Y0007928D01*
X0124093Y0007233D01*
X0125907Y0007233D01*
X0127584Y0007928D01*
X0128868Y0009211D01*
X0129562Y0010888D01*
X0129562Y0018640D01*
X0128868Y0020317D01*
X0127584Y0021600D01*
X0125907Y0022294D01*
X0127965Y0021220D02*
X0135815Y0021220D01*
X0135029Y0020434D02*
X0128750Y0020434D01*
X0129145Y0019648D02*
X0134635Y0019648D01*
X0134309Y0018862D02*
X0129470Y0018862D01*
X0129562Y0018076D02*
X0134217Y0018076D01*
X0134217Y0017290D02*
X0129562Y0017290D01*
X0129562Y0016504D02*
X0134217Y0016504D01*
X0134217Y0015718D02*
X0129562Y0015718D01*
X0129562Y0014932D02*
X0134217Y0014932D01*
X0134217Y0014146D02*
X0129562Y0014146D01*
X0129562Y0013361D02*
X0134217Y0013361D01*
X0134217Y0012575D02*
X0129562Y0012575D01*
X0129562Y0011789D02*
X0134217Y0011789D01*
X0134217Y0011003D02*
X0129562Y0011003D01*
X0129284Y0010217D02*
X0134495Y0010217D01*
X0134821Y0009431D02*
X0128959Y0009431D01*
X0128302Y0008645D02*
X0135478Y0008645D01*
X0136361Y0007859D02*
X0127419Y0007859D01*
X0122581Y0007859D02*
X0119310Y0007859D01*
X0119963Y0008645D02*
X0121698Y0008645D01*
X0121041Y0009431D02*
X0120288Y0009431D01*
X0120294Y0010217D02*
X0120716Y0010217D01*
X0120438Y0011003D02*
X0120294Y0011003D01*
X0120294Y0011789D02*
X0120438Y0011789D01*
X0120438Y0012575D02*
X0120294Y0012575D01*
X0120294Y0013361D02*
X0120438Y0013361D01*
X0120438Y0014146D02*
X0120294Y0014146D01*
X0120294Y0014932D02*
X0120438Y0014932D01*
X0120438Y0015718D02*
X0120294Y0015718D01*
X0120294Y0016504D02*
X0120438Y0016504D01*
X0120438Y0017290D02*
X0120294Y0017290D01*
X0120294Y0018076D02*
X0120438Y0018076D01*
X0120530Y0018862D02*
X0120294Y0018862D01*
X0120294Y0019648D02*
X0120855Y0019648D01*
X0121250Y0020434D02*
X0120294Y0020434D01*
X0120294Y0021220D02*
X0122035Y0021220D01*
X0123395Y0022006D02*
X0120294Y0022006D01*
X0120294Y0022791D02*
X0234427Y0022791D01*
X0234427Y0022006D02*
X0195503Y0022006D01*
X0196862Y0021220D02*
X0234427Y0021220D01*
X0234427Y0020434D02*
X0197648Y0020434D01*
X0198042Y0019648D02*
X0234427Y0019648D01*
X0234427Y0018862D02*
X0198368Y0018862D01*
X0198460Y0018076D02*
X0234427Y0018076D01*
X0234427Y0017290D02*
X0198460Y0017290D01*
X0198460Y0016504D02*
X0234427Y0016504D01*
X0234427Y0015718D02*
X0198460Y0015718D01*
X0198460Y0014932D02*
X0234427Y0014932D01*
X0234427Y0014146D02*
X0198460Y0014146D01*
X0198460Y0013361D02*
X0234427Y0013361D01*
X0234427Y0012575D02*
X0198460Y0012575D01*
X0198460Y0011789D02*
X0234427Y0011789D01*
X0234427Y0011003D02*
X0198460Y0011003D01*
X0198182Y0010217D02*
X0234427Y0010217D01*
X0234427Y0009431D02*
X0197856Y0009431D01*
X0197199Y0008645D02*
X0234427Y0008645D01*
X0234426Y0007859D02*
X0196317Y0007859D01*
X0230803Y0002358D02*
X0005417Y0002358D01*
X0004168Y0003144D02*
X0232053Y0003144D01*
X0232904Y0003930D02*
X0115380Y0003930D01*
X0116166Y0004715D02*
X0233475Y0004715D01*
X0233890Y0005501D02*
X0116952Y0005501D01*
X0117738Y0006287D02*
X0234145Y0006287D01*
X0234364Y0007073D02*
X0118524Y0007073D01*
X0120294Y0023577D02*
X0234427Y0023577D01*
X0234427Y0024363D02*
X0120294Y0024363D01*
X0120294Y0025149D02*
X0234427Y0025149D01*
X0234427Y0025935D02*
X0120294Y0025935D01*
X0120294Y0026721D02*
X0234427Y0026721D01*
X0234427Y0027507D02*
X0120003Y0027507D01*
X0119408Y0028293D02*
X0234427Y0028293D01*
X0234427Y0029079D02*
X0118622Y0029079D01*
X0117836Y0029865D02*
X0234427Y0029865D01*
X0234427Y0030651D02*
X0117050Y0030651D01*
X0116544Y0031437D02*
X0234427Y0031437D01*
X0234427Y0032222D02*
X0116544Y0032222D01*
X0116544Y0033008D02*
X0234427Y0033008D01*
X0234427Y0033794D02*
X0116544Y0033794D01*
X0116544Y0034580D02*
X0234427Y0034580D01*
X0234427Y0035366D02*
X0116544Y0035366D01*
X0116544Y0036152D02*
X0234427Y0036152D01*
X0146288Y0051084D02*
X0145041Y0051084D01*
X0075823Y0093524D02*
X0074177Y0093524D01*
X0074963Y0092738D02*
X0075037Y0092738D01*
X0001985Y0194120D02*
X0001794Y0194120D01*
X0001794Y0194906D02*
X0002771Y0194906D01*
X0003557Y0195692D02*
X0001794Y0195692D01*
X0001794Y0196478D02*
X0004343Y0196478D01*
X0005129Y0197264D02*
X0001794Y0197264D01*
X0001794Y0198050D02*
X0005915Y0198050D01*
X0006701Y0198836D02*
X0001794Y0198836D01*
X0001794Y0199622D02*
X0007487Y0199622D01*
X0008273Y0200408D02*
X0001794Y0200408D01*
X0001794Y0201194D02*
X0009059Y0201194D01*
X0009844Y0201980D02*
X0001794Y0201980D01*
X0001794Y0202766D02*
X0010630Y0202766D01*
X0011416Y0203551D02*
X0001794Y0203551D01*
X0001794Y0204337D02*
X0012202Y0204337D01*
X0012988Y0205123D02*
X0001794Y0205123D01*
X0001794Y0205909D02*
X0013958Y0205909D01*
X0111026Y0209053D02*
X0111474Y0209053D01*
X0138798Y0231058D02*
X0141806Y0231058D01*
X0141020Y0231844D02*
X0138798Y0231844D01*
D23*
X0220472Y0259843D03*
X0015748Y0259843D03*
X0015748Y0015748D03*
X0220472Y0015748D03*
D24*
X0206250Y0065000D03*
X0197500Y0068750D03*
X0210000Y0076250D03*
X0212500Y0083750D03*
X0210000Y0091250D03*
X0212500Y0098750D03*
X0210000Y0106250D03*
X0212500Y0113750D03*
X0202500Y0130000D03*
X0190000Y0118750D03*
X0193750Y0113750D03*
X0170000Y0118750D03*
X0150000Y0106250D03*
X0147500Y0113750D03*
X0147500Y0098750D03*
X0140000Y0097500D03*
X0150000Y0091250D03*
X0146250Y0083750D03*
X0145000Y0076250D03*
X0135000Y0067500D03*
X0142500Y0062500D03*
X0163750Y0072500D03*
X0170000Y0072500D03*
X0123750Y0091250D03*
X0116250Y0117500D03*
X0127500Y0128750D03*
X0121250Y0138750D03*
X0128750Y0147500D03*
X0115000Y0152500D03*
X0116250Y0175000D03*
X0108750Y0178750D03*
X0101250Y0175000D03*
X0093750Y0178750D03*
X0086250Y0175000D03*
X0078750Y0178750D03*
X0065000Y0175000D03*
X0057313Y0178750D03*
X0050000Y0175000D03*
X0042500Y0178750D03*
X0035000Y0175000D03*
X0027500Y0178750D03*
X0020000Y0156250D03*
X0017500Y0140000D03*
X0017500Y0133750D03*
X0012500Y0131250D03*
X0012500Y0125000D03*
X0007500Y0122500D03*
X0043750Y0112500D03*
X0058750Y0112500D03*
X0080000Y0112500D03*
X0090000Y0112500D03*
X0100000Y0113750D03*
X0070000Y0138750D03*
X0065000Y0156250D03*
X0140000Y0203750D03*
X0168750Y0193750D03*
X0177500Y0193750D03*
X0207500Y0183750D03*
X0215000Y0198750D03*
X0222500Y0198750D03*
X0215000Y0143750D03*
X0152500Y0143750D03*
X0147500Y0141250D03*
X0145000Y0131250D03*
X0147500Y0153750D03*
X0172500Y0233750D03*
X0162500Y0246250D03*
X0150000Y0261250D03*
X0150000Y0271250D03*
X0107500Y0032500D03*
X0093750Y0032500D03*
X0080000Y0032500D03*
X0066250Y0032500D03*
X0052500Y0032500D03*
X0040000Y0032500D03*
D25*
X0191250Y0165000D02*
X0191250Y0187500D01*
X0225000Y0187500D01*
X0225000Y0171250D01*
X0218750Y0165000D01*
X0191250Y0165000D01*
X0191250Y0165292D02*
X0219042Y0165292D01*
X0219840Y0166090D02*
X0191250Y0166090D01*
X0191250Y0166889D02*
X0220639Y0166889D01*
X0221437Y0167687D02*
X0191250Y0167687D01*
X0191250Y0168486D02*
X0222236Y0168486D01*
X0223034Y0169284D02*
X0191250Y0169284D01*
X0191250Y0170083D02*
X0223833Y0170083D01*
X0224631Y0170881D02*
X0191250Y0170881D01*
X0191250Y0171680D02*
X0225000Y0171680D01*
X0225000Y0172478D02*
X0191250Y0172478D01*
X0191250Y0173277D02*
X0225000Y0173277D01*
X0225000Y0174075D02*
X0191250Y0174075D01*
X0191250Y0174874D02*
X0225000Y0174874D01*
X0225000Y0175672D02*
X0191250Y0175672D01*
X0191250Y0176471D02*
X0225000Y0176471D01*
X0225000Y0177270D02*
X0191250Y0177270D01*
X0191250Y0178068D02*
X0225000Y0178068D01*
X0225000Y0178867D02*
X0191250Y0178867D01*
X0191250Y0179665D02*
X0225000Y0179665D01*
X0225000Y0180464D02*
X0191250Y0180464D01*
X0191250Y0181262D02*
X0225000Y0181262D01*
X0225000Y0182061D02*
X0191250Y0182061D01*
X0191250Y0182859D02*
X0225000Y0182859D01*
X0225000Y0183658D02*
X0191250Y0183658D01*
X0191250Y0184456D02*
X0225000Y0184456D01*
X0225000Y0185255D02*
X0191250Y0185255D01*
X0191250Y0186053D02*
X0225000Y0186053D01*
X0225000Y0186852D02*
X0191250Y0186852D01*
X0181250Y0208750D02*
X0157500Y0210000D01*
X0152500Y0215000D01*
X0152500Y0256250D01*
X0153750Y0257500D01*
X0161250Y0257500D01*
X0166250Y0262500D01*
X0175000Y0262500D01*
X0178750Y0258750D01*
X0178750Y0248750D01*
X0167500Y0235000D01*
X0167500Y0225000D01*
X0167941Y0224927D01*
X0167941Y0223906D01*
X0169113Y0222734D01*
X0175887Y0222734D01*
X0176631Y0223478D01*
X0182500Y0222500D01*
X0183750Y0223750D01*
X0185864Y0223750D01*
X0185864Y0216250D01*
X0182500Y0216250D01*
X0181250Y0215000D01*
X0181250Y0208750D01*
X0181250Y0209210D02*
X0172511Y0209210D01*
X0181250Y0210008D02*
X0157492Y0210008D01*
X0156693Y0210807D02*
X0181250Y0210807D01*
X0181250Y0211605D02*
X0155895Y0211605D01*
X0155096Y0212404D02*
X0181250Y0212404D01*
X0181250Y0213203D02*
X0154297Y0213203D01*
X0153499Y0214001D02*
X0181250Y0214001D01*
X0181250Y0214800D02*
X0152700Y0214800D01*
X0152500Y0215598D02*
X0181848Y0215598D01*
X0185864Y0216397D02*
X0152500Y0216397D01*
X0152500Y0217195D02*
X0185864Y0217195D01*
X0185864Y0217994D02*
X0152500Y0217994D01*
X0152500Y0218792D02*
X0185864Y0218792D01*
X0185864Y0219591D02*
X0152500Y0219591D01*
X0152500Y0220389D02*
X0185864Y0220389D01*
X0185864Y0221188D02*
X0152500Y0221188D01*
X0152500Y0221986D02*
X0185864Y0221986D01*
X0185864Y0222785D02*
X0182785Y0222785D01*
X0183583Y0223583D02*
X0185864Y0223583D01*
X0180792Y0222785D02*
X0175938Y0222785D01*
X0169062Y0222785D02*
X0152500Y0222785D01*
X0152500Y0223583D02*
X0168264Y0223583D01*
X0167941Y0224382D02*
X0152500Y0224382D01*
X0152500Y0225180D02*
X0167500Y0225180D01*
X0167500Y0225979D02*
X0152500Y0225979D01*
X0152500Y0226777D02*
X0167500Y0226777D01*
X0167500Y0227576D02*
X0152500Y0227576D01*
X0152500Y0228374D02*
X0167500Y0228374D01*
X0167500Y0229173D02*
X0152500Y0229173D01*
X0152500Y0229971D02*
X0167500Y0229971D01*
X0167500Y0230770D02*
X0152500Y0230770D01*
X0152500Y0231568D02*
X0167500Y0231568D01*
X0167500Y0232367D02*
X0152500Y0232367D01*
X0152500Y0233165D02*
X0167500Y0233165D01*
X0167500Y0233964D02*
X0152500Y0233964D01*
X0152500Y0234762D02*
X0167500Y0234762D01*
X0167959Y0235561D02*
X0152500Y0235561D01*
X0152500Y0236359D02*
X0168612Y0236359D01*
X0169266Y0237158D02*
X0152500Y0237158D01*
X0152500Y0237956D02*
X0169919Y0237956D01*
X0170572Y0238755D02*
X0152500Y0238755D01*
X0152500Y0239553D02*
X0171226Y0239553D01*
X0171879Y0240352D02*
X0152500Y0240352D01*
X0152500Y0241150D02*
X0172532Y0241150D01*
X0173185Y0241949D02*
X0152500Y0241949D01*
X0152500Y0242747D02*
X0173839Y0242747D01*
X0174492Y0243546D02*
X0152500Y0243546D01*
X0152500Y0244344D02*
X0175145Y0244344D01*
X0175799Y0245143D02*
X0152500Y0245143D01*
X0152500Y0245941D02*
X0176452Y0245941D01*
X0177105Y0246740D02*
X0152500Y0246740D01*
X0152500Y0247539D02*
X0177759Y0247539D01*
X0178412Y0248337D02*
X0152500Y0248337D01*
X0152500Y0249136D02*
X0178750Y0249136D01*
X0178750Y0249934D02*
X0152500Y0249934D01*
X0152500Y0250733D02*
X0178750Y0250733D01*
X0178750Y0251531D02*
X0152500Y0251531D01*
X0152500Y0252330D02*
X0178750Y0252330D01*
X0178750Y0253128D02*
X0152500Y0253128D01*
X0152500Y0253927D02*
X0178750Y0253927D01*
X0178750Y0254725D02*
X0152500Y0254725D01*
X0152500Y0255524D02*
X0178750Y0255524D01*
X0178750Y0256322D02*
X0152572Y0256322D01*
X0153371Y0257121D02*
X0178750Y0257121D01*
X0178750Y0257919D02*
X0161669Y0257919D01*
X0162468Y0258718D02*
X0178750Y0258718D01*
X0177984Y0259516D02*
X0163266Y0259516D01*
X0164065Y0260315D02*
X0177185Y0260315D01*
X0176387Y0261113D02*
X0164863Y0261113D01*
X0165662Y0261912D02*
X0175588Y0261912D01*
D26*
X0156250Y0255541D02*
X0156250Y0242500D01*
X0153750Y0240000D01*
X0125000Y0240000D01*
X0122500Y0237500D01*
X0122500Y0183750D01*
X0122500Y0145000D01*
X0126250Y0141250D01*
X0126250Y0135000D01*
X0116250Y0125000D01*
X0116250Y0117500D01*
X0107500Y0135128D02*
X0107500Y0139350D01*
X0115000Y0139350D01*
X0115600Y0138750D01*
X0121250Y0138750D01*
X0143150Y0145600D02*
X0147500Y0141250D01*
X0147500Y0147500D01*
X0150276Y0150276D01*
X0158583Y0150276D01*
X0164154Y0150276D01*
X0165000Y0151122D01*
X0173750Y0168750D02*
X0213110Y0168750D01*
X0215000Y0170640D01*
X0173750Y0168750D02*
X0172500Y0170000D01*
X0172500Y0183750D01*
X0166486Y0189764D01*
X0161014Y0189764D01*
X0160000Y0188750D01*
X0153327Y0188750D01*
X0147500Y0188750D01*
X0143150Y0184400D01*
X0143150Y0160000D01*
X0143150Y0145600D01*
X0145000Y0118750D02*
X0170000Y0118750D01*
X0190000Y0118750D02*
X0217500Y0118750D01*
X0220650Y0115600D01*
X0220650Y0106250D01*
X0220650Y0091250D01*
X0220650Y0076250D01*
X0170650Y0077500D02*
X0170650Y0073150D01*
X0170000Y0072500D01*
X0170650Y0077500D02*
X0170650Y0081978D01*
X0168878Y0083750D01*
X0140000Y0083150D02*
X0140000Y0091250D01*
X0139350Y0091250D01*
X0139400Y0091250D01*
X0140000Y0091250D02*
X0140000Y0097500D01*
X0140000Y0105600D01*
X0139350Y0106250D01*
X0139350Y0113100D01*
X0145000Y0118750D01*
X0123750Y0091250D02*
X0077500Y0091250D01*
X0075000Y0088750D01*
X0075000Y0083878D01*
X0075000Y0088750D02*
X0072500Y0091250D01*
X0026250Y0091250D01*
X0023750Y0088750D01*
X0023750Y0083878D01*
X0023750Y0077500D01*
X0033750Y0067500D01*
X0033750Y0027500D01*
X0036250Y0025000D01*
X0036250Y0010000D01*
X0040000Y0006250D01*
X0048750Y0006250D01*
X0048750Y0026250D01*
X0045000Y0030000D01*
X0045000Y0040689D01*
X0045089Y0040778D01*
X0058839Y0040748D02*
X0058839Y0029911D01*
X0062500Y0026250D01*
X0062500Y0006250D01*
X0048750Y0006250D01*
X0062500Y0006250D02*
X0076250Y0006250D01*
X0076250Y0026250D01*
X0072589Y0029911D01*
X0072589Y0040719D01*
X0086339Y0040689D02*
X0086339Y0029911D01*
X0090000Y0026250D01*
X0090000Y0006250D01*
X0076250Y0006250D01*
X0090000Y0006250D02*
X0103750Y0006250D01*
X0113750Y0006250D01*
X0117500Y0010000D01*
X0117500Y0026250D01*
X0113750Y0030000D01*
X0113750Y0040541D01*
X0113839Y0040630D01*
X0100089Y0029911D02*
X0103750Y0026250D01*
X0103750Y0006250D01*
X0100089Y0029911D02*
X0100089Y0040659D01*
X0056250Y0135128D02*
X0056250Y0139350D01*
X0063750Y0139350D01*
X0064350Y0138750D01*
X0070000Y0138750D01*
X0065000Y0185650D02*
X0050000Y0185650D01*
X0035000Y0185650D01*
X0065000Y0185650D02*
X0086250Y0185650D01*
X0101250Y0185650D01*
X0116250Y0185650D01*
X0120600Y0185650D01*
X0122500Y0183750D01*
X0153150Y0188927D02*
X0153327Y0188750D01*
X0153150Y0188927D02*
X0153150Y0195000D01*
X0153150Y0203750D01*
D27*
X0147500Y0204400D02*
X0146850Y0203750D01*
X0147500Y0204400D02*
X0147500Y0228750D01*
X0141998Y0234252D01*
X0135039Y0234252D01*
X0114370Y0234252D02*
X0114370Y0205030D01*
X0114400Y0205000D01*
X0108100Y0205000D02*
X0108100Y0200600D01*
X0097500Y0190000D01*
X0020000Y0190000D01*
X0015000Y0185000D01*
X0015000Y0142500D01*
X0017500Y0140000D01*
X0012500Y0138750D02*
X0017500Y0133750D01*
X0020000Y0128750D02*
X0018750Y0127500D01*
X0018750Y0124400D01*
X0020000Y0128750D02*
X0023750Y0128750D01*
X0026250Y0131250D01*
X0026250Y0135128D01*
X0031250Y0135128D02*
X0031250Y0131250D01*
X0026250Y0126250D01*
X0026250Y0124400D01*
X0026250Y0118100D02*
X0026250Y0115000D01*
X0028750Y0112500D01*
X0028750Y0106122D01*
X0033750Y0106122D01*
X0038750Y0106122D01*
X0043750Y0106122D02*
X0048750Y0106122D01*
X0053750Y0106122D02*
X0058750Y0106122D01*
X0058750Y0112500D01*
X0056250Y0115000D01*
X0056250Y0118100D01*
X0048750Y0118100D01*
X0048750Y0124400D02*
X0048750Y0127500D01*
X0046250Y0130000D01*
X0046250Y0135128D01*
X0051250Y0135128D02*
X0051250Y0131250D01*
X0056250Y0126250D01*
X0056250Y0124400D01*
X0051250Y0135128D02*
X0051250Y0157372D01*
X0046250Y0157372D02*
X0046250Y0164350D01*
X0050000Y0164350D01*
X0046250Y0164350D02*
X0042500Y0164350D01*
X0036250Y0164350D02*
X0036250Y0157372D01*
X0031250Y0157372D02*
X0031250Y0135128D01*
X0036250Y0135128D02*
X0036250Y0130000D01*
X0033750Y0127500D01*
X0033750Y0124400D01*
X0033750Y0118100D02*
X0041250Y0118100D01*
X0041250Y0115000D01*
X0043750Y0112500D01*
X0043750Y0106122D01*
X0041250Y0124400D02*
X0041250Y0135128D01*
X0041250Y0157372D01*
X0036250Y0164350D02*
X0035000Y0164350D01*
X0027500Y0164350D01*
X0035000Y0170650D02*
X0035000Y0175000D01*
X0035000Y0179350D01*
X0050000Y0179350D02*
X0050000Y0175000D01*
X0050000Y0170650D01*
X0056250Y0164350D02*
X0057500Y0164350D01*
X0065000Y0164350D01*
X0065000Y0170650D02*
X0065000Y0175000D01*
X0065000Y0179350D01*
X0056250Y0164350D02*
X0056250Y0157372D01*
X0077500Y0135128D02*
X0077500Y0131250D01*
X0075000Y0128750D01*
X0071250Y0128750D01*
X0070000Y0127500D01*
X0070000Y0124400D01*
X0070000Y0118100D02*
X0077500Y0118100D01*
X0077500Y0115000D01*
X0080000Y0112500D01*
X0080000Y0106122D01*
X0085000Y0106122D01*
X0090000Y0106122D02*
X0090000Y0112500D01*
X0092500Y0115000D01*
X0092500Y0118100D01*
X0085000Y0118100D01*
X0085000Y0124400D02*
X0085000Y0127500D01*
X0087500Y0130000D01*
X0087500Y0135128D01*
X0082500Y0135128D02*
X0082500Y0131250D01*
X0077500Y0126250D01*
X0077500Y0124400D01*
X0082500Y0135128D02*
X0082500Y0157372D01*
X0087500Y0157372D02*
X0087500Y0163100D01*
X0086250Y0164350D01*
X0078750Y0164350D01*
X0086250Y0170650D02*
X0086250Y0175000D01*
X0086250Y0179350D01*
X0085000Y0192500D02*
X0018750Y0192500D01*
X0012500Y0186250D01*
X0012500Y0138750D01*
X0010000Y0133750D02*
X0012500Y0131250D01*
X0010000Y0133750D02*
X0010000Y0187500D01*
X0017500Y0195000D01*
X0073750Y0195000D01*
X0079350Y0200600D01*
X0079350Y0205000D01*
X0085650Y0205000D02*
X0086811Y0206161D01*
X0086811Y0234252D01*
X0100591Y0234252D02*
X0100591Y0206191D01*
X0099400Y0205000D01*
X0093100Y0205000D02*
X0093100Y0200600D01*
X0085000Y0192500D01*
X0071900Y0205000D02*
X0072972Y0206073D01*
X0072972Y0234252D01*
X0059252Y0234252D02*
X0059252Y0206102D01*
X0058150Y0205000D01*
X0051850Y0205000D02*
X0051850Y0201850D01*
X0050000Y0200000D01*
X0015000Y0200000D01*
X0005000Y0190000D01*
X0005000Y0125000D01*
X0007500Y0122500D01*
X0012500Y0125000D02*
X0007500Y0130000D01*
X0007500Y0188750D01*
X0016250Y0197500D01*
X0062500Y0197500D01*
X0065600Y0200600D01*
X0065600Y0205000D01*
X0045531Y0206132D02*
X0044400Y0205000D01*
X0045531Y0206132D02*
X0045531Y0234252D01*
X0038100Y0205000D02*
X0038100Y0204350D01*
X0037500Y0203750D01*
X0015000Y0203750D01*
X0002500Y0191250D01*
X0002500Y0121250D01*
X0006250Y0117500D01*
X0018150Y0117500D01*
X0018750Y0118100D01*
X0026250Y0118100D01*
X0045650Y0055000D02*
X0045089Y0054439D01*
X0045089Y0047077D01*
X0058839Y0047047D02*
X0058839Y0054439D01*
X0059400Y0055000D01*
X0072589Y0054439D02*
X0072589Y0047018D01*
X0072589Y0054439D02*
X0073150Y0055000D01*
X0086339Y0054439D02*
X0086339Y0046988D01*
X0086339Y0054439D02*
X0086900Y0055000D01*
X0100089Y0054439D02*
X0100089Y0046959D01*
X0100089Y0054439D02*
X0100650Y0055000D01*
X0113839Y0054439D02*
X0113839Y0046929D01*
X0113839Y0054439D02*
X0114400Y0055000D01*
X0122116Y0055187D02*
X0122116Y0050384D01*
X0127500Y0045000D01*
X0127500Y0042136D01*
X0128297Y0041339D01*
X0135866Y0050384D02*
X0141250Y0045000D01*
X0141250Y0042106D01*
X0142018Y0041339D01*
X0135866Y0050384D02*
X0135866Y0055187D01*
X0133750Y0060000D02*
X0141250Y0067500D01*
X0135000Y0073750D01*
X0135000Y0113750D01*
X0143750Y0122500D01*
X0168750Y0122500D01*
X0170000Y0123750D01*
X0170000Y0128878D01*
X0165000Y0128878D02*
X0165000Y0126250D01*
X0143750Y0126250D01*
X0132500Y0115000D01*
X0132500Y0070000D01*
X0135000Y0067500D01*
X0141250Y0067500D02*
X0173750Y0067500D01*
X0175000Y0068750D01*
X0175000Y0092500D01*
X0173750Y0093750D01*
X0168878Y0093750D01*
X0168878Y0098750D02*
X0160650Y0098750D01*
X0160650Y0091250D01*
X0166250Y0088750D02*
X0161250Y0083750D01*
X0156900Y0083750D01*
X0156900Y0076250D01*
X0150600Y0076250D02*
X0145000Y0076250D01*
X0140600Y0076250D01*
X0140000Y0076850D01*
X0145650Y0091250D02*
X0150000Y0091250D01*
X0154350Y0091250D01*
X0166250Y0088750D02*
X0168878Y0088750D01*
X0182500Y0095000D02*
X0182500Y0062500D01*
X0180000Y0060000D01*
X0171250Y0060000D01*
X0170000Y0058750D01*
X0170000Y0055600D01*
X0169400Y0055000D01*
X0163100Y0055000D02*
X0163100Y0050650D01*
X0168750Y0045000D01*
X0168750Y0042047D01*
X0169459Y0041339D01*
X0176850Y0050650D02*
X0182500Y0045000D01*
X0182500Y0042018D01*
X0183179Y0041339D01*
X0183150Y0041368D01*
X0176850Y0050650D02*
X0176850Y0055000D01*
X0183150Y0055000D02*
X0183750Y0055600D01*
X0183750Y0058750D01*
X0185000Y0060000D01*
X0185000Y0068750D01*
X0197500Y0068750D01*
X0197500Y0062500D02*
X0193750Y0062500D01*
X0191250Y0060000D01*
X0191250Y0055650D01*
X0190600Y0055000D01*
X0196900Y0055000D02*
X0196900Y0041339D01*
X0197500Y0062500D02*
X0205000Y0070000D01*
X0223750Y0070000D01*
X0227500Y0073750D01*
X0227500Y0116250D01*
X0220000Y0123750D01*
X0185000Y0123750D01*
X0185000Y0128878D01*
X0180000Y0128878D02*
X0180000Y0129587D01*
X0180000Y0128878D02*
X0180000Y0111250D01*
X0182500Y0108750D01*
X0182500Y0102500D01*
X0186250Y0098750D01*
X0182500Y0095000D01*
X0186250Y0098750D02*
X0191122Y0098750D01*
X0191122Y0093750D02*
X0195000Y0093750D01*
X0197500Y0091250D01*
X0199350Y0091250D01*
X0199350Y0098750D01*
X0195000Y0103750D02*
X0197500Y0106250D01*
X0199350Y0106250D01*
X0199400Y0106250D01*
X0199350Y0106250D02*
X0199350Y0113750D01*
X0205650Y0106250D02*
X0210000Y0106250D01*
X0214350Y0106250D01*
X0214350Y0091250D02*
X0210000Y0091250D01*
X0205650Y0091250D01*
X0199350Y0083750D02*
X0191122Y0083750D01*
X0191122Y0088750D02*
X0187500Y0088750D01*
X0185000Y0086250D01*
X0185000Y0068750D01*
X0180000Y0066250D02*
X0176250Y0062500D01*
X0158750Y0062500D01*
X0156250Y0060000D01*
X0156250Y0057500D01*
X0156250Y0055600D01*
X0155650Y0055000D01*
X0149350Y0055000D02*
X0149350Y0050650D01*
X0155000Y0045000D01*
X0155000Y0042077D01*
X0155738Y0041339D01*
X0142165Y0055187D02*
X0142500Y0055522D01*
X0142500Y0062500D01*
X0155000Y0062500D01*
X0157500Y0065000D01*
X0175000Y0065000D01*
X0177500Y0067500D01*
X0177500Y0101250D01*
X0175000Y0103750D01*
X0168878Y0103750D01*
X0168878Y0108750D02*
X0160650Y0108750D01*
X0160650Y0113750D01*
X0160650Y0108750D02*
X0160650Y0106250D01*
X0154350Y0106250D02*
X0150000Y0106250D01*
X0145650Y0106250D01*
X0130000Y0116250D02*
X0137500Y0123750D01*
X0137500Y0159350D01*
X0136850Y0160000D01*
X0136850Y0167441D01*
X0136791Y0167500D01*
X0137500Y0168209D01*
X0137500Y0182500D01*
X0136250Y0183750D01*
X0131673Y0183750D01*
X0131673Y0178750D02*
X0127500Y0178750D01*
X0126250Y0177500D01*
X0126250Y0157500D01*
X0135000Y0148750D01*
X0135000Y0125000D01*
X0127500Y0117500D01*
X0127500Y0102500D01*
X0125000Y0100000D01*
X0106250Y0100000D01*
X0105000Y0101250D01*
X0105000Y0106122D01*
X0100000Y0106122D01*
X0095000Y0106122D02*
X0090000Y0106122D01*
X0100000Y0113750D02*
X0100000Y0118100D01*
X0107500Y0118100D01*
X0107500Y0115000D01*
X0110000Y0112500D01*
X0118750Y0112500D01*
X0121250Y0115000D01*
X0121250Y0122500D01*
X0127500Y0128750D01*
X0132500Y0126250D02*
X0132500Y0143750D01*
X0128750Y0147500D01*
X0116250Y0164350D02*
X0108750Y0164350D01*
X0107500Y0163100D01*
X0107500Y0157372D01*
X0102500Y0157372D02*
X0102500Y0135128D01*
X0102500Y0131250D01*
X0107500Y0126250D01*
X0107500Y0124400D01*
X0100000Y0124400D02*
X0100000Y0127500D01*
X0097500Y0130000D01*
X0097500Y0135128D01*
X0092500Y0135128D02*
X0092500Y0124400D01*
X0092500Y0135128D02*
X0092500Y0157372D01*
X0097500Y0157372D02*
X0097500Y0164350D01*
X0101250Y0164350D01*
X0097500Y0164350D02*
X0093750Y0164350D01*
X0101250Y0170650D02*
X0101250Y0175000D01*
X0101250Y0179350D01*
X0116250Y0179350D02*
X0116250Y0175000D01*
X0116250Y0170650D01*
X0126250Y0180000D02*
X0127500Y0178750D01*
X0126250Y0180000D02*
X0126250Y0192500D01*
X0128750Y0195000D01*
X0133100Y0195000D01*
X0153327Y0178750D02*
X0161014Y0178750D01*
X0161014Y0175285D01*
X0160965Y0175236D01*
X0160965Y0168435D01*
X0161900Y0167500D01*
X0155600Y0167500D02*
X0148209Y0167500D01*
X0151250Y0157500D02*
X0147500Y0153750D01*
X0151250Y0157500D02*
X0183750Y0157500D01*
X0185000Y0156250D01*
X0185000Y0151122D01*
X0180000Y0151122D02*
X0180000Y0146250D01*
X0181250Y0145000D01*
X0188750Y0145000D01*
X0190000Y0146250D01*
X0190000Y0151122D01*
X0195000Y0151122D02*
X0195000Y0145000D01*
X0202500Y0137500D01*
X0210000Y0137500D01*
X0230000Y0117500D01*
X0230000Y0071250D01*
X0223750Y0065000D01*
X0206250Y0065000D01*
X0205650Y0076250D02*
X0210000Y0076250D01*
X0214350Y0076250D01*
X0199350Y0076250D02*
X0199350Y0083750D01*
X0195000Y0103750D02*
X0191122Y0103750D01*
X0191122Y0108750D02*
X0186250Y0108750D01*
X0185000Y0110000D01*
X0185000Y0123750D01*
X0190000Y0128878D02*
X0190000Y0135000D01*
X0183750Y0141250D01*
X0180000Y0141250D01*
X0175000Y0146250D01*
X0175000Y0151122D01*
X0170000Y0151122D02*
X0170000Y0141250D01*
X0163750Y0135000D01*
X0148750Y0135000D01*
X0145000Y0131250D01*
X0132500Y0126250D02*
X0125000Y0118750D01*
X0125000Y0108750D01*
X0122500Y0106250D01*
X0110000Y0106250D01*
X0110000Y0106122D01*
X0110000Y0083878D02*
X0125128Y0083878D01*
X0130000Y0088750D01*
X0130000Y0116250D01*
X0168878Y0113750D02*
X0173750Y0113750D01*
X0175000Y0115000D01*
X0175000Y0128878D01*
X0173750Y0113750D02*
X0180000Y0107500D01*
X0180000Y0066250D01*
X0133750Y0060000D02*
X0130000Y0060000D01*
X0128415Y0058415D01*
X0128415Y0055187D01*
X0161014Y0178750D02*
X0161014Y0183465D01*
X0178750Y0185000D02*
X0178750Y0181339D01*
X0180089Y0180000D01*
X0193150Y0195000D02*
X0191250Y0196900D01*
X0191250Y0202589D01*
X0200600Y0203750D02*
X0200600Y0211250D01*
X0200600Y0215650D01*
X0196250Y0220000D01*
X0193839Y0220000D01*
X0193750Y0219911D01*
X0191250Y0219911D02*
X0191250Y0225600D01*
X0195000Y0229350D01*
X0188750Y0228100D02*
X0188750Y0219911D01*
X0188750Y0228100D02*
X0187500Y0229350D01*
X0187500Y0230000D01*
X0180079Y0230000D01*
X0180000Y0229921D01*
X0186929Y0229921D02*
X0187500Y0229350D01*
X0170650Y0218750D02*
X0168750Y0218750D01*
X0200600Y0196250D02*
X0200600Y0183189D01*
X0197411Y0180000D01*
X0206900Y0196250D02*
X0206900Y0203750D01*
D28*
X0188750Y0202589D02*
X0188750Y0196900D01*
X0186850Y0195000D01*
D29*
X0186850Y0193100D01*
X0178750Y0185000D01*
D30*
X0125000Y0260827D02*
X0125000Y0268750D01*
X0127500Y0271250D01*
X0150000Y0271250D01*
X0155000Y0271250D01*
X0156250Y0270000D01*
X0156250Y0266959D01*
X0105000Y0083878D02*
X0102500Y0083878D01*
X0102500Y0076250D01*
X0108100Y0070650D01*
X0108100Y0055000D01*
X0108100Y0028150D01*
X0111220Y0025030D01*
X0111220Y0014764D01*
X0097441Y0014764D02*
X0097441Y0025059D01*
X0094350Y0028150D01*
X0094350Y0055000D01*
X0094350Y0074400D01*
X0092500Y0076250D01*
X0092500Y0083878D01*
X0095000Y0083878D01*
X0092500Y0083878D02*
X0090000Y0083878D01*
X0085000Y0083878D02*
X0082500Y0083878D01*
X0082500Y0076250D01*
X0080600Y0074350D01*
X0080600Y0055000D01*
X0080600Y0028150D01*
X0083661Y0025089D01*
X0083661Y0014764D01*
X0069882Y0014764D02*
X0069882Y0025118D01*
X0066850Y0028150D01*
X0066850Y0055000D01*
X0066850Y0065650D01*
X0056250Y0076250D01*
X0056250Y0083878D01*
X0053750Y0083878D01*
X0056250Y0083878D02*
X0058750Y0083878D01*
X0048750Y0083878D02*
X0046250Y0083878D01*
X0046250Y0076250D01*
X0053100Y0069400D01*
X0053100Y0055000D01*
X0053100Y0028150D01*
X0056102Y0025148D01*
X0056102Y0014764D01*
X0042323Y0014764D02*
X0042323Y0025177D01*
X0039350Y0028150D01*
X0039350Y0055000D01*
X0039350Y0070650D01*
X0033750Y0076250D01*
X0033750Y0083878D01*
X0028750Y0083878D01*
X0033750Y0083878D02*
X0038750Y0083878D01*
X0043750Y0083878D02*
X0046250Y0083878D01*
X0080000Y0083878D02*
X0082500Y0083878D01*
X0100000Y0083878D02*
X0102500Y0083878D01*
M02*
