%
M48
M72
T01C0.0236
T02C0.0315
T03C0.0394
T04C0.1693
%
T01
X4000Y3250
X5250Y3250
X6625Y3250
X8000Y3250
X9375Y3250
X10750Y3250
X13500Y6750
X14250Y6250
X14500Y7625
X14625Y8375
X15000Y9125
X14750Y9875
X14000Y9750
X15000Y10625
X14750Y11375
X14500Y13125
X14750Y14125
X15250Y14375
X14750Y15375
X12875Y14750
X12125Y13875
X12750Y12875
X11625Y11750
X10000Y11375
X9000Y11250
X8000Y11250
X5875Y11250
X4375Y11250
X1750Y13375
X1250Y13125
X1250Y12500
X750Y12250
X1750Y14000
X2000Y15625
X3500Y17500
X4250Y17875
X5000Y17500
X5731Y17875
X6500Y17500
X7875Y17875
X8625Y17500
X9375Y17875
X10125Y17500
X10875Y17875
X11625Y17500
X11500Y15250
X7000Y13875
X6500Y15625
X2750Y17875
X12375Y9125
X16375Y7250
X17000Y7250
X19750Y6875
X20625Y6500
X21000Y7625
X21250Y8375
X21000Y9125
X21250Y9875
X21000Y10625
X21250Y11375
X20250Y13000
X19000Y11875
X19375Y11375
X17000Y11875
X21500Y14375
X20750Y18375
X21500Y19875
X22250Y19875
X17750Y19375
X16875Y19375
X14000Y20375
X17250Y23375
X16250Y24625
X15000Y26125
X15000Y27125
T02
X17311Y25625
X18689Y25625
X21500Y17064
X21500Y15686
T03
X13878Y26083
X12500Y26083
X11122Y26083
X9744Y26083
X8366Y26083
X6988Y26083
X5610Y26083
X4232Y26083
X4232Y1476
X5610Y1476
X6988Y1476
X8366Y1476
X9744Y1476
X11122Y1476
X12500Y1476
X13878Y1476
X15256Y1476
X16634Y1476
X18012Y1476
X19390Y1476
T04
X1575Y1575
X22047Y1575
X22047Y25984
X1575Y25984
M30
